<svg class="marks" width="1012.5" height="672" viewBox="0 0 675 448" version="1.1" xmlns="http://www.w3.org/2000/svg" xmlns:xlink="http://www.w3.org/1999/xlink"><g transform="translate(47,105)"><g class="mark-group role-frame root"><g transform="translate(0,0)"><path class="background" d="M0,0h500v300h-500Z" style="fill: none; stroke: #ddd; stroke-width: 0;"></path><g><g class="mark-group role-axis"><g transform="translate(0.5,0.5)"><path class="background" d="M0,0h0v0h0Z" style="pointer-events: none; fill: none;"></path><g><g class="mark-rule role-axis-grid" style="pointer-events: none;"><line transform="translate(0,300)" x2="500" y2="0" style="fill: none; stroke: #DEDDDD; stroke-width: 1; stroke-dasharray: 5,2; opacity: 1;"></line><line transform="translate(0,263)" x2="500" y2="0" style="fill: none; stroke: #DEDDDD; stroke-width: 1; stroke-dasharray: 5,2; opacity: 1;"></line><line transform="translate(0,225)" x2="500" y2="0" style="fill: none; stroke: #DEDDDD; stroke-width: 1; stroke-dasharray: 5,2; opacity: 1;"></line><line transform="translate(0,188)" x2="500" y2="0" style="fill: none; stroke: #DEDDDD; stroke-width: 1; stroke-dasharray: 5,2; opacity: 1;"></line><line transform="translate(0,150)" x2="500" y2="0" style="fill: none; stroke: #DEDDDD; stroke-width: 1; stroke-dasharray: 5,2; opacity: 1;"></line><line transform="translate(0,113)" x2="500" y2="0" style="fill: none; stroke: #DEDDDD; stroke-width: 1; stroke-dasharray: 5,2; opacity: 1;"></line><line transform="translate(0,75)" x2="500" y2="0" style="fill: none; stroke: #DEDDDD; stroke-width: 1; stroke-dasharray: 5,2; opacity: 1;"></line><line transform="translate(0,38)" x2="500" y2="0" style="fill: none; stroke: #DEDDDD; stroke-width: 1; stroke-dasharray: 5,2; opacity: 1;"></line><line transform="translate(0,0)" x2="500" y2="0" style="fill: none; stroke: #DEDDDD; stroke-width: 1; stroke-dasharray: 5,2; opacity: 1;"></line></g></g><path class="foreground" d="" style="pointer-events: none; display: none; fill: none;"></path></g></g><g class="mark-group role-scope pathgroup"><g transform="translate(0,0)"><path class="background" d="M0,0h500v300h-500Z" style="fill: none;"></path><g><g class="mark-line role-mark marks"><path style="fill: none; stroke: #a6cee3; stroke-width: 1;"></path></g></g><path class="foreground" d="" style="display: none; fill: none;"></path></g><g transform="translate(0,0)"><path class="background" d="M0,0h500v300h-500Z" style="fill: none;"></path><g><g class="mark-line role-mark marks"><path d="M0,299.8832573638112L12.5,299.85721477573827L25,299.8239880254384L37.5,299.7647186870656L50,299.567154225823L62.5,299.3983264134884L75,299.282481797578L87.5,299.06605891048946L100,298.9439281526304L112.5,298.6915844544069L125,298.28657730885953L137.5,298.1339138615357L150,296.69977547697L162.5,295.8825770236483L175,294.7959724868139L187.5,293.4695965356533L200,291.6870262830779L212.5,288.9301040284651L225,286.2423293352872L237.5,282.17609351480286L250,280.0522755564448L262.5,277.6635416159659L275,273.90712279152115L287.5,270.3779030975054L300,266.4831891501908L312.5,260.54278500873687L325,254.31681041875945L337.5,248.18872003912495" style="fill: none; stroke: #1f78b4; stroke-width: 1;"></path></g></g><path class="foreground" d="" style="display: none; fill: none;"></path></g><g transform="translate(0,0)"><path class="background" d="M0,0h500v300h-500Z" style="fill: none;"></path><g><g class="mark-line role-mark marks"><path style="fill: none; stroke: #b2df8a; stroke-width: 1;"></path></g></g><path class="foreground" d="" style="display: none; fill: none;"></path></g><g transform="translate(0,0)"><path class="background" d="M0,0h500v300h-500Z" style="fill: none;"></path><g><g class="mark-line role-mark marks"><path style="fill: none; stroke: #33a02c; stroke-width: 1;"></path></g></g><path class="foreground" d="" style="display: none; fill: none;"></path></g><g transform="translate(0,0)"><path class="background" d="M0,0h500v300h-500Z" style="fill: none;"></path><g><g class="mark-line role-mark marks"><path d="M0,299.51858040015424L12.5,299.3380480502121L25,299.1093737402854L37.5,298.96093603033296L50,298.3952680005142L62.5,297.9940850006427L75,297.30003841086517L87.5,295.69530641137936L100,293.19994815217893L112.5,290.8650630929271L125,290.8650630929271L137.5,279.01010544672573L150,274.3603944782156L162.5,268.7157496700243L175,260.1143861527804L187.5,252.86902117510203L200,244.19544471788126L212.5,227.93549773309138L225,218.118549726237L237.5,198.2038256126182L250,184.58767459698117L262.5,159.04034116516726L275,139.98816050127206L287.5,101.3542376136514L300,68.17239169428375L312.5,36.34654431448159L325,6.1936300441433945" style="fill: none; stroke: #fb9a99; stroke-width: 1;"></path></g></g><path class="foreground" d="" style="display: none; fill: none;"></path></g><g transform="translate(0,0)"><path class="background" d="M0,0h500v300h-500Z" style="fill: none;"></path><g><g class="mark-line role-mark marks"><path style="fill: none; stroke: #e31a1c; stroke-width: 1;"></path></g></g><path class="foreground" d="" style="display: none; fill: none;"></path></g><g transform="translate(0,0)"><path class="background" d="M0,0h500v300h-500Z" style="fill: none;"></path><g><g class="mark-line role-mark marks"><path d="M0,298.92640581457425L12.5,298.48215994474293L25,298.0841896863523L37.5,297.4640964930461L50,297.0198506232148L62.5,296.44603304134927L75,295.75189886973783L87.5,295.75189886973783L100,292.57739192490135L112.5,289.4121401023531L125,289.4028849800649L137.5,285.64530533107484L150,281.8599603152203L162.5,275.5479669147L175,274.86308786537666L187.5,262.8499391353542L200,253.10429536592918L212.5,246.82932245456152L225,237.75004748988349L237.5,224.44118163951958L250,210.78062114220592L262.5,190.67849553233773L275,163.53322186118524L287.5,139.7753229474967" style="fill: none; stroke: #fdbf6f; stroke-width: 1;"></path></g></g><path class="foreground" d="" style="display: none; fill: none;"></path></g></g><g class="mark-group role-legend"><g transform="translate(518,0)"><path class="background" d="M0,0h105v96h-105Z" style="pointer-events: none; fill: none;"></path><g><g class="mark-group role-legend-entry"><g transform="translate(0,0)"><path class="background" d="M0,0h0v0h0Z" style="pointer-events: none; fill: none;"></path><g><g class="mark-group role-scope"><g transform="translate(0,0)"><path class="background" d="M0,0h104.22390747070312v12h-104.22390747070312Z" style="pointer-events: none; fill: none; opacity: 1;"></path><g><g class="mark-symbol role-legend-symbol" style="pointer-events: none;"><path transform="translate(6,6)" d="M3.5355339059327378,0A3.5355339059327378,3.5355339059327378,0,1,1,-3.5355339059327378,0A3.5355339059327378,3.5355339059327378,0,1,1,3.5355339059327378,0" style="fill: none; stroke: #a6cee3; stroke-width: 1; opacity: 1;"></path></g><g class="mark-text role-legend-label" style="pointer-events: none;"><text text-anchor="start" transform="translate(16,10)" style="font-family: Avenir; font-size: 12px; fill: #000; opacity: 1;">France</text></g></g><path class="foreground" d="" style="pointer-events: none; display: none; fill: none;"></path></g><g transform="translate(0,14)"><path class="background" d="M0,0h104.22390747070312v12h-104.22390747070312Z" style="pointer-events: none; fill: none; opacity: 1;"></path><g><g class="mark-symbol role-legend-symbol" style="pointer-events: none;"><path transform="translate(6,6)" d="M3.5355339059327378,0A3.5355339059327378,3.5355339059327378,0,1,1,-3.5355339059327378,0A3.5355339059327378,3.5355339059327378,0,1,1,3.5355339059327378,0" style="fill: none; stroke: #1f78b4; stroke-width: 1; opacity: 1;"></path></g><g class="mark-text role-legend-label" style="pointer-events: none;"><text text-anchor="start" transform="translate(16,10)" style="font-family: Avenir; font-size: 12px; fill: #000; opacity: 1;">Germany</text></g></g><path class="foreground" d="" style="pointer-events: none; display: none; fill: none;"></path></g><g transform="translate(0,28)"><path class="background" d="M0,0h104.22390747070312v12h-104.22390747070312Z" style="pointer-events: none; fill: none; opacity: 1;"></path><g><g class="mark-symbol role-legend-symbol" style="pointer-events: none;"><path transform="translate(6,6)" d="M3.5355339059327378,0A3.5355339059327378,3.5355339059327378,0,1,1,-3.5355339059327378,0A3.5355339059327378,3.5355339059327378,0,1,1,3.5355339059327378,0" style="fill: none; stroke: #b2df8a; stroke-width: 1; opacity: 1;"></path></g><g class="mark-text role-legend-label" style="pointer-events: none;"><text text-anchor="start" transform="translate(16,10)" style="font-family: Avenir; font-size: 12px; fill: #000; opacity: 1;">Italy</text></g></g><path class="foreground" d="" style="pointer-events: none; display: none; fill: none;"></path></g><g transform="translate(0,42)"><path class="background" d="M0,0h104.22390747070312v12h-104.22390747070312Z" style="pointer-events: none; fill: none; opacity: 1;"></path><g><g class="mark-symbol role-legend-symbol" style="pointer-events: none;"><path transform="translate(6,6)" d="M3.5355339059327378,0A3.5355339059327378,3.5355339059327378,0,1,1,-3.5355339059327378,0A3.5355339059327378,3.5355339059327378,0,1,1,3.5355339059327378,0" style="fill: none; stroke: #33a02c; stroke-width: 1; opacity: 1;"></path></g><g class="mark-text role-legend-label" style="pointer-events: none;"><text text-anchor="start" transform="translate(16,10)" style="font-family: Avenir; font-size: 12px; fill: #000; opacity: 1;">Korea, South</text></g></g><path class="foreground" d="" style="pointer-events: none; display: none; fill: none;"></path></g><g transform="translate(0,56)"><path class="background" d="M0,0h104.22390747070312v12h-104.22390747070312Z" style="pointer-events: none; fill: none; opacity: 1;"></path><g><g class="mark-symbol role-legend-symbol" style="pointer-events: none;"><path transform="translate(6,6)" d="M3.5355339059327378,0A3.5355339059327378,3.5355339059327378,0,1,1,-3.5355339059327378,0A3.5355339059327378,3.5355339059327378,0,1,1,3.5355339059327378,0" style="fill: none; stroke: #fb9a99; stroke-width: 1; opacity: 1;"></path></g><g class="mark-text role-legend-label" style="pointer-events: none;"><text text-anchor="start" transform="translate(16,10)" style="font-family: Avenir; font-size: 12px; fill: #000; opacity: 1;">Spain</text></g></g><path class="foreground" d="" style="pointer-events: none; display: none; fill: none;"></path></g><g transform="translate(0,70)"><path class="background" d="M0,0h104.22390747070312v12h-104.22390747070312Z" style="pointer-events: none; fill: none; opacity: 1;"></path><g><g class="mark-symbol role-legend-symbol" style="pointer-events: none;"><path transform="translate(6,6)" d="M3.5355339059327378,0A3.5355339059327378,3.5355339059327378,0,1,1,-3.5355339059327378,0A3.5355339059327378,3.5355339059327378,0,1,1,3.5355339059327378,0" style="fill: none; stroke: #e31a1c; stroke-width: 1; opacity: 1;"></path></g><g class="mark-text role-legend-label" style="pointer-events: none;"><text text-anchor="start" transform="translate(16,10)" style="font-family: Avenir; font-size: 12px; fill: #000; opacity: 1;">US</text></g></g><path class="foreground" d="" style="pointer-events: none; display: none; fill: none;"></path></g><g transform="translate(0,84)"><path class="background" d="M0,0h104.22390747070312v12h-104.22390747070312Z" style="pointer-events: none; fill: none; opacity: 1;"></path><g><g class="mark-symbol role-legend-symbol" style="pointer-events: none;"><path transform="translate(6,6)" d="M3.5355339059327378,0A3.5355339059327378,3.5355339059327378,0,1,1,-3.5355339059327378,0A3.5355339059327378,3.5355339059327378,0,1,1,3.5355339059327378,0" style="fill: none; stroke: #fdbf6f; stroke-width: 1; opacity: 1;"></path></g><g class="mark-text role-legend-label" style="pointer-events: none;"><text text-anchor="start" transform="translate(16,10)" style="font-family: Avenir; font-size: 12px; fill: #000; opacity: 1;">United Kingdom</text></g></g><path class="foreground" d="" style="pointer-events: none; display: none; fill: none;"></path></g></g></g><path class="foreground" d="" style="pointer-events: none; display: none; fill: none;"></path></g></g></g><path class="foreground" d="" style="pointer-events: none; display: none; fill: none;"></path></g></g><g class="mark-group role-title"><g transform="translate(-41.1199951171875,-55)"><path class="background" d="M0,0h0v0h0Z" style="pointer-events: none; fill: none;"></path><g><g class="mark-text role-title-text" style="pointer-events: none;"><text text-anchor="start" transform="translate(0,16)" style="font-family: Avenir; font-size: 20px; font-weight: 300; fill: #4d4d4d; opacity: 1;">Development of confirmed COVID-19 cases per ICU</text></g></g><path class="foreground" d="" style="pointer-events: none; display: none; fill: none;"></path></g></g><g class="mark-group role-axis"><g transform="translate(0.5,300.5)"><path class="background" d="M0,0h0v0h0Z" style="pointer-events: none; fill: none;"></path><g><g class="mark-rule role-axis-tick" style="pointer-events: none;"><line transform="translate(0,0)" x2="0" y2="5" style="fill: none; stroke: #DEDDDD; stroke-width: 1; opacity: 1;"></line><line transform="translate(25,0)" x2="0" y2="5" style="fill: none; stroke: #DEDDDD; stroke-width: 1; opacity: 1;"></line><line transform="translate(50,0)" x2="0" y2="5" style="fill: none; stroke: #DEDDDD; stroke-width: 1; opacity: 1;"></line><line transform="translate(75,0)" x2="0" y2="5" style="fill: none; stroke: #DEDDDD; stroke-width: 1; opacity: 1;"></line><line transform="translate(100,0)" x2="0" y2="5" style="fill: none; stroke: #DEDDDD; stroke-width: 1; opacity: 1;"></line><line transform="translate(125,0)" x2="0" y2="5" style="fill: none; stroke: #DEDDDD; stroke-width: 1; opacity: 1;"></line><line transform="translate(150,0)" x2="0" y2="5" style="fill: none; stroke: #DEDDDD; stroke-width: 1; opacity: 1;"></line><line transform="translate(175,0)" x2="0" y2="5" style="fill: none; stroke: #DEDDDD; stroke-width: 1; opacity: 1;"></line><line transform="translate(200,0)" x2="0" y2="5" style="fill: none; stroke: #DEDDDD; stroke-width: 1; opacity: 1;"></line><line transform="translate(225,0)" x2="0" y2="5" style="fill: none; stroke: #DEDDDD; stroke-width: 1; opacity: 1;"></line><line transform="translate(250,0)" x2="0" y2="5" style="fill: none; stroke: #DEDDDD; stroke-width: 1; opacity: 1;"></line><line transform="translate(275,0)" x2="0" y2="5" style="fill: none; stroke: #DEDDDD; stroke-width: 1; opacity: 1;"></line><line transform="translate(300,0)" x2="0" y2="5" style="fill: none; stroke: #DEDDDD; stroke-width: 1; opacity: 1;"></line><line transform="translate(325,0)" x2="0" y2="5" style="fill: none; stroke: #DEDDDD; stroke-width: 1; opacity: 1;"></line><line transform="translate(350,0)" x2="0" y2="5" style="fill: none; stroke: #DEDDDD; stroke-width: 1; opacity: 1;"></line><line transform="translate(375,0)" x2="0" y2="5" style="fill: none; stroke: #DEDDDD; stroke-width: 1; opacity: 1;"></line><line transform="translate(400,0)" x2="0" y2="5" style="fill: none; stroke: #DEDDDD; stroke-width: 1; opacity: 1;"></line><line transform="translate(425,0)" x2="0" y2="5" style="fill: none; stroke: #DEDDDD; stroke-width: 1; opacity: 1;"></line><line transform="translate(450,0)" x2="0" y2="5" style="fill: none; stroke: #DEDDDD; stroke-width: 1; opacity: 1;"></line><line transform="translate(475,0)" x2="0" y2="5" style="fill: none; stroke: #DEDDDD; stroke-width: 1; opacity: 1;"></line><line transform="translate(500,0)" x2="0" y2="5" style="fill: none; stroke: #DEDDDD; stroke-width: 1; opacity: 1;"></line></g><g class="mark-text role-axis-label" style="pointer-events: none;"><text text-anchor="middle" transform="translate(0,15)" style="font-family: Avenir; font-size: 10px; fill: #000; opacity: 1;">0</text><text text-anchor="middle" transform="translate(25,15)" style="font-family: Avenir; font-size: 10px; fill: #000; opacity: 1;">2</text><text text-anchor="middle" transform="translate(50,15)" style="font-family: Avenir; font-size: 10px; fill: #000; opacity: 1;">4</text><text text-anchor="middle" transform="translate(75,15)" style="font-family: Avenir; font-size: 10px; fill: #000; opacity: 1;">6</text><text text-anchor="middle" transform="translate(100,15)" style="font-family: Avenir; font-size: 10px; fill: #000; opacity: 1;">8</text><text text-anchor="middle" transform="translate(125,15)" style="font-family: Avenir; font-size: 10px; fill: #000; opacity: 1;">10</text><text text-anchor="middle" transform="translate(150,15)" style="font-family: Avenir; font-size: 10px; fill: #000; opacity: 1;">12</text><text text-anchor="middle" transform="translate(175,15)" style="font-family: Avenir; font-size: 10px; fill: #000; opacity: 1;">14</text><text text-anchor="middle" transform="translate(200,15)" style="font-family: Avenir; font-size: 10px; fill: #000; opacity: 1;">16</text><text text-anchor="middle" transform="translate(225,15)" style="font-family: Avenir; font-size: 10px; fill: #000; opacity: 1;">18</text><text text-anchor="middle" transform="translate(250,15)" style="font-family: Avenir; font-size: 10px; fill: #000; opacity: 1;">20</text><text text-anchor="middle" transform="translate(275,15)" style="font-family: Avenir; font-size: 10px; fill: #000; opacity: 1;">22</text><text text-anchor="middle" transform="translate(300,15)" style="font-family: Avenir; font-size: 10px; fill: #000; opacity: 1;">24</text><text text-anchor="middle" transform="translate(325,15)" style="font-family: Avenir; font-size: 10px; fill: #000; opacity: 1;">26</text><text text-anchor="middle" transform="translate(350,15)" style="font-family: Avenir; font-size: 10px; fill: #000; opacity: 1;">28</text><text text-anchor="middle" transform="translate(375,15)" style="font-family: Avenir; font-size: 10px; fill: #000; opacity: 1;">30</text><text text-anchor="middle" transform="translate(400,15)" style="font-family: Avenir; font-size: 10px; fill: #000; opacity: 1;">32</text><text text-anchor="middle" transform="translate(425,15)" style="font-family: Avenir; font-size: 10px; fill: #000; opacity: 1;">34</text><text text-anchor="middle" transform="translate(450,15)" style="font-family: Avenir; font-size: 10px; fill: #000; opacity: 1;">36</text><text text-anchor="middle" transform="translate(475,15)" style="font-family: Avenir; font-size: 10px; fill: #000; opacity: 1;">38</text><text text-anchor="middle" transform="translate(500,15)" style="font-family: Avenir; font-size: 10px; fill: #000; opacity: 1;">40</text></g><g class="mark-rule role-axis-domain" style="pointer-events: none;"><line transform="translate(0,0)" x2="500" y2="0" style="fill: none; stroke: #DEDDDD; stroke-width: 1; stroke-dashoffset: 10; opacity: 1;"></line></g><g class="mark-text role-axis-title" style="pointer-events: none;"><text text-anchor="middle" transform="translate(250,36)" style="font-family: Avenir; font-size: 12px; font-weight: 400; fill: #000; opacity: 1;">Days since 100th case</text></g></g><path class="foreground" d="" style="pointer-events: none; display: none; fill: none;"></path></g></g><g class="mark-group role-axis"><g transform="translate(0.5,0.5)"><path class="background" d="M0,0h0v0h0Z" style="pointer-events: none; fill: none;"></path><g><g class="mark-rule role-axis-tick" style="pointer-events: none;"><line transform="translate(0,300)" x2="-5" y2="0" style="fill: none; stroke: #888; stroke-width: 1; opacity: 1;"></line><line transform="translate(0,263)" x2="-5" y2="0" style="fill: none; stroke: #888; stroke-width: 1; opacity: 1;"></line><line transform="translate(0,225)" x2="-5" y2="0" style="fill: none; stroke: #888; stroke-width: 1; opacity: 1;"></line><line transform="translate(0,188)" x2="-5" y2="0" style="fill: none; stroke: #888; stroke-width: 1; opacity: 1;"></line><line transform="translate(0,150)" x2="-5" y2="0" style="fill: none; stroke: #888; stroke-width: 1; opacity: 1;"></line><line transform="translate(0,113)" x2="-5" y2="0" style="fill: none; stroke: #888; stroke-width: 1; opacity: 1;"></line><line transform="translate(0,75)" x2="-5" y2="0" style="fill: none; stroke: #888; stroke-width: 1; opacity: 1;"></line><line transform="translate(0,38)" x2="-5" y2="0" style="fill: none; stroke: #888; stroke-width: 1; opacity: 1;"></line><line transform="translate(0,0)" x2="-5" y2="0" style="fill: none; stroke: #888; stroke-width: 1; opacity: 1;"></line></g><g class="mark-text role-axis-label" style="pointer-events: none;"><text text-anchor="end" transform="translate(-7,303)" style="font-family: Avenir; font-size: 10px; fill: #000; opacity: 1;">0</text><text text-anchor="end" transform="translate(-7,265.5)" style="font-family: Avenir; font-size: 10px; fill: #000; opacity: 1;">2</text><text text-anchor="end" transform="translate(-7,228)" style="font-family: Avenir; font-size: 10px; fill: #000; opacity: 1;">4</text><text text-anchor="end" transform="translate(-7,190.5)" style="font-family: Avenir; font-size: 10px; fill: #000; opacity: 1;">6</text><text text-anchor="end" transform="translate(-7,153)" style="font-family: Avenir; font-size: 10px; fill: #000; opacity: 1;">8</text><text text-anchor="end" transform="translate(-7,115.5)" style="font-family: Avenir; font-size: 10px; fill: #000; opacity: 1;">10</text><text text-anchor="end" transform="translate(-7,78)" style="font-family: Avenir; font-size: 10px; fill: #000; opacity: 1;">12</text><text text-anchor="end" transform="translate(-7,40.5)" style="font-family: Avenir; font-size: 10px; fill: #000; opacity: 1;">14</text><text text-anchor="end" transform="translate(-7,3)" style="font-family: Avenir; font-size: 10px; fill: #000; opacity: 1;">16</text></g><g class="mark-text role-axis-title" style="pointer-events: none;"><text text-anchor="middle" transform="translate(-28.1199951171875,150) rotate(-90) translate(0,-3)" style="font-family: Avenir; font-size: 12px; font-weight: 400; fill: #000; opacity: 1;">Cases per ICU</text></g></g><path class="foreground" d="" style="pointer-events: none; display: none; fill: none;"></path></g></g></g><path class="foreground" d="" style="display: none; fill: none;"></path></g></g></g></svg>