<svg class="marks" width="1012.5" height="664.5" viewBox="0 0 675 443" version="1.1" xmlns="http://www.w3.org/2000/svg" xmlns:xlink="http://www.w3.org/1999/xlink"><g transform="translate(47,100)"><g class="mark-group role-frame root"><g transform="translate(0,0)"><path class="background" d="M0,0h500v300h-500Z" style="fill: none; stroke: #ddd; stroke-width: 0;"></path><g><g class="mark-group role-axis"><g transform="translate(0.5,0.5)"><path class="background" d="M0,0h0v0h0Z" style="pointer-events: none; fill: none;"></path><g><g class="mark-rule role-axis-grid" style="pointer-events: none;"><line transform="translate(0,300)" x2="500" y2="0" style="fill: none; stroke: #DEDDDD; stroke-width: 1; stroke-dasharray: 5,2; opacity: 1;"></line><line transform="translate(0,242)" x2="500" y2="0" style="fill: none; stroke: #DEDDDD; stroke-width: 1; stroke-dasharray: 5,2; opacity: 1;"></line><line transform="translate(0,185)" x2="500" y2="0" style="fill: none; stroke: #DEDDDD; stroke-width: 1; stroke-dasharray: 5,2; opacity: 1;"></line><line transform="translate(0,127)" x2="500" y2="0" style="fill: none; stroke: #DEDDDD; stroke-width: 1; stroke-dasharray: 5,2; opacity: 1;"></line><line transform="translate(0,69)" x2="500" y2="0" style="fill: none; stroke: #DEDDDD; stroke-width: 1; stroke-dasharray: 5,2; opacity: 1;"></line><line transform="translate(0,12)" x2="500" y2="0" style="fill: none; stroke: #DEDDDD; stroke-width: 1; stroke-dasharray: 5,2; opacity: 1;"></line></g></g><path class="foreground" d="" style="pointer-events: none; display: none; fill: none;"></path></g></g><g class="mark-group role-scope pathgroup"><g transform="translate(0,0)"><path class="background" d="M0,0h500v300h-500Z" style="fill: none;"></path><g><g class="mark-line role-mark marks"><path style="fill: none; stroke: #a6cee3; stroke-width: 1;"></path></g></g><path class="foreground" d="" style="display: none; fill: none;"></path></g><g transform="translate(0,0)"><path class="background" d="M0,0h500v300h-500Z" style="fill: none;"></path><g><g class="mark-line role-mark marks"><path d="M0,299.92815837772997L11.11111111111111,299.9121321696851L22.22222222222222,299.8916849387313L33.333333333333336,299.85521149973266L44.44444444444444,299.7336333697372L55.55555555555555,299.6297393313775L66.66666666666667,299.5584503369711L77.77777777777779,299.42526702183966L88.88888888888889,299.35010963238796L100,299.1948212027119L111.1111111111111,298.94558603622124L122.22222222222221,298.8516392994066L133.33333333333334,297.9690926012123L144.44444444444443,297.46620124532205L155.55555555555557,296.79752153034707L166.66666666666666,295.9812901757866L177.77777777777777,294.8843238665095L188.88888888888889,293.1877563252093L200,291.5337411294075L211.11111111111111,289.0314421629556L222.2222222222222,287.7244772655045L233.33333333333334,286.2544871482867L244.44444444444443,283.9428447947823L255.55555555555554,281.7710172907726L266.6666666666667,279.3742702462713L277.77777777777777,275.71863692845346L288.88888888888886,271.8872679500058L300,268.1161354086923L311.11111111111114,265.68457280878323L322.22222222222223,263.037485342064L333.3333333333333,260.3168983694839L344.44444444444446,256.96576300451835L355.55555555555554,253.14047293257047L366.66666666666663,249.62299658065652" style="fill: none; stroke: #1f78b4; stroke-width: 1;"></path></g></g><path class="foreground" d="" style="display: none; fill: none;"></path></g><g transform="translate(0,0)"><path class="background" d="M0,0h500v300h-500Z" style="fill: none;"></path><g><g class="mark-line role-mark marks"><path style="fill: none; stroke: #b2df8a; stroke-width: 1;"></path></g></g><path class="foreground" d="" style="display: none; fill: none;"></path></g><g transform="translate(0,0)"><path class="background" d="M0,0h500v300h-500Z" style="fill: none;"></path><g><g class="mark-line role-mark marks"><path style="fill: none; stroke: #33a02c; stroke-width: 1;"></path></g></g><path class="foreground" d="" style="display: none; fill: none;"></path></g><g transform="translate(0,0)"><path class="background" d="M0,0h500v300h-500Z" style="fill: none;"></path><g><g class="mark-line role-mark marks"><path d="M0,299.7037417847103L11.11111111111111,299.5926449539767L22.22222222222222,299.4519223017141L33.333333333333336,299.36057601866645L44.44444444444444,299.01247261570103L55.55555555555555,298.76559076962633L66.66666666666667,298.338485175917L77.77777777777779,297.35095779161804L88.88888888888889,295.81535270903316L100,294.3785003648782L111.1111111111111,294.3785003648782L122.22222222222221,287.0831418133697L133.33333333333334,284.22178121736346L144.44444444444443,280.7481536430919L155.55555555555557,275.4550068632495L166.66666666666666,270.9963207231397L177.77777777777777,265.65873521100383L188.88888888888889,255.6526139895947L200,249.61141521614582L211.11111111111111,237.35620037699582L222.2222222222222,228.9770305212192L233.33333333333334,213.2555945631798L244.44444444444443,201.5311756930905L255.55555555555554,177.75645391609316L266.6666666666667,157.33685642725155L277.77777777777777,137.75171957814254L288.88888888888886,119.19608002716517L300,102.22295310952688L311.11111111111114,82.85260346650288L322.22222222222223,63.1835267897285L333.3333333333333,42.951559503903646L344.44444444444446,23.331859196344173L355.55555555555554,5.7193082973723275" style="fill: none; stroke: #fb9a99; stroke-width: 1;"></path></g></g><path class="foreground" d="" style="display: none; fill: none;"></path></g><g transform="translate(0,0)"><path class="background" d="M0,0h500v300h-500Z" style="fill: none;"></path><g><g class="mark-line role-mark marks"><path style="fill: none; stroke: #e31a1c; stroke-width: 1;"></path></g></g><path class="foreground" d="" style="display: none; fill: none;"></path></g><g transform="translate(0,0)"><path class="background" d="M0,0h500v300h-500Z" style="fill: none;"></path><g><g class="mark-line role-mark marks"><path d="M0,299.3393266551226L11.11111111111111,299.0659445813802L22.22222222222222,298.82103980698605L33.333333333333336,298.4394439957207L44.44444444444444,298.1660619219783L55.55555555555555,297.8129434100611L66.66666666666667,297.3857839198387L77.77777777777779,297.3857839198387L88.88888888888889,295.4322411845547L100,293.48439390914035L111.1111111111111,293.4786984492707L122.22222222222221,291.1663417421999L133.33333333333334,288.83689865552014L144.44444444444443,284.95259502443076L155.55555555555557,284.53113099407796L166.66666666666666,277.13842408329486L177.77777777777777,271.1411048405718L188.88888888888889,267.2795830489609L200,261.6923369168514L211.11111111111111,253.50226562431973L222.2222222222222,245.0957668567421L233.33333333333334,232.72522801990016L244.44444444444443,216.02044422226783L255.55555555555554,201.40019873692106L266.6666666666667,187.3438037786679L277.77777777777777,172.11983954714003L288.88888888888886,154.87398706189265L300,129.90509099342347L311.11111111111114,105.3690498750464L322.22222222222223,79.64835310378575" style="fill: none; stroke: #fdbf6f; stroke-width: 1;"></path></g></g><path class="foreground" d="" style="display: none; fill: none;"></path></g></g><g class="mark-group role-legend"><g transform="translate(518,0)"><path class="background" d="M0,0h105v96h-105Z" style="pointer-events: none; fill: none;"></path><g><g class="mark-group role-legend-entry"><g transform="translate(0,0)"><path class="background" d="M0,0h0v0h0Z" style="pointer-events: none; fill: none;"></path><g><g class="mark-group role-scope"><g transform="translate(0,0)"><path class="background" d="M0,0h104.22390747070312v12h-104.22390747070312Z" style="pointer-events: none; fill: none; opacity: 1;"></path><g><g class="mark-symbol role-legend-symbol" style="pointer-events: none;"><path transform="translate(6,6)" d="M3.5355339059327378,0A3.5355339059327378,3.5355339059327378,0,1,1,-3.5355339059327378,0A3.5355339059327378,3.5355339059327378,0,1,1,3.5355339059327378,0" style="fill: none; stroke: #a6cee3; stroke-width: 1; opacity: 1;"></path></g><g class="mark-text role-legend-label" style="pointer-events: none;"><text text-anchor="start" transform="translate(16,10)" style="font-family: Avenir; font-size: 12px; fill: #000; opacity: 1;">France</text></g></g><path class="foreground" d="" style="pointer-events: none; display: none; fill: none;"></path></g><g transform="translate(0,14)"><path class="background" d="M0,0h104.22390747070312v12h-104.22390747070312Z" style="pointer-events: none; fill: none; opacity: 1;"></path><g><g class="mark-symbol role-legend-symbol" style="pointer-events: none;"><path transform="translate(6,6)" d="M3.5355339059327378,0A3.5355339059327378,3.5355339059327378,0,1,1,-3.5355339059327378,0A3.5355339059327378,3.5355339059327378,0,1,1,3.5355339059327378,0" style="fill: none; stroke: #1f78b4; stroke-width: 1; opacity: 1;"></path></g><g class="mark-text role-legend-label" style="pointer-events: none;"><text text-anchor="start" transform="translate(16,10)" style="font-family: Avenir; font-size: 12px; fill: #000; opacity: 1;">Germany</text></g></g><path class="foreground" d="" style="pointer-events: none; display: none; fill: none;"></path></g><g transform="translate(0,28)"><path class="background" d="M0,0h104.22390747070312v12h-104.22390747070312Z" style="pointer-events: none; fill: none; opacity: 1;"></path><g><g class="mark-symbol role-legend-symbol" style="pointer-events: none;"><path transform="translate(6,6)" d="M3.5355339059327378,0A3.5355339059327378,3.5355339059327378,0,1,1,-3.5355339059327378,0A3.5355339059327378,3.5355339059327378,0,1,1,3.5355339059327378,0" style="fill: none; stroke: #b2df8a; stroke-width: 1; opacity: 1;"></path></g><g class="mark-text role-legend-label" style="pointer-events: none;"><text text-anchor="start" transform="translate(16,10)" style="font-family: Avenir; font-size: 12px; fill: #000; opacity: 1;">Italy</text></g></g><path class="foreground" d="" style="pointer-events: none; display: none; fill: none;"></path></g><g transform="translate(0,42)"><path class="background" d="M0,0h104.22390747070312v12h-104.22390747070312Z" style="pointer-events: none; fill: none; opacity: 1;"></path><g><g class="mark-symbol role-legend-symbol" style="pointer-events: none;"><path transform="translate(6,6)" d="M3.5355339059327378,0A3.5355339059327378,3.5355339059327378,0,1,1,-3.5355339059327378,0A3.5355339059327378,3.5355339059327378,0,1,1,3.5355339059327378,0" style="fill: none; stroke: #33a02c; stroke-width: 1; opacity: 1;"></path></g><g class="mark-text role-legend-label" style="pointer-events: none;"><text text-anchor="start" transform="translate(16,10)" style="font-family: Avenir; font-size: 12px; fill: #000; opacity: 1;">Korea, South</text></g></g><path class="foreground" d="" style="pointer-events: none; display: none; fill: none;"></path></g><g transform="translate(0,56)"><path class="background" d="M0,0h104.22390747070312v12h-104.22390747070312Z" style="pointer-events: none; fill: none; opacity: 1;"></path><g><g class="mark-symbol role-legend-symbol" style="pointer-events: none;"><path transform="translate(6,6)" d="M3.5355339059327378,0A3.5355339059327378,3.5355339059327378,0,1,1,-3.5355339059327378,0A3.5355339059327378,3.5355339059327378,0,1,1,3.5355339059327378,0" style="fill: none; stroke: #fb9a99; stroke-width: 1; opacity: 1;"></path></g><g class="mark-text role-legend-label" style="pointer-events: none;"><text text-anchor="start" transform="translate(16,10)" style="font-family: Avenir; font-size: 12px; fill: #000; opacity: 1;">Spain</text></g></g><path class="foreground" d="" style="pointer-events: none; display: none; fill: none;"></path></g><g transform="translate(0,70)"><path class="background" d="M0,0h104.22390747070312v12h-104.22390747070312Z" style="pointer-events: none; fill: none; opacity: 1;"></path><g><g class="mark-symbol role-legend-symbol" style="pointer-events: none;"><path transform="translate(6,6)" d="M3.5355339059327378,0A3.5355339059327378,3.5355339059327378,0,1,1,-3.5355339059327378,0A3.5355339059327378,3.5355339059327378,0,1,1,3.5355339059327378,0" style="fill: none; stroke: #e31a1c; stroke-width: 1; opacity: 1;"></path></g><g class="mark-text role-legend-label" style="pointer-events: none;"><text text-anchor="start" transform="translate(16,10)" style="font-family: Avenir; font-size: 12px; fill: #000; opacity: 1;">US</text></g></g><path class="foreground" d="" style="pointer-events: none; display: none; fill: none;"></path></g><g transform="translate(0,84)"><path class="background" d="M0,0h104.22390747070312v12h-104.22390747070312Z" style="pointer-events: none; fill: none; opacity: 1;"></path><g><g class="mark-symbol role-legend-symbol" style="pointer-events: none;"><path transform="translate(6,6)" d="M3.5355339059327378,0A3.5355339059327378,3.5355339059327378,0,1,1,-3.5355339059327378,0A3.5355339059327378,3.5355339059327378,0,1,1,3.5355339059327378,0" style="fill: none; stroke: #fdbf6f; stroke-width: 1; opacity: 1;"></path></g><g class="mark-text role-legend-label" style="pointer-events: none;"><text text-anchor="start" transform="translate(16,10)" style="font-family: Avenir; font-size: 12px; fill: #000; opacity: 1;">United Kingdom</text></g></g><path class="foreground" d="" style="pointer-events: none; display: none; fill: none;"></path></g></g></g><path class="foreground" d="" style="pointer-events: none; display: none; fill: none;"></path></g></g></g><path class="foreground" d="" style="pointer-events: none; display: none; fill: none;"></path></g></g><g class="mark-group role-title"><g transform="translate(-41.1199951171875,-50)"><path class="background" d="M0,0h0v0h0Z" style="pointer-events: none; fill: none;"></path><g><g class="mark-text role-title-text" style="pointer-events: none;"><text text-anchor="start" transform="translate(0,16)" style="font-family: Avenir; font-size: 20px; font-weight: 300; fill: #4d4d4d; opacity: 1;">Development of confirmed COVID-19 cases per ICU</text></g></g><path class="foreground" d="" style="pointer-events: none; display: none; fill: none;"></path></g></g><g class="mark-group role-axis"><g transform="translate(0.5,300.5)"><path class="background" d="M0,0h0v0h0Z" style="pointer-events: none; fill: none;"></path><g><g class="mark-rule role-axis-tick" style="pointer-events: none;"><line transform="translate(0,0)" x2="0" y2="5" style="fill: none; stroke: #DEDDDD; stroke-width: 1; opacity: 1;"></line><line transform="translate(56,0)" x2="0" y2="5" style="fill: none; stroke: #DEDDDD; stroke-width: 1; opacity: 1;"></line><line transform="translate(111,0)" x2="0" y2="5" style="fill: none; stroke: #DEDDDD; stroke-width: 1; opacity: 1;"></line><line transform="translate(167,0)" x2="0" y2="5" style="fill: none; stroke: #DEDDDD; stroke-width: 1; opacity: 1;"></line><line transform="translate(222,0)" x2="0" y2="5" style="fill: none; stroke: #DEDDDD; stroke-width: 1; opacity: 1;"></line><line transform="translate(278,0)" x2="0" y2="5" style="fill: none; stroke: #DEDDDD; stroke-width: 1; opacity: 1;"></line><line transform="translate(333,0)" x2="0" y2="5" style="fill: none; stroke: #DEDDDD; stroke-width: 1; opacity: 1;"></line><line transform="translate(389,0)" x2="0" y2="5" style="fill: none; stroke: #DEDDDD; stroke-width: 1; opacity: 1;"></line><line transform="translate(444,0)" x2="0" y2="5" style="fill: none; stroke: #DEDDDD; stroke-width: 1; opacity: 1;"></line><line transform="translate(500,0)" x2="0" y2="5" style="fill: none; stroke: #DEDDDD; stroke-width: 1; opacity: 1;"></line></g><g class="mark-text role-axis-label" style="pointer-events: none;"><text text-anchor="middle" transform="translate(0,15)" style="font-family: Avenir; font-size: 10px; fill: #000; opacity: 1;">0</text><text text-anchor="middle" transform="translate(55.55555555555555,15)" style="font-family: Avenir; font-size: 10px; fill: #000; opacity: 1;">5</text><text text-anchor="middle" transform="translate(111.1111111111111,15)" style="font-family: Avenir; font-size: 10px; fill: #000; opacity: 1;">10</text><text text-anchor="middle" transform="translate(166.66666666666666,15)" style="font-family: Avenir; font-size: 10px; fill: #000; opacity: 1;">15</text><text text-anchor="middle" transform="translate(222.2222222222222,15)" style="font-family: Avenir; font-size: 10px; fill: #000; opacity: 1;">20</text><text text-anchor="middle" transform="translate(277.77777777777777,15)" style="font-family: Avenir; font-size: 10px; fill: #000; opacity: 1;">25</text><text text-anchor="middle" transform="translate(333.3333333333333,15)" style="font-family: Avenir; font-size: 10px; fill: #000; opacity: 1;">30</text><text text-anchor="middle" transform="translate(388.8888888888889,15)" style="font-family: Avenir; font-size: 10px; fill: #000; opacity: 1;">35</text><text text-anchor="middle" transform="translate(444.4444444444444,15)" style="font-family: Avenir; font-size: 10px; fill: #000; opacity: 1;">40</text><text text-anchor="middle" transform="translate(500,15)" style="font-family: Avenir; font-size: 10px; fill: #000; opacity: 1;">45</text></g><g class="mark-rule role-axis-domain" style="pointer-events: none;"><line transform="translate(0,0)" x2="500" y2="0" style="fill: none; stroke: #DEDDDD; stroke-width: 1; stroke-dashoffset: 10; opacity: 1;"></line></g><g class="mark-text role-axis-title" style="pointer-events: none;"><text text-anchor="middle" transform="translate(250,36)" style="font-family: Avenir; font-size: 12px; font-weight: 400; fill: #000; opacity: 1;">Days since 100th case</text></g></g><path class="foreground" d="" style="pointer-events: none; display: none; fill: none;"></path></g></g><g class="mark-group role-axis"><g transform="translate(0.5,0.5)"><path class="background" d="M0,0h0v0h0Z" style="pointer-events: none; fill: none;"></path><g><g class="mark-rule role-axis-tick" style="pointer-events: none;"><line transform="translate(0,300)" x2="-5" y2="0" style="fill: none; stroke: #888; stroke-width: 1; opacity: 1;"></line><line transform="translate(0,242)" x2="-5" y2="0" style="fill: none; stroke: #888; stroke-width: 1; opacity: 1;"></line><line transform="translate(0,185)" x2="-5" y2="0" style="fill: none; stroke: #888; stroke-width: 1; opacity: 1;"></line><line transform="translate(0,127)" x2="-5" y2="0" style="fill: none; stroke: #888; stroke-width: 1; opacity: 1;"></line><line transform="translate(0,69)" x2="-5" y2="0" style="fill: none; stroke: #888; stroke-width: 1; opacity: 1;"></line><line transform="translate(0,12)" x2="-5" y2="0" style="fill: none; stroke: #888; stroke-width: 1; opacity: 1;"></line></g><g class="mark-text role-axis-label" style="pointer-events: none;"><text text-anchor="end" transform="translate(-7,303)" style="font-family: Avenir; font-size: 10px; fill: #000; opacity: 1;">0</text><text text-anchor="end" transform="translate(-7,245.30769230769232)" style="font-family: Avenir; font-size: 10px; fill: #000; opacity: 1;">5</text><text text-anchor="end" transform="translate(-7,187.6153846153846)" style="font-family: Avenir; font-size: 10px; fill: #000; opacity: 1;">10</text><text text-anchor="end" transform="translate(-7,129.92307692307693)" style="font-family: Avenir; font-size: 10px; fill: #000; opacity: 1;">15</text><text text-anchor="end" transform="translate(-7,72.23076923076921)" style="font-family: Avenir; font-size: 10px; fill: #000; opacity: 1;">20</text><text text-anchor="end" transform="translate(-7,14.538461538461531)" style="font-family: Avenir; font-size: 10px; fill: #000; opacity: 1;">25</text></g><g class="mark-text role-axis-title" style="pointer-events: none;"><text text-anchor="middle" transform="translate(-28.1199951171875,150) rotate(-90) translate(0,-3)" style="font-family: Avenir; font-size: 12px; font-weight: 400; fill: #000; opacity: 1;">Cases per ICU</text></g></g><path class="foreground" d="" style="pointer-events: none; display: none; fill: none;"></path></g></g></g><path class="foreground" d="" style="display: none; fill: none;"></path></g></g></g></svg>