<svg class="marks" width="1033.5" height="664.5" viewBox="0 0 689 443" version="1.1" xmlns="http://www.w3.org/2000/svg" xmlns:xlink="http://www.w3.org/1999/xlink"><g transform="translate(61,100)"><g class="mark-group role-frame root"><g transform="translate(0,0)"><path class="background" d="M0,0h500v300h-500Z" style="fill: none; stroke: #ddd; stroke-width: 0;"></path><g><g class="mark-group role-axis"><g transform="translate(0.5,0.5)"><path class="background" d="M0,0h0v0h0Z" style="pointer-events: none; fill: none;"></path><g><g class="mark-rule role-axis-grid" style="pointer-events: none;"><line transform="translate(0,300)" x2="500" y2="0" style="fill: none; stroke: #DEDDDD; stroke-width: 1; stroke-dasharray: 5,2; opacity: 1;"></line><line transform="translate(0,242)" x2="500" y2="0" style="fill: none; stroke: #DEDDDD; stroke-width: 1; stroke-dasharray: 5,2; opacity: 1;"></line><line transform="translate(0,185)" x2="500" y2="0" style="fill: none; stroke: #DEDDDD; stroke-width: 1; stroke-dasharray: 5,2; opacity: 1;"></line><line transform="translate(0,127)" x2="500" y2="0" style="fill: none; stroke: #DEDDDD; stroke-width: 1; stroke-dasharray: 5,2; opacity: 1;"></line><line transform="translate(0,69)" x2="500" y2="0" style="fill: none; stroke: #DEDDDD; stroke-width: 1; stroke-dasharray: 5,2; opacity: 1;"></line><line transform="translate(0,12)" x2="500" y2="0" style="fill: none; stroke: #DEDDDD; stroke-width: 1; stroke-dasharray: 5,2; opacity: 1;"></line></g></g><path class="foreground" d="" style="pointer-events: none; display: none; fill: none;"></path></g></g><g class="mark-group role-scope pathgroup"><g transform="translate(0,0)"><path class="background" d="M0,0h500v300h-500Z" style="fill: none;"></path><g><g class="mark-line role-mark marks"><path d="M0,299.8228387881727L11.11111111111111,299.7696904246245L22.22222222222222,299.6616220854099L33.333333333333336,299.63859112787236L44.44444444444444,299.4897757099374L55.55555555555555,299.32678739505633L66.66666666666667,298.837822450413L77.77777777777779,298.3010239785763L88.88888888888889,297.98744863364203L100,297.84040482782535L111.1111111111111,296.82172785981845L122.22222222222221,295.93769341280034L133.33333333333334,295.93769341280034L144.44444444444443,293.47869579263755L155.55555555555557,292.0348319162452L166.66666666666666,291.9710538799874L177.77777777777777,288.16031621358246L188.88888888888889,286.3320125075249L200,283.8358110328784L211.11111111111111,280.5654150625467L222.2222222222222,277.3977725950748L233.33333333333334,274.3771739334196L244.44444444444443,271.2237043628939L255.55555555555554,264.3498493439952L266.6666666666667,259.9225906604313L277.77777777777777,254.64672977221468L288.88888888888886,247.64709029291862L300,240.82461202544982L311.11111111111114,232.49272023321257L322.22222222222223,227.88121388934832L333.3333333333333,219.9762806176148L344.44444444444446,206.4110466279995L355.55555555555554,197.69117178186045L366.66666666666663,193.82905736402563L377.77777777777777,184.48734666437278" style="fill: none; stroke: #a6cee3; stroke-width: 1;"></path></g></g><path class="foreground" d="" style="display: none; fill: none;"></path></g><g transform="translate(0,0)"><path class="background" d="M0,0h500v300h-500Z" style="fill: none;"></path><g><g class="mark-line role-mark marks"><path d="M0,299.8203959443249L11.11111111111111,299.78033042421276L22.22222222222222,299.7292123468283L33.333333333333336,299.6380287493317L44.44444444444444,299.3340834243431L55.55555555555555,299.0743483284437L66.66666666666667,298.89612584242764L77.77777777777779,298.56316755459915L88.88888888888889,298.37527408096986L100,297.98705300677983L111.1111111111111,297.3639650905531L122.22222222222221,297.1290982485164L133.33333333333334,294.9227315030308L144.44444444444443,293.665503113305L155.55555555555557,291.9938038258676L166.66666666666666,289.95322543946656L177.77777777777777,287.2108096662737L188.88888888888889,282.9693908130232L200,278.83435282351877L211.11111111111111,272.57860540738903L222.2222222222222,269.31119316376123L233.33333333333334,265.63621787071685L244.44444444444443,259.85711198695566L255.55555555555554,254.42754322693142L266.6666666666667,248.4356756156782L277.77777777777777,239.2965923211336L288.88888888888886,229.71816987501452L300,220.2903385217307L311.11111111111114,214.211432021958L322.22222222222223,207.59371335516002L333.3333333333333,200.7922459237098L344.44444444444446,192.4144075112958L355.55555555555554,182.85118233142614L366.66666666666663,174.05749145164134" style="fill: none; stroke: #1f78b4; stroke-width: 1;"></path></g></g><path class="foreground" d="" style="display: none; fill: none;"></path></g><g transform="translate(0,0)"><path class="background" d="M0,0h500v300h-500Z" style="fill: none;"></path><g><g class="mark-line role-mark marks"><path d="M0,299.7046309953437L11.11111111111111,299.56361611570134L22.22222222222222,299.38639471290753L33.333333333333336,299.13676026381086L44.44444444444444,298.75182775451685L55.55555555555555,298.30782144429156L66.66666666666667,297.85047588869463L77.77777777777779,296.7719026200787L88.88888888888889,296.1201852033532L100,295.23217258290254L111.1111111111111,294.1135815781718L122.22222222222221,292.6481701937802L133.33333333333334,291.1656083510536L144.44444444444443,288.7893170684315L155.55555555555557,285.9461521978042L166.66666666666666,282.5217773502726L177.77777777777777,280.659999817697L188.88888888888889,276.25233202563203L200,276.25233202563203L211.11111111111111,266.34698953399635L222.2222222222222,259.6830836676535L233.33333333333334,252.84195639851683L244.44444444444443,246.68113064333053L255.55555555555554,239.96196218901972L266.6666666666667,231.94507572070273L277.77777777777777,221.80343802534196L288.88888888888886,210.39647762616315L300,197.90141592596007L311.11111111111114,187.3062438879657L322.22222222222223,178.18029444732636L333.3333333333333,168.17776602512623L344.44444444444446,158.24955625571064L355.55555555555554,146.42907925001302L366.66666666666663,135.1688505499215L377.77777777777777,123.78475742852252L388.8888888888889,113.84320841373537L400,106.12550216303805L411.1111111111111,98.40207909289573L422.22222222222223,89.28946889762791L433.33333333333337,80.39409784126862L444.4444444444444,71.6568921228866" style="fill: none; stroke: #b2df8a; stroke-width: 1;"></path></g></g><path class="foreground" d="" style="display: none; fill: none;"></path></g><g transform="translate(0,0)"><path class="background" d="M0,0h500v300h-500Z" style="fill: none;"></path><g><g class="mark-line role-mark marks"><path d="M0,299.76574079359364L11.11111111111111,299.5404915566645L22.22222222222222,299.02467080409673L33.333333333333336,298.64399959368643L44.44444444444444,298.12367385638004L55.55555555555555,297.7993149552021L66.66666666666667,297.1596071223232L77.77777777777779,296.0220984758309L88.88888888888889,294.73592533296534L100,292.90464903673126L111.1111111111111,291.58468850832634L122.22222222222221,290.2354455791206L133.33333333333334,288.3185745728534L144.44444444444443,287.33874039221155L155.55555555555557,286.2868264557523L166.66666666666666,285.14931780926L177.77777777777777,284.14020122781733L188.88888888888889,283.5252708110007L200,283.15586206243694L211.11111111111111,283.0770248295117L222.2222222222222,282.53192167614316L233.33333333333334,282.2751375460439L244.44444444444443,282.0273633854218L255.55555555555554,281.7863467019076L266.6666666666667,281.6151572818414L277.77777777777777,281.4484728465138L288.88888888888886,281.25926348749334L300,281.04978169714917L311.11111111111114,280.70740285701686L322.22222222222223,280.5114360208885L333.3333333333333,280.1803196426026L344.44444444444446,279.8154158787774L355.55555555555554,279.8154158787774L366.66666666666663,279.64422645871116L377.77777777777777,279.41897722178203L388.8888888888889,279.1847180153757L400,278.97974120977017L411.1111111111111,278.6508773238536L422.22222222222223,278.41436562507795L433.33333333333337,278.2386712202732L444.4444444444444,277.95710967411173L455.55555555555554,277.72960794481327L466.6666666666667,277.52913612394633L477.7777777777778,277.33542178018723" style="fill: none; stroke: #33a02c; stroke-width: 1;"></path></g></g><path class="foreground" d="" style="display: none; fill: none;"></path></g><g transform="translate(0,0)"><path class="background" d="M0,0h500v300h-500Z" style="fill: none;"></path><g><g class="mark-line role-mark marks"><path d="M0,299.7037417847103L11.11111111111111,299.5926449539767L22.22222222222222,299.4519223017141L33.333333333333336,299.36057601866645L44.44444444444444,299.01247261570103L55.55555555555555,298.76559076962633L66.66666666666667,298.338485175917L77.77777777777779,297.35095779161804L88.88888888888889,295.81535270903316L100,294.3785003648782L111.1111111111111,294.3785003648782L122.22222222222221,287.0831418133697L133.33333333333334,284.22178121736346L144.44444444444443,280.7481536430919L155.55555555555557,275.4550068632495L166.66666666666666,270.9963207231397L177.77777777777777,265.65873521100383L188.88888888888889,255.6526139895947L200,249.61141521614582L211.11111111111111,237.35620037699582L222.2222222222222,228.9770305212192L233.33333333333334,213.2555945631798L244.44444444444443,201.53117569309046L255.55555555555554,177.75645391609316L266.6666666666667,157.33685642725155L277.77777777777777,137.75171957814254L288.88888888888886,119.19608002716517L300,102.22295310952688L311.11111111111114,82.85260346650288L322.22222222222223,63.18352678972846L333.3333333333333,42.951559503903646L344.44444444444446,23.331859196344173L355.55555555555554,5.719308297372294" style="fill: none; stroke: #fb9a99; stroke-width: 1;"></path></g></g><path class="foreground" d="" style="display: none; fill: none;"></path></g><g transform="translate(0,0)"><path class="background" d="M0,0h500v300h-500Z" style="fill: none;"></path><g><g class="mark-line role-mark marks"><path d="M0,299.958624016381L11.11111111111111,299.9477540545828L22.22222222222222,299.92391026741245L33.333333333333336,299.9081312906086L44.44444444444444,299.85904114055216L55.55555555555555,299.81836644479114L66.66666666666667,299.79557458940775L77.77777777777779,299.6637324721133L88.88888888888889,299.5508251269834L100,299.4168791461151L111.1111111111111,299.23594687876414L122.22222222222221,299.043794005686L133.33333333333334,298.7730968925175L144.44444444444443,298.37581732098914L155.55555555555557,297.74851533205344L166.66666666666666,297.27093830078985L177.77777777777777,295.20424298341294L188.88888888888889,293.3027009565831L200,291.0624368943637L211.11111111111111,288.3319726194377L222.2222222222222,284.62531564624607L233.33333333333334,281.1563952568993L244.44444444444443,276.9353436399018L255.55555555555554,270.6034155704766L266.6666666666667,264.3545901122183L277.77777777777777,257.4044767960107L288.88888888888886,250.59917942246963L300,243.26335778438983L311.11111111111114,234.0186305969717L322.22222222222223,225.18240358680913L333.3333333333333,214.634683559321L344.44444444444446,203.3674421895768" style="fill: none; stroke: #e31a1c; stroke-width: 1;"></path></g></g><path class="foreground" d="" style="display: none; fill: none;"></path></g><g transform="translate(0,0)"><path class="background" d="M0,0h500v300h-500Z" style="fill: none;"></path><g><g class="mark-line role-mark marks"><path d="M0,299.8017979965368L11.11111111111111,299.7197833744141L22.22222222222222,299.64631194209585L33.333333333333336,299.5318331987162L44.44444444444444,299.4498185765935L55.55555555555555,299.34388302301835L66.66666666666667,299.2157351759516L77.77777777777779,299.2157351759516L88.88888888888889,298.6296723553664L100,298.0453181727421L111.1111111111111,298.04360953478124L122.22222222222221,297.34990252265993L133.33333333333334,296.65106959665604L144.44444444444443,295.48577850732926L155.55555555555557,295.3593392982234L166.66666666666666,293.14152722498847L177.77777777777777,291.34233145217155L188.88888888888889,290.18387491468826L200,288.5077010750554L211.11111111111111,286.05067968729594L222.2222222222222,283.52873005702264L233.33333333333334,279.81756840597L244.44444444444443,274.8061332666803L255.55555555555554,270.4200596210763L266.6666666666667,266.20314113360035L277.77777777777777,261.635951864142L288.88888888888886,256.4621961185678L300,248.97152729802704L311.11111111111114,241.6107149625139L322.22222222222223,233.8945059311357" style="fill: none; stroke: #fdbf6f; stroke-width: 1;"></path></g></g><path class="foreground" d="" style="display: none; fill: none;"></path></g></g><g class="mark-group role-legend"><g transform="translate(518,0)"><path class="background" d="M0,0h105v96h-105Z" style="pointer-events: none; fill: none;"></path><g><g class="mark-group role-legend-entry"><g transform="translate(0,0)"><path class="background" d="M0,0h0v0h0Z" style="pointer-events: none; fill: none;"></path><g><g class="mark-group role-scope"><g transform="translate(0,0)"><path class="background" d="M0,0h104.22390747070312v12h-104.22390747070312Z" style="pointer-events: none; fill: none; opacity: 1;"></path><g><g class="mark-symbol role-legend-symbol" style="pointer-events: none;"><path transform="translate(6,6)" d="M3.5355339059327378,0A3.5355339059327378,3.5355339059327378,0,1,1,-3.5355339059327378,0A3.5355339059327378,3.5355339059327378,0,1,1,3.5355339059327378,0" style="fill: none; stroke: #a6cee3; stroke-width: 1; opacity: 1;"></path></g><g class="mark-text role-legend-label" style="pointer-events: none;"><text text-anchor="start" transform="translate(16,10)" style="font-family: Avenir; font-size: 12px; fill: #000; opacity: 1;">France</text></g></g><path class="foreground" d="" style="pointer-events: none; display: none; fill: none;"></path></g><g transform="translate(0,14)"><path class="background" d="M0,0h104.22390747070312v12h-104.22390747070312Z" style="pointer-events: none; fill: none; opacity: 1;"></path><g><g class="mark-symbol role-legend-symbol" style="pointer-events: none;"><path transform="translate(6,6)" d="M3.5355339059327378,0A3.5355339059327378,3.5355339059327378,0,1,1,-3.5355339059327378,0A3.5355339059327378,3.5355339059327378,0,1,1,3.5355339059327378,0" style="fill: none; stroke: #1f78b4; stroke-width: 1; opacity: 1;"></path></g><g class="mark-text role-legend-label" style="pointer-events: none;"><text text-anchor="start" transform="translate(16,10)" style="font-family: Avenir; font-size: 12px; fill: #000; opacity: 1;">Germany</text></g></g><path class="foreground" d="" style="pointer-events: none; display: none; fill: none;"></path></g><g transform="translate(0,28)"><path class="background" d="M0,0h104.22390747070312v12h-104.22390747070312Z" style="pointer-events: none; fill: none; opacity: 1;"></path><g><g class="mark-symbol role-legend-symbol" style="pointer-events: none;"><path transform="translate(6,6)" d="M3.5355339059327378,0A3.5355339059327378,3.5355339059327378,0,1,1,-3.5355339059327378,0A3.5355339059327378,3.5355339059327378,0,1,1,3.5355339059327378,0" style="fill: none; stroke: #b2df8a; stroke-width: 1; opacity: 1;"></path></g><g class="mark-text role-legend-label" style="pointer-events: none;"><text text-anchor="start" transform="translate(16,10)" style="font-family: Avenir; font-size: 12px; fill: #000; opacity: 1;">Italy</text></g></g><path class="foreground" d="" style="pointer-events: none; display: none; fill: none;"></path></g><g transform="translate(0,42)"><path class="background" d="M0,0h104.22390747070312v12h-104.22390747070312Z" style="pointer-events: none; fill: none; opacity: 1;"></path><g><g class="mark-symbol role-legend-symbol" style="pointer-events: none;"><path transform="translate(6,6)" d="M3.5355339059327378,0A3.5355339059327378,3.5355339059327378,0,1,1,-3.5355339059327378,0A3.5355339059327378,3.5355339059327378,0,1,1,3.5355339059327378,0" style="fill: none; stroke: #33a02c; stroke-width: 1; opacity: 1;"></path></g><g class="mark-text role-legend-label" style="pointer-events: none;"><text text-anchor="start" transform="translate(16,10)" style="font-family: Avenir; font-size: 12px; fill: #000; opacity: 1;">Korea, South</text></g></g><path class="foreground" d="" style="pointer-events: none; display: none; fill: none;"></path></g><g transform="translate(0,56)"><path class="background" d="M0,0h104.22390747070312v12h-104.22390747070312Z" style="pointer-events: none; fill: none; opacity: 1;"></path><g><g class="mark-symbol role-legend-symbol" style="pointer-events: none;"><path transform="translate(6,6)" d="M3.5355339059327378,0A3.5355339059327378,3.5355339059327378,0,1,1,-3.5355339059327378,0A3.5355339059327378,3.5355339059327378,0,1,1,3.5355339059327378,0" style="fill: none; stroke: #fb9a99; stroke-width: 1; opacity: 1;"></path></g><g class="mark-text role-legend-label" style="pointer-events: none;"><text text-anchor="start" transform="translate(16,10)" style="font-family: Avenir; font-size: 12px; fill: #000; opacity: 1;">Spain</text></g></g><path class="foreground" d="" style="pointer-events: none; display: none; fill: none;"></path></g><g transform="translate(0,70)"><path class="background" d="M0,0h104.22390747070312v12h-104.22390747070312Z" style="pointer-events: none; fill: none; opacity: 1;"></path><g><g class="mark-symbol role-legend-symbol" style="pointer-events: none;"><path transform="translate(6,6)" d="M3.5355339059327378,0A3.5355339059327378,3.5355339059327378,0,1,1,-3.5355339059327378,0A3.5355339059327378,3.5355339059327378,0,1,1,3.5355339059327378,0" style="fill: none; stroke: #e31a1c; stroke-width: 1; opacity: 1;"></path></g><g class="mark-text role-legend-label" style="pointer-events: none;"><text text-anchor="start" transform="translate(16,10)" style="font-family: Avenir; font-size: 12px; fill: #000; opacity: 1;">US</text></g></g><path class="foreground" d="" style="pointer-events: none; display: none; fill: none;"></path></g><g transform="translate(0,84)"><path class="background" d="M0,0h104.22390747070312v12h-104.22390747070312Z" style="pointer-events: none; fill: none; opacity: 1;"></path><g><g class="mark-symbol role-legend-symbol" style="pointer-events: none;"><path transform="translate(6,6)" d="M3.5355339059327378,0A3.5355339059327378,3.5355339059327378,0,1,1,-3.5355339059327378,0A3.5355339059327378,3.5355339059327378,0,1,1,3.5355339059327378,0" style="fill: none; stroke: #fdbf6f; stroke-width: 1; opacity: 1;"></path></g><g class="mark-text role-legend-label" style="pointer-events: none;"><text text-anchor="start" transform="translate(16,10)" style="font-family: Avenir; font-size: 12px; fill: #000; opacity: 1;">United Kingdom</text></g></g><path class="foreground" d="" style="pointer-events: none; display: none; fill: none;"></path></g></g></g><path class="foreground" d="" style="pointer-events: none; display: none; fill: none;"></path></g></g></g><path class="foreground" d="" style="pointer-events: none; display: none; fill: none;"></path></g></g><g class="mark-group role-title"><g transform="translate(-55.019989013671875,-50)"><path class="background" d="M0,0h0v0h0Z" style="pointer-events: none; fill: none;"></path><g><g class="mark-text role-title-text" style="pointer-events: none;"><text text-anchor="start" transform="translate(0,16)" style="font-family: Avenir; font-size: 20px; font-weight: 300; fill: #4d4d4d; opacity: 1;">Development of confirmed COVID-19 cases per 1m inhabitants</text></g></g><path class="foreground" d="" style="pointer-events: none; display: none; fill: none;"></path></g></g><g class="mark-group role-axis"><g transform="translate(0.5,300.5)"><path class="background" d="M0,0h0v0h0Z" style="pointer-events: none; fill: none;"></path><g><g class="mark-rule role-axis-tick" style="pointer-events: none;"><line transform="translate(0,0)" x2="0" y2="5" style="fill: none; stroke: #DEDDDD; stroke-width: 1; opacity: 1;"></line><line transform="translate(56,0)" x2="0" y2="5" style="fill: none; stroke: #DEDDDD; stroke-width: 1; opacity: 1;"></line><line transform="translate(111,0)" x2="0" y2="5" style="fill: none; stroke: #DEDDDD; stroke-width: 1; opacity: 1;"></line><line transform="translate(167,0)" x2="0" y2="5" style="fill: none; stroke: #DEDDDD; stroke-width: 1; opacity: 1;"></line><line transform="translate(222,0)" x2="0" y2="5" style="fill: none; stroke: #DEDDDD; stroke-width: 1; opacity: 1;"></line><line transform="translate(278,0)" x2="0" y2="5" style="fill: none; stroke: #DEDDDD; stroke-width: 1; opacity: 1;"></line><line transform="translate(333,0)" x2="0" y2="5" style="fill: none; stroke: #DEDDDD; stroke-width: 1; opacity: 1;"></line><line transform="translate(389,0)" x2="0" y2="5" style="fill: none; stroke: #DEDDDD; stroke-width: 1; opacity: 1;"></line><line transform="translate(444,0)" x2="0" y2="5" style="fill: none; stroke: #DEDDDD; stroke-width: 1; opacity: 1;"></line><line transform="translate(500,0)" x2="0" y2="5" style="fill: none; stroke: #DEDDDD; stroke-width: 1; opacity: 1;"></line></g><g class="mark-text role-axis-label" style="pointer-events: none;"><text text-anchor="middle" transform="translate(0,15)" style="font-family: Avenir; font-size: 10px; fill: #000; opacity: 1;">0</text><text text-anchor="middle" transform="translate(55.55555555555555,15)" style="font-family: Avenir; font-size: 10px; fill: #000; opacity: 1;">5</text><text text-anchor="middle" transform="translate(111.1111111111111,15)" style="font-family: Avenir; font-size: 10px; fill: #000; opacity: 1;">10</text><text text-anchor="middle" transform="translate(166.66666666666666,15)" style="font-family: Avenir; font-size: 10px; fill: #000; opacity: 1;">15</text><text text-anchor="middle" transform="translate(222.2222222222222,15)" style="font-family: Avenir; font-size: 10px; fill: #000; opacity: 1;">20</text><text text-anchor="middle" transform="translate(277.77777777777777,15)" style="font-family: Avenir; font-size: 10px; fill: #000; opacity: 1;">25</text><text text-anchor="middle" transform="translate(333.3333333333333,15)" style="font-family: Avenir; font-size: 10px; fill: #000; opacity: 1;">30</text><text text-anchor="middle" transform="translate(388.8888888888889,15)" style="font-family: Avenir; font-size: 10px; fill: #000; opacity: 1;">35</text><text text-anchor="middle" transform="translate(444.4444444444444,15)" style="font-family: Avenir; font-size: 10px; fill: #000; opacity: 1;">40</text><text text-anchor="middle" transform="translate(500,15)" style="font-family: Avenir; font-size: 10px; fill: #000; opacity: 1;">45</text></g><g class="mark-rule role-axis-domain" style="pointer-events: none;"><line transform="translate(0,0)" x2="500" y2="0" style="fill: none; stroke: #DEDDDD; stroke-width: 1; stroke-dashoffset: 10; opacity: 1;"></line></g><g class="mark-text role-axis-title" style="pointer-events: none;"><text text-anchor="middle" transform="translate(250,36)" style="font-family: Avenir; font-size: 12px; font-weight: 400; fill: #000; opacity: 1;">Days since 100th case</text></g></g><path class="foreground" d="" style="pointer-events: none; display: none; fill: none;"></path></g></g><g class="mark-group role-axis"><g transform="translate(0.5,0.5)"><path class="background" d="M0,0h0v0h0Z" style="pointer-events: none; fill: none;"></path><g><g class="mark-rule role-axis-tick" style="pointer-events: none;"><line transform="translate(0,300)" x2="-5" y2="0" style="fill: none; stroke: #888; stroke-width: 1; opacity: 1;"></line><line transform="translate(0,242)" x2="-5" y2="0" style="fill: none; stroke: #888; stroke-width: 1; opacity: 1;"></line><line transform="translate(0,185)" x2="-5" y2="0" style="fill: none; stroke: #888; stroke-width: 1; opacity: 1;"></line><line transform="translate(0,127)" x2="-5" y2="0" style="fill: none; stroke: #888; stroke-width: 1; opacity: 1;"></line><line transform="translate(0,69)" x2="-5" y2="0" style="fill: none; stroke: #888; stroke-width: 1; opacity: 1;"></line><line transform="translate(0,12)" x2="-5" y2="0" style="fill: none; stroke: #888; stroke-width: 1; opacity: 1;"></line></g><g class="mark-text role-axis-label" style="pointer-events: none;"><text text-anchor="end" transform="translate(-7,303)" style="font-family: Avenir; font-size: 10px; fill: #000; opacity: 1;">0</text><text text-anchor="end" transform="translate(-7,245.30769230769232)" style="font-family: Avenir; font-size: 10px; fill: #000; opacity: 1;">500</text><text text-anchor="end" transform="translate(-7,187.6153846153846)" style="font-family: Avenir; font-size: 10px; fill: #000; opacity: 1;">1,000</text><text text-anchor="end" transform="translate(-7,129.92307692307693)" style="font-family: Avenir; font-size: 10px; fill: #000; opacity: 1;">1,500</text><text text-anchor="end" transform="translate(-7,72.23076923076921)" style="font-family: Avenir; font-size: 10px; fill: #000; opacity: 1;">2,000</text><text text-anchor="end" transform="translate(-7,14.538461538461531)" style="font-family: Avenir; font-size: 10px; fill: #000; opacity: 1;">2,500</text></g><g class="mark-text role-axis-title" style="pointer-events: none;"><text text-anchor="middle" transform="translate(-42.019989013671875,150) rotate(-90) translate(0,-3)" style="font-family: Avenir; font-size: 12px; font-weight: 400; fill: #000; opacity: 1;">Cases per 1m inhabitants</text></g></g><path class="foreground" d="" style="pointer-events: none; display: none; fill: none;"></path></g></g></g><path class="foreground" d="" style="display: none; fill: none;"></path></g></g></g></svg>