<svg class="marks" width="680" height="448" viewBox="0 0 680 448" version="1.1" xmlns="http://www.w3.org/2000/svg" xmlns:xlink="http://www.w3.org/1999/xlink"><g transform="translate(52,105)"><g class="mark-group role-frame root"><g transform="translate(0,0)"><path class="background" d="M0,0h500v300h-500Z" style="fill: none; stroke: #ddd; stroke-width: 0;"></path><g><g class="mark-group role-axis"><g transform="translate(0.5,0.5)"><path class="background" d="M0,0h0v0h0Z" style="pointer-events: none; fill: none;"></path><g><g class="mark-rule role-axis-grid" style="pointer-events: none;"><line transform="translate(0,300)" x2="500" y2="0" style="fill: none; stroke: #DEDDDD; stroke-width: 1; stroke-dasharray: 5,2; opacity: 1;"></line><line transform="translate(0,250)" x2="500" y2="0" style="fill: none; stroke: #DEDDDD; stroke-width: 1; stroke-dasharray: 5,2; opacity: 1;"></line><line transform="translate(0,200)" x2="500" y2="0" style="fill: none; stroke: #DEDDDD; stroke-width: 1; stroke-dasharray: 5,2; opacity: 1;"></line><line transform="translate(0,150)" x2="500" y2="0" style="fill: none; stroke: #DEDDDD; stroke-width: 1; stroke-dasharray: 5,2; opacity: 1;"></line><line transform="translate(0,100)" x2="500" y2="0" style="fill: none; stroke: #DEDDDD; stroke-width: 1; stroke-dasharray: 5,2; opacity: 1;"></line><line transform="translate(0,50)" x2="500" y2="0" style="fill: none; stroke: #DEDDDD; stroke-width: 1; stroke-dasharray: 5,2; opacity: 1;"></line><line transform="translate(0,0)" x2="500" y2="0" style="fill: none; stroke: #DEDDDD; stroke-width: 1; stroke-dasharray: 5,2; opacity: 1;"></line></g></g><path class="foreground" d="" style="pointer-events: none; display: none; fill: none;"></path></g></g><g class="mark-group role-scope pathgroup"><g transform="translate(0,0)"><path class="background" d="M0,0h500v300h-500Z" style="fill: none;"></path><g><g class="mark-line role-mark marks"><path d="M0,299.23230141541507L17.857142857142858,299.00199184003964L35.714285714285715,298.53369570344285L53.57142857142857,298.4338948874468L71.42857142857143,297.7890280763955L89.28571428571429,297.0827453785774L107.14285714285714,294.96389728512304L125,292.6531245455224L142.85714285714286,291.29429805080713L160.71428571428572,290.6571082256017L178.57142857142858,286.2428413642385L196.42857142857142,282.4197024130056L214.28571428571428,282.4197024130056L232.14285714285714,271.7640460589671L250,265.5533645096752L267.85714285714283,265.2769930192247L285.7142857142857,248.8098583798784L303.57142857142856,240.894885972808L321.42857142857144,230.1010438735442" style="fill: none; stroke: #a6cee3; stroke-width: 1;"></path></g></g><path class="foreground" d="" style="display: none; fill: none;"></path></g><g transform="translate(0,0)"><path class="background" d="M0,0h500v300h-500Z" style="fill: none;"></path><g><g class="mark-line role-mark marks"><path d="M0,299.22171575874125L17.857142857142858,299.04809850492194L35.714285714285715,298.826586836256L53.57142857142857,298.43145791377077L71.42857142857143,297.11436150548667L89.28571428571429,295.98884275658935L107.14285714285714,295.21654531718644L125,293.7737260699298L142.85714285714286,292.95952101753596L160.71428571428572,291.2772296960459L178.57142857142858,288.5771820590635L196.42857142857142,287.55942574357124L214.28571428571428,277.9985031798L232.14285714285714,272.5505134909886L250,265.30648324542614L267.85714285714283,256.46397690435526L285.7142857142857,244.58017522051932L303.57142857142856,226.20069352310057" style="fill: none; stroke: #1f78b4; stroke-width: 1;"></path></g></g><path class="foreground" d="" style="display: none; fill: none;"></path></g><g transform="translate(0,0)"><path class="background" d="M0,0h500v300h-500Z" style="fill: none;"></path><g><g class="mark-line role-mark marks"><path d="M0,298.72006764648927L17.857142857142858,298.109003168039L35.714285714285715,297.34104375593256L53.57142857142857,296.25929447651384L71.42857142857143,294.59125360290636L89.28571428571429,292.6672262585967L107.14285714285714,290.6853955176769L125,286.011578020341L142.85714285714286,283.1874692145303L160.71428571428572,279.339414525911L178.57142857142858,274.49218683874466L196.42857142857142,268.1420708397141L214.28571428571428,261.717636187899L232.14285714285714,251.4203739632032L250,239.0999928571517L267.85714285714283,224.26103518451467L285.7142857142857,216.1933325433536L303.57142857142856,197.0934387777389L321.42857142857144,197.0934387777389L339.2857142857143,154.17028798065073L357.14285714285717,125.29336255983166L375,95.64847772690621L392.85714285714283,68.95156612109894L410.7142857142857,39.835169485752076L428.57142857142856,5.09532812304524" style="fill: none; stroke: #b2df8a; stroke-width: 1;"></path></g></g><path class="foreground" d="" style="display: none; fill: none;"></path></g><g transform="translate(0,0)"><path class="background" d="M0,0h500v300h-500Z" style="fill: none;"></path><g><g class="mark-line role-mark marks"><path d="M0,298.9848767722392L17.857142857142858,298.0087967455462L35.714285714285715,295.77357348441905L53.57142857142857,294.1239982393078L71.42857142857143,291.8692533776468L89.28571428571429,290.4636981392089L107.14285714285714,287.6916308634006L125,282.76242672860064L142.85714285714286,277.1890097761833L160.71428571428572,269.25347915916876L178.57142857142858,263.5336502027474L196.42857142857142,257.68693084285604L214.28571428571428,249.38048981569813L232.14285714285714,245.13454169958334L250,240.57624797492676L267.85714285714283,235.64704384012683L285.7142857142857,231.27420532054197L303.57142857142856,228.6095068476699L321.42857142857144,227.00873560389329L339.2857142857143,226.66710759455074L357.14285714285717,224.30499392995353L375,223.19226269952344L392.85714285714283,222.11857467016108L410.7142857142857,221.0741690415995L428.57142857142856,220.33234822131277L446.42857142857144,219.61004900155993L464.2857142857143,218.79014177913777L482.14285714285717,217.8823873543132" style="fill: none; stroke: #33a02c; stroke-width: 1;"></path></g></g><path class="foreground" d="" style="display: none; fill: none;"></path></g><g transform="translate(0,0)"><path class="background" d="M0,0h500v300h-500Z" style="fill: none;"></path><g><g class="mark-line role-mark marks"><path d="M0,298.7162144004114L17.857142857142858,298.2347948005656L35.714285714285715,297.624996640761L53.57142857142857,297.22916274755454L71.42857142857143,295.72071466803783L89.28571428571429,294.65089333504733L107.14285714285714,292.8001024289737L125,288.52081709701156L142.85714285714286,281.86652840581047L160.71428571428572,275.64016824780555L178.57142857142858,275.64016824780555L196.42857142857142,244.02694785793526L214.28571428571428,231.62771860857495L232.14285714285714,216.57533245339815L250,193.6383630740811L267.85714285714283,174.31738980027205L285.7142857142857,151.1878525810167" style="fill: none; stroke: #fb9a99; stroke-width: 1;"></path></g></g><path class="foreground" d="" style="display: none; fill: none;"></path></g><g transform="translate(0,0)"><path class="background" d="M0,0h500v300h-500Z" style="fill: none;"></path><g><g class="mark-line role-mark marks"><path d="M0,299.8207040709843L17.857142857142858,299.773600903192L35.714285714285715,299.6702778254541L53.57142857142857,299.60190225930404L71.42857142857143,299.38917827572607L89.28571428571429,299.21292126076145L107.14285714285714,299.11415655410025L125,298.5428407124908L142.85714285714286,298.0535755502614L160.71428571428572,297.4731429664986L178.57142857142858,296.6891031413112L196.42857142857142,295.8564406913059L214.28571428571428,294.6834198675758L232.14285714285714,292.9618750576197L250,290.24356643889814L267.85714285714283,288.17406597008943" style="fill: none; stroke: #e31a1c; stroke-width: 1;"></path></g></g><path class="foreground" d="" style="display: none; fill: none;"></path></g><g transform="translate(0,0)"><path class="background" d="M0,0h500v300h-500Z" style="fill: none;"></path><g><g class="mark-line role-mark marks"><path d="M0,299.14112465165937L17.857142857142858,298.78572795579436L35.714285714285715,298.4673517490819L53.57142857142857,297.9712771944369L71.42857142857143,297.6158804985718L89.28571428571429,297.1568264330794L107.14285714285714,296.60151909579025L125,296.60151909579025L142.85714285714286,294.0619135399211L160.71428571428572,291.52971208188245L178.57142857142858,291.52230798405196L196.42857142857142,288.51624426485984L214.28571428571428,285.4879682521762L232.14285714285714,280.43837353176" style="fill: none; stroke: #fdbf6f; stroke-width: 1;"></path></g></g><path class="foreground" d="" style="display: none; fill: none;"></path></g></g><g class="mark-group role-legend"><g transform="translate(518,0)"><path class="background" d="M0,0h105v96h-105Z" style="pointer-events: none; fill: none;"></path><g><g class="mark-group role-legend-entry"><g transform="translate(0,0)"><path class="background" d="M0,0h0v0h0Z" style="pointer-events: none; fill: none;"></path><g><g class="mark-group role-scope"><g transform="translate(0,0)"><path class="background" d="M0,0h104.68333435058594v12h-104.68333435058594Z" style="pointer-events: none; fill: none; opacity: 1;"></path><g><g class="mark-symbol role-legend-symbol" style="pointer-events: none;"><path transform="translate(6,6)" d="M3.5355339059327378,0A3.5355339059327378,3.5355339059327378,0,1,1,-3.5355339059327378,0A3.5355339059327378,3.5355339059327378,0,1,1,3.5355339059327378,0" style="fill: none; stroke: #a6cee3; stroke-width: 1; opacity: 1;"></path></g><g class="mark-text role-legend-label" style="pointer-events: none;"><text text-anchor="start" transform="translate(16,10)" style="font-family: Avenir; font-size: 12px; fill: #000; opacity: 1;">France</text></g></g><path class="foreground" d="" style="pointer-events: none; display: none; fill: none;"></path></g><g transform="translate(0,14)"><path class="background" d="M0,0h104.68333435058594v12h-104.68333435058594Z" style="pointer-events: none; fill: none; opacity: 1;"></path><g><g class="mark-symbol role-legend-symbol" style="pointer-events: none;"><path transform="translate(6,6)" d="M3.5355339059327378,0A3.5355339059327378,3.5355339059327378,0,1,1,-3.5355339059327378,0A3.5355339059327378,3.5355339059327378,0,1,1,3.5355339059327378,0" style="fill: none; stroke: #1f78b4; stroke-width: 1; opacity: 1;"></path></g><g class="mark-text role-legend-label" style="pointer-events: none;"><text text-anchor="start" transform="translate(16,10)" style="font-family: Avenir; font-size: 12px; fill: #000; opacity: 1;">Germany</text></g></g><path class="foreground" d="" style="pointer-events: none; display: none; fill: none;"></path></g><g transform="translate(0,28)"><path class="background" d="M0,0h104.68333435058594v12h-104.68333435058594Z" style="pointer-events: none; fill: none; opacity: 1;"></path><g><g class="mark-symbol role-legend-symbol" style="pointer-events: none;"><path transform="translate(6,6)" d="M3.5355339059327378,0A3.5355339059327378,3.5355339059327378,0,1,1,-3.5355339059327378,0A3.5355339059327378,3.5355339059327378,0,1,1,3.5355339059327378,0" style="fill: none; stroke: #b2df8a; stroke-width: 1; opacity: 1;"></path></g><g class="mark-text role-legend-label" style="pointer-events: none;"><text text-anchor="start" transform="translate(16,10)" style="font-family: Avenir; font-size: 12px; fill: #000; opacity: 1;">Italy</text></g></g><path class="foreground" d="" style="pointer-events: none; display: none; fill: none;"></path></g><g transform="translate(0,42)"><path class="background" d="M0,0h104.68333435058594v12h-104.68333435058594Z" style="pointer-events: none; fill: none; opacity: 1;"></path><g><g class="mark-symbol role-legend-symbol" style="pointer-events: none;"><path transform="translate(6,6)" d="M3.5355339059327378,0A3.5355339059327378,3.5355339059327378,0,1,1,-3.5355339059327378,0A3.5355339059327378,3.5355339059327378,0,1,1,3.5355339059327378,0" style="fill: none; stroke: #33a02c; stroke-width: 1; opacity: 1;"></path></g><g class="mark-text role-legend-label" style="pointer-events: none;"><text text-anchor="start" transform="translate(16,10)" style="font-family: Avenir; font-size: 12px; fill: #000; opacity: 1;">Korea, South</text></g></g><path class="foreground" d="" style="pointer-events: none; display: none; fill: none;"></path></g><g transform="translate(0,56)"><path class="background" d="M0,0h104.68333435058594v12h-104.68333435058594Z" style="pointer-events: none; fill: none; opacity: 1;"></path><g><g class="mark-symbol role-legend-symbol" style="pointer-events: none;"><path transform="translate(6,6)" d="M3.5355339059327378,0A3.5355339059327378,3.5355339059327378,0,1,1,-3.5355339059327378,0A3.5355339059327378,3.5355339059327378,0,1,1,3.5355339059327378,0" style="fill: none; stroke: #fb9a99; stroke-width: 1; opacity: 1;"></path></g><g class="mark-text role-legend-label" style="pointer-events: none;"><text text-anchor="start" transform="translate(16,10)" style="font-family: Avenir; font-size: 12px; fill: #000; opacity: 1;">Spain</text></g></g><path class="foreground" d="" style="pointer-events: none; display: none; fill: none;"></path></g><g transform="translate(0,70)"><path class="background" d="M0,0h104.68333435058594v12h-104.68333435058594Z" style="pointer-events: none; fill: none; opacity: 1;"></path><g><g class="mark-symbol role-legend-symbol" style="pointer-events: none;"><path transform="translate(6,6)" d="M3.5355339059327378,0A3.5355339059327378,3.5355339059327378,0,1,1,-3.5355339059327378,0A3.5355339059327378,3.5355339059327378,0,1,1,3.5355339059327378,0" style="fill: none; stroke: #e31a1c; stroke-width: 1; opacity: 1;"></path></g><g class="mark-text role-legend-label" style="pointer-events: none;"><text text-anchor="start" transform="translate(16,10)" style="font-family: Avenir; font-size: 12px; fill: #000; opacity: 1;">US</text></g></g><path class="foreground" d="" style="pointer-events: none; display: none; fill: none;"></path></g><g transform="translate(0,84)"><path class="background" d="M0,0h104.68333435058594v12h-104.68333435058594Z" style="pointer-events: none; fill: none; opacity: 1;"></path><g><g class="mark-symbol role-legend-symbol" style="pointer-events: none;"><path transform="translate(6,6)" d="M3.5355339059327378,0A3.5355339059327378,3.5355339059327378,0,1,1,-3.5355339059327378,0A3.5355339059327378,3.5355339059327378,0,1,1,3.5355339059327378,0" style="fill: none; stroke: #fdbf6f; stroke-width: 1; opacity: 1;"></path></g><g class="mark-text role-legend-label" style="pointer-events: none;"><text text-anchor="start" transform="translate(16,10)" style="font-family: Avenir; font-size: 12px; fill: #000; opacity: 1;">United Kingdom</text></g></g><path class="foreground" d="" style="pointer-events: none; display: none; fill: none;"></path></g></g></g><path class="foreground" d="" style="pointer-events: none; display: none; fill: none;"></path></g></g></g><path class="foreground" d="" style="pointer-events: none; display: none; fill: none;"></path></g></g><g class="mark-group role-title"><g transform="translate(-46.70000076293945,-55)"><path class="background" d="M0,0h0v0h0Z" style="pointer-events: none; fill: none;"></path><g><g class="mark-text role-title-text" style="pointer-events: none;"><text text-anchor="start" transform="translate(0,16)" style="font-family: Avenir; font-size: 20px; font-weight: 300; fill: #4d4d4d; opacity: 1;">Development of confirmed COVID-19 cases per 1m inhabitants</text></g></g><path class="foreground" d="" style="pointer-events: none; display: none; fill: none;"></path></g></g><g class="mark-group role-axis"><g transform="translate(0.5,300.5)"><path class="background" d="M0,0h0v0h0Z" style="pointer-events: none; fill: none;"></path><g><g class="mark-rule role-axis-tick" style="pointer-events: none;"><line transform="translate(0,0)" x2="0" y2="5" style="fill: none; stroke: #DEDDDD; stroke-width: 1; opacity: 1;"></line><line transform="translate(36,0)" x2="0" y2="5" style="fill: none; stroke: #DEDDDD; stroke-width: 1; opacity: 1;"></line><line transform="translate(71,0)" x2="0" y2="5" style="fill: none; stroke: #DEDDDD; stroke-width: 1; opacity: 1;"></line><line transform="translate(107,0)" x2="0" y2="5" style="fill: none; stroke: #DEDDDD; stroke-width: 1; opacity: 1;"></line><line transform="translate(143,0)" x2="0" y2="5" style="fill: none; stroke: #DEDDDD; stroke-width: 1; opacity: 1;"></line><line transform="translate(179,0)" x2="0" y2="5" style="fill: none; stroke: #DEDDDD; stroke-width: 1; opacity: 1;"></line><line transform="translate(214,0)" x2="0" y2="5" style="fill: none; stroke: #DEDDDD; stroke-width: 1; opacity: 1;"></line><line transform="translate(250,0)" x2="0" y2="5" style="fill: none; stroke: #DEDDDD; stroke-width: 1; opacity: 1;"></line><line transform="translate(286,0)" x2="0" y2="5" style="fill: none; stroke: #DEDDDD; stroke-width: 1; opacity: 1;"></line><line transform="translate(321,0)" x2="0" y2="5" style="fill: none; stroke: #DEDDDD; stroke-width: 1; opacity: 1;"></line><line transform="translate(357,0)" x2="0" y2="5" style="fill: none; stroke: #DEDDDD; stroke-width: 1; opacity: 1;"></line><line transform="translate(393,0)" x2="0" y2="5" style="fill: none; stroke: #DEDDDD; stroke-width: 1; opacity: 1;"></line><line transform="translate(429,0)" x2="0" y2="5" style="fill: none; stroke: #DEDDDD; stroke-width: 1; opacity: 1;"></line><line transform="translate(464,0)" x2="0" y2="5" style="fill: none; stroke: #DEDDDD; stroke-width: 1; opacity: 1;"></line><line transform="translate(500,0)" x2="0" y2="5" style="fill: none; stroke: #DEDDDD; stroke-width: 1; opacity: 1;"></line></g><g class="mark-text role-axis-label" style="pointer-events: none;"><text text-anchor="middle" transform="translate(0,15)" style="font-family: Avenir; font-size: 10px; fill: #000; opacity: 1;">0</text><text text-anchor="middle" transform="translate(35.714285714285715,15)" style="font-family: Avenir; font-size: 10px; fill: #000; opacity: 1;">2</text><text text-anchor="middle" transform="translate(71.42857142857143,15)" style="font-family: Avenir; font-size: 10px; fill: #000; opacity: 1;">4</text><text text-anchor="middle" transform="translate(107.14285714285714,15)" style="font-family: Avenir; font-size: 10px; fill: #000; opacity: 1;">6</text><text text-anchor="middle" transform="translate(142.85714285714286,15)" style="font-family: Avenir; font-size: 10px; fill: #000; opacity: 1;">8</text><text text-anchor="middle" transform="translate(178.57142857142858,15)" style="font-family: Avenir; font-size: 10px; fill: #000; opacity: 1;">10</text><text text-anchor="middle" transform="translate(214.28571428571428,15)" style="font-family: Avenir; font-size: 10px; fill: #000; opacity: 1;">12</text><text text-anchor="middle" transform="translate(250,15)" style="font-family: Avenir; font-size: 10px; fill: #000; opacity: 1;">14</text><text text-anchor="middle" transform="translate(285.7142857142857,15)" style="font-family: Avenir; font-size: 10px; fill: #000; opacity: 1;">16</text><text text-anchor="middle" transform="translate(321.42857142857144,15)" style="font-family: Avenir; font-size: 10px; fill: #000; opacity: 1;">18</text><text text-anchor="middle" transform="translate(357.14285714285717,15)" style="font-family: Avenir; font-size: 10px; fill: #000; opacity: 1;">20</text><text text-anchor="middle" transform="translate(392.85714285714283,15)" style="font-family: Avenir; font-size: 10px; fill: #000; opacity: 1;">22</text><text text-anchor="middle" transform="translate(428.57142857142856,15)" style="font-family: Avenir; font-size: 10px; fill: #000; opacity: 1;">24</text><text text-anchor="middle" transform="translate(464.2857142857143,15)" style="font-family: Avenir; font-size: 10px; fill: #000; opacity: 1;">26</text><text text-anchor="middle" transform="translate(500,15)" style="font-family: Avenir; font-size: 10px; fill: #000; opacity: 1;">28</text></g><g class="mark-rule role-axis-domain" style="pointer-events: none;"><line transform="translate(0,0)" x2="500" y2="0" style="fill: none; stroke: #DEDDDD; stroke-width: 1; stroke-dashoffset: 10; opacity: 1;"></line></g><g class="mark-text role-axis-title" style="pointer-events: none;"><text text-anchor="middle" transform="translate(250,36)" style="font-family: Avenir; font-size: 12px; font-weight: 400; fill: #000; opacity: 1;">Days since 100th case</text></g></g><path class="foreground" d="" style="pointer-events: none; display: none; fill: none;"></path></g></g><g class="mark-group role-axis"><g transform="translate(0.5,0.5)"><path class="background" d="M0,0h0v0h0Z" style="pointer-events: none; fill: none;"></path><g><g class="mark-rule role-axis-tick" style="pointer-events: none;"><line transform="translate(0,300)" x2="-5" y2="0" style="fill: none; stroke: #888; stroke-width: 1; opacity: 1;"></line><line transform="translate(0,250)" x2="-5" y2="0" style="fill: none; stroke: #888; stroke-width: 1; opacity: 1;"></line><line transform="translate(0,200)" x2="-5" y2="0" style="fill: none; stroke: #888; stroke-width: 1; opacity: 1;"></line><line transform="translate(0,150)" x2="-5" y2="0" style="fill: none; stroke: #888; stroke-width: 1; opacity: 1;"></line><line transform="translate(0,100)" x2="-5" y2="0" style="fill: none; stroke: #888; stroke-width: 1; opacity: 1;"></line><line transform="translate(0,50)" x2="-5" y2="0" style="fill: none; stroke: #888; stroke-width: 1; opacity: 1;"></line><line transform="translate(0,0)" x2="-5" y2="0" style="fill: none; stroke: #888; stroke-width: 1; opacity: 1;"></line></g><g class="mark-text role-axis-label" style="pointer-events: none;"><text text-anchor="end" transform="translate(-7,303)" style="font-family: Avenir; font-size: 10px; fill: #000; opacity: 1;">0</text><text text-anchor="end" transform="translate(-7,253)" style="font-family: Avenir; font-size: 10px; fill: #000; opacity: 1;">100</text><text text-anchor="end" transform="translate(-7,203.00000000000003)" style="font-family: Avenir; font-size: 10px; fill: #000; opacity: 1;">200</text><text text-anchor="end" transform="translate(-7,153)" style="font-family: Avenir; font-size: 10px; fill: #000; opacity: 1;">300</text><text text-anchor="end" transform="translate(-7,103.00000000000001)" style="font-family: Avenir; font-size: 10px; fill: #000; opacity: 1;">400</text><text text-anchor="end" transform="translate(-7,52.999999999999986)" style="font-family: Avenir; font-size: 10px; fill: #000; opacity: 1;">500</text><text text-anchor="end" transform="translate(-7,3)" style="font-family: Avenir; font-size: 10px; fill: #000; opacity: 1;">600</text></g><g class="mark-text role-axis-title" style="pointer-events: none;"><text text-anchor="middle" transform="translate(-33.70000076293945,150) rotate(-90) translate(0,-3)" style="font-family: Avenir; font-size: 12px; font-weight: 400; fill: #000; opacity: 1;">Cases per 1m inhabitants</text></g></g><path class="foreground" d="" style="pointer-events: none; display: none; fill: none;"></path></g></g></g><path class="foreground" d="" style="display: none; fill: none;"></path></g></g></g></svg>