<svg class="marks" width="1050" height="664.5" viewBox="0 0 700 443" version="1.1" xmlns="http://www.w3.org/2000/svg" xmlns:xlink="http://www.w3.org/1999/xlink"><g transform="translate(72,100)"><g class="mark-group role-frame root"><g transform="translate(0,0)"><path class="background" d="M0,0h500v300h-500Z" style="fill: none; stroke: #ddd; stroke-width: 0;"></path><g><g class="mark-group role-axis"><g transform="translate(0.5,0.5)"><path class="background" d="M0,0h0v0h0Z" style="pointer-events: none; fill: none;"></path><g><g class="mark-rule role-axis-grid" style="pointer-events: none;"><line transform="translate(0,300)" x2="500" y2="0" style="fill: none; stroke: #DEDDDD; stroke-width: 1; stroke-dasharray: 5,2; opacity: 1;"></line><line transform="translate(0,248)" x2="500" y2="0" style="fill: none; stroke: #DEDDDD; stroke-width: 1; stroke-dasharray: 5,2; opacity: 1;"></line><line transform="translate(0,225)" x2="500" y2="0" style="fill: none; stroke: #DEDDDD; stroke-width: 1; stroke-dasharray: 5,2; opacity: 1;"></line><line transform="translate(0,173)" x2="500" y2="0" style="fill: none; stroke: #DEDDDD; stroke-width: 1; stroke-dasharray: 5,2; opacity: 1;"></line><line transform="translate(0,150)" x2="500" y2="0" style="fill: none; stroke: #DEDDDD; stroke-width: 1; stroke-dasharray: 5,2; opacity: 1;"></line><line transform="translate(0,98)" x2="500" y2="0" style="fill: none; stroke: #DEDDDD; stroke-width: 1; stroke-dasharray: 5,2; opacity: 1;"></line><line transform="translate(0,75)" x2="500" y2="0" style="fill: none; stroke: #DEDDDD; stroke-width: 1; stroke-dasharray: 5,2; opacity: 1;"></line></g></g><path class="foreground" d="" style="pointer-events: none; display: none; fill: none;"></path></g></g><g class="mark-group role-scope layer_0_pathgroup"><g transform="translate(0,0)"><path class="background" d="M0,0h500v300h-500Z" style="fill: none;"></path><g><g class="mark-line role-mark layer_0_marks"><path d="M0,300L11.11111111111111,291.45424857698725L22.22222222222222,278.92249745642044L33.333333333333336,276.7777374430576L44.44444444444444,265.5455634180577L55.55555555555555,256.51623025373925L66.66666666666667,238.7322120468255L77.77777777777779,226.36360446220024L88.88888888888889,220.84662514687497L100,218.54972207862136L111.1111111111111,205.9633170968945L122.22222222222221,197.9696958952546L133.33333333333334,197.9696958952546L144.44444444444443,182.5525636915L155.55555555555557,176.03802730792464L166.66666666666666,175.778257410648L177.77777777777777,163.12714041572298L188.88888888888889,158.4498052200625L200,152.98610425465415L211.11111111111111,146.98450293189663L222.2222222222222,142.06630516391692L233.33333333333334,137.98062103479978L244.44444444444443,134.20003167681628L255.55555555555554,127.22304546036614L266.6666666666667,123.4101751462203L277.77777777777777,119.38200260161132L288.88888888888886,114.70708635709632L300,110.71706462320633L311.11111111111114,106.4263525527992L322.22222222222223,104.27401756159755L333.3333333333333,100.8862432078954L344.44444444444446,95.78580388678138L355.55555555555554,92.88416488137737L366.66666666666663,91.67722267948639L377.77777777777777,88.93043119168325" style="fill: none; stroke: #a6cee3; stroke-width: 1;"></path></g></g><path class="foreground" d="" style="display: none; fill: none;"></path></g><g transform="translate(0,0)"><path class="background" d="M0,0h500v300h-500Z" style="fill: none;"></path><g><g class="mark-line role-mark layer_0_marks"><path d="M0,291.45424857698725L11.11111111111111,284.89521567596614L22.22222222222222,278.0807946482643L33.333333333333336,268.6274031510191L44.44444444444444,248.77147213208627L55.55555555555555,238.04438979743804L66.66666666666667,232.30899155145067L77.77777777777779,223.72249955259147L88.88888888888889,219.71945086949106L100,212.74053361725075L111.1111111111111,203.9566222223943L122.22222222222221,201.17658425841313L133.33333333333334,182.60569924348397L144.44444444444443,175.399549499547L155.55555555555557,167.7709919775289L166.66666666666666,160.37595973395668L177.77777777777777,152.51473022030365L188.88888888888889,143.18569530138498L200,136.1055926027561L211.11111111111111,127.67124365518856L222.2222222222222,124.00445875454005L233.33333333333334,120.32038726015165L244.44444444444443,115.25731298692565L255.55555555555554,111.12527590196419L266.6666666666667,107.10175913974926L277.77777777777777,101.78697866096293L288.88888888888886,97.01472938344757L300,92.91463667341488L311.11111111111114,90.52075264355913L322.22222222222223,88.10034514460335L333.3333333333333,85.78703768219779L344.44444444444446,83.1464003325427L355.55555555555554,80.37261579101853L366.66666666666663,78.01503357061529" style="fill: none; stroke: #1f78b4; stroke-width: 1;"></path></g></g><path class="foreground" d="" style="display: none; fill: none;"></path></g><g transform="translate(0,0)"><path class="background" d="M0,0h500v300h-500Z" style="fill: none;"></path><g><g class="mark-line role-mark layer_0_marks"><path d="M0,285.72512263722814L11.11111111111111,273.0123388245084L22.22222222222222,261.9108096228127L33.333333333333336,250.7926348490376L44.44444444444444,238.7819025006163L55.55555555555555,228.86902756660493L66.66666666666667,221.07681752645075L77.77777777777779,207.8314945503984L88.88888888888889,201.84166697514593L100,195.12845209819488L111.1111111111111,188.2636568773912L122.22222222222221,181.0228332519101L133.33333333333334,175.03924295313314L144.44444444444443,167.28008637094152L155.55555555555557,159.91784815123492L166.66666666666666,152.81519654565744L177.77777777777777,149.51825606192676L188.88888888888889,142.8309189810943L200,142.8309189810943L211.11111111111111,131.47569755688374L222.2222222222222,125.59094354578086L233.33333333333334,120.48580812573465L244.44444444444443,116.48642173831433L255.55555555555554,112.62050484969744L266.6666666666667,108.53802496687479L277.77777777777777,104.01341716805513L288.88888888888886,99.57811041986572L300,95.32601265729471L311.11111111111114,92.11000252909454L322.22222222222223,89.57367569164651L333.3333333333333,87.00334155243253L344.44444444444446,84.63815956679393L355.55555555555554,82.02931748991678L366.66666666666663,79.72454506066387L377.77777777777777,77.54923119565447L388.8888888888889,75.76157520439916L400,74.43844015467033L411.1111111111111,73.16603793334987L422.22222222222223,71.72602346828482L433.33333333333337,70.37919099295219L444.4444444444444,69.10839851880888" style="fill: none; stroke: #b2df8a; stroke-width: 1;"></path></g></g><path class="foreground" d="" style="display: none; fill: none;"></path></g><g transform="translate(0,0)"><path class="background" d="M0,0h500v300h-500Z" style="fill: none;"></path><g><g class="mark-line role-mark layer_0_marks"><path d="M0,298.7224995525915L11.11111111111111,276.7777374430576L22.22222222222222,252.26340777349762L33.333333333333336,241.53026315566316L44.44444444444444,230.95162489449095L55.55555555555555,225.75790772109207L66.66666666666667,217.44636850701892L77.77777777777779,206.4756975568838L88.88888888888889,197.35059657058298L100,187.62670846578L111.1111111111111,182.06948493314584L122.22222222222221,177.2258173640828L133.33333333333334,171.38756156750006L144.44444444444443,168.76398110302966L155.55555555555557,166.16440171781127L166.66666666666666,163.5687693192223L177.77777777777777,161.42742417613087L188.88888888888889,160.18837829984807L200,159.46609043863492L211.11111111111111,159.3139958370182L222.2222222222222,158.28136483877822L233.33333333333334,157.8060341017488L244.44444444444443,157.3538651195187L255.55555555555554,156.91996972517583L266.6666666666667,156.6152557172061L277.77777777777777,156.32127465405048L288.88888888888886,155.99075052819572L300,155.6286833313292L311.11111111111114,155.04544745238528L322.22222222222223,154.71626169247094L333.3333333333333,154.1675011724839L344.44444444444446,153.5732642007157L355.55555555555554,153.5732642007157L366.66666666666663,153.29817882894923L377.77777777777777,152.93972813161727L388.8888888888889,152.57107723168343L400,152.25189524087136L411.1111111111111,151.74624717274637L422.22222222222223,151.38738838888148L433.33333333333337,151.12334384178487L444.4444444444444,150.70460914320603L455.55555555555554,150.37015993828936L466.6666666666667,150.07826696471352L477.7777777777778,149.7986765257703" style="fill: none; stroke: #33a02c; stroke-width: 1;"></path></g></g><path class="foreground" d="" style="display: none; fill: none;"></path></g><g transform="translate(0,0)"><path class="background" d="M0,0h500v300h-500Z" style="fill: none;"></path><g><g class="mark-line role-mark layer_0_marks"><path d="M0,294.06140654642815L11.11111111111111,283.68870418395704L22.22222222222222,274.0235269162021L33.333333333333336,269.00251769390616L44.44444444444444,254.84550065040284L55.55555555555555,247.5772496747986L66.66666666666667,237.89887018320172L77.77777777777779,222.70502085255367L88.88888888888889,207.81227230956745L100,198.1977727038643L111.1111111111111,198.1977727038643L122.22222222222221,171.0999198512842L133.33333333333334,164.5823386838583L144.44444444444443,158.10125768610246L155.55555555555557,150.1894680897765L166.66666666666666,144.7527046611928L177.77777777777777,139.25046525059653L188.88888888888889,130.921584757883L200,126.76177464629471L211.11111111111111,119.67082983520919L222.2222222222222,115.58177474601487L233.33333333333334,109.06857611745154L244.44444444444443,104.93928027095637L255.55555555555554,97.89474124605054L266.6666666666667,92.863302506712L277.77777777777777,88.67317901562703L288.88888888888886,85.1460985578425L300,82.22349511976232L311.11111111111114,79.18008970467716L322.22222222222223,76.3557935324903L333.3333333333333,73.68556371257087L344.44444444444446,71.28975034013833L355.55555555555554,69.27955410158614" style="fill: none; stroke: #fb9a99; stroke-width: 1;"></path></g></g><path class="foreground" d="" style="display: none; fill: none;"></path></g><g transform="translate(0,0)"><path class="background" d="M0,0h500v300h-500Z" style="fill: none;"></path><g><g class="mark-line role-mark layer_0_marks"><path d="M0,294.6088494520406L11.11111111111111,287.01102986907944L22.22222222222222,274.76551996136027L33.333333333333336,268.6274031510191L44.44444444444444,254.68304601866475L55.55555555555555,246.42526801910753L66.66666666666667,242.57485839307398L77.77777777777779,226.36360446220024L88.88888888888889,216.93381526914857L100,208.43308130853606L111.1111111111111,199.63070773153083L122.22222222222221,192.32361465437776L133.33333333333334,184.20420431378201L144.44444444444443,175.06735869604654L155.55555555555557,164.4297997562629L166.66666666666666,158.16397271634213L177.77777777777777,139.80068648087814L188.88888888888889,128.92249745642042L200,119.52354020269541L211.11111111111111,110.84016632808851L222.2222222222222,101.85450866952257L233.33333333333334,95.22767534271377L244.44444444444443,88.64395016308467L255.55555555555554,80.74270882584163L266.6666666666667,74.46470331823707L277.77777777777777,68.66267751524666L288.88888888888886,63.83491208076081L300,59.325202059219016L311.11111111111114,54.408374935122175L322.22222222222223,50.31469289952707L333.3333333333333,46.01886520510787L344.44444444444446,41.98071365460455" style="fill: none; stroke: #e31a1c; stroke-width: 1;"></path></g></g><path class="foreground" d="" style="display: none; fill: none;"></path></g><g transform="translate(0,0)"><path class="background" d="M0,0h500v300h-500Z" style="fill: none;"></path><g><g class="mark-line role-mark layer_0_marks"><path d="M0,295.16565080798114L11.11111111111111,283.88671139642264L22.22222222222222,276.3022240907312L33.333333333333336,267.1687077884709L44.44444444444444,261.9108096228127L55.55555555555555,256.1751581724352L66.66666666666667,250.36404858470542L77.77777777777779,250.36404858470542L88.88888888888889,232.18692237868774L100,220.61804816572462L111.1111111111111,220.58958849930696L122.22222222222221,210.70411516397962L133.33333333333334,203.08079464826432L144.44444444444443,193.35503900411186L155.55555555555557,192.4552675793652L166.66666666666666,179.73169738863996L177.77777777777777,172.14368217819964L188.88888888888889,168.05324752317725L200,162.91823527660372L211.11111111111111,156.60727529669757L222.2222222222222,151.1942224572877L233.33333333333334,144.5757421280219L244.44444444444443,137.35164173341371L255.55555555555554,132.12395674301436L266.6666666666667,127.78302845541293L277.77777777777777,123.65442177304226L288.88888888888886,119.53376491100548L300,114.3628110687682L311.11111111111114,109.97376700656582L322.22222222222223,105.93093715529763" style="fill: none; stroke: #fdbf6f; stroke-width: 1;"></path></g></g><path class="foreground" d="" style="display: none; fill: none;"></path></g></g><g class="mark-symbol role-mark layer_1_marks"><path transform="translate(0,300)" d="M1.5811388300841898,0A1.5811388300841898,1.5811388300841898,0,1,1,-1.5811388300841898,0A1.5811388300841898,1.5811388300841898,0,1,1,1.5811388300841898,0" style="fill: #a6cee3; stroke-width: 2; opacity: 1;"></path><path transform="translate(11.11111111111111,291.45424857698725)" d="M1.5811388300841898,0A1.5811388300841898,1.5811388300841898,0,1,1,-1.5811388300841898,0A1.5811388300841898,1.5811388300841898,0,1,1,1.5811388300841898,0" style="fill: #a6cee3; stroke-width: 2; opacity: 1;"></path><path transform="translate(22.22222222222222,278.92249745642044)" d="M1.5811388300841898,0A1.5811388300841898,1.5811388300841898,0,1,1,-1.5811388300841898,0A1.5811388300841898,1.5811388300841898,0,1,1,1.5811388300841898,0" style="fill: #a6cee3; stroke-width: 2; opacity: 1;"></path><path transform="translate(33.333333333333336,276.7777374430576)" d="M1.5811388300841898,0A1.5811388300841898,1.5811388300841898,0,1,1,-1.5811388300841898,0A1.5811388300841898,1.5811388300841898,0,1,1,1.5811388300841898,0" style="fill: #a6cee3; stroke-width: 2; opacity: 1;"></path><path transform="translate(44.44444444444444,265.5455634180577)" d="M1.5811388300841898,0A1.5811388300841898,1.5811388300841898,0,1,1,-1.5811388300841898,0A1.5811388300841898,1.5811388300841898,0,1,1,1.5811388300841898,0" style="fill: #a6cee3; stroke-width: 2; opacity: 1;"></path><path transform="translate(55.55555555555555,256.51623025373925)" d="M1.5811388300841898,0A1.5811388300841898,1.5811388300841898,0,1,1,-1.5811388300841898,0A1.5811388300841898,1.5811388300841898,0,1,1,1.5811388300841898,0" style="fill: #a6cee3; stroke-width: 2; opacity: 1;"></path><path transform="translate(66.66666666666667,238.7322120468255)" d="M1.5811388300841898,0A1.5811388300841898,1.5811388300841898,0,1,1,-1.5811388300841898,0A1.5811388300841898,1.5811388300841898,0,1,1,1.5811388300841898,0" style="fill: #a6cee3; stroke-width: 2; opacity: 1;"></path><path transform="translate(77.77777777777779,226.36360446220024)" d="M1.5811388300841898,0A1.5811388300841898,1.5811388300841898,0,1,1,-1.5811388300841898,0A1.5811388300841898,1.5811388300841898,0,1,1,1.5811388300841898,0" style="fill: #a6cee3; stroke-width: 2; opacity: 1;"></path><path transform="translate(88.88888888888889,220.84662514687497)" d="M1.5811388300841898,0A1.5811388300841898,1.5811388300841898,0,1,1,-1.5811388300841898,0A1.5811388300841898,1.5811388300841898,0,1,1,1.5811388300841898,0" style="fill: #a6cee3; stroke-width: 2; opacity: 1;"></path><path transform="translate(100,218.54972207862136)" d="M1.5811388300841898,0A1.5811388300841898,1.5811388300841898,0,1,1,-1.5811388300841898,0A1.5811388300841898,1.5811388300841898,0,1,1,1.5811388300841898,0" style="fill: #a6cee3; stroke-width: 2; opacity: 1;"></path><path transform="translate(111.1111111111111,205.9633170968945)" d="M1.5811388300841898,0A1.5811388300841898,1.5811388300841898,0,1,1,-1.5811388300841898,0A1.5811388300841898,1.5811388300841898,0,1,1,1.5811388300841898,0" style="fill: #a6cee3; stroke-width: 2; opacity: 1;"></path><path transform="translate(122.22222222222221,197.9696958952546)" d="M1.5811388300841898,0A1.5811388300841898,1.5811388300841898,0,1,1,-1.5811388300841898,0A1.5811388300841898,1.5811388300841898,0,1,1,1.5811388300841898,0" style="fill: #a6cee3; stroke-width: 2; opacity: 1;"></path><path transform="translate(133.33333333333334,197.9696958952546)" d="M1.5811388300841898,0A1.5811388300841898,1.5811388300841898,0,1,1,-1.5811388300841898,0A1.5811388300841898,1.5811388300841898,0,1,1,1.5811388300841898,0" style="fill: #a6cee3; stroke-width: 2; opacity: 1;"></path><path transform="translate(144.44444444444443,182.5525636915)" d="M1.5811388300841898,0A1.5811388300841898,1.5811388300841898,0,1,1,-1.5811388300841898,0A1.5811388300841898,1.5811388300841898,0,1,1,1.5811388300841898,0" style="fill: #a6cee3; stroke-width: 2; opacity: 1;"></path><path transform="translate(155.55555555555557,176.03802730792464)" d="M1.5811388300841898,0A1.5811388300841898,1.5811388300841898,0,1,1,-1.5811388300841898,0A1.5811388300841898,1.5811388300841898,0,1,1,1.5811388300841898,0" style="fill: #a6cee3; stroke-width: 2; opacity: 1;"></path><path transform="translate(166.66666666666666,175.778257410648)" d="M1.5811388300841898,0A1.5811388300841898,1.5811388300841898,0,1,1,-1.5811388300841898,0A1.5811388300841898,1.5811388300841898,0,1,1,1.5811388300841898,0" style="fill: #a6cee3; stroke-width: 2; opacity: 1;"></path><path transform="translate(177.77777777777777,163.12714041572298)" d="M1.5811388300841898,0A1.5811388300841898,1.5811388300841898,0,1,1,-1.5811388300841898,0A1.5811388300841898,1.5811388300841898,0,1,1,1.5811388300841898,0" style="fill: #a6cee3; stroke-width: 2; opacity: 1;"></path><path transform="translate(188.88888888888889,158.4498052200625)" d="M1.5811388300841898,0A1.5811388300841898,1.5811388300841898,0,1,1,-1.5811388300841898,0A1.5811388300841898,1.5811388300841898,0,1,1,1.5811388300841898,0" style="fill: #a6cee3; stroke-width: 2; opacity: 1;"></path><path transform="translate(200,152.98610425465415)" d="M1.5811388300841898,0A1.5811388300841898,1.5811388300841898,0,1,1,-1.5811388300841898,0A1.5811388300841898,1.5811388300841898,0,1,1,1.5811388300841898,0" style="fill: #a6cee3; stroke-width: 2; opacity: 1;"></path><path transform="translate(211.11111111111111,146.98450293189663)" d="M1.5811388300841898,0A1.5811388300841898,1.5811388300841898,0,1,1,-1.5811388300841898,0A1.5811388300841898,1.5811388300841898,0,1,1,1.5811388300841898,0" style="fill: #a6cee3; stroke-width: 2; opacity: 1;"></path><path transform="translate(222.2222222222222,142.06630516391692)" d="M1.5811388300841898,0A1.5811388300841898,1.5811388300841898,0,1,1,-1.5811388300841898,0A1.5811388300841898,1.5811388300841898,0,1,1,1.5811388300841898,0" style="fill: #a6cee3; stroke-width: 2; opacity: 1;"></path><path transform="translate(233.33333333333334,137.98062103479978)" d="M1.5811388300841898,0A1.5811388300841898,1.5811388300841898,0,1,1,-1.5811388300841898,0A1.5811388300841898,1.5811388300841898,0,1,1,1.5811388300841898,0" style="fill: #a6cee3; stroke-width: 2; opacity: 1;"></path><path transform="translate(244.44444444444443,134.20003167681628)" d="M1.5811388300841898,0A1.5811388300841898,1.5811388300841898,0,1,1,-1.5811388300841898,0A1.5811388300841898,1.5811388300841898,0,1,1,1.5811388300841898,0" style="fill: #a6cee3; stroke-width: 2; opacity: 1;"></path><path transform="translate(255.55555555555554,127.22304546036614)" d="M1.5811388300841898,0A1.5811388300841898,1.5811388300841898,0,1,1,-1.5811388300841898,0A1.5811388300841898,1.5811388300841898,0,1,1,1.5811388300841898,0" style="fill: #a6cee3; stroke-width: 2; opacity: 1;"></path><path transform="translate(266.6666666666667,123.4101751462203)" d="M1.5811388300841898,0A1.5811388300841898,1.5811388300841898,0,1,1,-1.5811388300841898,0A1.5811388300841898,1.5811388300841898,0,1,1,1.5811388300841898,0" style="fill: #a6cee3; stroke-width: 2; opacity: 1;"></path><path transform="translate(277.77777777777777,119.38200260161132)" d="M1.5811388300841898,0A1.5811388300841898,1.5811388300841898,0,1,1,-1.5811388300841898,0A1.5811388300841898,1.5811388300841898,0,1,1,1.5811388300841898,0" style="fill: #a6cee3; stroke-width: 2; opacity: 1;"></path><path transform="translate(288.88888888888886,114.70708635709632)" d="M1.5811388300841898,0A1.5811388300841898,1.5811388300841898,0,1,1,-1.5811388300841898,0A1.5811388300841898,1.5811388300841898,0,1,1,1.5811388300841898,0" style="fill: #a6cee3; stroke-width: 2; opacity: 1;"></path><path transform="translate(300,110.71706462320633)" d="M1.5811388300841898,0A1.5811388300841898,1.5811388300841898,0,1,1,-1.5811388300841898,0A1.5811388300841898,1.5811388300841898,0,1,1,1.5811388300841898,0" style="fill: #a6cee3; stroke-width: 2; opacity: 1;"></path><path transform="translate(311.11111111111114,106.4263525527992)" d="M1.5811388300841898,0A1.5811388300841898,1.5811388300841898,0,1,1,-1.5811388300841898,0A1.5811388300841898,1.5811388300841898,0,1,1,1.5811388300841898,0" style="fill: #a6cee3; stroke-width: 2; opacity: 1;"></path><path transform="translate(322.22222222222223,104.27401756159755)" d="M1.5811388300841898,0A1.5811388300841898,1.5811388300841898,0,1,1,-1.5811388300841898,0A1.5811388300841898,1.5811388300841898,0,1,1,1.5811388300841898,0" style="fill: #a6cee3; stroke-width: 2; opacity: 1;"></path><path transform="translate(333.3333333333333,100.8862432078954)" d="M1.5811388300841898,0A1.5811388300841898,1.5811388300841898,0,1,1,-1.5811388300841898,0A1.5811388300841898,1.5811388300841898,0,1,1,1.5811388300841898,0" style="fill: #a6cee3; stroke-width: 2; opacity: 1;"></path><path transform="translate(344.44444444444446,95.78580388678138)" d="M1.5811388300841898,0A1.5811388300841898,1.5811388300841898,0,1,1,-1.5811388300841898,0A1.5811388300841898,1.5811388300841898,0,1,1,1.5811388300841898,0" style="fill: #a6cee3; stroke-width: 2; opacity: 1;"></path><path transform="translate(355.55555555555554,92.88416488137737)" d="M1.5811388300841898,0A1.5811388300841898,1.5811388300841898,0,1,1,-1.5811388300841898,0A1.5811388300841898,1.5811388300841898,0,1,1,1.5811388300841898,0" style="fill: #a6cee3; stroke-width: 2; opacity: 1;"></path><path transform="translate(366.66666666666663,91.67722267948639)" d="M1.5811388300841898,0A1.5811388300841898,1.5811388300841898,0,1,1,-1.5811388300841898,0A1.5811388300841898,1.5811388300841898,0,1,1,1.5811388300841898,0" style="fill: #a6cee3; stroke-width: 2; opacity: 1;"></path><path transform="translate(377.77777777777777,88.93043119168325)" d="M1.5811388300841898,0A1.5811388300841898,1.5811388300841898,0,1,1,-1.5811388300841898,0A1.5811388300841898,1.5811388300841898,0,1,1,1.5811388300841898,0" style="fill: #a6cee3; stroke-width: 2; opacity: 1;"></path><path transform="translate(0,291.45424857698725)" d="M1.5811388300841898,0A1.5811388300841898,1.5811388300841898,0,1,1,-1.5811388300841898,0A1.5811388300841898,1.5811388300841898,0,1,1,1.5811388300841898,0" style="fill: #1f78b4; stroke-width: 2; opacity: 1;"></path><path transform="translate(11.11111111111111,284.89521567596614)" d="M1.5811388300841898,0A1.5811388300841898,1.5811388300841898,0,1,1,-1.5811388300841898,0A1.5811388300841898,1.5811388300841898,0,1,1,1.5811388300841898,0" style="fill: #1f78b4; stroke-width: 2; opacity: 1;"></path><path transform="translate(22.22222222222222,278.0807946482643)" d="M1.5811388300841898,0A1.5811388300841898,1.5811388300841898,0,1,1,-1.5811388300841898,0A1.5811388300841898,1.5811388300841898,0,1,1,1.5811388300841898,0" style="fill: #1f78b4; stroke-width: 2; opacity: 1;"></path><path transform="translate(33.333333333333336,268.6274031510191)" d="M1.5811388300841898,0A1.5811388300841898,1.5811388300841898,0,1,1,-1.5811388300841898,0A1.5811388300841898,1.5811388300841898,0,1,1,1.5811388300841898,0" style="fill: #1f78b4; stroke-width: 2; opacity: 1;"></path><path transform="translate(44.44444444444444,248.77147213208627)" d="M1.5811388300841898,0A1.5811388300841898,1.5811388300841898,0,1,1,-1.5811388300841898,0A1.5811388300841898,1.5811388300841898,0,1,1,1.5811388300841898,0" style="fill: #1f78b4; stroke-width: 2; opacity: 1;"></path><path transform="translate(55.55555555555555,238.04438979743804)" d="M1.5811388300841898,0A1.5811388300841898,1.5811388300841898,0,1,1,-1.5811388300841898,0A1.5811388300841898,1.5811388300841898,0,1,1,1.5811388300841898,0" style="fill: #1f78b4; stroke-width: 2; opacity: 1;"></path><path transform="translate(66.66666666666667,232.30899155145067)" d="M1.5811388300841898,0A1.5811388300841898,1.5811388300841898,0,1,1,-1.5811388300841898,0A1.5811388300841898,1.5811388300841898,0,1,1,1.5811388300841898,0" style="fill: #1f78b4; stroke-width: 2; opacity: 1;"></path><path transform="translate(77.77777777777779,223.72249955259147)" d="M1.5811388300841898,0A1.5811388300841898,1.5811388300841898,0,1,1,-1.5811388300841898,0A1.5811388300841898,1.5811388300841898,0,1,1,1.5811388300841898,0" style="fill: #1f78b4; stroke-width: 2; opacity: 1;"></path><path transform="translate(88.88888888888889,219.71945086949106)" d="M1.5811388300841898,0A1.5811388300841898,1.5811388300841898,0,1,1,-1.5811388300841898,0A1.5811388300841898,1.5811388300841898,0,1,1,1.5811388300841898,0" style="fill: #1f78b4; stroke-width: 2; opacity: 1;"></path><path transform="translate(100,212.74053361725075)" d="M1.5811388300841898,0A1.5811388300841898,1.5811388300841898,0,1,1,-1.5811388300841898,0A1.5811388300841898,1.5811388300841898,0,1,1,1.5811388300841898,0" style="fill: #1f78b4; stroke-width: 2; opacity: 1;"></path><path transform="translate(111.1111111111111,203.9566222223943)" d="M1.5811388300841898,0A1.5811388300841898,1.5811388300841898,0,1,1,-1.5811388300841898,0A1.5811388300841898,1.5811388300841898,0,1,1,1.5811388300841898,0" style="fill: #1f78b4; stroke-width: 2; opacity: 1;"></path><path transform="translate(122.22222222222221,201.17658425841313)" d="M1.5811388300841898,0A1.5811388300841898,1.5811388300841898,0,1,1,-1.5811388300841898,0A1.5811388300841898,1.5811388300841898,0,1,1,1.5811388300841898,0" style="fill: #1f78b4; stroke-width: 2; opacity: 1;"></path><path transform="translate(133.33333333333334,182.60569924348397)" d="M1.5811388300841898,0A1.5811388300841898,1.5811388300841898,0,1,1,-1.5811388300841898,0A1.5811388300841898,1.5811388300841898,0,1,1,1.5811388300841898,0" style="fill: #1f78b4; stroke-width: 2; opacity: 1;"></path><path transform="translate(144.44444444444443,175.399549499547)" d="M1.5811388300841898,0A1.5811388300841898,1.5811388300841898,0,1,1,-1.5811388300841898,0A1.5811388300841898,1.5811388300841898,0,1,1,1.5811388300841898,0" style="fill: #1f78b4; stroke-width: 2; opacity: 1;"></path><path transform="translate(155.55555555555557,167.7709919775289)" d="M1.5811388300841898,0A1.5811388300841898,1.5811388300841898,0,1,1,-1.5811388300841898,0A1.5811388300841898,1.5811388300841898,0,1,1,1.5811388300841898,0" style="fill: #1f78b4; stroke-width: 2; opacity: 1;"></path><path transform="translate(166.66666666666666,160.37595973395668)" d="M1.5811388300841898,0A1.5811388300841898,1.5811388300841898,0,1,1,-1.5811388300841898,0A1.5811388300841898,1.5811388300841898,0,1,1,1.5811388300841898,0" style="fill: #1f78b4; stroke-width: 2; opacity: 1;"></path><path transform="translate(177.77777777777777,152.51473022030365)" d="M1.5811388300841898,0A1.5811388300841898,1.5811388300841898,0,1,1,-1.5811388300841898,0A1.5811388300841898,1.5811388300841898,0,1,1,1.5811388300841898,0" style="fill: #1f78b4; stroke-width: 2; opacity: 1;"></path><path transform="translate(188.88888888888889,143.18569530138498)" d="M1.5811388300841898,0A1.5811388300841898,1.5811388300841898,0,1,1,-1.5811388300841898,0A1.5811388300841898,1.5811388300841898,0,1,1,1.5811388300841898,0" style="fill: #1f78b4; stroke-width: 2; opacity: 1;"></path><path transform="translate(200,136.1055926027561)" d="M1.5811388300841898,0A1.5811388300841898,1.5811388300841898,0,1,1,-1.5811388300841898,0A1.5811388300841898,1.5811388300841898,0,1,1,1.5811388300841898,0" style="fill: #1f78b4; stroke-width: 2; opacity: 1;"></path><path transform="translate(211.11111111111111,127.67124365518856)" d="M1.5811388300841898,0A1.5811388300841898,1.5811388300841898,0,1,1,-1.5811388300841898,0A1.5811388300841898,1.5811388300841898,0,1,1,1.5811388300841898,0" style="fill: #1f78b4; stroke-width: 2; opacity: 1;"></path><path transform="translate(222.2222222222222,124.00445875454005)" d="M1.5811388300841898,0A1.5811388300841898,1.5811388300841898,0,1,1,-1.5811388300841898,0A1.5811388300841898,1.5811388300841898,0,1,1,1.5811388300841898,0" style="fill: #1f78b4; stroke-width: 2; opacity: 1;"></path><path transform="translate(233.33333333333334,120.32038726015165)" d="M1.5811388300841898,0A1.5811388300841898,1.5811388300841898,0,1,1,-1.5811388300841898,0A1.5811388300841898,1.5811388300841898,0,1,1,1.5811388300841898,0" style="fill: #1f78b4; stroke-width: 2; opacity: 1;"></path><path transform="translate(244.44444444444443,115.25731298692565)" d="M1.5811388300841898,0A1.5811388300841898,1.5811388300841898,0,1,1,-1.5811388300841898,0A1.5811388300841898,1.5811388300841898,0,1,1,1.5811388300841898,0" style="fill: #1f78b4; stroke-width: 2; opacity: 1;"></path><path transform="translate(255.55555555555554,111.12527590196419)" d="M1.5811388300841898,0A1.5811388300841898,1.5811388300841898,0,1,1,-1.5811388300841898,0A1.5811388300841898,1.5811388300841898,0,1,1,1.5811388300841898,0" style="fill: #1f78b4; stroke-width: 2; opacity: 1;"></path><path transform="translate(266.6666666666667,107.10175913974926)" d="M1.5811388300841898,0A1.5811388300841898,1.5811388300841898,0,1,1,-1.5811388300841898,0A1.5811388300841898,1.5811388300841898,0,1,1,1.5811388300841898,0" style="fill: #1f78b4; stroke-width: 2; opacity: 1;"></path><path transform="translate(277.77777777777777,101.78697866096293)" d="M1.5811388300841898,0A1.5811388300841898,1.5811388300841898,0,1,1,-1.5811388300841898,0A1.5811388300841898,1.5811388300841898,0,1,1,1.5811388300841898,0" style="fill: #1f78b4; stroke-width: 2; opacity: 1;"></path><path transform="translate(288.88888888888886,97.01472938344757)" d="M1.5811388300841898,0A1.5811388300841898,1.5811388300841898,0,1,1,-1.5811388300841898,0A1.5811388300841898,1.5811388300841898,0,1,1,1.5811388300841898,0" style="fill: #1f78b4; stroke-width: 2; opacity: 1;"></path><path transform="translate(300,92.91463667341488)" d="M1.5811388300841898,0A1.5811388300841898,1.5811388300841898,0,1,1,-1.5811388300841898,0A1.5811388300841898,1.5811388300841898,0,1,1,1.5811388300841898,0" style="fill: #1f78b4; stroke-width: 2; opacity: 1;"></path><path transform="translate(311.11111111111114,90.52075264355913)" d="M1.5811388300841898,0A1.5811388300841898,1.5811388300841898,0,1,1,-1.5811388300841898,0A1.5811388300841898,1.5811388300841898,0,1,1,1.5811388300841898,0" style="fill: #1f78b4; stroke-width: 2; opacity: 1;"></path><path transform="translate(322.22222222222223,88.10034514460335)" d="M1.5811388300841898,0A1.5811388300841898,1.5811388300841898,0,1,1,-1.5811388300841898,0A1.5811388300841898,1.5811388300841898,0,1,1,1.5811388300841898,0" style="fill: #1f78b4; stroke-width: 2; opacity: 1;"></path><path transform="translate(333.3333333333333,85.78703768219779)" d="M1.5811388300841898,0A1.5811388300841898,1.5811388300841898,0,1,1,-1.5811388300841898,0A1.5811388300841898,1.5811388300841898,0,1,1,1.5811388300841898,0" style="fill: #1f78b4; stroke-width: 2; opacity: 1;"></path><path transform="translate(344.44444444444446,83.1464003325427)" d="M1.5811388300841898,0A1.5811388300841898,1.5811388300841898,0,1,1,-1.5811388300841898,0A1.5811388300841898,1.5811388300841898,0,1,1,1.5811388300841898,0" style="fill: #1f78b4; stroke-width: 2; opacity: 1;"></path><path transform="translate(355.55555555555554,80.37261579101853)" d="M1.5811388300841898,0A1.5811388300841898,1.5811388300841898,0,1,1,-1.5811388300841898,0A1.5811388300841898,1.5811388300841898,0,1,1,1.5811388300841898,0" style="fill: #1f78b4; stroke-width: 2; opacity: 1;"></path><path transform="translate(366.66666666666663,78.01503357061529)" d="M1.5811388300841898,0A1.5811388300841898,1.5811388300841898,0,1,1,-1.5811388300841898,0A1.5811388300841898,1.5811388300841898,0,1,1,1.5811388300841898,0" style="fill: #1f78b4; stroke-width: 2; opacity: 1;"></path><path transform="translate(0,285.72512263722814)" d="M1.5811388300841898,0A1.5811388300841898,1.5811388300841898,0,1,1,-1.5811388300841898,0A1.5811388300841898,1.5811388300841898,0,1,1,1.5811388300841898,0" style="fill: #b2df8a; stroke-width: 2; opacity: 1;"></path><path transform="translate(11.11111111111111,273.0123388245084)" d="M1.5811388300841898,0A1.5811388300841898,1.5811388300841898,0,1,1,-1.5811388300841898,0A1.5811388300841898,1.5811388300841898,0,1,1,1.5811388300841898,0" style="fill: #b2df8a; stroke-width: 2; opacity: 1;"></path><path transform="translate(22.22222222222222,261.9108096228127)" d="M1.5811388300841898,0A1.5811388300841898,1.5811388300841898,0,1,1,-1.5811388300841898,0A1.5811388300841898,1.5811388300841898,0,1,1,1.5811388300841898,0" style="fill: #b2df8a; stroke-width: 2; opacity: 1;"></path><path transform="translate(33.333333333333336,250.7926348490376)" d="M1.5811388300841898,0A1.5811388300841898,1.5811388300841898,0,1,1,-1.5811388300841898,0A1.5811388300841898,1.5811388300841898,0,1,1,1.5811388300841898,0" style="fill: #b2df8a; stroke-width: 2; opacity: 1;"></path><path transform="translate(44.44444444444444,238.7819025006163)" d="M1.5811388300841898,0A1.5811388300841898,1.5811388300841898,0,1,1,-1.5811388300841898,0A1.5811388300841898,1.5811388300841898,0,1,1,1.5811388300841898,0" style="fill: #b2df8a; stroke-width: 2; opacity: 1;"></path><path transform="translate(55.55555555555555,228.86902756660493)" d="M1.5811388300841898,0A1.5811388300841898,1.5811388300841898,0,1,1,-1.5811388300841898,0A1.5811388300841898,1.5811388300841898,0,1,1,1.5811388300841898,0" style="fill: #b2df8a; stroke-width: 2; opacity: 1;"></path><path transform="translate(66.66666666666667,221.07681752645075)" d="M1.5811388300841898,0A1.5811388300841898,1.5811388300841898,0,1,1,-1.5811388300841898,0A1.5811388300841898,1.5811388300841898,0,1,1,1.5811388300841898,0" style="fill: #b2df8a; stroke-width: 2; opacity: 1;"></path><path transform="translate(77.77777777777779,207.8314945503984)" d="M1.5811388300841898,0A1.5811388300841898,1.5811388300841898,0,1,1,-1.5811388300841898,0A1.5811388300841898,1.5811388300841898,0,1,1,1.5811388300841898,0" style="fill: #b2df8a; stroke-width: 2; opacity: 1;"></path><path transform="translate(88.88888888888889,201.84166697514593)" d="M1.5811388300841898,0A1.5811388300841898,1.5811388300841898,0,1,1,-1.5811388300841898,0A1.5811388300841898,1.5811388300841898,0,1,1,1.5811388300841898,0" style="fill: #b2df8a; stroke-width: 2; opacity: 1;"></path><path transform="translate(100,195.12845209819488)" d="M1.5811388300841898,0A1.5811388300841898,1.5811388300841898,0,1,1,-1.5811388300841898,0A1.5811388300841898,1.5811388300841898,0,1,1,1.5811388300841898,0" style="fill: #b2df8a; stroke-width: 2; opacity: 1;"></path><path transform="translate(111.1111111111111,188.2636568773912)" d="M1.5811388300841898,0A1.5811388300841898,1.5811388300841898,0,1,1,-1.5811388300841898,0A1.5811388300841898,1.5811388300841898,0,1,1,1.5811388300841898,0" style="fill: #b2df8a; stroke-width: 2; opacity: 1;"></path><path transform="translate(122.22222222222221,181.0228332519101)" d="M1.5811388300841898,0A1.5811388300841898,1.5811388300841898,0,1,1,-1.5811388300841898,0A1.5811388300841898,1.5811388300841898,0,1,1,1.5811388300841898,0" style="fill: #b2df8a; stroke-width: 2; opacity: 1;"></path><path transform="translate(133.33333333333334,175.03924295313314)" d="M1.5811388300841898,0A1.5811388300841898,1.5811388300841898,0,1,1,-1.5811388300841898,0A1.5811388300841898,1.5811388300841898,0,1,1,1.5811388300841898,0" style="fill: #b2df8a; stroke-width: 2; opacity: 1;"></path><path transform="translate(144.44444444444443,167.28008637094152)" d="M1.5811388300841898,0A1.5811388300841898,1.5811388300841898,0,1,1,-1.5811388300841898,0A1.5811388300841898,1.5811388300841898,0,1,1,1.5811388300841898,0" style="fill: #b2df8a; stroke-width: 2; opacity: 1;"></path><path transform="translate(155.55555555555557,159.91784815123492)" d="M1.5811388300841898,0A1.5811388300841898,1.5811388300841898,0,1,1,-1.5811388300841898,0A1.5811388300841898,1.5811388300841898,0,1,1,1.5811388300841898,0" style="fill: #b2df8a; stroke-width: 2; opacity: 1;"></path><path transform="translate(166.66666666666666,152.81519654565744)" d="M1.5811388300841898,0A1.5811388300841898,1.5811388300841898,0,1,1,-1.5811388300841898,0A1.5811388300841898,1.5811388300841898,0,1,1,1.5811388300841898,0" style="fill: #b2df8a; stroke-width: 2; opacity: 1;"></path><path transform="translate(177.77777777777777,149.51825606192676)" d="M1.5811388300841898,0A1.5811388300841898,1.5811388300841898,0,1,1,-1.5811388300841898,0A1.5811388300841898,1.5811388300841898,0,1,1,1.5811388300841898,0" style="fill: #b2df8a; stroke-width: 2; opacity: 1;"></path><path transform="translate(188.88888888888889,142.8309189810943)" d="M1.5811388300841898,0A1.5811388300841898,1.5811388300841898,0,1,1,-1.5811388300841898,0A1.5811388300841898,1.5811388300841898,0,1,1,1.5811388300841898,0" style="fill: #b2df8a; stroke-width: 2; opacity: 1;"></path><path transform="translate(200,142.8309189810943)" d="M1.5811388300841898,0A1.5811388300841898,1.5811388300841898,0,1,1,-1.5811388300841898,0A1.5811388300841898,1.5811388300841898,0,1,1,1.5811388300841898,0" style="fill: #b2df8a; stroke-width: 2; opacity: 1;"></path><path transform="translate(211.11111111111111,131.47569755688374)" d="M1.5811388300841898,0A1.5811388300841898,1.5811388300841898,0,1,1,-1.5811388300841898,0A1.5811388300841898,1.5811388300841898,0,1,1,1.5811388300841898,0" style="fill: #b2df8a; stroke-width: 2; opacity: 1;"></path><path transform="translate(222.2222222222222,125.59094354578086)" d="M1.5811388300841898,0A1.5811388300841898,1.5811388300841898,0,1,1,-1.5811388300841898,0A1.5811388300841898,1.5811388300841898,0,1,1,1.5811388300841898,0" style="fill: #b2df8a; stroke-width: 2; opacity: 1;"></path><path transform="translate(233.33333333333334,120.48580812573465)" d="M1.5811388300841898,0A1.5811388300841898,1.5811388300841898,0,1,1,-1.5811388300841898,0A1.5811388300841898,1.5811388300841898,0,1,1,1.5811388300841898,0" style="fill: #b2df8a; stroke-width: 2; opacity: 1;"></path><path transform="translate(244.44444444444443,116.48642173831433)" d="M1.5811388300841898,0A1.5811388300841898,1.5811388300841898,0,1,1,-1.5811388300841898,0A1.5811388300841898,1.5811388300841898,0,1,1,1.5811388300841898,0" style="fill: #b2df8a; stroke-width: 2; opacity: 1;"></path><path transform="translate(255.55555555555554,112.62050484969744)" d="M1.5811388300841898,0A1.5811388300841898,1.5811388300841898,0,1,1,-1.5811388300841898,0A1.5811388300841898,1.5811388300841898,0,1,1,1.5811388300841898,0" style="fill: #b2df8a; stroke-width: 2; opacity: 1;"></path><path transform="translate(266.6666666666667,108.53802496687479)" d="M1.5811388300841898,0A1.5811388300841898,1.5811388300841898,0,1,1,-1.5811388300841898,0A1.5811388300841898,1.5811388300841898,0,1,1,1.5811388300841898,0" style="fill: #b2df8a; stroke-width: 2; opacity: 1;"></path><path transform="translate(277.77777777777777,104.01341716805513)" d="M1.5811388300841898,0A1.5811388300841898,1.5811388300841898,0,1,1,-1.5811388300841898,0A1.5811388300841898,1.5811388300841898,0,1,1,1.5811388300841898,0" style="fill: #b2df8a; stroke-width: 2; opacity: 1;"></path><path transform="translate(288.88888888888886,99.57811041986572)" d="M1.5811388300841898,0A1.5811388300841898,1.5811388300841898,0,1,1,-1.5811388300841898,0A1.5811388300841898,1.5811388300841898,0,1,1,1.5811388300841898,0" style="fill: #b2df8a; stroke-width: 2; opacity: 1;"></path><path transform="translate(300,95.32601265729471)" d="M1.5811388300841898,0A1.5811388300841898,1.5811388300841898,0,1,1,-1.5811388300841898,0A1.5811388300841898,1.5811388300841898,0,1,1,1.5811388300841898,0" style="fill: #b2df8a; stroke-width: 2; opacity: 1;"></path><path transform="translate(311.11111111111114,92.11000252909454)" d="M1.5811388300841898,0A1.5811388300841898,1.5811388300841898,0,1,1,-1.5811388300841898,0A1.5811388300841898,1.5811388300841898,0,1,1,1.5811388300841898,0" style="fill: #b2df8a; stroke-width: 2; opacity: 1;"></path><path transform="translate(322.22222222222223,89.57367569164651)" d="M1.5811388300841898,0A1.5811388300841898,1.5811388300841898,0,1,1,-1.5811388300841898,0A1.5811388300841898,1.5811388300841898,0,1,1,1.5811388300841898,0" style="fill: #b2df8a; stroke-width: 2; opacity: 1;"></path><path transform="translate(333.3333333333333,87.00334155243253)" d="M1.5811388300841898,0A1.5811388300841898,1.5811388300841898,0,1,1,-1.5811388300841898,0A1.5811388300841898,1.5811388300841898,0,1,1,1.5811388300841898,0" style="fill: #b2df8a; stroke-width: 2; opacity: 1;"></path><path transform="translate(344.44444444444446,84.63815956679393)" d="M1.5811388300841898,0A1.5811388300841898,1.5811388300841898,0,1,1,-1.5811388300841898,0A1.5811388300841898,1.5811388300841898,0,1,1,1.5811388300841898,0" style="fill: #b2df8a; stroke-width: 2; opacity: 1;"></path><path transform="translate(355.55555555555554,82.02931748991678)" d="M1.5811388300841898,0A1.5811388300841898,1.5811388300841898,0,1,1,-1.5811388300841898,0A1.5811388300841898,1.5811388300841898,0,1,1,1.5811388300841898,0" style="fill: #b2df8a; stroke-width: 2; opacity: 1;"></path><path transform="translate(366.66666666666663,79.72454506066387)" d="M1.5811388300841898,0A1.5811388300841898,1.5811388300841898,0,1,1,-1.5811388300841898,0A1.5811388300841898,1.5811388300841898,0,1,1,1.5811388300841898,0" style="fill: #b2df8a; stroke-width: 2; opacity: 1;"></path><path transform="translate(377.77777777777777,77.54923119565447)" d="M1.5811388300841898,0A1.5811388300841898,1.5811388300841898,0,1,1,-1.5811388300841898,0A1.5811388300841898,1.5811388300841898,0,1,1,1.5811388300841898,0" style="fill: #b2df8a; stroke-width: 2; opacity: 1;"></path><path transform="translate(388.8888888888889,75.76157520439916)" d="M1.5811388300841898,0A1.5811388300841898,1.5811388300841898,0,1,1,-1.5811388300841898,0A1.5811388300841898,1.5811388300841898,0,1,1,1.5811388300841898,0" style="fill: #b2df8a; stroke-width: 2; opacity: 1;"></path><path transform="translate(400,74.43844015467033)" d="M1.5811388300841898,0A1.5811388300841898,1.5811388300841898,0,1,1,-1.5811388300841898,0A1.5811388300841898,1.5811388300841898,0,1,1,1.5811388300841898,0" style="fill: #b2df8a; stroke-width: 2; opacity: 1;"></path><path transform="translate(411.1111111111111,73.16603793334987)" d="M1.5811388300841898,0A1.5811388300841898,1.5811388300841898,0,1,1,-1.5811388300841898,0A1.5811388300841898,1.5811388300841898,0,1,1,1.5811388300841898,0" style="fill: #b2df8a; stroke-width: 2; opacity: 1;"></path><path transform="translate(422.22222222222223,71.72602346828482)" d="M1.5811388300841898,0A1.5811388300841898,1.5811388300841898,0,1,1,-1.5811388300841898,0A1.5811388300841898,1.5811388300841898,0,1,1,1.5811388300841898,0" style="fill: #b2df8a; stroke-width: 2; opacity: 1;"></path><path transform="translate(433.33333333333337,70.37919099295219)" d="M1.5811388300841898,0A1.5811388300841898,1.5811388300841898,0,1,1,-1.5811388300841898,0A1.5811388300841898,1.5811388300841898,0,1,1,1.5811388300841898,0" style="fill: #b2df8a; stroke-width: 2; opacity: 1;"></path><path transform="translate(444.4444444444444,69.10839851880888)" d="M1.5811388300841898,0A1.5811388300841898,1.5811388300841898,0,1,1,-1.5811388300841898,0A1.5811388300841898,1.5811388300841898,0,1,1,1.5811388300841898,0" style="fill: #b2df8a; stroke-width: 2; opacity: 1;"></path><path transform="translate(0,298.7224995525915)" d="M1.5811388300841898,0A1.5811388300841898,1.5811388300841898,0,1,1,-1.5811388300841898,0A1.5811388300841898,1.5811388300841898,0,1,1,1.5811388300841898,0" style="fill: #33a02c; stroke-width: 2; opacity: 1;"></path><path transform="translate(11.11111111111111,276.7777374430576)" d="M1.5811388300841898,0A1.5811388300841898,1.5811388300841898,0,1,1,-1.5811388300841898,0A1.5811388300841898,1.5811388300841898,0,1,1,1.5811388300841898,0" style="fill: #33a02c; stroke-width: 2; opacity: 1;"></path><path transform="translate(22.22222222222222,252.26340777349762)" d="M1.5811388300841898,0A1.5811388300841898,1.5811388300841898,0,1,1,-1.5811388300841898,0A1.5811388300841898,1.5811388300841898,0,1,1,1.5811388300841898,0" style="fill: #33a02c; stroke-width: 2; opacity: 1;"></path><path transform="translate(33.333333333333336,241.53026315566316)" d="M1.5811388300841898,0A1.5811388300841898,1.5811388300841898,0,1,1,-1.5811388300841898,0A1.5811388300841898,1.5811388300841898,0,1,1,1.5811388300841898,0" style="fill: #33a02c; stroke-width: 2; opacity: 1;"></path><path transform="translate(44.44444444444444,230.95162489449095)" d="M1.5811388300841898,0A1.5811388300841898,1.5811388300841898,0,1,1,-1.5811388300841898,0A1.5811388300841898,1.5811388300841898,0,1,1,1.5811388300841898,0" style="fill: #33a02c; stroke-width: 2; opacity: 1;"></path><path transform="translate(55.55555555555555,225.75790772109207)" d="M1.5811388300841898,0A1.5811388300841898,1.5811388300841898,0,1,1,-1.5811388300841898,0A1.5811388300841898,1.5811388300841898,0,1,1,1.5811388300841898,0" style="fill: #33a02c; stroke-width: 2; opacity: 1;"></path><path transform="translate(66.66666666666667,217.44636850701892)" d="M1.5811388300841898,0A1.5811388300841898,1.5811388300841898,0,1,1,-1.5811388300841898,0A1.5811388300841898,1.5811388300841898,0,1,1,1.5811388300841898,0" style="fill: #33a02c; stroke-width: 2; opacity: 1;"></path><path transform="translate(77.77777777777779,206.4756975568838)" d="M1.5811388300841898,0A1.5811388300841898,1.5811388300841898,0,1,1,-1.5811388300841898,0A1.5811388300841898,1.5811388300841898,0,1,1,1.5811388300841898,0" style="fill: #33a02c; stroke-width: 2; opacity: 1;"></path><path transform="translate(88.88888888888889,197.35059657058298)" d="M1.5811388300841898,0A1.5811388300841898,1.5811388300841898,0,1,1,-1.5811388300841898,0A1.5811388300841898,1.5811388300841898,0,1,1,1.5811388300841898,0" style="fill: #33a02c; stroke-width: 2; opacity: 1;"></path><path transform="translate(100,187.62670846578)" d="M1.5811388300841898,0A1.5811388300841898,1.5811388300841898,0,1,1,-1.5811388300841898,0A1.5811388300841898,1.5811388300841898,0,1,1,1.5811388300841898,0" style="fill: #33a02c; stroke-width: 2; opacity: 1;"></path><path transform="translate(111.1111111111111,182.06948493314584)" d="M1.5811388300841898,0A1.5811388300841898,1.5811388300841898,0,1,1,-1.5811388300841898,0A1.5811388300841898,1.5811388300841898,0,1,1,1.5811388300841898,0" style="fill: #33a02c; stroke-width: 2; opacity: 1;"></path><path transform="translate(122.22222222222221,177.2258173640828)" d="M1.5811388300841898,0A1.5811388300841898,1.5811388300841898,0,1,1,-1.5811388300841898,0A1.5811388300841898,1.5811388300841898,0,1,1,1.5811388300841898,0" style="fill: #33a02c; stroke-width: 2; opacity: 1;"></path><path transform="translate(133.33333333333334,171.38756156750006)" d="M1.5811388300841898,0A1.5811388300841898,1.5811388300841898,0,1,1,-1.5811388300841898,0A1.5811388300841898,1.5811388300841898,0,1,1,1.5811388300841898,0" style="fill: #33a02c; stroke-width: 2; opacity: 1;"></path><path transform="translate(144.44444444444443,168.76398110302966)" d="M1.5811388300841898,0A1.5811388300841898,1.5811388300841898,0,1,1,-1.5811388300841898,0A1.5811388300841898,1.5811388300841898,0,1,1,1.5811388300841898,0" style="fill: #33a02c; stroke-width: 2; opacity: 1;"></path><path transform="translate(155.55555555555557,166.16440171781127)" d="M1.5811388300841898,0A1.5811388300841898,1.5811388300841898,0,1,1,-1.5811388300841898,0A1.5811388300841898,1.5811388300841898,0,1,1,1.5811388300841898,0" style="fill: #33a02c; stroke-width: 2; opacity: 1;"></path><path transform="translate(166.66666666666666,163.5687693192223)" d="M1.5811388300841898,0A1.5811388300841898,1.5811388300841898,0,1,1,-1.5811388300841898,0A1.5811388300841898,1.5811388300841898,0,1,1,1.5811388300841898,0" style="fill: #33a02c; stroke-width: 2; opacity: 1;"></path><path transform="translate(177.77777777777777,161.42742417613087)" d="M1.5811388300841898,0A1.5811388300841898,1.5811388300841898,0,1,1,-1.5811388300841898,0A1.5811388300841898,1.5811388300841898,0,1,1,1.5811388300841898,0" style="fill: #33a02c; stroke-width: 2; opacity: 1;"></path><path transform="translate(188.88888888888889,160.18837829984807)" d="M1.5811388300841898,0A1.5811388300841898,1.5811388300841898,0,1,1,-1.5811388300841898,0A1.5811388300841898,1.5811388300841898,0,1,1,1.5811388300841898,0" style="fill: #33a02c; stroke-width: 2; opacity: 1;"></path><path transform="translate(200,159.46609043863492)" d="M1.5811388300841898,0A1.5811388300841898,1.5811388300841898,0,1,1,-1.5811388300841898,0A1.5811388300841898,1.5811388300841898,0,1,1,1.5811388300841898,0" style="fill: #33a02c; stroke-width: 2; opacity: 1;"></path><path transform="translate(211.11111111111111,159.3139958370182)" d="M1.5811388300841898,0A1.5811388300841898,1.5811388300841898,0,1,1,-1.5811388300841898,0A1.5811388300841898,1.5811388300841898,0,1,1,1.5811388300841898,0" style="fill: #33a02c; stroke-width: 2; opacity: 1;"></path><path transform="translate(222.2222222222222,158.28136483877822)" d="M1.5811388300841898,0A1.5811388300841898,1.5811388300841898,0,1,1,-1.5811388300841898,0A1.5811388300841898,1.5811388300841898,0,1,1,1.5811388300841898,0" style="fill: #33a02c; stroke-width: 2; opacity: 1;"></path><path transform="translate(233.33333333333334,157.8060341017488)" d="M1.5811388300841898,0A1.5811388300841898,1.5811388300841898,0,1,1,-1.5811388300841898,0A1.5811388300841898,1.5811388300841898,0,1,1,1.5811388300841898,0" style="fill: #33a02c; stroke-width: 2; opacity: 1;"></path><path transform="translate(244.44444444444443,157.3538651195187)" d="M1.5811388300841898,0A1.5811388300841898,1.5811388300841898,0,1,1,-1.5811388300841898,0A1.5811388300841898,1.5811388300841898,0,1,1,1.5811388300841898,0" style="fill: #33a02c; stroke-width: 2; opacity: 1;"></path><path transform="translate(255.55555555555554,156.91996972517583)" d="M1.5811388300841898,0A1.5811388300841898,1.5811388300841898,0,1,1,-1.5811388300841898,0A1.5811388300841898,1.5811388300841898,0,1,1,1.5811388300841898,0" style="fill: #33a02c; stroke-width: 2; opacity: 1;"></path><path transform="translate(266.6666666666667,156.6152557172061)" d="M1.5811388300841898,0A1.5811388300841898,1.5811388300841898,0,1,1,-1.5811388300841898,0A1.5811388300841898,1.5811388300841898,0,1,1,1.5811388300841898,0" style="fill: #33a02c; stroke-width: 2; opacity: 1;"></path><path transform="translate(277.77777777777777,156.32127465405048)" d="M1.5811388300841898,0A1.5811388300841898,1.5811388300841898,0,1,1,-1.5811388300841898,0A1.5811388300841898,1.5811388300841898,0,1,1,1.5811388300841898,0" style="fill: #33a02c; stroke-width: 2; opacity: 1;"></path><path transform="translate(288.88888888888886,155.99075052819572)" d="M1.5811388300841898,0A1.5811388300841898,1.5811388300841898,0,1,1,-1.5811388300841898,0A1.5811388300841898,1.5811388300841898,0,1,1,1.5811388300841898,0" style="fill: #33a02c; stroke-width: 2; opacity: 1;"></path><path transform="translate(300,155.6286833313292)" d="M1.5811388300841898,0A1.5811388300841898,1.5811388300841898,0,1,1,-1.5811388300841898,0A1.5811388300841898,1.5811388300841898,0,1,1,1.5811388300841898,0" style="fill: #33a02c; stroke-width: 2; opacity: 1;"></path><path transform="translate(311.11111111111114,155.04544745238528)" d="M1.5811388300841898,0A1.5811388300841898,1.5811388300841898,0,1,1,-1.5811388300841898,0A1.5811388300841898,1.5811388300841898,0,1,1,1.5811388300841898,0" style="fill: #33a02c; stroke-width: 2; opacity: 1;"></path><path transform="translate(322.22222222222223,154.71626169247094)" d="M1.5811388300841898,0A1.5811388300841898,1.5811388300841898,0,1,1,-1.5811388300841898,0A1.5811388300841898,1.5811388300841898,0,1,1,1.5811388300841898,0" style="fill: #33a02c; stroke-width: 2; opacity: 1;"></path><path transform="translate(333.3333333333333,154.1675011724839)" d="M1.5811388300841898,0A1.5811388300841898,1.5811388300841898,0,1,1,-1.5811388300841898,0A1.5811388300841898,1.5811388300841898,0,1,1,1.5811388300841898,0" style="fill: #33a02c; stroke-width: 2; opacity: 1;"></path><path transform="translate(344.44444444444446,153.5732642007157)" d="M1.5811388300841898,0A1.5811388300841898,1.5811388300841898,0,1,1,-1.5811388300841898,0A1.5811388300841898,1.5811388300841898,0,1,1,1.5811388300841898,0" style="fill: #33a02c; stroke-width: 2; opacity: 1;"></path><path transform="translate(355.55555555555554,153.5732642007157)" d="M1.5811388300841898,0A1.5811388300841898,1.5811388300841898,0,1,1,-1.5811388300841898,0A1.5811388300841898,1.5811388300841898,0,1,1,1.5811388300841898,0" style="fill: #33a02c; stroke-width: 2; opacity: 1;"></path><path transform="translate(366.66666666666663,153.29817882894923)" d="M1.5811388300841898,0A1.5811388300841898,1.5811388300841898,0,1,1,-1.5811388300841898,0A1.5811388300841898,1.5811388300841898,0,1,1,1.5811388300841898,0" style="fill: #33a02c; stroke-width: 2; opacity: 1;"></path><path transform="translate(377.77777777777777,152.93972813161727)" d="M1.5811388300841898,0A1.5811388300841898,1.5811388300841898,0,1,1,-1.5811388300841898,0A1.5811388300841898,1.5811388300841898,0,1,1,1.5811388300841898,0" style="fill: #33a02c; stroke-width: 2; opacity: 1;"></path><path transform="translate(388.8888888888889,152.57107723168343)" d="M1.5811388300841898,0A1.5811388300841898,1.5811388300841898,0,1,1,-1.5811388300841898,0A1.5811388300841898,1.5811388300841898,0,1,1,1.5811388300841898,0" style="fill: #33a02c; stroke-width: 2; opacity: 1;"></path><path transform="translate(400,152.25189524087136)" d="M1.5811388300841898,0A1.5811388300841898,1.5811388300841898,0,1,1,-1.5811388300841898,0A1.5811388300841898,1.5811388300841898,0,1,1,1.5811388300841898,0" style="fill: #33a02c; stroke-width: 2; opacity: 1;"></path><path transform="translate(411.1111111111111,151.74624717274637)" d="M1.5811388300841898,0A1.5811388300841898,1.5811388300841898,0,1,1,-1.5811388300841898,0A1.5811388300841898,1.5811388300841898,0,1,1,1.5811388300841898,0" style="fill: #33a02c; stroke-width: 2; opacity: 1;"></path><path transform="translate(422.22222222222223,151.38738838888148)" d="M1.5811388300841898,0A1.5811388300841898,1.5811388300841898,0,1,1,-1.5811388300841898,0A1.5811388300841898,1.5811388300841898,0,1,1,1.5811388300841898,0" style="fill: #33a02c; stroke-width: 2; opacity: 1;"></path><path transform="translate(433.33333333333337,151.12334384178487)" d="M1.5811388300841898,0A1.5811388300841898,1.5811388300841898,0,1,1,-1.5811388300841898,0A1.5811388300841898,1.5811388300841898,0,1,1,1.5811388300841898,0" style="fill: #33a02c; stroke-width: 2; opacity: 1;"></path><path transform="translate(444.4444444444444,150.70460914320603)" d="M1.5811388300841898,0A1.5811388300841898,1.5811388300841898,0,1,1,-1.5811388300841898,0A1.5811388300841898,1.5811388300841898,0,1,1,1.5811388300841898,0" style="fill: #33a02c; stroke-width: 2; opacity: 1;"></path><path transform="translate(455.55555555555554,150.37015993828936)" d="M1.5811388300841898,0A1.5811388300841898,1.5811388300841898,0,1,1,-1.5811388300841898,0A1.5811388300841898,1.5811388300841898,0,1,1,1.5811388300841898,0" style="fill: #33a02c; stroke-width: 2; opacity: 1;"></path><path transform="translate(466.6666666666667,150.07826696471352)" d="M1.5811388300841898,0A1.5811388300841898,1.5811388300841898,0,1,1,-1.5811388300841898,0A1.5811388300841898,1.5811388300841898,0,1,1,1.5811388300841898,0" style="fill: #33a02c; stroke-width: 2; opacity: 1;"></path><path transform="translate(477.7777777777778,149.7986765257703)" d="M1.5811388300841898,0A1.5811388300841898,1.5811388300841898,0,1,1,-1.5811388300841898,0A1.5811388300841898,1.5811388300841898,0,1,1,1.5811388300841898,0" style="fill: #33a02c; stroke-width: 2; opacity: 1;"></path><path transform="translate(0,294.06140654642815)" d="M1.5811388300841898,0A1.5811388300841898,1.5811388300841898,0,1,1,-1.5811388300841898,0A1.5811388300841898,1.5811388300841898,0,1,1,1.5811388300841898,0" style="fill: #fb9a99; stroke-width: 2; opacity: 1;"></path><path transform="translate(11.11111111111111,283.68870418395704)" d="M1.5811388300841898,0A1.5811388300841898,1.5811388300841898,0,1,1,-1.5811388300841898,0A1.5811388300841898,1.5811388300841898,0,1,1,1.5811388300841898,0" style="fill: #fb9a99; stroke-width: 2; opacity: 1;"></path><path transform="translate(22.22222222222222,274.0235269162021)" d="M1.5811388300841898,0A1.5811388300841898,1.5811388300841898,0,1,1,-1.5811388300841898,0A1.5811388300841898,1.5811388300841898,0,1,1,1.5811388300841898,0" style="fill: #fb9a99; stroke-width: 2; opacity: 1;"></path><path transform="translate(33.333333333333336,269.00251769390616)" d="M1.5811388300841898,0A1.5811388300841898,1.5811388300841898,0,1,1,-1.5811388300841898,0A1.5811388300841898,1.5811388300841898,0,1,1,1.5811388300841898,0" style="fill: #fb9a99; stroke-width: 2; opacity: 1;"></path><path transform="translate(44.44444444444444,254.84550065040284)" d="M1.5811388300841898,0A1.5811388300841898,1.5811388300841898,0,1,1,-1.5811388300841898,0A1.5811388300841898,1.5811388300841898,0,1,1,1.5811388300841898,0" style="fill: #fb9a99; stroke-width: 2; opacity: 1;"></path><path transform="translate(55.55555555555555,247.5772496747986)" d="M1.5811388300841898,0A1.5811388300841898,1.5811388300841898,0,1,1,-1.5811388300841898,0A1.5811388300841898,1.5811388300841898,0,1,1,1.5811388300841898,0" style="fill: #fb9a99; stroke-width: 2; opacity: 1;"></path><path transform="translate(66.66666666666667,237.89887018320172)" d="M1.5811388300841898,0A1.5811388300841898,1.5811388300841898,0,1,1,-1.5811388300841898,0A1.5811388300841898,1.5811388300841898,0,1,1,1.5811388300841898,0" style="fill: #fb9a99; stroke-width: 2; opacity: 1;"></path><path transform="translate(77.77777777777779,222.70502085255367)" d="M1.5811388300841898,0A1.5811388300841898,1.5811388300841898,0,1,1,-1.5811388300841898,0A1.5811388300841898,1.5811388300841898,0,1,1,1.5811388300841898,0" style="fill: #fb9a99; stroke-width: 2; opacity: 1;"></path><path transform="translate(88.88888888888889,207.81227230956745)" d="M1.5811388300841898,0A1.5811388300841898,1.5811388300841898,0,1,1,-1.5811388300841898,0A1.5811388300841898,1.5811388300841898,0,1,1,1.5811388300841898,0" style="fill: #fb9a99; stroke-width: 2; opacity: 1;"></path><path transform="translate(100,198.1977727038643)" d="M1.5811388300841898,0A1.5811388300841898,1.5811388300841898,0,1,1,-1.5811388300841898,0A1.5811388300841898,1.5811388300841898,0,1,1,1.5811388300841898,0" style="fill: #fb9a99; stroke-width: 2; opacity: 1;"></path><path transform="translate(111.1111111111111,198.1977727038643)" d="M1.5811388300841898,0A1.5811388300841898,1.5811388300841898,0,1,1,-1.5811388300841898,0A1.5811388300841898,1.5811388300841898,0,1,1,1.5811388300841898,0" style="fill: #fb9a99; stroke-width: 2; opacity: 1;"></path><path transform="translate(122.22222222222221,171.0999198512842)" d="M1.5811388300841898,0A1.5811388300841898,1.5811388300841898,0,1,1,-1.5811388300841898,0A1.5811388300841898,1.5811388300841898,0,1,1,1.5811388300841898,0" style="fill: #fb9a99; stroke-width: 2; opacity: 1;"></path><path transform="translate(133.33333333333334,164.5823386838583)" d="M1.5811388300841898,0A1.5811388300841898,1.5811388300841898,0,1,1,-1.5811388300841898,0A1.5811388300841898,1.5811388300841898,0,1,1,1.5811388300841898,0" style="fill: #fb9a99; stroke-width: 2; opacity: 1;"></path><path transform="translate(144.44444444444443,158.10125768610246)" d="M1.5811388300841898,0A1.5811388300841898,1.5811388300841898,0,1,1,-1.5811388300841898,0A1.5811388300841898,1.5811388300841898,0,1,1,1.5811388300841898,0" style="fill: #fb9a99; stroke-width: 2; opacity: 1;"></path><path transform="translate(155.55555555555557,150.1894680897765)" d="M1.5811388300841898,0A1.5811388300841898,1.5811388300841898,0,1,1,-1.5811388300841898,0A1.5811388300841898,1.5811388300841898,0,1,1,1.5811388300841898,0" style="fill: #fb9a99; stroke-width: 2; opacity: 1;"></path><path transform="translate(166.66666666666666,144.7527046611928)" d="M1.5811388300841898,0A1.5811388300841898,1.5811388300841898,0,1,1,-1.5811388300841898,0A1.5811388300841898,1.5811388300841898,0,1,1,1.5811388300841898,0" style="fill: #fb9a99; stroke-width: 2; opacity: 1;"></path><path transform="translate(177.77777777777777,139.25046525059653)" d="M1.5811388300841898,0A1.5811388300841898,1.5811388300841898,0,1,1,-1.5811388300841898,0A1.5811388300841898,1.5811388300841898,0,1,1,1.5811388300841898,0" style="fill: #fb9a99; stroke-width: 2; opacity: 1;"></path><path transform="translate(188.88888888888889,130.921584757883)" d="M1.5811388300841898,0A1.5811388300841898,1.5811388300841898,0,1,1,-1.5811388300841898,0A1.5811388300841898,1.5811388300841898,0,1,1,1.5811388300841898,0" style="fill: #fb9a99; stroke-width: 2; opacity: 1;"></path><path transform="translate(200,126.76177464629471)" d="M1.5811388300841898,0A1.5811388300841898,1.5811388300841898,0,1,1,-1.5811388300841898,0A1.5811388300841898,1.5811388300841898,0,1,1,1.5811388300841898,0" style="fill: #fb9a99; stroke-width: 2; opacity: 1;"></path><path transform="translate(211.11111111111111,119.67082983520919)" d="M1.5811388300841898,0A1.5811388300841898,1.5811388300841898,0,1,1,-1.5811388300841898,0A1.5811388300841898,1.5811388300841898,0,1,1,1.5811388300841898,0" style="fill: #fb9a99; stroke-width: 2; opacity: 1;"></path><path transform="translate(222.2222222222222,115.58177474601487)" d="M1.5811388300841898,0A1.5811388300841898,1.5811388300841898,0,1,1,-1.5811388300841898,0A1.5811388300841898,1.5811388300841898,0,1,1,1.5811388300841898,0" style="fill: #fb9a99; stroke-width: 2; opacity: 1;"></path><path transform="translate(233.33333333333334,109.06857611745154)" d="M1.5811388300841898,0A1.5811388300841898,1.5811388300841898,0,1,1,-1.5811388300841898,0A1.5811388300841898,1.5811388300841898,0,1,1,1.5811388300841898,0" style="fill: #fb9a99; stroke-width: 2; opacity: 1;"></path><path transform="translate(244.44444444444443,104.93928027095637)" d="M1.5811388300841898,0A1.5811388300841898,1.5811388300841898,0,1,1,-1.5811388300841898,0A1.5811388300841898,1.5811388300841898,0,1,1,1.5811388300841898,0" style="fill: #fb9a99; stroke-width: 2; opacity: 1;"></path><path transform="translate(255.55555555555554,97.89474124605054)" d="M1.5811388300841898,0A1.5811388300841898,1.5811388300841898,0,1,1,-1.5811388300841898,0A1.5811388300841898,1.5811388300841898,0,1,1,1.5811388300841898,0" style="fill: #fb9a99; stroke-width: 2; opacity: 1;"></path><path transform="translate(266.6666666666667,92.863302506712)" d="M1.5811388300841898,0A1.5811388300841898,1.5811388300841898,0,1,1,-1.5811388300841898,0A1.5811388300841898,1.5811388300841898,0,1,1,1.5811388300841898,0" style="fill: #fb9a99; stroke-width: 2; opacity: 1;"></path><path transform="translate(277.77777777777777,88.67317901562703)" d="M1.5811388300841898,0A1.5811388300841898,1.5811388300841898,0,1,1,-1.5811388300841898,0A1.5811388300841898,1.5811388300841898,0,1,1,1.5811388300841898,0" style="fill: #fb9a99; stroke-width: 2; opacity: 1;"></path><path transform="translate(288.88888888888886,85.1460985578425)" d="M1.5811388300841898,0A1.5811388300841898,1.5811388300841898,0,1,1,-1.5811388300841898,0A1.5811388300841898,1.5811388300841898,0,1,1,1.5811388300841898,0" style="fill: #fb9a99; stroke-width: 2; opacity: 1;"></path><path transform="translate(300,82.22349511976232)" d="M1.5811388300841898,0A1.5811388300841898,1.5811388300841898,0,1,1,-1.5811388300841898,0A1.5811388300841898,1.5811388300841898,0,1,1,1.5811388300841898,0" style="fill: #fb9a99; stroke-width: 2; opacity: 1;"></path><path transform="translate(311.11111111111114,79.18008970467716)" d="M1.5811388300841898,0A1.5811388300841898,1.5811388300841898,0,1,1,-1.5811388300841898,0A1.5811388300841898,1.5811388300841898,0,1,1,1.5811388300841898,0" style="fill: #fb9a99; stroke-width: 2; opacity: 1;"></path><path transform="translate(322.22222222222223,76.3557935324903)" d="M1.5811388300841898,0A1.5811388300841898,1.5811388300841898,0,1,1,-1.5811388300841898,0A1.5811388300841898,1.5811388300841898,0,1,1,1.5811388300841898,0" style="fill: #fb9a99; stroke-width: 2; opacity: 1;"></path><path transform="translate(333.3333333333333,73.68556371257087)" d="M1.5811388300841898,0A1.5811388300841898,1.5811388300841898,0,1,1,-1.5811388300841898,0A1.5811388300841898,1.5811388300841898,0,1,1,1.5811388300841898,0" style="fill: #fb9a99; stroke-width: 2; opacity: 1;"></path><path transform="translate(344.44444444444446,71.28975034013833)" d="M1.5811388300841898,0A1.5811388300841898,1.5811388300841898,0,1,1,-1.5811388300841898,0A1.5811388300841898,1.5811388300841898,0,1,1,1.5811388300841898,0" style="fill: #fb9a99; stroke-width: 2; opacity: 1;"></path><path transform="translate(355.55555555555554,69.27955410158614)" d="M1.5811388300841898,0A1.5811388300841898,1.5811388300841898,0,1,1,-1.5811388300841898,0A1.5811388300841898,1.5811388300841898,0,1,1,1.5811388300841898,0" style="fill: #fb9a99; stroke-width: 2; opacity: 1;"></path><path transform="translate(0,294.6088494520406)" d="M1.5811388300841898,0A1.5811388300841898,1.5811388300841898,0,1,1,-1.5811388300841898,0A1.5811388300841898,1.5811388300841898,0,1,1,1.5811388300841898,0" style="fill: #e31a1c; stroke-width: 2; opacity: 1;"></path><path transform="translate(11.11111111111111,287.01102986907944)" d="M1.5811388300841898,0A1.5811388300841898,1.5811388300841898,0,1,1,-1.5811388300841898,0A1.5811388300841898,1.5811388300841898,0,1,1,1.5811388300841898,0" style="fill: #e31a1c; stroke-width: 2; opacity: 1;"></path><path transform="translate(22.22222222222222,274.76551996136027)" d="M1.5811388300841898,0A1.5811388300841898,1.5811388300841898,0,1,1,-1.5811388300841898,0A1.5811388300841898,1.5811388300841898,0,1,1,1.5811388300841898,0" style="fill: #e31a1c; stroke-width: 2; opacity: 1;"></path><path transform="translate(33.333333333333336,268.6274031510191)" d="M1.5811388300841898,0A1.5811388300841898,1.5811388300841898,0,1,1,-1.5811388300841898,0A1.5811388300841898,1.5811388300841898,0,1,1,1.5811388300841898,0" style="fill: #e31a1c; stroke-width: 2; opacity: 1;"></path><path transform="translate(44.44444444444444,254.68304601866475)" d="M1.5811388300841898,0A1.5811388300841898,1.5811388300841898,0,1,1,-1.5811388300841898,0A1.5811388300841898,1.5811388300841898,0,1,1,1.5811388300841898,0" style="fill: #e31a1c; stroke-width: 2; opacity: 1;"></path><path transform="translate(55.55555555555555,246.42526801910753)" d="M1.5811388300841898,0A1.5811388300841898,1.5811388300841898,0,1,1,-1.5811388300841898,0A1.5811388300841898,1.5811388300841898,0,1,1,1.5811388300841898,0" style="fill: #e31a1c; stroke-width: 2; opacity: 1;"></path><path transform="translate(66.66666666666667,242.57485839307398)" d="M1.5811388300841898,0A1.5811388300841898,1.5811388300841898,0,1,1,-1.5811388300841898,0A1.5811388300841898,1.5811388300841898,0,1,1,1.5811388300841898,0" style="fill: #e31a1c; stroke-width: 2; opacity: 1;"></path><path transform="translate(77.77777777777779,226.36360446220024)" d="M1.5811388300841898,0A1.5811388300841898,1.5811388300841898,0,1,1,-1.5811388300841898,0A1.5811388300841898,1.5811388300841898,0,1,1,1.5811388300841898,0" style="fill: #e31a1c; stroke-width: 2; opacity: 1;"></path><path transform="translate(88.88888888888889,216.93381526914857)" d="M1.5811388300841898,0A1.5811388300841898,1.5811388300841898,0,1,1,-1.5811388300841898,0A1.5811388300841898,1.5811388300841898,0,1,1,1.5811388300841898,0" style="fill: #e31a1c; stroke-width: 2; opacity: 1;"></path><path transform="translate(100,208.43308130853606)" d="M1.5811388300841898,0A1.5811388300841898,1.5811388300841898,0,1,1,-1.5811388300841898,0A1.5811388300841898,1.5811388300841898,0,1,1,1.5811388300841898,0" style="fill: #e31a1c; stroke-width: 2; opacity: 1;"></path><path transform="translate(111.1111111111111,199.63070773153083)" d="M1.5811388300841898,0A1.5811388300841898,1.5811388300841898,0,1,1,-1.5811388300841898,0A1.5811388300841898,1.5811388300841898,0,1,1,1.5811388300841898,0" style="fill: #e31a1c; stroke-width: 2; opacity: 1;"></path><path transform="translate(122.22222222222221,192.32361465437776)" d="M1.5811388300841898,0A1.5811388300841898,1.5811388300841898,0,1,1,-1.5811388300841898,0A1.5811388300841898,1.5811388300841898,0,1,1,1.5811388300841898,0" style="fill: #e31a1c; stroke-width: 2; opacity: 1;"></path><path transform="translate(133.33333333333334,184.20420431378201)" d="M1.5811388300841898,0A1.5811388300841898,1.5811388300841898,0,1,1,-1.5811388300841898,0A1.5811388300841898,1.5811388300841898,0,1,1,1.5811388300841898,0" style="fill: #e31a1c; stroke-width: 2; opacity: 1;"></path><path transform="translate(144.44444444444443,175.06735869604654)" d="M1.5811388300841898,0A1.5811388300841898,1.5811388300841898,0,1,1,-1.5811388300841898,0A1.5811388300841898,1.5811388300841898,0,1,1,1.5811388300841898,0" style="fill: #e31a1c; stroke-width: 2; opacity: 1;"></path><path transform="translate(155.55555555555557,164.4297997562629)" d="M1.5811388300841898,0A1.5811388300841898,1.5811388300841898,0,1,1,-1.5811388300841898,0A1.5811388300841898,1.5811388300841898,0,1,1,1.5811388300841898,0" style="fill: #e31a1c; stroke-width: 2; opacity: 1;"></path><path transform="translate(166.66666666666666,158.16397271634213)" d="M1.5811388300841898,0A1.5811388300841898,1.5811388300841898,0,1,1,-1.5811388300841898,0A1.5811388300841898,1.5811388300841898,0,1,1,1.5811388300841898,0" style="fill: #e31a1c; stroke-width: 2; opacity: 1;"></path><path transform="translate(177.77777777777777,139.80068648087814)" d="M1.5811388300841898,0A1.5811388300841898,1.5811388300841898,0,1,1,-1.5811388300841898,0A1.5811388300841898,1.5811388300841898,0,1,1,1.5811388300841898,0" style="fill: #e31a1c; stroke-width: 2; opacity: 1;"></path><path transform="translate(188.88888888888889,128.92249745642042)" d="M1.5811388300841898,0A1.5811388300841898,1.5811388300841898,0,1,1,-1.5811388300841898,0A1.5811388300841898,1.5811388300841898,0,1,1,1.5811388300841898,0" style="fill: #e31a1c; stroke-width: 2; opacity: 1;"></path><path transform="translate(200,119.52354020269541)" d="M1.5811388300841898,0A1.5811388300841898,1.5811388300841898,0,1,1,-1.5811388300841898,0A1.5811388300841898,1.5811388300841898,0,1,1,1.5811388300841898,0" style="fill: #e31a1c; stroke-width: 2; opacity: 1;"></path><path transform="translate(211.11111111111111,110.84016632808851)" d="M1.5811388300841898,0A1.5811388300841898,1.5811388300841898,0,1,1,-1.5811388300841898,0A1.5811388300841898,1.5811388300841898,0,1,1,1.5811388300841898,0" style="fill: #e31a1c; stroke-width: 2; opacity: 1;"></path><path transform="translate(222.2222222222222,101.85450866952257)" d="M1.5811388300841898,0A1.5811388300841898,1.5811388300841898,0,1,1,-1.5811388300841898,0A1.5811388300841898,1.5811388300841898,0,1,1,1.5811388300841898,0" style="fill: #e31a1c; stroke-width: 2; opacity: 1;"></path><path transform="translate(233.33333333333334,95.22767534271377)" d="M1.5811388300841898,0A1.5811388300841898,1.5811388300841898,0,1,1,-1.5811388300841898,0A1.5811388300841898,1.5811388300841898,0,1,1,1.5811388300841898,0" style="fill: #e31a1c; stroke-width: 2; opacity: 1;"></path><path transform="translate(244.44444444444443,88.64395016308467)" d="M1.5811388300841898,0A1.5811388300841898,1.5811388300841898,0,1,1,-1.5811388300841898,0A1.5811388300841898,1.5811388300841898,0,1,1,1.5811388300841898,0" style="fill: #e31a1c; stroke-width: 2; opacity: 1;"></path><path transform="translate(255.55555555555554,80.74270882584163)" d="M1.5811388300841898,0A1.5811388300841898,1.5811388300841898,0,1,1,-1.5811388300841898,0A1.5811388300841898,1.5811388300841898,0,1,1,1.5811388300841898,0" style="fill: #e31a1c; stroke-width: 2; opacity: 1;"></path><path transform="translate(266.6666666666667,74.46470331823707)" d="M1.5811388300841898,0A1.5811388300841898,1.5811388300841898,0,1,1,-1.5811388300841898,0A1.5811388300841898,1.5811388300841898,0,1,1,1.5811388300841898,0" style="fill: #e31a1c; stroke-width: 2; opacity: 1;"></path><path transform="translate(277.77777777777777,68.66267751524666)" d="M1.5811388300841898,0A1.5811388300841898,1.5811388300841898,0,1,1,-1.5811388300841898,0A1.5811388300841898,1.5811388300841898,0,1,1,1.5811388300841898,0" style="fill: #e31a1c; stroke-width: 2; opacity: 1;"></path><path transform="translate(288.88888888888886,63.83491208076081)" d="M1.5811388300841898,0A1.5811388300841898,1.5811388300841898,0,1,1,-1.5811388300841898,0A1.5811388300841898,1.5811388300841898,0,1,1,1.5811388300841898,0" style="fill: #e31a1c; stroke-width: 2; opacity: 1;"></path><path transform="translate(300,59.325202059219016)" d="M1.5811388300841898,0A1.5811388300841898,1.5811388300841898,0,1,1,-1.5811388300841898,0A1.5811388300841898,1.5811388300841898,0,1,1,1.5811388300841898,0" style="fill: #e31a1c; stroke-width: 2; opacity: 1;"></path><path transform="translate(311.11111111111114,54.408374935122175)" d="M1.5811388300841898,0A1.5811388300841898,1.5811388300841898,0,1,1,-1.5811388300841898,0A1.5811388300841898,1.5811388300841898,0,1,1,1.5811388300841898,0" style="fill: #e31a1c; stroke-width: 2; opacity: 1;"></path><path transform="translate(322.22222222222223,50.31469289952707)" d="M1.5811388300841898,0A1.5811388300841898,1.5811388300841898,0,1,1,-1.5811388300841898,0A1.5811388300841898,1.5811388300841898,0,1,1,1.5811388300841898,0" style="fill: #e31a1c; stroke-width: 2; opacity: 1;"></path><path transform="translate(333.3333333333333,46.01886520510787)" d="M1.5811388300841898,0A1.5811388300841898,1.5811388300841898,0,1,1,-1.5811388300841898,0A1.5811388300841898,1.5811388300841898,0,1,1,1.5811388300841898,0" style="fill: #e31a1c; stroke-width: 2; opacity: 1;"></path><path transform="translate(344.44444444444446,41.98071365460455)" d="M1.5811388300841898,0A1.5811388300841898,1.5811388300841898,0,1,1,-1.5811388300841898,0A1.5811388300841898,1.5811388300841898,0,1,1,1.5811388300841898,0" style="fill: #e31a1c; stroke-width: 2; opacity: 1;"></path><path transform="translate(0,295.16565080798114)" d="M1.5811388300841898,0A1.5811388300841898,1.5811388300841898,0,1,1,-1.5811388300841898,0A1.5811388300841898,1.5811388300841898,0,1,1,1.5811388300841898,0" style="fill: #fdbf6f; stroke-width: 2; opacity: 1;"></path><path transform="translate(11.11111111111111,283.88671139642264)" d="M1.5811388300841898,0A1.5811388300841898,1.5811388300841898,0,1,1,-1.5811388300841898,0A1.5811388300841898,1.5811388300841898,0,1,1,1.5811388300841898,0" style="fill: #fdbf6f; stroke-width: 2; opacity: 1;"></path><path transform="translate(22.22222222222222,276.3022240907312)" d="M1.5811388300841898,0A1.5811388300841898,1.5811388300841898,0,1,1,-1.5811388300841898,0A1.5811388300841898,1.5811388300841898,0,1,1,1.5811388300841898,0" style="fill: #fdbf6f; stroke-width: 2; opacity: 1;"></path><path transform="translate(33.333333333333336,267.1687077884709)" d="M1.5811388300841898,0A1.5811388300841898,1.5811388300841898,0,1,1,-1.5811388300841898,0A1.5811388300841898,1.5811388300841898,0,1,1,1.5811388300841898,0" style="fill: #fdbf6f; stroke-width: 2; opacity: 1;"></path><path transform="translate(44.44444444444444,261.9108096228127)" d="M1.5811388300841898,0A1.5811388300841898,1.5811388300841898,0,1,1,-1.5811388300841898,0A1.5811388300841898,1.5811388300841898,0,1,1,1.5811388300841898,0" style="fill: #fdbf6f; stroke-width: 2; opacity: 1;"></path><path transform="translate(55.55555555555555,256.1751581724352)" d="M1.5811388300841898,0A1.5811388300841898,1.5811388300841898,0,1,1,-1.5811388300841898,0A1.5811388300841898,1.5811388300841898,0,1,1,1.5811388300841898,0" style="fill: #fdbf6f; stroke-width: 2; opacity: 1;"></path><path transform="translate(66.66666666666667,250.36404858470542)" d="M1.5811388300841898,0A1.5811388300841898,1.5811388300841898,0,1,1,-1.5811388300841898,0A1.5811388300841898,1.5811388300841898,0,1,1,1.5811388300841898,0" style="fill: #fdbf6f; stroke-width: 2; opacity: 1;"></path><path transform="translate(77.77777777777779,250.36404858470542)" d="M1.5811388300841898,0A1.5811388300841898,1.5811388300841898,0,1,1,-1.5811388300841898,0A1.5811388300841898,1.5811388300841898,0,1,1,1.5811388300841898,0" style="fill: #fdbf6f; stroke-width: 2; opacity: 1;"></path><path transform="translate(88.88888888888889,232.18692237868774)" d="M1.5811388300841898,0A1.5811388300841898,1.5811388300841898,0,1,1,-1.5811388300841898,0A1.5811388300841898,1.5811388300841898,0,1,1,1.5811388300841898,0" style="fill: #fdbf6f; stroke-width: 2; opacity: 1;"></path><path transform="translate(100,220.61804816572462)" d="M1.5811388300841898,0A1.5811388300841898,1.5811388300841898,0,1,1,-1.5811388300841898,0A1.5811388300841898,1.5811388300841898,0,1,1,1.5811388300841898,0" style="fill: #fdbf6f; stroke-width: 2; opacity: 1;"></path><path transform="translate(111.1111111111111,220.58958849930696)" d="M1.5811388300841898,0A1.5811388300841898,1.5811388300841898,0,1,1,-1.5811388300841898,0A1.5811388300841898,1.5811388300841898,0,1,1,1.5811388300841898,0" style="fill: #fdbf6f; stroke-width: 2; opacity: 1;"></path><path transform="translate(122.22222222222221,210.70411516397962)" d="M1.5811388300841898,0A1.5811388300841898,1.5811388300841898,0,1,1,-1.5811388300841898,0A1.5811388300841898,1.5811388300841898,0,1,1,1.5811388300841898,0" style="fill: #fdbf6f; stroke-width: 2; opacity: 1;"></path><path transform="translate(133.33333333333334,203.08079464826432)" d="M1.5811388300841898,0A1.5811388300841898,1.5811388300841898,0,1,1,-1.5811388300841898,0A1.5811388300841898,1.5811388300841898,0,1,1,1.5811388300841898,0" style="fill: #fdbf6f; stroke-width: 2; opacity: 1;"></path><path transform="translate(144.44444444444443,193.35503900411186)" d="M1.5811388300841898,0A1.5811388300841898,1.5811388300841898,0,1,1,-1.5811388300841898,0A1.5811388300841898,1.5811388300841898,0,1,1,1.5811388300841898,0" style="fill: #fdbf6f; stroke-width: 2; opacity: 1;"></path><path transform="translate(155.55555555555557,192.4552675793652)" d="M1.5811388300841898,0A1.5811388300841898,1.5811388300841898,0,1,1,-1.5811388300841898,0A1.5811388300841898,1.5811388300841898,0,1,1,1.5811388300841898,0" style="fill: #fdbf6f; stroke-width: 2; opacity: 1;"></path><path transform="translate(166.66666666666666,179.73169738863996)" d="M1.5811388300841898,0A1.5811388300841898,1.5811388300841898,0,1,1,-1.5811388300841898,0A1.5811388300841898,1.5811388300841898,0,1,1,1.5811388300841898,0" style="fill: #fdbf6f; stroke-width: 2; opacity: 1;"></path><path transform="translate(177.77777777777777,172.14368217819964)" d="M1.5811388300841898,0A1.5811388300841898,1.5811388300841898,0,1,1,-1.5811388300841898,0A1.5811388300841898,1.5811388300841898,0,1,1,1.5811388300841898,0" style="fill: #fdbf6f; stroke-width: 2; opacity: 1;"></path><path transform="translate(188.88888888888889,168.05324752317725)" d="M1.5811388300841898,0A1.5811388300841898,1.5811388300841898,0,1,1,-1.5811388300841898,0A1.5811388300841898,1.5811388300841898,0,1,1,1.5811388300841898,0" style="fill: #fdbf6f; stroke-width: 2; opacity: 1;"></path><path transform="translate(200,162.91823527660372)" d="M1.5811388300841898,0A1.5811388300841898,1.5811388300841898,0,1,1,-1.5811388300841898,0A1.5811388300841898,1.5811388300841898,0,1,1,1.5811388300841898,0" style="fill: #fdbf6f; stroke-width: 2; opacity: 1;"></path><path transform="translate(211.11111111111111,156.60727529669757)" d="M1.5811388300841898,0A1.5811388300841898,1.5811388300841898,0,1,1,-1.5811388300841898,0A1.5811388300841898,1.5811388300841898,0,1,1,1.5811388300841898,0" style="fill: #fdbf6f; stroke-width: 2; opacity: 1;"></path><path transform="translate(222.2222222222222,151.1942224572877)" d="M1.5811388300841898,0A1.5811388300841898,1.5811388300841898,0,1,1,-1.5811388300841898,0A1.5811388300841898,1.5811388300841898,0,1,1,1.5811388300841898,0" style="fill: #fdbf6f; stroke-width: 2; opacity: 1;"></path><path transform="translate(233.33333333333334,144.5757421280219)" d="M1.5811388300841898,0A1.5811388300841898,1.5811388300841898,0,1,1,-1.5811388300841898,0A1.5811388300841898,1.5811388300841898,0,1,1,1.5811388300841898,0" style="fill: #fdbf6f; stroke-width: 2; opacity: 1;"></path><path transform="translate(244.44444444444443,137.35164173341371)" d="M1.5811388300841898,0A1.5811388300841898,1.5811388300841898,0,1,1,-1.5811388300841898,0A1.5811388300841898,1.5811388300841898,0,1,1,1.5811388300841898,0" style="fill: #fdbf6f; stroke-width: 2; opacity: 1;"></path><path transform="translate(255.55555555555554,132.12395674301436)" d="M1.5811388300841898,0A1.5811388300841898,1.5811388300841898,0,1,1,-1.5811388300841898,0A1.5811388300841898,1.5811388300841898,0,1,1,1.5811388300841898,0" style="fill: #fdbf6f; stroke-width: 2; opacity: 1;"></path><path transform="translate(266.6666666666667,127.78302845541293)" d="M1.5811388300841898,0A1.5811388300841898,1.5811388300841898,0,1,1,-1.5811388300841898,0A1.5811388300841898,1.5811388300841898,0,1,1,1.5811388300841898,0" style="fill: #fdbf6f; stroke-width: 2; opacity: 1;"></path><path transform="translate(277.77777777777777,123.65442177304226)" d="M1.5811388300841898,0A1.5811388300841898,1.5811388300841898,0,1,1,-1.5811388300841898,0A1.5811388300841898,1.5811388300841898,0,1,1,1.5811388300841898,0" style="fill: #fdbf6f; stroke-width: 2; opacity: 1;"></path><path transform="translate(288.88888888888886,119.53376491100548)" d="M1.5811388300841898,0A1.5811388300841898,1.5811388300841898,0,1,1,-1.5811388300841898,0A1.5811388300841898,1.5811388300841898,0,1,1,1.5811388300841898,0" style="fill: #fdbf6f; stroke-width: 2; opacity: 1;"></path><path transform="translate(300,114.3628110687682)" d="M1.5811388300841898,0A1.5811388300841898,1.5811388300841898,0,1,1,-1.5811388300841898,0A1.5811388300841898,1.5811388300841898,0,1,1,1.5811388300841898,0" style="fill: #fdbf6f; stroke-width: 2; opacity: 1;"></path><path transform="translate(311.11111111111114,109.97376700656582)" d="M1.5811388300841898,0A1.5811388300841898,1.5811388300841898,0,1,1,-1.5811388300841898,0A1.5811388300841898,1.5811388300841898,0,1,1,1.5811388300841898,0" style="fill: #fdbf6f; stroke-width: 2; opacity: 1;"></path><path transform="translate(322.22222222222223,105.93093715529763)" d="M1.5811388300841898,0A1.5811388300841898,1.5811388300841898,0,1,1,-1.5811388300841898,0A1.5811388300841898,1.5811388300841898,0,1,1,1.5811388300841898,0" style="fill: #fdbf6f; stroke-width: 2; opacity: 1;"></path></g><g class="mark-group role-legend"><g transform="translate(518,0)"><path class="background" d="M0,0h105v96h-105Z" style="pointer-events: none; fill: none;"></path><g><g class="mark-group role-legend-entry"><g transform="translate(0,0)"><path class="background" d="M0,0h0v0h0Z" style="pointer-events: none; fill: none;"></path><g><g class="mark-group role-scope"><g transform="translate(0,0)"><path class="background" d="M0,0h104.22390747070312v12h-104.22390747070312Z" style="pointer-events: none; fill: none; opacity: 1;"></path><g><g class="mark-symbol role-legend-symbol" style="pointer-events: none;"><path transform="translate(6,6)" d="M3.5355339059327378,0A3.5355339059327378,3.5355339059327378,0,1,1,-3.5355339059327378,0A3.5355339059327378,3.5355339059327378,0,1,1,3.5355339059327378,0" style="fill: #a6cee3; stroke: #a6cee3; stroke-width: 1; opacity: 1;"></path></g><g class="mark-text role-legend-label" style="pointer-events: none;"><text text-anchor="start" transform="translate(16,10)" style="font-family: Avenir; font-size: 12px; fill: #000; opacity: 1;">France</text></g></g><path class="foreground" d="" style="pointer-events: none; display: none; fill: none;"></path></g><g transform="translate(0,14)"><path class="background" d="M0,0h104.22390747070312v12h-104.22390747070312Z" style="pointer-events: none; fill: none; opacity: 1;"></path><g><g class="mark-symbol role-legend-symbol" style="pointer-events: none;"><path transform="translate(6,6)" d="M3.5355339059327378,0A3.5355339059327378,3.5355339059327378,0,1,1,-3.5355339059327378,0A3.5355339059327378,3.5355339059327378,0,1,1,3.5355339059327378,0" style="fill: #1f78b4; stroke: #1f78b4; stroke-width: 1; opacity: 1;"></path></g><g class="mark-text role-legend-label" style="pointer-events: none;"><text text-anchor="start" transform="translate(16,10)" style="font-family: Avenir; font-size: 12px; fill: #000; opacity: 1;">Germany</text></g></g><path class="foreground" d="" style="pointer-events: none; display: none; fill: none;"></path></g><g transform="translate(0,28)"><path class="background" d="M0,0h104.22390747070312v12h-104.22390747070312Z" style="pointer-events: none; fill: none; opacity: 1;"></path><g><g class="mark-symbol role-legend-symbol" style="pointer-events: none;"><path transform="translate(6,6)" d="M3.5355339059327378,0A3.5355339059327378,3.5355339059327378,0,1,1,-3.5355339059327378,0A3.5355339059327378,3.5355339059327378,0,1,1,3.5355339059327378,0" style="fill: #b2df8a; stroke: #b2df8a; stroke-width: 1; opacity: 1;"></path></g><g class="mark-text role-legend-label" style="pointer-events: none;"><text text-anchor="start" transform="translate(16,10)" style="font-family: Avenir; font-size: 12px; fill: #000; opacity: 1;">Italy</text></g></g><path class="foreground" d="" style="pointer-events: none; display: none; fill: none;"></path></g><g transform="translate(0,42)"><path class="background" d="M0,0h104.22390747070312v12h-104.22390747070312Z" style="pointer-events: none; fill: none; opacity: 1;"></path><g><g class="mark-symbol role-legend-symbol" style="pointer-events: none;"><path transform="translate(6,6)" d="M3.5355339059327378,0A3.5355339059327378,3.5355339059327378,0,1,1,-3.5355339059327378,0A3.5355339059327378,3.5355339059327378,0,1,1,3.5355339059327378,0" style="fill: #33a02c; stroke: #33a02c; stroke-width: 1; opacity: 1;"></path></g><g class="mark-text role-legend-label" style="pointer-events: none;"><text text-anchor="start" transform="translate(16,10)" style="font-family: Avenir; font-size: 12px; fill: #000; opacity: 1;">Korea, South</text></g></g><path class="foreground" d="" style="pointer-events: none; display: none; fill: none;"></path></g><g transform="translate(0,56)"><path class="background" d="M0,0h104.22390747070312v12h-104.22390747070312Z" style="pointer-events: none; fill: none; opacity: 1;"></path><g><g class="mark-symbol role-legend-symbol" style="pointer-events: none;"><path transform="translate(6,6)" d="M3.5355339059327378,0A3.5355339059327378,3.5355339059327378,0,1,1,-3.5355339059327378,0A3.5355339059327378,3.5355339059327378,0,1,1,3.5355339059327378,0" style="fill: #fb9a99; stroke: #fb9a99; stroke-width: 1; opacity: 1;"></path></g><g class="mark-text role-legend-label" style="pointer-events: none;"><text text-anchor="start" transform="translate(16,10)" style="font-family: Avenir; font-size: 12px; fill: #000; opacity: 1;">Spain</text></g></g><path class="foreground" d="" style="pointer-events: none; display: none; fill: none;"></path></g><g transform="translate(0,70)"><path class="background" d="M0,0h104.22390747070312v12h-104.22390747070312Z" style="pointer-events: none; fill: none; opacity: 1;"></path><g><g class="mark-symbol role-legend-symbol" style="pointer-events: none;"><path transform="translate(6,6)" d="M3.5355339059327378,0A3.5355339059327378,3.5355339059327378,0,1,1,-3.5355339059327378,0A3.5355339059327378,3.5355339059327378,0,1,1,3.5355339059327378,0" style="fill: #e31a1c; stroke: #e31a1c; stroke-width: 1; opacity: 1;"></path></g><g class="mark-text role-legend-label" style="pointer-events: none;"><text text-anchor="start" transform="translate(16,10)" style="font-family: Avenir; font-size: 12px; fill: #000; opacity: 1;">US</text></g></g><path class="foreground" d="" style="pointer-events: none; display: none; fill: none;"></path></g><g transform="translate(0,84)"><path class="background" d="M0,0h104.22390747070312v12h-104.22390747070312Z" style="pointer-events: none; fill: none; opacity: 1;"></path><g><g class="mark-symbol role-legend-symbol" style="pointer-events: none;"><path transform="translate(6,6)" d="M3.5355339059327378,0A3.5355339059327378,3.5355339059327378,0,1,1,-3.5355339059327378,0A3.5355339059327378,3.5355339059327378,0,1,1,3.5355339059327378,0" style="fill: #fdbf6f; stroke: #fdbf6f; stroke-width: 1; opacity: 1;"></path></g><g class="mark-text role-legend-label" style="pointer-events: none;"><text text-anchor="start" transform="translate(16,10)" style="font-family: Avenir; font-size: 12px; fill: #000; opacity: 1;">United Kingdom</text></g></g><path class="foreground" d="" style="pointer-events: none; display: none; fill: none;"></path></g></g></g><path class="foreground" d="" style="pointer-events: none; display: none; fill: none;"></path></g></g></g><path class="foreground" d="" style="pointer-events: none; display: none; fill: none;"></path></g></g><g class="mark-group role-title"><g transform="translate(-66.13998413085938,-50)"><path class="background" d="M0,0h0v0h0Z" style="pointer-events: none; fill: none;"></path><g><g class="mark-text role-title-text" style="pointer-events: none;"><text text-anchor="start" transform="translate(0,16)" style="font-family: Avenir; font-size: 20px; font-weight: 300; fill: #4d4d4d; opacity: 1;">Development of COVID-19 cases across countries</text></g></g><path class="foreground" d="" style="pointer-events: none; display: none; fill: none;"></path></g></g><g class="mark-group role-axis"><g transform="translate(0.5,300.5)"><path class="background" d="M0,0h0v0h0Z" style="pointer-events: none; fill: none;"></path><g><g class="mark-rule role-axis-tick" style="pointer-events: none;"><line transform="translate(0,0)" x2="0" y2="5" style="fill: none; stroke: #DEDDDD; stroke-width: 1; opacity: 1;"></line><line transform="translate(56,0)" x2="0" y2="5" style="fill: none; stroke: #DEDDDD; stroke-width: 1; opacity: 1;"></line><line transform="translate(111,0)" x2="0" y2="5" style="fill: none; stroke: #DEDDDD; stroke-width: 1; opacity: 1;"></line><line transform="translate(167,0)" x2="0" y2="5" style="fill: none; stroke: #DEDDDD; stroke-width: 1; opacity: 1;"></line><line transform="translate(222,0)" x2="0" y2="5" style="fill: none; stroke: #DEDDDD; stroke-width: 1; opacity: 1;"></line><line transform="translate(278,0)" x2="0" y2="5" style="fill: none; stroke: #DEDDDD; stroke-width: 1; opacity: 1;"></line><line transform="translate(333,0)" x2="0" y2="5" style="fill: none; stroke: #DEDDDD; stroke-width: 1; opacity: 1;"></line><line transform="translate(389,0)" x2="0" y2="5" style="fill: none; stroke: #DEDDDD; stroke-width: 1; opacity: 1;"></line><line transform="translate(444,0)" x2="0" y2="5" style="fill: none; stroke: #DEDDDD; stroke-width: 1; opacity: 1;"></line><line transform="translate(500,0)" x2="0" y2="5" style="fill: none; stroke: #DEDDDD; stroke-width: 1; opacity: 1;"></line></g><g class="mark-text role-axis-label" style="pointer-events: none;"><text text-anchor="middle" transform="translate(0,15)" style="font-family: Avenir; font-size: 10px; fill: #000; opacity: 1;">0</text><text text-anchor="middle" transform="translate(55.55555555555555,15)" style="font-family: Avenir; font-size: 10px; fill: #000; opacity: 1;">5</text><text text-anchor="middle" transform="translate(111.1111111111111,15)" style="font-family: Avenir; font-size: 10px; fill: #000; opacity: 1;">10</text><text text-anchor="middle" transform="translate(166.66666666666666,15)" style="font-family: Avenir; font-size: 10px; fill: #000; opacity: 1;">15</text><text text-anchor="middle" transform="translate(222.2222222222222,15)" style="font-family: Avenir; font-size: 10px; fill: #000; opacity: 1;">20</text><text text-anchor="middle" transform="translate(277.77777777777777,15)" style="font-family: Avenir; font-size: 10px; fill: #000; opacity: 1;">25</text><text text-anchor="middle" transform="translate(333.3333333333333,15)" style="font-family: Avenir; font-size: 10px; fill: #000; opacity: 1;">30</text><text text-anchor="middle" transform="translate(388.8888888888889,15)" style="font-family: Avenir; font-size: 10px; fill: #000; opacity: 1;">35</text><text text-anchor="middle" transform="translate(444.4444444444444,15)" style="font-family: Avenir; font-size: 10px; fill: #000; opacity: 1;">40</text><text text-anchor="middle" transform="translate(500,15)" style="font-family: Avenir; font-size: 10px; fill: #000; opacity: 1;">45</text></g><g class="mark-rule role-axis-domain" style="pointer-events: none;"><line transform="translate(0,0)" x2="500" y2="0" style="fill: none; stroke: #DEDDDD; stroke-width: 1; stroke-dashoffset: 10; opacity: 1;"></line></g><g class="mark-text role-axis-title" style="pointer-events: none;"><text text-anchor="middle" transform="translate(250,36)" style="font-family: Avenir; font-size: 12px; font-weight: 400; fill: #000; opacity: 1;">Days since 100th case</text></g></g><path class="foreground" d="" style="pointer-events: none; display: none; fill: none;"></path></g></g><g class="mark-group role-axis"><g transform="translate(0.5,0.5)"><path class="background" d="M0,0h0v0h0Z" style="pointer-events: none; fill: none;"></path><g><g class="mark-rule role-axis-tick" style="pointer-events: none;"><line transform="translate(0,300)" x2="-5" y2="0" style="fill: none; stroke: #888; stroke-width: 1; opacity: 1;"></line><line transform="translate(0,248)" x2="-5" y2="0" style="fill: none; stroke: #888; stroke-width: 1; opacity: 1;"></line><line transform="translate(0,225)" x2="-5" y2="0" style="fill: none; stroke: #888; stroke-width: 1; opacity: 1;"></line><line transform="translate(0,173)" x2="-5" y2="0" style="fill: none; stroke: #888; stroke-width: 1; opacity: 1;"></line><line transform="translate(0,150)" x2="-5" y2="0" style="fill: none; stroke: #888; stroke-width: 1; opacity: 1;"></line><line transform="translate(0,98)" x2="-5" y2="0" style="fill: none; stroke: #888; stroke-width: 1; opacity: 1;"></line><line transform="translate(0,75)" x2="-5" y2="0" style="fill: none; stroke: #888; stroke-width: 1; opacity: 1;"></line></g><g class="mark-text role-axis-label" style="pointer-events: none;"><text text-anchor="end" transform="translate(-7,303)" style="font-family: Avenir; font-size: 10px; fill: #000; opacity: 1;">100</text><text text-anchor="end" transform="translate(-7,250.5772496747986)" style="font-family: Avenir; font-size: 10px; fill: #000; opacity: 1;">500</text><text text-anchor="end" transform="translate(-7,228)" style="font-family: Avenir; font-size: 10px; fill: #000; opacity: 1;">1,000</text><text text-anchor="end" transform="translate(-7,175.57724967479857)" style="font-family: Avenir; font-size: 10px; fill: #000; opacity: 1;">5,000</text><text text-anchor="end" transform="translate(-7,152.99999999999997)" style="font-family: Avenir; font-size: 10px; fill: #000; opacity: 1;">10,000</text><text text-anchor="end" transform="translate(-7,100.5772496747986)" style="font-family: Avenir; font-size: 10px; fill: #000; opacity: 1;">50,000</text><text text-anchor="end" transform="translate(-7,78)" style="font-family: Avenir; font-size: 10px; fill: #000; opacity: 1;">100,000</text></g><g class="mark-text role-axis-title" style="pointer-events: none;"><text text-anchor="middle" transform="translate(-53.139984130859375,150) rotate(-90) translate(0,-3)" style="font-family: Avenir; font-size: 12px; font-weight: 400; fill: #000; opacity: 1;">Confirmed cases (log scale)</text></g></g><path class="foreground" d="" style="pointer-events: none; display: none; fill: none;"></path></g></g></g><path class="foreground" d="" style="display: none; fill: none;"></path></g></g></g></svg>