<svg class="marks" width="1041" height="672" viewBox="0 0 694 448" version="1.1" xmlns="http://www.w3.org/2000/svg" xmlns:xlink="http://www.w3.org/1999/xlink"><g transform="translate(66,105)"><g class="mark-group role-frame root"><g transform="translate(0,0)"><path class="background" d="M0,0h500v300h-500Z" style="fill: none; stroke: #ddd; stroke-width: 0;"></path><g><g class="mark-group role-axis"><g transform="translate(0.5,0.5)"><path class="background" d="M0,0h0v0h0Z" style="pointer-events: none; fill: none;"></path><g><g class="mark-rule role-axis-grid" style="pointer-events: none;"><line transform="translate(0,300)" x2="500" y2="0" style="fill: none; stroke: #DEDDDD; stroke-width: 1; stroke-dasharray: 5,2; opacity: 1;"></line><line transform="translate(0,273)" x2="500" y2="0" style="fill: none; stroke: #DEDDDD; stroke-width: 1; stroke-dasharray: 5,2; opacity: 1;"></line><line transform="translate(0,245)" x2="500" y2="0" style="fill: none; stroke: #DEDDDD; stroke-width: 1; stroke-dasharray: 5,2; opacity: 1;"></line><line transform="translate(0,218)" x2="500" y2="0" style="fill: none; stroke: #DEDDDD; stroke-width: 1; stroke-dasharray: 5,2; opacity: 1;"></line><line transform="translate(0,191)" x2="500" y2="0" style="fill: none; stroke: #DEDDDD; stroke-width: 1; stroke-dasharray: 5,2; opacity: 1;"></line><line transform="translate(0,164)" x2="500" y2="0" style="fill: none; stroke: #DEDDDD; stroke-width: 1; stroke-dasharray: 5,2; opacity: 1;"></line><line transform="translate(0,136)" x2="500" y2="0" style="fill: none; stroke: #DEDDDD; stroke-width: 1; stroke-dasharray: 5,2; opacity: 1;"></line><line transform="translate(0,109)" x2="500" y2="0" style="fill: none; stroke: #DEDDDD; stroke-width: 1; stroke-dasharray: 5,2; opacity: 1;"></line><line transform="translate(0,82)" x2="500" y2="0" style="fill: none; stroke: #DEDDDD; stroke-width: 1; stroke-dasharray: 5,2; opacity: 1;"></line><line transform="translate(0,55)" x2="500" y2="0" style="fill: none; stroke: #DEDDDD; stroke-width: 1; stroke-dasharray: 5,2; opacity: 1;"></line><line transform="translate(0,27)" x2="500" y2="0" style="fill: none; stroke: #DEDDDD; stroke-width: 1; stroke-dasharray: 5,2; opacity: 1;"></line><line transform="translate(0,0)" x2="500" y2="0" style="fill: none; stroke: #DEDDDD; stroke-width: 1; stroke-dasharray: 5,2; opacity: 1;"></line></g></g><path class="foreground" d="" style="pointer-events: none; display: none; fill: none;"></path></g></g><g class="mark-group role-scope layer_0_pathgroup"><g transform="translate(0,0)"><path class="background" d="M0,0h500v300h-500Z" style="fill: none;"></path><g><g class="mark-line role-mark layer_0_marks"><path d="M0,299.94545454545454L12.5,299.9181818181818L25,299.8909090909091L37.5,299.8909090909091L50,299.83636363636367L62.5,299.75454545454545L75,299.7L87.5,299.4818181818182L100,299.4818181818182L112.5,299.1L125,298.6909090909091L137.5,298.6909090909091L150,297.8454545454546L162.5,297.5181818181818L175,297.5181818181818L187.5,295.93636363636364L200,295.93636363636364L212.5,295.93636363636364L225,293.3454545454545L237.5,287.7L250,284.6454545454545L262.5,281.56363636363636L275,276.4909090909091L287.5,269.94545454545454L300,263.6454545454545L312.5,253.6909090909091L325,245.53636363636363L337.5,236.8090909090909" style="fill: none; stroke: #a6cee3; stroke-width: 1;"></path></g></g><path class="foreground" d="" style="display: none; fill: none;"></path></g><g transform="translate(0,0)"><path class="background" d="M0,0h500v300h-500Z" style="fill: none;"></path><g><g class="mark-line role-mark layer_0_marks"><path d="M0,300L12.5,300L25,300L37.5,300L50,300L62.5,300L75,300L87.5,300L100,299.94545454545454L112.5,299.94545454545454L125,299.9181818181818L137.5,299.9181818181818L150,299.8090909090909L162.5,299.75454545454545L175,299.7L187.5,299.53636363636366L200,299.3454545454546L212.5,299.23636363636365L225,298.8L237.5,298.17272727272723L250,297.7090909090909L262.5,297.43636363636364L275,296.6454545454545L287.5,295.7181818181818L300,294.3818181818182L312.5,292.71818181818185L325,290.6727272727273L337.5,288.1909090909091" style="fill: none; stroke: #1f78b4; stroke-width: 1;"></path></g></g><path class="foreground" d="" style="display: none; fill: none;"></path></g><g transform="translate(0,0)"><path class="background" d="M0,0h500v300h-500Z" style="fill: none;"></path><g><g class="mark-line role-mark layer_0_marks"><path d="M0,299.9181818181818L12.5,299.8090909090909L25,299.72727272727275L37.5,299.67272727272723L50,299.53636363636366L62.5,299.42727272727274L75,299.2090909090909L87.5,299.07272727272726L100,298.5818181818182L112.5,297.8454545454546L125,297.08181818181816L137.5,295.96363636363634L150,294.6272727272727L162.5,293.6454545454545L175,290.01818181818186L187.5,287.3727272727273L200,282.79090909090905L212.5,277.44545454545454L225,277.44545454545454L237.5,265.47272727272724L250,260.7L262.5,250.66363636363639L275,241.14545454545453L287.5,231.73636363636365L300,218.78181818181818L312.5,207.13636363636363L325,190.03636363636366L337.5,168.40909090909088L350,150.65454545454546L362.5,134.26363636363638L375,114L387.5,95.37272727272727L400,75.95454545454545L412.5,50.890909090909076L425,26.645454545454538" style="fill: none; stroke: #b2df8a; stroke-width: 1;"></path></g></g><path class="foreground" d="" style="display: none; fill: none;"></path></g><g transform="translate(0,0)"><path class="background" d="M0,0h500v300h-500Z" style="fill: none;"></path><g><g class="mark-line role-mark layer_0_marks"><path d="M0,299.97272727272724L12.5,299.94545454545454L25,299.94545454545454L37.5,299.83636363636367L50,299.7818181818182L62.5,299.72727272727275L75,299.67272727272723L87.5,299.6454545454545L100,299.6454545454545L112.5,299.56363636363636L125,299.53636363636366L137.5,299.23636363636365L150,299.23636363636365L162.5,299.04545454545456L175,299.04545454545456L187.5,298.8545454545455L200,298.8L212.5,298.6363636363636L225,298.55454545454546L237.5,298.52727272727276L250,298.3636363636364L262.5,298.2L275,298.2L287.5,298.03636363636366L300,297.95454545454544L312.5,297.95454545454544L325,297.7909090909091L337.5,297.7090909090909L350,297.5181818181818L362.5,297.43636363636364L375,297.2181818181818L387.5,296.9727272727273L400,296.9727272727273L412.5,296.72727272727275L425,296.56363636363636L437.5,296.42727272727274L450,296.2090909090909L462.5,296.07272727272726" style="fill: none; stroke: #33a02c; stroke-width: 1;"></path></g></g><path class="foreground" d="" style="display: none; fill: none;"></path></g><g transform="translate(0,0)"><path class="background" d="M0,0h500v300h-500Z" style="fill: none;"></path><g><g class="mark-line role-mark layer_0_marks"><path d="M0,300L12.5,299.97272727272724L25,299.94545454545454L37.5,299.9181818181818L50,299.8636363636364L62.5,299.72727272727275L75,299.53636363636366L87.5,299.23636363636365L100,299.04545454545456L112.5,298.52727272727276L125,298.5L137.5,296.3727272727273L150,294.6818181818182L162.5,292.1181818181818L175,290.6727272727273L187.5,285.4636363636364L200,283.0090909090909L212.5,277.3636363636364L225,271.55454545454546L237.5,262.5L250,251.6727272727273L262.5,236.97272727272727L275,223.4181818181818L287.5,200.53636363636363L300,180.95454545454547L312.5,159.87272727272727L325,136.85454545454544" style="fill: none; stroke: #fb9a99; stroke-width: 1;"></path></g></g><path class="foreground" d="" style="display: none; fill: none;"></path></g><g transform="translate(0,0)"><path class="background" d="M0,0h500v300h-500Z" style="fill: none;"></path><g><g class="mark-line role-mark layer_0_marks"><path d="M0,299.8090909090909L12.5,299.7L25,299.67272727272723L37.5,299.6181818181818L50,299.53636363636366L62.5,299.42727272727274L75,299.4L87.5,299.23636363636365L100,299.0181818181818L112.5,298.9090909090909L125,298.7181818181818L137.5,298.52727272727276L150,298.2818181818182L162.5,297.6818181818182L175,297.05454545454546L187.5,296.7818181818182L200,294.54545454545456L212.5,293.3454545454545L225,291.6272727272727L237.5,288.6272727272727L250,284.8090909090909L262.5,280.74545454545455L275,274.3090909090909L287.5,267.0272727272727L300,256.8818181818182L312.5,244.74545454545452" style="fill: none; stroke: #e31a1c; stroke-width: 1;"></path></g></g><path class="foreground" d="" style="display: none; fill: none;"></path></g><g transform="translate(0,0)"><path class="background" d="M0,0h500v300h-500Z" style="fill: none;"></path><g><g class="mark-line role-mark layer_0_marks"><path d="M0,299.97272727272724L12.5,299.94545454545454L25,299.94545454545454L37.5,299.9181818181818L50,299.8909090909091L62.5,299.83636363636367L75,299.7818181818182L87.5,299.7818181818182L100,299.7818181818182L112.5,299.42727272727274L125,299.42727272727274L137.5,298.47272727272724L150,298.47272727272724L162.5,298.03636363636366L175,296.23636363636365L187.5,295.1454545454545L200,293.6181818181818L212.5,292.3090909090909L225,290.8363636363636L237.5,288.4636363636364L250,287.2909090909091L262.5,284.1818181818182L275,279.24545454545455L287.5,272.1545454545455" style="fill: none; stroke: #fdbf6f; stroke-width: 1;"></path></g></g><path class="foreground" d="" style="display: none; fill: none;"></path></g></g><g class="mark-symbol role-mark layer_1_marks"><path transform="translate(0,299.94545454545454)" d="M1.5811388300841898,0A1.5811388300841898,1.5811388300841898,0,1,1,-1.5811388300841898,0A1.5811388300841898,1.5811388300841898,0,1,1,1.5811388300841898,0" style="fill: #a6cee3; stroke-width: 2; opacity: 1;"></path><path transform="translate(12.5,299.9181818181818)" d="M1.5811388300841898,0A1.5811388300841898,1.5811388300841898,0,1,1,-1.5811388300841898,0A1.5811388300841898,1.5811388300841898,0,1,1,1.5811388300841898,0" style="fill: #a6cee3; stroke-width: 2; opacity: 1;"></path><path transform="translate(25,299.8909090909091)" d="M1.5811388300841898,0A1.5811388300841898,1.5811388300841898,0,1,1,-1.5811388300841898,0A1.5811388300841898,1.5811388300841898,0,1,1,1.5811388300841898,0" style="fill: #a6cee3; stroke-width: 2; opacity: 1;"></path><path transform="translate(37.5,299.8909090909091)" d="M1.5811388300841898,0A1.5811388300841898,1.5811388300841898,0,1,1,-1.5811388300841898,0A1.5811388300841898,1.5811388300841898,0,1,1,1.5811388300841898,0" style="fill: #a6cee3; stroke-width: 2; opacity: 1;"></path><path transform="translate(50,299.83636363636367)" d="M1.5811388300841898,0A1.5811388300841898,1.5811388300841898,0,1,1,-1.5811388300841898,0A1.5811388300841898,1.5811388300841898,0,1,1,1.5811388300841898,0" style="fill: #a6cee3; stroke-width: 2; opacity: 1;"></path><path transform="translate(62.5,299.75454545454545)" d="M1.5811388300841898,0A1.5811388300841898,1.5811388300841898,0,1,1,-1.5811388300841898,0A1.5811388300841898,1.5811388300841898,0,1,1,1.5811388300841898,0" style="fill: #a6cee3; stroke-width: 2; opacity: 1;"></path><path transform="translate(75,299.7)" d="M1.5811388300841898,0A1.5811388300841898,1.5811388300841898,0,1,1,-1.5811388300841898,0A1.5811388300841898,1.5811388300841898,0,1,1,1.5811388300841898,0" style="fill: #a6cee3; stroke-width: 2; opacity: 1;"></path><path transform="translate(87.5,299.4818181818182)" d="M1.5811388300841898,0A1.5811388300841898,1.5811388300841898,0,1,1,-1.5811388300841898,0A1.5811388300841898,1.5811388300841898,0,1,1,1.5811388300841898,0" style="fill: #a6cee3; stroke-width: 2; opacity: 1;"></path><path transform="translate(100,299.4818181818182)" d="M1.5811388300841898,0A1.5811388300841898,1.5811388300841898,0,1,1,-1.5811388300841898,0A1.5811388300841898,1.5811388300841898,0,1,1,1.5811388300841898,0" style="fill: #a6cee3; stroke-width: 2; opacity: 1;"></path><path transform="translate(112.5,299.1)" d="M1.5811388300841898,0A1.5811388300841898,1.5811388300841898,0,1,1,-1.5811388300841898,0A1.5811388300841898,1.5811388300841898,0,1,1,1.5811388300841898,0" style="fill: #a6cee3; stroke-width: 2; opacity: 1;"></path><path transform="translate(125,298.6909090909091)" d="M1.5811388300841898,0A1.5811388300841898,1.5811388300841898,0,1,1,-1.5811388300841898,0A1.5811388300841898,1.5811388300841898,0,1,1,1.5811388300841898,0" style="fill: #a6cee3; stroke-width: 2; opacity: 1;"></path><path transform="translate(137.5,298.6909090909091)" d="M1.5811388300841898,0A1.5811388300841898,1.5811388300841898,0,1,1,-1.5811388300841898,0A1.5811388300841898,1.5811388300841898,0,1,1,1.5811388300841898,0" style="fill: #a6cee3; stroke-width: 2; opacity: 1;"></path><path transform="translate(150,297.8454545454546)" d="M1.5811388300841898,0A1.5811388300841898,1.5811388300841898,0,1,1,-1.5811388300841898,0A1.5811388300841898,1.5811388300841898,0,1,1,1.5811388300841898,0" style="fill: #a6cee3; stroke-width: 2; opacity: 1;"></path><path transform="translate(162.5,297.5181818181818)" d="M1.5811388300841898,0A1.5811388300841898,1.5811388300841898,0,1,1,-1.5811388300841898,0A1.5811388300841898,1.5811388300841898,0,1,1,1.5811388300841898,0" style="fill: #a6cee3; stroke-width: 2; opacity: 1;"></path><path transform="translate(175,297.5181818181818)" d="M1.5811388300841898,0A1.5811388300841898,1.5811388300841898,0,1,1,-1.5811388300841898,0A1.5811388300841898,1.5811388300841898,0,1,1,1.5811388300841898,0" style="fill: #a6cee3; stroke-width: 2; opacity: 1;"></path><path transform="translate(187.5,295.93636363636364)" d="M1.5811388300841898,0A1.5811388300841898,1.5811388300841898,0,1,1,-1.5811388300841898,0A1.5811388300841898,1.5811388300841898,0,1,1,1.5811388300841898,0" style="fill: #a6cee3; stroke-width: 2; opacity: 1;"></path><path transform="translate(200,295.93636363636364)" d="M1.5811388300841898,0A1.5811388300841898,1.5811388300841898,0,1,1,-1.5811388300841898,0A1.5811388300841898,1.5811388300841898,0,1,1,1.5811388300841898,0" style="fill: #a6cee3; stroke-width: 2; opacity: 1;"></path><path transform="translate(212.5,295.93636363636364)" d="M1.5811388300841898,0A1.5811388300841898,1.5811388300841898,0,1,1,-1.5811388300841898,0A1.5811388300841898,1.5811388300841898,0,1,1,1.5811388300841898,0" style="fill: #a6cee3; stroke-width: 2; opacity: 1;"></path><path transform="translate(225,293.3454545454545)" d="M1.5811388300841898,0A1.5811388300841898,1.5811388300841898,0,1,1,-1.5811388300841898,0A1.5811388300841898,1.5811388300841898,0,1,1,1.5811388300841898,0" style="fill: #a6cee3; stroke-width: 2; opacity: 1;"></path><path transform="translate(237.5,287.7)" d="M1.5811388300841898,0A1.5811388300841898,1.5811388300841898,0,1,1,-1.5811388300841898,0A1.5811388300841898,1.5811388300841898,0,1,1,1.5811388300841898,0" style="fill: #a6cee3; stroke-width: 2; opacity: 1;"></path><path transform="translate(250,284.6454545454545)" d="M1.5811388300841898,0A1.5811388300841898,1.5811388300841898,0,1,1,-1.5811388300841898,0A1.5811388300841898,1.5811388300841898,0,1,1,1.5811388300841898,0" style="fill: #a6cee3; stroke-width: 2; opacity: 1;"></path><path transform="translate(262.5,281.56363636363636)" d="M1.5811388300841898,0A1.5811388300841898,1.5811388300841898,0,1,1,-1.5811388300841898,0A1.5811388300841898,1.5811388300841898,0,1,1,1.5811388300841898,0" style="fill: #a6cee3; stroke-width: 2; opacity: 1;"></path><path transform="translate(275,276.4909090909091)" d="M1.5811388300841898,0A1.5811388300841898,1.5811388300841898,0,1,1,-1.5811388300841898,0A1.5811388300841898,1.5811388300841898,0,1,1,1.5811388300841898,0" style="fill: #a6cee3; stroke-width: 2; opacity: 1;"></path><path transform="translate(287.5,269.94545454545454)" d="M1.5811388300841898,0A1.5811388300841898,1.5811388300841898,0,1,1,-1.5811388300841898,0A1.5811388300841898,1.5811388300841898,0,1,1,1.5811388300841898,0" style="fill: #a6cee3; stroke-width: 2; opacity: 1;"></path><path transform="translate(300,263.6454545454545)" d="M1.5811388300841898,0A1.5811388300841898,1.5811388300841898,0,1,1,-1.5811388300841898,0A1.5811388300841898,1.5811388300841898,0,1,1,1.5811388300841898,0" style="fill: #a6cee3; stroke-width: 2; opacity: 1;"></path><path transform="translate(312.5,253.6909090909091)" d="M1.5811388300841898,0A1.5811388300841898,1.5811388300841898,0,1,1,-1.5811388300841898,0A1.5811388300841898,1.5811388300841898,0,1,1,1.5811388300841898,0" style="fill: #a6cee3; stroke-width: 2; opacity: 1;"></path><path transform="translate(325,245.53636363636363)" d="M1.5811388300841898,0A1.5811388300841898,1.5811388300841898,0,1,1,-1.5811388300841898,0A1.5811388300841898,1.5811388300841898,0,1,1,1.5811388300841898,0" style="fill: #a6cee3; stroke-width: 2; opacity: 1;"></path><path transform="translate(337.5,236.8090909090909)" d="M1.5811388300841898,0A1.5811388300841898,1.5811388300841898,0,1,1,-1.5811388300841898,0A1.5811388300841898,1.5811388300841898,0,1,1,1.5811388300841898,0" style="fill: #a6cee3; stroke-width: 2; opacity: 1;"></path><path transform="translate(0,300)" d="M1.5811388300841898,0A1.5811388300841898,1.5811388300841898,0,1,1,-1.5811388300841898,0A1.5811388300841898,1.5811388300841898,0,1,1,1.5811388300841898,0" style="fill: #1f78b4; stroke-width: 2; opacity: 1;"></path><path transform="translate(12.5,300)" d="M1.5811388300841898,0A1.5811388300841898,1.5811388300841898,0,1,1,-1.5811388300841898,0A1.5811388300841898,1.5811388300841898,0,1,1,1.5811388300841898,0" style="fill: #1f78b4; stroke-width: 2; opacity: 1;"></path><path transform="translate(25,300)" d="M1.5811388300841898,0A1.5811388300841898,1.5811388300841898,0,1,1,-1.5811388300841898,0A1.5811388300841898,1.5811388300841898,0,1,1,1.5811388300841898,0" style="fill: #1f78b4; stroke-width: 2; opacity: 1;"></path><path transform="translate(37.5,300)" d="M1.5811388300841898,0A1.5811388300841898,1.5811388300841898,0,1,1,-1.5811388300841898,0A1.5811388300841898,1.5811388300841898,0,1,1,1.5811388300841898,0" style="fill: #1f78b4; stroke-width: 2; opacity: 1;"></path><path transform="translate(50,300)" d="M1.5811388300841898,0A1.5811388300841898,1.5811388300841898,0,1,1,-1.5811388300841898,0A1.5811388300841898,1.5811388300841898,0,1,1,1.5811388300841898,0" style="fill: #1f78b4; stroke-width: 2; opacity: 1;"></path><path transform="translate(62.5,300)" d="M1.5811388300841898,0A1.5811388300841898,1.5811388300841898,0,1,1,-1.5811388300841898,0A1.5811388300841898,1.5811388300841898,0,1,1,1.5811388300841898,0" style="fill: #1f78b4; stroke-width: 2; opacity: 1;"></path><path transform="translate(75,300)" d="M1.5811388300841898,0A1.5811388300841898,1.5811388300841898,0,1,1,-1.5811388300841898,0A1.5811388300841898,1.5811388300841898,0,1,1,1.5811388300841898,0" style="fill: #1f78b4; stroke-width: 2; opacity: 1;"></path><path transform="translate(87.5,300)" d="M1.5811388300841898,0A1.5811388300841898,1.5811388300841898,0,1,1,-1.5811388300841898,0A1.5811388300841898,1.5811388300841898,0,1,1,1.5811388300841898,0" style="fill: #1f78b4; stroke-width: 2; opacity: 1;"></path><path transform="translate(100,299.94545454545454)" d="M1.5811388300841898,0A1.5811388300841898,1.5811388300841898,0,1,1,-1.5811388300841898,0A1.5811388300841898,1.5811388300841898,0,1,1,1.5811388300841898,0" style="fill: #1f78b4; stroke-width: 2; opacity: 1;"></path><path transform="translate(112.5,299.94545454545454)" d="M1.5811388300841898,0A1.5811388300841898,1.5811388300841898,0,1,1,-1.5811388300841898,0A1.5811388300841898,1.5811388300841898,0,1,1,1.5811388300841898,0" style="fill: #1f78b4; stroke-width: 2; opacity: 1;"></path><path transform="translate(125,299.9181818181818)" d="M1.5811388300841898,0A1.5811388300841898,1.5811388300841898,0,1,1,-1.5811388300841898,0A1.5811388300841898,1.5811388300841898,0,1,1,1.5811388300841898,0" style="fill: #1f78b4; stroke-width: 2; opacity: 1;"></path><path transform="translate(137.5,299.9181818181818)" d="M1.5811388300841898,0A1.5811388300841898,1.5811388300841898,0,1,1,-1.5811388300841898,0A1.5811388300841898,1.5811388300841898,0,1,1,1.5811388300841898,0" style="fill: #1f78b4; stroke-width: 2; opacity: 1;"></path><path transform="translate(150,299.8090909090909)" d="M1.5811388300841898,0A1.5811388300841898,1.5811388300841898,0,1,1,-1.5811388300841898,0A1.5811388300841898,1.5811388300841898,0,1,1,1.5811388300841898,0" style="fill: #1f78b4; stroke-width: 2; opacity: 1;"></path><path transform="translate(162.5,299.75454545454545)" d="M1.5811388300841898,0A1.5811388300841898,1.5811388300841898,0,1,1,-1.5811388300841898,0A1.5811388300841898,1.5811388300841898,0,1,1,1.5811388300841898,0" style="fill: #1f78b4; stroke-width: 2; opacity: 1;"></path><path transform="translate(175,299.7)" d="M1.5811388300841898,0A1.5811388300841898,1.5811388300841898,0,1,1,-1.5811388300841898,0A1.5811388300841898,1.5811388300841898,0,1,1,1.5811388300841898,0" style="fill: #1f78b4; stroke-width: 2; opacity: 1;"></path><path transform="translate(187.5,299.53636363636366)" d="M1.5811388300841898,0A1.5811388300841898,1.5811388300841898,0,1,1,-1.5811388300841898,0A1.5811388300841898,1.5811388300841898,0,1,1,1.5811388300841898,0" style="fill: #1f78b4; stroke-width: 2; opacity: 1;"></path><path transform="translate(200,299.3454545454546)" d="M1.5811388300841898,0A1.5811388300841898,1.5811388300841898,0,1,1,-1.5811388300841898,0A1.5811388300841898,1.5811388300841898,0,1,1,1.5811388300841898,0" style="fill: #1f78b4; stroke-width: 2; opacity: 1;"></path><path transform="translate(212.5,299.23636363636365)" d="M1.5811388300841898,0A1.5811388300841898,1.5811388300841898,0,1,1,-1.5811388300841898,0A1.5811388300841898,1.5811388300841898,0,1,1,1.5811388300841898,0" style="fill: #1f78b4; stroke-width: 2; opacity: 1;"></path><path transform="translate(225,298.8)" d="M1.5811388300841898,0A1.5811388300841898,1.5811388300841898,0,1,1,-1.5811388300841898,0A1.5811388300841898,1.5811388300841898,0,1,1,1.5811388300841898,0" style="fill: #1f78b4; stroke-width: 2; opacity: 1;"></path><path transform="translate(237.5,298.17272727272723)" d="M1.5811388300841898,0A1.5811388300841898,1.5811388300841898,0,1,1,-1.5811388300841898,0A1.5811388300841898,1.5811388300841898,0,1,1,1.5811388300841898,0" style="fill: #1f78b4; stroke-width: 2; opacity: 1;"></path><path transform="translate(250,297.7090909090909)" d="M1.5811388300841898,0A1.5811388300841898,1.5811388300841898,0,1,1,-1.5811388300841898,0A1.5811388300841898,1.5811388300841898,0,1,1,1.5811388300841898,0" style="fill: #1f78b4; stroke-width: 2; opacity: 1;"></path><path transform="translate(262.5,297.43636363636364)" d="M1.5811388300841898,0A1.5811388300841898,1.5811388300841898,0,1,1,-1.5811388300841898,0A1.5811388300841898,1.5811388300841898,0,1,1,1.5811388300841898,0" style="fill: #1f78b4; stroke-width: 2; opacity: 1;"></path><path transform="translate(275,296.6454545454545)" d="M1.5811388300841898,0A1.5811388300841898,1.5811388300841898,0,1,1,-1.5811388300841898,0A1.5811388300841898,1.5811388300841898,0,1,1,1.5811388300841898,0" style="fill: #1f78b4; stroke-width: 2; opacity: 1;"></path><path transform="translate(287.5,295.7181818181818)" d="M1.5811388300841898,0A1.5811388300841898,1.5811388300841898,0,1,1,-1.5811388300841898,0A1.5811388300841898,1.5811388300841898,0,1,1,1.5811388300841898,0" style="fill: #1f78b4; stroke-width: 2; opacity: 1;"></path><path transform="translate(300,294.3818181818182)" d="M1.5811388300841898,0A1.5811388300841898,1.5811388300841898,0,1,1,-1.5811388300841898,0A1.5811388300841898,1.5811388300841898,0,1,1,1.5811388300841898,0" style="fill: #1f78b4; stroke-width: 2; opacity: 1;"></path><path transform="translate(312.5,292.71818181818185)" d="M1.5811388300841898,0A1.5811388300841898,1.5811388300841898,0,1,1,-1.5811388300841898,0A1.5811388300841898,1.5811388300841898,0,1,1,1.5811388300841898,0" style="fill: #1f78b4; stroke-width: 2; opacity: 1;"></path><path transform="translate(325,290.6727272727273)" d="M1.5811388300841898,0A1.5811388300841898,1.5811388300841898,0,1,1,-1.5811388300841898,0A1.5811388300841898,1.5811388300841898,0,1,1,1.5811388300841898,0" style="fill: #1f78b4; stroke-width: 2; opacity: 1;"></path><path transform="translate(337.5,288.1909090909091)" d="M1.5811388300841898,0A1.5811388300841898,1.5811388300841898,0,1,1,-1.5811388300841898,0A1.5811388300841898,1.5811388300841898,0,1,1,1.5811388300841898,0" style="fill: #1f78b4; stroke-width: 2; opacity: 1;"></path><path transform="translate(0,299.9181818181818)" d="M1.5811388300841898,0A1.5811388300841898,1.5811388300841898,0,1,1,-1.5811388300841898,0A1.5811388300841898,1.5811388300841898,0,1,1,1.5811388300841898,0" style="fill: #b2df8a; stroke-width: 2; opacity: 1;"></path><path transform="translate(12.5,299.8090909090909)" d="M1.5811388300841898,0A1.5811388300841898,1.5811388300841898,0,1,1,-1.5811388300841898,0A1.5811388300841898,1.5811388300841898,0,1,1,1.5811388300841898,0" style="fill: #b2df8a; stroke-width: 2; opacity: 1;"></path><path transform="translate(25,299.72727272727275)" d="M1.5811388300841898,0A1.5811388300841898,1.5811388300841898,0,1,1,-1.5811388300841898,0A1.5811388300841898,1.5811388300841898,0,1,1,1.5811388300841898,0" style="fill: #b2df8a; stroke-width: 2; opacity: 1;"></path><path transform="translate(37.5,299.67272727272723)" d="M1.5811388300841898,0A1.5811388300841898,1.5811388300841898,0,1,1,-1.5811388300841898,0A1.5811388300841898,1.5811388300841898,0,1,1,1.5811388300841898,0" style="fill: #b2df8a; stroke-width: 2; opacity: 1;"></path><path transform="translate(50,299.53636363636366)" d="M1.5811388300841898,0A1.5811388300841898,1.5811388300841898,0,1,1,-1.5811388300841898,0A1.5811388300841898,1.5811388300841898,0,1,1,1.5811388300841898,0" style="fill: #b2df8a; stroke-width: 2; opacity: 1;"></path><path transform="translate(62.5,299.42727272727274)" d="M1.5811388300841898,0A1.5811388300841898,1.5811388300841898,0,1,1,-1.5811388300841898,0A1.5811388300841898,1.5811388300841898,0,1,1,1.5811388300841898,0" style="fill: #b2df8a; stroke-width: 2; opacity: 1;"></path><path transform="translate(75,299.2090909090909)" d="M1.5811388300841898,0A1.5811388300841898,1.5811388300841898,0,1,1,-1.5811388300841898,0A1.5811388300841898,1.5811388300841898,0,1,1,1.5811388300841898,0" style="fill: #b2df8a; stroke-width: 2; opacity: 1;"></path><path transform="translate(87.5,299.07272727272726)" d="M1.5811388300841898,0A1.5811388300841898,1.5811388300841898,0,1,1,-1.5811388300841898,0A1.5811388300841898,1.5811388300841898,0,1,1,1.5811388300841898,0" style="fill: #b2df8a; stroke-width: 2; opacity: 1;"></path><path transform="translate(100,298.5818181818182)" d="M1.5811388300841898,0A1.5811388300841898,1.5811388300841898,0,1,1,-1.5811388300841898,0A1.5811388300841898,1.5811388300841898,0,1,1,1.5811388300841898,0" style="fill: #b2df8a; stroke-width: 2; opacity: 1;"></path><path transform="translate(112.5,297.8454545454546)" d="M1.5811388300841898,0A1.5811388300841898,1.5811388300841898,0,1,1,-1.5811388300841898,0A1.5811388300841898,1.5811388300841898,0,1,1,1.5811388300841898,0" style="fill: #b2df8a; stroke-width: 2; opacity: 1;"></path><path transform="translate(125,297.08181818181816)" d="M1.5811388300841898,0A1.5811388300841898,1.5811388300841898,0,1,1,-1.5811388300841898,0A1.5811388300841898,1.5811388300841898,0,1,1,1.5811388300841898,0" style="fill: #b2df8a; stroke-width: 2; opacity: 1;"></path><path transform="translate(137.5,295.96363636363634)" d="M1.5811388300841898,0A1.5811388300841898,1.5811388300841898,0,1,1,-1.5811388300841898,0A1.5811388300841898,1.5811388300841898,0,1,1,1.5811388300841898,0" style="fill: #b2df8a; stroke-width: 2; opacity: 1;"></path><path transform="translate(150,294.6272727272727)" d="M1.5811388300841898,0A1.5811388300841898,1.5811388300841898,0,1,1,-1.5811388300841898,0A1.5811388300841898,1.5811388300841898,0,1,1,1.5811388300841898,0" style="fill: #b2df8a; stroke-width: 2; opacity: 1;"></path><path transform="translate(162.5,293.6454545454545)" d="M1.5811388300841898,0A1.5811388300841898,1.5811388300841898,0,1,1,-1.5811388300841898,0A1.5811388300841898,1.5811388300841898,0,1,1,1.5811388300841898,0" style="fill: #b2df8a; stroke-width: 2; opacity: 1;"></path><path transform="translate(175,290.01818181818186)" d="M1.5811388300841898,0A1.5811388300841898,1.5811388300841898,0,1,1,-1.5811388300841898,0A1.5811388300841898,1.5811388300841898,0,1,1,1.5811388300841898,0" style="fill: #b2df8a; stroke-width: 2; opacity: 1;"></path><path transform="translate(187.5,287.3727272727273)" d="M1.5811388300841898,0A1.5811388300841898,1.5811388300841898,0,1,1,-1.5811388300841898,0A1.5811388300841898,1.5811388300841898,0,1,1,1.5811388300841898,0" style="fill: #b2df8a; stroke-width: 2; opacity: 1;"></path><path transform="translate(200,282.79090909090905)" d="M1.5811388300841898,0A1.5811388300841898,1.5811388300841898,0,1,1,-1.5811388300841898,0A1.5811388300841898,1.5811388300841898,0,1,1,1.5811388300841898,0" style="fill: #b2df8a; stroke-width: 2; opacity: 1;"></path><path transform="translate(212.5,277.44545454545454)" d="M1.5811388300841898,0A1.5811388300841898,1.5811388300841898,0,1,1,-1.5811388300841898,0A1.5811388300841898,1.5811388300841898,0,1,1,1.5811388300841898,0" style="fill: #b2df8a; stroke-width: 2; opacity: 1;"></path><path transform="translate(225,277.44545454545454)" d="M1.5811388300841898,0A1.5811388300841898,1.5811388300841898,0,1,1,-1.5811388300841898,0A1.5811388300841898,1.5811388300841898,0,1,1,1.5811388300841898,0" style="fill: #b2df8a; stroke-width: 2; opacity: 1;"></path><path transform="translate(237.5,265.47272727272724)" d="M1.5811388300841898,0A1.5811388300841898,1.5811388300841898,0,1,1,-1.5811388300841898,0A1.5811388300841898,1.5811388300841898,0,1,1,1.5811388300841898,0" style="fill: #b2df8a; stroke-width: 2; opacity: 1;"></path><path transform="translate(250,260.7)" d="M1.5811388300841898,0A1.5811388300841898,1.5811388300841898,0,1,1,-1.5811388300841898,0A1.5811388300841898,1.5811388300841898,0,1,1,1.5811388300841898,0" style="fill: #b2df8a; stroke-width: 2; opacity: 1;"></path><path transform="translate(262.5,250.66363636363639)" d="M1.5811388300841898,0A1.5811388300841898,1.5811388300841898,0,1,1,-1.5811388300841898,0A1.5811388300841898,1.5811388300841898,0,1,1,1.5811388300841898,0" style="fill: #b2df8a; stroke-width: 2; opacity: 1;"></path><path transform="translate(275,241.14545454545453)" d="M1.5811388300841898,0A1.5811388300841898,1.5811388300841898,0,1,1,-1.5811388300841898,0A1.5811388300841898,1.5811388300841898,0,1,1,1.5811388300841898,0" style="fill: #b2df8a; stroke-width: 2; opacity: 1;"></path><path transform="translate(287.5,231.73636363636365)" d="M1.5811388300841898,0A1.5811388300841898,1.5811388300841898,0,1,1,-1.5811388300841898,0A1.5811388300841898,1.5811388300841898,0,1,1,1.5811388300841898,0" style="fill: #b2df8a; stroke-width: 2; opacity: 1;"></path><path transform="translate(300,218.78181818181818)" d="M1.5811388300841898,0A1.5811388300841898,1.5811388300841898,0,1,1,-1.5811388300841898,0A1.5811388300841898,1.5811388300841898,0,1,1,1.5811388300841898,0" style="fill: #b2df8a; stroke-width: 2; opacity: 1;"></path><path transform="translate(312.5,207.13636363636363)" d="M1.5811388300841898,0A1.5811388300841898,1.5811388300841898,0,1,1,-1.5811388300841898,0A1.5811388300841898,1.5811388300841898,0,1,1,1.5811388300841898,0" style="fill: #b2df8a; stroke-width: 2; opacity: 1;"></path><path transform="translate(325,190.03636363636366)" d="M1.5811388300841898,0A1.5811388300841898,1.5811388300841898,0,1,1,-1.5811388300841898,0A1.5811388300841898,1.5811388300841898,0,1,1,1.5811388300841898,0" style="fill: #b2df8a; stroke-width: 2; opacity: 1;"></path><path transform="translate(337.5,168.40909090909088)" d="M1.5811388300841898,0A1.5811388300841898,1.5811388300841898,0,1,1,-1.5811388300841898,0A1.5811388300841898,1.5811388300841898,0,1,1,1.5811388300841898,0" style="fill: #b2df8a; stroke-width: 2; opacity: 1;"></path><path transform="translate(350,150.65454545454546)" d="M1.5811388300841898,0A1.5811388300841898,1.5811388300841898,0,1,1,-1.5811388300841898,0A1.5811388300841898,1.5811388300841898,0,1,1,1.5811388300841898,0" style="fill: #b2df8a; stroke-width: 2; opacity: 1;"></path><path transform="translate(362.5,134.26363636363638)" d="M1.5811388300841898,0A1.5811388300841898,1.5811388300841898,0,1,1,-1.5811388300841898,0A1.5811388300841898,1.5811388300841898,0,1,1,1.5811388300841898,0" style="fill: #b2df8a; stroke-width: 2; opacity: 1;"></path><path transform="translate(375,114)" d="M1.5811388300841898,0A1.5811388300841898,1.5811388300841898,0,1,1,-1.5811388300841898,0A1.5811388300841898,1.5811388300841898,0,1,1,1.5811388300841898,0" style="fill: #b2df8a; stroke-width: 2; opacity: 1;"></path><path transform="translate(387.5,95.37272727272727)" d="M1.5811388300841898,0A1.5811388300841898,1.5811388300841898,0,1,1,-1.5811388300841898,0A1.5811388300841898,1.5811388300841898,0,1,1,1.5811388300841898,0" style="fill: #b2df8a; stroke-width: 2; opacity: 1;"></path><path transform="translate(400,75.95454545454545)" d="M1.5811388300841898,0A1.5811388300841898,1.5811388300841898,0,1,1,-1.5811388300841898,0A1.5811388300841898,1.5811388300841898,0,1,1,1.5811388300841898,0" style="fill: #b2df8a; stroke-width: 2; opacity: 1;"></path><path transform="translate(412.5,50.890909090909076)" d="M1.5811388300841898,0A1.5811388300841898,1.5811388300841898,0,1,1,-1.5811388300841898,0A1.5811388300841898,1.5811388300841898,0,1,1,1.5811388300841898,0" style="fill: #b2df8a; stroke-width: 2; opacity: 1;"></path><path transform="translate(425,26.645454545454538)" d="M1.5811388300841898,0A1.5811388300841898,1.5811388300841898,0,1,1,-1.5811388300841898,0A1.5811388300841898,1.5811388300841898,0,1,1,1.5811388300841898,0" style="fill: #b2df8a; stroke-width: 2; opacity: 1;"></path><path transform="translate(0,299.97272727272724)" d="M1.5811388300841898,0A1.5811388300841898,1.5811388300841898,0,1,1,-1.5811388300841898,0A1.5811388300841898,1.5811388300841898,0,1,1,1.5811388300841898,0" style="fill: #33a02c; stroke-width: 2; opacity: 1;"></path><path transform="translate(12.5,299.94545454545454)" d="M1.5811388300841898,0A1.5811388300841898,1.5811388300841898,0,1,1,-1.5811388300841898,0A1.5811388300841898,1.5811388300841898,0,1,1,1.5811388300841898,0" style="fill: #33a02c; stroke-width: 2; opacity: 1;"></path><path transform="translate(25,299.94545454545454)" d="M1.5811388300841898,0A1.5811388300841898,1.5811388300841898,0,1,1,-1.5811388300841898,0A1.5811388300841898,1.5811388300841898,0,1,1,1.5811388300841898,0" style="fill: #33a02c; stroke-width: 2; opacity: 1;"></path><path transform="translate(37.5,299.83636363636367)" d="M1.5811388300841898,0A1.5811388300841898,1.5811388300841898,0,1,1,-1.5811388300841898,0A1.5811388300841898,1.5811388300841898,0,1,1,1.5811388300841898,0" style="fill: #33a02c; stroke-width: 2; opacity: 1;"></path><path transform="translate(50,299.7818181818182)" d="M1.5811388300841898,0A1.5811388300841898,1.5811388300841898,0,1,1,-1.5811388300841898,0A1.5811388300841898,1.5811388300841898,0,1,1,1.5811388300841898,0" style="fill: #33a02c; stroke-width: 2; opacity: 1;"></path><path transform="translate(62.5,299.72727272727275)" d="M1.5811388300841898,0A1.5811388300841898,1.5811388300841898,0,1,1,-1.5811388300841898,0A1.5811388300841898,1.5811388300841898,0,1,1,1.5811388300841898,0" style="fill: #33a02c; stroke-width: 2; opacity: 1;"></path><path transform="translate(75,299.67272727272723)" d="M1.5811388300841898,0A1.5811388300841898,1.5811388300841898,0,1,1,-1.5811388300841898,0A1.5811388300841898,1.5811388300841898,0,1,1,1.5811388300841898,0" style="fill: #33a02c; stroke-width: 2; opacity: 1;"></path><path transform="translate(87.5,299.6454545454545)" d="M1.5811388300841898,0A1.5811388300841898,1.5811388300841898,0,1,1,-1.5811388300841898,0A1.5811388300841898,1.5811388300841898,0,1,1,1.5811388300841898,0" style="fill: #33a02c; stroke-width: 2; opacity: 1;"></path><path transform="translate(100,299.6454545454545)" d="M1.5811388300841898,0A1.5811388300841898,1.5811388300841898,0,1,1,-1.5811388300841898,0A1.5811388300841898,1.5811388300841898,0,1,1,1.5811388300841898,0" style="fill: #33a02c; stroke-width: 2; opacity: 1;"></path><path transform="translate(112.5,299.56363636363636)" d="M1.5811388300841898,0A1.5811388300841898,1.5811388300841898,0,1,1,-1.5811388300841898,0A1.5811388300841898,1.5811388300841898,0,1,1,1.5811388300841898,0" style="fill: #33a02c; stroke-width: 2; opacity: 1;"></path><path transform="translate(125,299.53636363636366)" d="M1.5811388300841898,0A1.5811388300841898,1.5811388300841898,0,1,1,-1.5811388300841898,0A1.5811388300841898,1.5811388300841898,0,1,1,1.5811388300841898,0" style="fill: #33a02c; stroke-width: 2; opacity: 1;"></path><path transform="translate(137.5,299.23636363636365)" d="M1.5811388300841898,0A1.5811388300841898,1.5811388300841898,0,1,1,-1.5811388300841898,0A1.5811388300841898,1.5811388300841898,0,1,1,1.5811388300841898,0" style="fill: #33a02c; stroke-width: 2; opacity: 1;"></path><path transform="translate(150,299.23636363636365)" d="M1.5811388300841898,0A1.5811388300841898,1.5811388300841898,0,1,1,-1.5811388300841898,0A1.5811388300841898,1.5811388300841898,0,1,1,1.5811388300841898,0" style="fill: #33a02c; stroke-width: 2; opacity: 1;"></path><path transform="translate(162.5,299.04545454545456)" d="M1.5811388300841898,0A1.5811388300841898,1.5811388300841898,0,1,1,-1.5811388300841898,0A1.5811388300841898,1.5811388300841898,0,1,1,1.5811388300841898,0" style="fill: #33a02c; stroke-width: 2; opacity: 1;"></path><path transform="translate(175,299.04545454545456)" d="M1.5811388300841898,0A1.5811388300841898,1.5811388300841898,0,1,1,-1.5811388300841898,0A1.5811388300841898,1.5811388300841898,0,1,1,1.5811388300841898,0" style="fill: #33a02c; stroke-width: 2; opacity: 1;"></path><path transform="translate(187.5,298.8545454545455)" d="M1.5811388300841898,0A1.5811388300841898,1.5811388300841898,0,1,1,-1.5811388300841898,0A1.5811388300841898,1.5811388300841898,0,1,1,1.5811388300841898,0" style="fill: #33a02c; stroke-width: 2; opacity: 1;"></path><path transform="translate(200,298.8)" d="M1.5811388300841898,0A1.5811388300841898,1.5811388300841898,0,1,1,-1.5811388300841898,0A1.5811388300841898,1.5811388300841898,0,1,1,1.5811388300841898,0" style="fill: #33a02c; stroke-width: 2; opacity: 1;"></path><path transform="translate(212.5,298.6363636363636)" d="M1.5811388300841898,0A1.5811388300841898,1.5811388300841898,0,1,1,-1.5811388300841898,0A1.5811388300841898,1.5811388300841898,0,1,1,1.5811388300841898,0" style="fill: #33a02c; stroke-width: 2; opacity: 1;"></path><path transform="translate(225,298.55454545454546)" d="M1.5811388300841898,0A1.5811388300841898,1.5811388300841898,0,1,1,-1.5811388300841898,0A1.5811388300841898,1.5811388300841898,0,1,1,1.5811388300841898,0" style="fill: #33a02c; stroke-width: 2; opacity: 1;"></path><path transform="translate(237.5,298.52727272727276)" d="M1.5811388300841898,0A1.5811388300841898,1.5811388300841898,0,1,1,-1.5811388300841898,0A1.5811388300841898,1.5811388300841898,0,1,1,1.5811388300841898,0" style="fill: #33a02c; stroke-width: 2; opacity: 1;"></path><path transform="translate(250,298.3636363636364)" d="M1.5811388300841898,0A1.5811388300841898,1.5811388300841898,0,1,1,-1.5811388300841898,0A1.5811388300841898,1.5811388300841898,0,1,1,1.5811388300841898,0" style="fill: #33a02c; stroke-width: 2; opacity: 1;"></path><path transform="translate(262.5,298.2)" d="M1.5811388300841898,0A1.5811388300841898,1.5811388300841898,0,1,1,-1.5811388300841898,0A1.5811388300841898,1.5811388300841898,0,1,1,1.5811388300841898,0" style="fill: #33a02c; stroke-width: 2; opacity: 1;"></path><path transform="translate(275,298.2)" d="M1.5811388300841898,0A1.5811388300841898,1.5811388300841898,0,1,1,-1.5811388300841898,0A1.5811388300841898,1.5811388300841898,0,1,1,1.5811388300841898,0" style="fill: #33a02c; stroke-width: 2; opacity: 1;"></path><path transform="translate(287.5,298.03636363636366)" d="M1.5811388300841898,0A1.5811388300841898,1.5811388300841898,0,1,1,-1.5811388300841898,0A1.5811388300841898,1.5811388300841898,0,1,1,1.5811388300841898,0" style="fill: #33a02c; stroke-width: 2; opacity: 1;"></path><path transform="translate(300,297.95454545454544)" d="M1.5811388300841898,0A1.5811388300841898,1.5811388300841898,0,1,1,-1.5811388300841898,0A1.5811388300841898,1.5811388300841898,0,1,1,1.5811388300841898,0" style="fill: #33a02c; stroke-width: 2; opacity: 1;"></path><path transform="translate(312.5,297.95454545454544)" d="M1.5811388300841898,0A1.5811388300841898,1.5811388300841898,0,1,1,-1.5811388300841898,0A1.5811388300841898,1.5811388300841898,0,1,1,1.5811388300841898,0" style="fill: #33a02c; stroke-width: 2; opacity: 1;"></path><path transform="translate(325,297.7909090909091)" d="M1.5811388300841898,0A1.5811388300841898,1.5811388300841898,0,1,1,-1.5811388300841898,0A1.5811388300841898,1.5811388300841898,0,1,1,1.5811388300841898,0" style="fill: #33a02c; stroke-width: 2; opacity: 1;"></path><path transform="translate(337.5,297.7090909090909)" d="M1.5811388300841898,0A1.5811388300841898,1.5811388300841898,0,1,1,-1.5811388300841898,0A1.5811388300841898,1.5811388300841898,0,1,1,1.5811388300841898,0" style="fill: #33a02c; stroke-width: 2; opacity: 1;"></path><path transform="translate(350,297.5181818181818)" d="M1.5811388300841898,0A1.5811388300841898,1.5811388300841898,0,1,1,-1.5811388300841898,0A1.5811388300841898,1.5811388300841898,0,1,1,1.5811388300841898,0" style="fill: #33a02c; stroke-width: 2; opacity: 1;"></path><path transform="translate(362.5,297.43636363636364)" d="M1.5811388300841898,0A1.5811388300841898,1.5811388300841898,0,1,1,-1.5811388300841898,0A1.5811388300841898,1.5811388300841898,0,1,1,1.5811388300841898,0" style="fill: #33a02c; stroke-width: 2; opacity: 1;"></path><path transform="translate(375,297.2181818181818)" d="M1.5811388300841898,0A1.5811388300841898,1.5811388300841898,0,1,1,-1.5811388300841898,0A1.5811388300841898,1.5811388300841898,0,1,1,1.5811388300841898,0" style="fill: #33a02c; stroke-width: 2; opacity: 1;"></path><path transform="translate(387.5,296.9727272727273)" d="M1.5811388300841898,0A1.5811388300841898,1.5811388300841898,0,1,1,-1.5811388300841898,0A1.5811388300841898,1.5811388300841898,0,1,1,1.5811388300841898,0" style="fill: #33a02c; stroke-width: 2; opacity: 1;"></path><path transform="translate(400,296.9727272727273)" d="M1.5811388300841898,0A1.5811388300841898,1.5811388300841898,0,1,1,-1.5811388300841898,0A1.5811388300841898,1.5811388300841898,0,1,1,1.5811388300841898,0" style="fill: #33a02c; stroke-width: 2; opacity: 1;"></path><path transform="translate(412.5,296.72727272727275)" d="M1.5811388300841898,0A1.5811388300841898,1.5811388300841898,0,1,1,-1.5811388300841898,0A1.5811388300841898,1.5811388300841898,0,1,1,1.5811388300841898,0" style="fill: #33a02c; stroke-width: 2; opacity: 1;"></path><path transform="translate(425,296.56363636363636)" d="M1.5811388300841898,0A1.5811388300841898,1.5811388300841898,0,1,1,-1.5811388300841898,0A1.5811388300841898,1.5811388300841898,0,1,1,1.5811388300841898,0" style="fill: #33a02c; stroke-width: 2; opacity: 1;"></path><path transform="translate(437.5,296.42727272727274)" d="M1.5811388300841898,0A1.5811388300841898,1.5811388300841898,0,1,1,-1.5811388300841898,0A1.5811388300841898,1.5811388300841898,0,1,1,1.5811388300841898,0" style="fill: #33a02c; stroke-width: 2; opacity: 1;"></path><path transform="translate(450,296.2090909090909)" d="M1.5811388300841898,0A1.5811388300841898,1.5811388300841898,0,1,1,-1.5811388300841898,0A1.5811388300841898,1.5811388300841898,0,1,1,1.5811388300841898,0" style="fill: #33a02c; stroke-width: 2; opacity: 1;"></path><path transform="translate(462.5,296.07272727272726)" d="M1.5811388300841898,0A1.5811388300841898,1.5811388300841898,0,1,1,-1.5811388300841898,0A1.5811388300841898,1.5811388300841898,0,1,1,1.5811388300841898,0" style="fill: #33a02c; stroke-width: 2; opacity: 1;"></path><path transform="translate(0,300)" d="M1.5811388300841898,0A1.5811388300841898,1.5811388300841898,0,1,1,-1.5811388300841898,0A1.5811388300841898,1.5811388300841898,0,1,1,1.5811388300841898,0" style="fill: #fb9a99; stroke-width: 2; opacity: 1;"></path><path transform="translate(12.5,299.97272727272724)" d="M1.5811388300841898,0A1.5811388300841898,1.5811388300841898,0,1,1,-1.5811388300841898,0A1.5811388300841898,1.5811388300841898,0,1,1,1.5811388300841898,0" style="fill: #fb9a99; stroke-width: 2; opacity: 1;"></path><path transform="translate(25,299.94545454545454)" d="M1.5811388300841898,0A1.5811388300841898,1.5811388300841898,0,1,1,-1.5811388300841898,0A1.5811388300841898,1.5811388300841898,0,1,1,1.5811388300841898,0" style="fill: #fb9a99; stroke-width: 2; opacity: 1;"></path><path transform="translate(37.5,299.9181818181818)" d="M1.5811388300841898,0A1.5811388300841898,1.5811388300841898,0,1,1,-1.5811388300841898,0A1.5811388300841898,1.5811388300841898,0,1,1,1.5811388300841898,0" style="fill: #fb9a99; stroke-width: 2; opacity: 1;"></path><path transform="translate(50,299.8636363636364)" d="M1.5811388300841898,0A1.5811388300841898,1.5811388300841898,0,1,1,-1.5811388300841898,0A1.5811388300841898,1.5811388300841898,0,1,1,1.5811388300841898,0" style="fill: #fb9a99; stroke-width: 2; opacity: 1;"></path><path transform="translate(62.5,299.72727272727275)" d="M1.5811388300841898,0A1.5811388300841898,1.5811388300841898,0,1,1,-1.5811388300841898,0A1.5811388300841898,1.5811388300841898,0,1,1,1.5811388300841898,0" style="fill: #fb9a99; stroke-width: 2; opacity: 1;"></path><path transform="translate(75,299.53636363636366)" d="M1.5811388300841898,0A1.5811388300841898,1.5811388300841898,0,1,1,-1.5811388300841898,0A1.5811388300841898,1.5811388300841898,0,1,1,1.5811388300841898,0" style="fill: #fb9a99; stroke-width: 2; opacity: 1;"></path><path transform="translate(87.5,299.23636363636365)" d="M1.5811388300841898,0A1.5811388300841898,1.5811388300841898,0,1,1,-1.5811388300841898,0A1.5811388300841898,1.5811388300841898,0,1,1,1.5811388300841898,0" style="fill: #fb9a99; stroke-width: 2; opacity: 1;"></path><path transform="translate(100,299.04545454545456)" d="M1.5811388300841898,0A1.5811388300841898,1.5811388300841898,0,1,1,-1.5811388300841898,0A1.5811388300841898,1.5811388300841898,0,1,1,1.5811388300841898,0" style="fill: #fb9a99; stroke-width: 2; opacity: 1;"></path><path transform="translate(112.5,298.52727272727276)" d="M1.5811388300841898,0A1.5811388300841898,1.5811388300841898,0,1,1,-1.5811388300841898,0A1.5811388300841898,1.5811388300841898,0,1,1,1.5811388300841898,0" style="fill: #fb9a99; stroke-width: 2; opacity: 1;"></path><path transform="translate(125,298.5)" d="M1.5811388300841898,0A1.5811388300841898,1.5811388300841898,0,1,1,-1.5811388300841898,0A1.5811388300841898,1.5811388300841898,0,1,1,1.5811388300841898,0" style="fill: #fb9a99; stroke-width: 2; opacity: 1;"></path><path transform="translate(137.5,296.3727272727273)" d="M1.5811388300841898,0A1.5811388300841898,1.5811388300841898,0,1,1,-1.5811388300841898,0A1.5811388300841898,1.5811388300841898,0,1,1,1.5811388300841898,0" style="fill: #fb9a99; stroke-width: 2; opacity: 1;"></path><path transform="translate(150,294.6818181818182)" d="M1.5811388300841898,0A1.5811388300841898,1.5811388300841898,0,1,1,-1.5811388300841898,0A1.5811388300841898,1.5811388300841898,0,1,1,1.5811388300841898,0" style="fill: #fb9a99; stroke-width: 2; opacity: 1;"></path><path transform="translate(162.5,292.1181818181818)" d="M1.5811388300841898,0A1.5811388300841898,1.5811388300841898,0,1,1,-1.5811388300841898,0A1.5811388300841898,1.5811388300841898,0,1,1,1.5811388300841898,0" style="fill: #fb9a99; stroke-width: 2; opacity: 1;"></path><path transform="translate(175,290.6727272727273)" d="M1.5811388300841898,0A1.5811388300841898,1.5811388300841898,0,1,1,-1.5811388300841898,0A1.5811388300841898,1.5811388300841898,0,1,1,1.5811388300841898,0" style="fill: #fb9a99; stroke-width: 2; opacity: 1;"></path><path transform="translate(187.5,285.4636363636364)" d="M1.5811388300841898,0A1.5811388300841898,1.5811388300841898,0,1,1,-1.5811388300841898,0A1.5811388300841898,1.5811388300841898,0,1,1,1.5811388300841898,0" style="fill: #fb9a99; stroke-width: 2; opacity: 1;"></path><path transform="translate(200,283.0090909090909)" d="M1.5811388300841898,0A1.5811388300841898,1.5811388300841898,0,1,1,-1.5811388300841898,0A1.5811388300841898,1.5811388300841898,0,1,1,1.5811388300841898,0" style="fill: #fb9a99; stroke-width: 2; opacity: 1;"></path><path transform="translate(212.5,277.3636363636364)" d="M1.5811388300841898,0A1.5811388300841898,1.5811388300841898,0,1,1,-1.5811388300841898,0A1.5811388300841898,1.5811388300841898,0,1,1,1.5811388300841898,0" style="fill: #fb9a99; stroke-width: 2; opacity: 1;"></path><path transform="translate(225,271.55454545454546)" d="M1.5811388300841898,0A1.5811388300841898,1.5811388300841898,0,1,1,-1.5811388300841898,0A1.5811388300841898,1.5811388300841898,0,1,1,1.5811388300841898,0" style="fill: #fb9a99; stroke-width: 2; opacity: 1;"></path><path transform="translate(237.5,262.5)" d="M1.5811388300841898,0A1.5811388300841898,1.5811388300841898,0,1,1,-1.5811388300841898,0A1.5811388300841898,1.5811388300841898,0,1,1,1.5811388300841898,0" style="fill: #fb9a99; stroke-width: 2; opacity: 1;"></path><path transform="translate(250,251.6727272727273)" d="M1.5811388300841898,0A1.5811388300841898,1.5811388300841898,0,1,1,-1.5811388300841898,0A1.5811388300841898,1.5811388300841898,0,1,1,1.5811388300841898,0" style="fill: #fb9a99; stroke-width: 2; opacity: 1;"></path><path transform="translate(262.5,236.97272727272727)" d="M1.5811388300841898,0A1.5811388300841898,1.5811388300841898,0,1,1,-1.5811388300841898,0A1.5811388300841898,1.5811388300841898,0,1,1,1.5811388300841898,0" style="fill: #fb9a99; stroke-width: 2; opacity: 1;"></path><path transform="translate(275,223.4181818181818)" d="M1.5811388300841898,0A1.5811388300841898,1.5811388300841898,0,1,1,-1.5811388300841898,0A1.5811388300841898,1.5811388300841898,0,1,1,1.5811388300841898,0" style="fill: #fb9a99; stroke-width: 2; opacity: 1;"></path><path transform="translate(287.5,200.53636363636363)" d="M1.5811388300841898,0A1.5811388300841898,1.5811388300841898,0,1,1,-1.5811388300841898,0A1.5811388300841898,1.5811388300841898,0,1,1,1.5811388300841898,0" style="fill: #fb9a99; stroke-width: 2; opacity: 1;"></path><path transform="translate(300,180.95454545454547)" d="M1.5811388300841898,0A1.5811388300841898,1.5811388300841898,0,1,1,-1.5811388300841898,0A1.5811388300841898,1.5811388300841898,0,1,1,1.5811388300841898,0" style="fill: #fb9a99; stroke-width: 2; opacity: 1;"></path><path transform="translate(312.5,159.87272727272727)" d="M1.5811388300841898,0A1.5811388300841898,1.5811388300841898,0,1,1,-1.5811388300841898,0A1.5811388300841898,1.5811388300841898,0,1,1,1.5811388300841898,0" style="fill: #fb9a99; stroke-width: 2; opacity: 1;"></path><path transform="translate(325,136.85454545454544)" d="M1.5811388300841898,0A1.5811388300841898,1.5811388300841898,0,1,1,-1.5811388300841898,0A1.5811388300841898,1.5811388300841898,0,1,1,1.5811388300841898,0" style="fill: #fb9a99; stroke-width: 2; opacity: 1;"></path><path transform="translate(0,299.8090909090909)" d="M1.5811388300841898,0A1.5811388300841898,1.5811388300841898,0,1,1,-1.5811388300841898,0A1.5811388300841898,1.5811388300841898,0,1,1,1.5811388300841898,0" style="fill: #e31a1c; stroke-width: 2; opacity: 1;"></path><path transform="translate(12.5,299.7)" d="M1.5811388300841898,0A1.5811388300841898,1.5811388300841898,0,1,1,-1.5811388300841898,0A1.5811388300841898,1.5811388300841898,0,1,1,1.5811388300841898,0" style="fill: #e31a1c; stroke-width: 2; opacity: 1;"></path><path transform="translate(25,299.67272727272723)" d="M1.5811388300841898,0A1.5811388300841898,1.5811388300841898,0,1,1,-1.5811388300841898,0A1.5811388300841898,1.5811388300841898,0,1,1,1.5811388300841898,0" style="fill: #e31a1c; stroke-width: 2; opacity: 1;"></path><path transform="translate(37.5,299.6181818181818)" d="M1.5811388300841898,0A1.5811388300841898,1.5811388300841898,0,1,1,-1.5811388300841898,0A1.5811388300841898,1.5811388300841898,0,1,1,1.5811388300841898,0" style="fill: #e31a1c; stroke-width: 2; opacity: 1;"></path><path transform="translate(50,299.53636363636366)" d="M1.5811388300841898,0A1.5811388300841898,1.5811388300841898,0,1,1,-1.5811388300841898,0A1.5811388300841898,1.5811388300841898,0,1,1,1.5811388300841898,0" style="fill: #e31a1c; stroke-width: 2; opacity: 1;"></path><path transform="translate(62.5,299.42727272727274)" d="M1.5811388300841898,0A1.5811388300841898,1.5811388300841898,0,1,1,-1.5811388300841898,0A1.5811388300841898,1.5811388300841898,0,1,1,1.5811388300841898,0" style="fill: #e31a1c; stroke-width: 2; opacity: 1;"></path><path transform="translate(75,299.4)" d="M1.5811388300841898,0A1.5811388300841898,1.5811388300841898,0,1,1,-1.5811388300841898,0A1.5811388300841898,1.5811388300841898,0,1,1,1.5811388300841898,0" style="fill: #e31a1c; stroke-width: 2; opacity: 1;"></path><path transform="translate(87.5,299.23636363636365)" d="M1.5811388300841898,0A1.5811388300841898,1.5811388300841898,0,1,1,-1.5811388300841898,0A1.5811388300841898,1.5811388300841898,0,1,1,1.5811388300841898,0" style="fill: #e31a1c; stroke-width: 2; opacity: 1;"></path><path transform="translate(100,299.0181818181818)" d="M1.5811388300841898,0A1.5811388300841898,1.5811388300841898,0,1,1,-1.5811388300841898,0A1.5811388300841898,1.5811388300841898,0,1,1,1.5811388300841898,0" style="fill: #e31a1c; stroke-width: 2; opacity: 1;"></path><path transform="translate(112.5,298.9090909090909)" d="M1.5811388300841898,0A1.5811388300841898,1.5811388300841898,0,1,1,-1.5811388300841898,0A1.5811388300841898,1.5811388300841898,0,1,1,1.5811388300841898,0" style="fill: #e31a1c; stroke-width: 2; opacity: 1;"></path><path transform="translate(125,298.7181818181818)" d="M1.5811388300841898,0A1.5811388300841898,1.5811388300841898,0,1,1,-1.5811388300841898,0A1.5811388300841898,1.5811388300841898,0,1,1,1.5811388300841898,0" style="fill: #e31a1c; stroke-width: 2; opacity: 1;"></path><path transform="translate(137.5,298.52727272727276)" d="M1.5811388300841898,0A1.5811388300841898,1.5811388300841898,0,1,1,-1.5811388300841898,0A1.5811388300841898,1.5811388300841898,0,1,1,1.5811388300841898,0" style="fill: #e31a1c; stroke-width: 2; opacity: 1;"></path><path transform="translate(150,298.2818181818182)" d="M1.5811388300841898,0A1.5811388300841898,1.5811388300841898,0,1,1,-1.5811388300841898,0A1.5811388300841898,1.5811388300841898,0,1,1,1.5811388300841898,0" style="fill: #e31a1c; stroke-width: 2; opacity: 1;"></path><path transform="translate(162.5,297.6818181818182)" d="M1.5811388300841898,0A1.5811388300841898,1.5811388300841898,0,1,1,-1.5811388300841898,0A1.5811388300841898,1.5811388300841898,0,1,1,1.5811388300841898,0" style="fill: #e31a1c; stroke-width: 2; opacity: 1;"></path><path transform="translate(175,297.05454545454546)" d="M1.5811388300841898,0A1.5811388300841898,1.5811388300841898,0,1,1,-1.5811388300841898,0A1.5811388300841898,1.5811388300841898,0,1,1,1.5811388300841898,0" style="fill: #e31a1c; stroke-width: 2; opacity: 1;"></path><path transform="translate(187.5,296.7818181818182)" d="M1.5811388300841898,0A1.5811388300841898,1.5811388300841898,0,1,1,-1.5811388300841898,0A1.5811388300841898,1.5811388300841898,0,1,1,1.5811388300841898,0" style="fill: #e31a1c; stroke-width: 2; opacity: 1;"></path><path transform="translate(200,294.54545454545456)" d="M1.5811388300841898,0A1.5811388300841898,1.5811388300841898,0,1,1,-1.5811388300841898,0A1.5811388300841898,1.5811388300841898,0,1,1,1.5811388300841898,0" style="fill: #e31a1c; stroke-width: 2; opacity: 1;"></path><path transform="translate(212.5,293.3454545454545)" d="M1.5811388300841898,0A1.5811388300841898,1.5811388300841898,0,1,1,-1.5811388300841898,0A1.5811388300841898,1.5811388300841898,0,1,1,1.5811388300841898,0" style="fill: #e31a1c; stroke-width: 2; opacity: 1;"></path><path transform="translate(225,291.6272727272727)" d="M1.5811388300841898,0A1.5811388300841898,1.5811388300841898,0,1,1,-1.5811388300841898,0A1.5811388300841898,1.5811388300841898,0,1,1,1.5811388300841898,0" style="fill: #e31a1c; stroke-width: 2; opacity: 1;"></path><path transform="translate(237.5,288.6272727272727)" d="M1.5811388300841898,0A1.5811388300841898,1.5811388300841898,0,1,1,-1.5811388300841898,0A1.5811388300841898,1.5811388300841898,0,1,1,1.5811388300841898,0" style="fill: #e31a1c; stroke-width: 2; opacity: 1;"></path><path transform="translate(250,284.8090909090909)" d="M1.5811388300841898,0A1.5811388300841898,1.5811388300841898,0,1,1,-1.5811388300841898,0A1.5811388300841898,1.5811388300841898,0,1,1,1.5811388300841898,0" style="fill: #e31a1c; stroke-width: 2; opacity: 1;"></path><path transform="translate(262.5,280.74545454545455)" d="M1.5811388300841898,0A1.5811388300841898,1.5811388300841898,0,1,1,-1.5811388300841898,0A1.5811388300841898,1.5811388300841898,0,1,1,1.5811388300841898,0" style="fill: #e31a1c; stroke-width: 2; opacity: 1;"></path><path transform="translate(275,274.3090909090909)" d="M1.5811388300841898,0A1.5811388300841898,1.5811388300841898,0,1,1,-1.5811388300841898,0A1.5811388300841898,1.5811388300841898,0,1,1,1.5811388300841898,0" style="fill: #e31a1c; stroke-width: 2; opacity: 1;"></path><path transform="translate(287.5,267.0272727272727)" d="M1.5811388300841898,0A1.5811388300841898,1.5811388300841898,0,1,1,-1.5811388300841898,0A1.5811388300841898,1.5811388300841898,0,1,1,1.5811388300841898,0" style="fill: #e31a1c; stroke-width: 2; opacity: 1;"></path><path transform="translate(300,256.8818181818182)" d="M1.5811388300841898,0A1.5811388300841898,1.5811388300841898,0,1,1,-1.5811388300841898,0A1.5811388300841898,1.5811388300841898,0,1,1,1.5811388300841898,0" style="fill: #e31a1c; stroke-width: 2; opacity: 1;"></path><path transform="translate(312.5,244.74545454545452)" d="M1.5811388300841898,0A1.5811388300841898,1.5811388300841898,0,1,1,-1.5811388300841898,0A1.5811388300841898,1.5811388300841898,0,1,1,1.5811388300841898,0" style="fill: #e31a1c; stroke-width: 2; opacity: 1;"></path><path transform="translate(0,299.97272727272724)" d="M1.5811388300841898,0A1.5811388300841898,1.5811388300841898,0,1,1,-1.5811388300841898,0A1.5811388300841898,1.5811388300841898,0,1,1,1.5811388300841898,0" style="fill: #fdbf6f; stroke-width: 2; opacity: 1;"></path><path transform="translate(12.5,299.94545454545454)" d="M1.5811388300841898,0A1.5811388300841898,1.5811388300841898,0,1,1,-1.5811388300841898,0A1.5811388300841898,1.5811388300841898,0,1,1,1.5811388300841898,0" style="fill: #fdbf6f; stroke-width: 2; opacity: 1;"></path><path transform="translate(25,299.94545454545454)" d="M1.5811388300841898,0A1.5811388300841898,1.5811388300841898,0,1,1,-1.5811388300841898,0A1.5811388300841898,1.5811388300841898,0,1,1,1.5811388300841898,0" style="fill: #fdbf6f; stroke-width: 2; opacity: 1;"></path><path transform="translate(37.5,299.9181818181818)" d="M1.5811388300841898,0A1.5811388300841898,1.5811388300841898,0,1,1,-1.5811388300841898,0A1.5811388300841898,1.5811388300841898,0,1,1,1.5811388300841898,0" style="fill: #fdbf6f; stroke-width: 2; opacity: 1;"></path><path transform="translate(50,299.8909090909091)" d="M1.5811388300841898,0A1.5811388300841898,1.5811388300841898,0,1,1,-1.5811388300841898,0A1.5811388300841898,1.5811388300841898,0,1,1,1.5811388300841898,0" style="fill: #fdbf6f; stroke-width: 2; opacity: 1;"></path><path transform="translate(62.5,299.83636363636367)" d="M1.5811388300841898,0A1.5811388300841898,1.5811388300841898,0,1,1,-1.5811388300841898,0A1.5811388300841898,1.5811388300841898,0,1,1,1.5811388300841898,0" style="fill: #fdbf6f; stroke-width: 2; opacity: 1;"></path><path transform="translate(75,299.7818181818182)" d="M1.5811388300841898,0A1.5811388300841898,1.5811388300841898,0,1,1,-1.5811388300841898,0A1.5811388300841898,1.5811388300841898,0,1,1,1.5811388300841898,0" style="fill: #fdbf6f; stroke-width: 2; opacity: 1;"></path><path transform="translate(87.5,299.7818181818182)" d="M1.5811388300841898,0A1.5811388300841898,1.5811388300841898,0,1,1,-1.5811388300841898,0A1.5811388300841898,1.5811388300841898,0,1,1,1.5811388300841898,0" style="fill: #fdbf6f; stroke-width: 2; opacity: 1;"></path><path transform="translate(100,299.7818181818182)" d="M1.5811388300841898,0A1.5811388300841898,1.5811388300841898,0,1,1,-1.5811388300841898,0A1.5811388300841898,1.5811388300841898,0,1,1,1.5811388300841898,0" style="fill: #fdbf6f; stroke-width: 2; opacity: 1;"></path><path transform="translate(112.5,299.42727272727274)" d="M1.5811388300841898,0A1.5811388300841898,1.5811388300841898,0,1,1,-1.5811388300841898,0A1.5811388300841898,1.5811388300841898,0,1,1,1.5811388300841898,0" style="fill: #fdbf6f; stroke-width: 2; opacity: 1;"></path><path transform="translate(125,299.42727272727274)" d="M1.5811388300841898,0A1.5811388300841898,1.5811388300841898,0,1,1,-1.5811388300841898,0A1.5811388300841898,1.5811388300841898,0,1,1,1.5811388300841898,0" style="fill: #fdbf6f; stroke-width: 2; opacity: 1;"></path><path transform="translate(137.5,298.47272727272724)" d="M1.5811388300841898,0A1.5811388300841898,1.5811388300841898,0,1,1,-1.5811388300841898,0A1.5811388300841898,1.5811388300841898,0,1,1,1.5811388300841898,0" style="fill: #fdbf6f; stroke-width: 2; opacity: 1;"></path><path transform="translate(150,298.47272727272724)" d="M1.5811388300841898,0A1.5811388300841898,1.5811388300841898,0,1,1,-1.5811388300841898,0A1.5811388300841898,1.5811388300841898,0,1,1,1.5811388300841898,0" style="fill: #fdbf6f; stroke-width: 2; opacity: 1;"></path><path transform="translate(162.5,298.03636363636366)" d="M1.5811388300841898,0A1.5811388300841898,1.5811388300841898,0,1,1,-1.5811388300841898,0A1.5811388300841898,1.5811388300841898,0,1,1,1.5811388300841898,0" style="fill: #fdbf6f; stroke-width: 2; opacity: 1;"></path><path transform="translate(175,296.23636363636365)" d="M1.5811388300841898,0A1.5811388300841898,1.5811388300841898,0,1,1,-1.5811388300841898,0A1.5811388300841898,1.5811388300841898,0,1,1,1.5811388300841898,0" style="fill: #fdbf6f; stroke-width: 2; opacity: 1;"></path><path transform="translate(187.5,295.1454545454545)" d="M1.5811388300841898,0A1.5811388300841898,1.5811388300841898,0,1,1,-1.5811388300841898,0A1.5811388300841898,1.5811388300841898,0,1,1,1.5811388300841898,0" style="fill: #fdbf6f; stroke-width: 2; opacity: 1;"></path><path transform="translate(200,293.6181818181818)" d="M1.5811388300841898,0A1.5811388300841898,1.5811388300841898,0,1,1,-1.5811388300841898,0A1.5811388300841898,1.5811388300841898,0,1,1,1.5811388300841898,0" style="fill: #fdbf6f; stroke-width: 2; opacity: 1;"></path><path transform="translate(212.5,292.3090909090909)" d="M1.5811388300841898,0A1.5811388300841898,1.5811388300841898,0,1,1,-1.5811388300841898,0A1.5811388300841898,1.5811388300841898,0,1,1,1.5811388300841898,0" style="fill: #fdbf6f; stroke-width: 2; opacity: 1;"></path><path transform="translate(225,290.8363636363636)" d="M1.5811388300841898,0A1.5811388300841898,1.5811388300841898,0,1,1,-1.5811388300841898,0A1.5811388300841898,1.5811388300841898,0,1,1,1.5811388300841898,0" style="fill: #fdbf6f; stroke-width: 2; opacity: 1;"></path><path transform="translate(237.5,288.4636363636364)" d="M1.5811388300841898,0A1.5811388300841898,1.5811388300841898,0,1,1,-1.5811388300841898,0A1.5811388300841898,1.5811388300841898,0,1,1,1.5811388300841898,0" style="fill: #fdbf6f; stroke-width: 2; opacity: 1;"></path><path transform="translate(250,287.2909090909091)" d="M1.5811388300841898,0A1.5811388300841898,1.5811388300841898,0,1,1,-1.5811388300841898,0A1.5811388300841898,1.5811388300841898,0,1,1,1.5811388300841898,0" style="fill: #fdbf6f; stroke-width: 2; opacity: 1;"></path><path transform="translate(262.5,284.1818181818182)" d="M1.5811388300841898,0A1.5811388300841898,1.5811388300841898,0,1,1,-1.5811388300841898,0A1.5811388300841898,1.5811388300841898,0,1,1,1.5811388300841898,0" style="fill: #fdbf6f; stroke-width: 2; opacity: 1;"></path><path transform="translate(275,279.24545454545455)" d="M1.5811388300841898,0A1.5811388300841898,1.5811388300841898,0,1,1,-1.5811388300841898,0A1.5811388300841898,1.5811388300841898,0,1,1,1.5811388300841898,0" style="fill: #fdbf6f; stroke-width: 2; opacity: 1;"></path><path transform="translate(287.5,272.1545454545455)" d="M1.5811388300841898,0A1.5811388300841898,1.5811388300841898,0,1,1,-1.5811388300841898,0A1.5811388300841898,1.5811388300841898,0,1,1,1.5811388300841898,0" style="fill: #fdbf6f; stroke-width: 2; opacity: 1;"></path></g><g class="mark-group role-legend"><g transform="translate(518,0)"><path class="background" d="M0,0h105v96h-105Z" style="pointer-events: none; fill: none;"></path><g><g class="mark-group role-legend-entry"><g transform="translate(0,0)"><path class="background" d="M0,0h0v0h0Z" style="pointer-events: none; fill: none;"></path><g><g class="mark-group role-scope"><g transform="translate(0,0)"><path class="background" d="M0,0h104.22390747070312v12h-104.22390747070312Z" style="pointer-events: none; fill: none; opacity: 1;"></path><g><g class="mark-symbol role-legend-symbol" style="pointer-events: none;"><path transform="translate(6,6)" d="M3.5355339059327378,0A3.5355339059327378,3.5355339059327378,0,1,1,-3.5355339059327378,0A3.5355339059327378,3.5355339059327378,0,1,1,3.5355339059327378,0" style="fill: #a6cee3; stroke: #a6cee3; stroke-width: 1; opacity: 1;"></path></g><g class="mark-text role-legend-label" style="pointer-events: none;"><text text-anchor="start" transform="translate(16,10)" style="font-family: Avenir; font-size: 12px; fill: #000; opacity: 1;">France</text></g></g><path class="foreground" d="" style="pointer-events: none; display: none; fill: none;"></path></g><g transform="translate(0,14)"><path class="background" d="M0,0h104.22390747070312v12h-104.22390747070312Z" style="pointer-events: none; fill: none; opacity: 1;"></path><g><g class="mark-symbol role-legend-symbol" style="pointer-events: none;"><path transform="translate(6,6)" d="M3.5355339059327378,0A3.5355339059327378,3.5355339059327378,0,1,1,-3.5355339059327378,0A3.5355339059327378,3.5355339059327378,0,1,1,3.5355339059327378,0" style="fill: #1f78b4; stroke: #1f78b4; stroke-width: 1; opacity: 1;"></path></g><g class="mark-text role-legend-label" style="pointer-events: none;"><text text-anchor="start" transform="translate(16,10)" style="font-family: Avenir; font-size: 12px; fill: #000; opacity: 1;">Germany</text></g></g><path class="foreground" d="" style="pointer-events: none; display: none; fill: none;"></path></g><g transform="translate(0,28)"><path class="background" d="M0,0h104.22390747070312v12h-104.22390747070312Z" style="pointer-events: none; fill: none; opacity: 1;"></path><g><g class="mark-symbol role-legend-symbol" style="pointer-events: none;"><path transform="translate(6,6)" d="M3.5355339059327378,0A3.5355339059327378,3.5355339059327378,0,1,1,-3.5355339059327378,0A3.5355339059327378,3.5355339059327378,0,1,1,3.5355339059327378,0" style="fill: #b2df8a; stroke: #b2df8a; stroke-width: 1; opacity: 1;"></path></g><g class="mark-text role-legend-label" style="pointer-events: none;"><text text-anchor="start" transform="translate(16,10)" style="font-family: Avenir; font-size: 12px; fill: #000; opacity: 1;">Italy</text></g></g><path class="foreground" d="" style="pointer-events: none; display: none; fill: none;"></path></g><g transform="translate(0,42)"><path class="background" d="M0,0h104.22390747070312v12h-104.22390747070312Z" style="pointer-events: none; fill: none; opacity: 1;"></path><g><g class="mark-symbol role-legend-symbol" style="pointer-events: none;"><path transform="translate(6,6)" d="M3.5355339059327378,0A3.5355339059327378,3.5355339059327378,0,1,1,-3.5355339059327378,0A3.5355339059327378,3.5355339059327378,0,1,1,3.5355339059327378,0" style="fill: #33a02c; stroke: #33a02c; stroke-width: 1; opacity: 1;"></path></g><g class="mark-text role-legend-label" style="pointer-events: none;"><text text-anchor="start" transform="translate(16,10)" style="font-family: Avenir; font-size: 12px; fill: #000; opacity: 1;">Korea, South</text></g></g><path class="foreground" d="" style="pointer-events: none; display: none; fill: none;"></path></g><g transform="translate(0,56)"><path class="background" d="M0,0h104.22390747070312v12h-104.22390747070312Z" style="pointer-events: none; fill: none; opacity: 1;"></path><g><g class="mark-symbol role-legend-symbol" style="pointer-events: none;"><path transform="translate(6,6)" d="M3.5355339059327378,0A3.5355339059327378,3.5355339059327378,0,1,1,-3.5355339059327378,0A3.5355339059327378,3.5355339059327378,0,1,1,3.5355339059327378,0" style="fill: #fb9a99; stroke: #fb9a99; stroke-width: 1; opacity: 1;"></path></g><g class="mark-text role-legend-label" style="pointer-events: none;"><text text-anchor="start" transform="translate(16,10)" style="font-family: Avenir; font-size: 12px; fill: #000; opacity: 1;">Spain</text></g></g><path class="foreground" d="" style="pointer-events: none; display: none; fill: none;"></path></g><g transform="translate(0,70)"><path class="background" d="M0,0h104.22390747070312v12h-104.22390747070312Z" style="pointer-events: none; fill: none; opacity: 1;"></path><g><g class="mark-symbol role-legend-symbol" style="pointer-events: none;"><path transform="translate(6,6)" d="M3.5355339059327378,0A3.5355339059327378,3.5355339059327378,0,1,1,-3.5355339059327378,0A3.5355339059327378,3.5355339059327378,0,1,1,3.5355339059327378,0" style="fill: #e31a1c; stroke: #e31a1c; stroke-width: 1; opacity: 1;"></path></g><g class="mark-text role-legend-label" style="pointer-events: none;"><text text-anchor="start" transform="translate(16,10)" style="font-family: Avenir; font-size: 12px; fill: #000; opacity: 1;">US</text></g></g><path class="foreground" d="" style="pointer-events: none; display: none; fill: none;"></path></g><g transform="translate(0,84)"><path class="background" d="M0,0h104.22390747070312v12h-104.22390747070312Z" style="pointer-events: none; fill: none; opacity: 1;"></path><g><g class="mark-symbol role-legend-symbol" style="pointer-events: none;"><path transform="translate(6,6)" d="M3.5355339059327378,0A3.5355339059327378,3.5355339059327378,0,1,1,-3.5355339059327378,0A3.5355339059327378,3.5355339059327378,0,1,1,3.5355339059327378,0" style="fill: #fdbf6f; stroke: #fdbf6f; stroke-width: 1; opacity: 1;"></path></g><g class="mark-text role-legend-label" style="pointer-events: none;"><text text-anchor="start" transform="translate(16,10)" style="font-family: Avenir; font-size: 12px; fill: #000; opacity: 1;">United Kingdom</text></g></g><path class="foreground" d="" style="pointer-events: none; display: none; fill: none;"></path></g></g></g><path class="foreground" d="" style="pointer-events: none; display: none; fill: none;"></path></g></g></g><path class="foreground" d="" style="pointer-events: none; display: none; fill: none;"></path></g></g><g class="mark-group role-title"><g transform="translate(-60.579986572265625,-55)"><path class="background" d="M0,0h0v0h0Z" style="pointer-events: none; fill: none;"></path><g><g class="mark-text role-title-text" style="pointer-events: none;"><text text-anchor="start" transform="translate(0,16)" style="font-family: Avenir; font-size: 20px; font-weight: 300; fill: #4d4d4d; opacity: 1;">Development of confirmed COVID-19 deaths</text></g></g><path class="foreground" d="" style="pointer-events: none; display: none; fill: none;"></path></g></g><g class="mark-group role-axis"><g transform="translate(0.5,300.5)"><path class="background" d="M0,0h0v0h0Z" style="pointer-events: none; fill: none;"></path><g><g class="mark-rule role-axis-tick" style="pointer-events: none;"><line transform="translate(0,0)" x2="0" y2="5" style="fill: none; stroke: #DEDDDD; stroke-width: 1; opacity: 1;"></line><line transform="translate(25,0)" x2="0" y2="5" style="fill: none; stroke: #DEDDDD; stroke-width: 1; opacity: 1;"></line><line transform="translate(50,0)" x2="0" y2="5" style="fill: none; stroke: #DEDDDD; stroke-width: 1; opacity: 1;"></line><line transform="translate(75,0)" x2="0" y2="5" style="fill: none; stroke: #DEDDDD; stroke-width: 1; opacity: 1;"></line><line transform="translate(100,0)" x2="0" y2="5" style="fill: none; stroke: #DEDDDD; stroke-width: 1; opacity: 1;"></line><line transform="translate(125,0)" x2="0" y2="5" style="fill: none; stroke: #DEDDDD; stroke-width: 1; opacity: 1;"></line><line transform="translate(150,0)" x2="0" y2="5" style="fill: none; stroke: #DEDDDD; stroke-width: 1; opacity: 1;"></line><line transform="translate(175,0)" x2="0" y2="5" style="fill: none; stroke: #DEDDDD; stroke-width: 1; opacity: 1;"></line><line transform="translate(200,0)" x2="0" y2="5" style="fill: none; stroke: #DEDDDD; stroke-width: 1; opacity: 1;"></line><line transform="translate(225,0)" x2="0" y2="5" style="fill: none; stroke: #DEDDDD; stroke-width: 1; opacity: 1;"></line><line transform="translate(250,0)" x2="0" y2="5" style="fill: none; stroke: #DEDDDD; stroke-width: 1; opacity: 1;"></line><line transform="translate(275,0)" x2="0" y2="5" style="fill: none; stroke: #DEDDDD; stroke-width: 1; opacity: 1;"></line><line transform="translate(300,0)" x2="0" y2="5" style="fill: none; stroke: #DEDDDD; stroke-width: 1; opacity: 1;"></line><line transform="translate(325,0)" x2="0" y2="5" style="fill: none; stroke: #DEDDDD; stroke-width: 1; opacity: 1;"></line><line transform="translate(350,0)" x2="0" y2="5" style="fill: none; stroke: #DEDDDD; stroke-width: 1; opacity: 1;"></line><line transform="translate(375,0)" x2="0" y2="5" style="fill: none; stroke: #DEDDDD; stroke-width: 1; opacity: 1;"></line><line transform="translate(400,0)" x2="0" y2="5" style="fill: none; stroke: #DEDDDD; stroke-width: 1; opacity: 1;"></line><line transform="translate(425,0)" x2="0" y2="5" style="fill: none; stroke: #DEDDDD; stroke-width: 1; opacity: 1;"></line><line transform="translate(450,0)" x2="0" y2="5" style="fill: none; stroke: #DEDDDD; stroke-width: 1; opacity: 1;"></line><line transform="translate(475,0)" x2="0" y2="5" style="fill: none; stroke: #DEDDDD; stroke-width: 1; opacity: 1;"></line><line transform="translate(500,0)" x2="0" y2="5" style="fill: none; stroke: #DEDDDD; stroke-width: 1; opacity: 1;"></line></g><g class="mark-text role-axis-label" style="pointer-events: none;"><text text-anchor="middle" transform="translate(0,15)" style="font-family: Avenir; font-size: 10px; fill: #000; opacity: 1;">0</text><text text-anchor="middle" transform="translate(25,15)" style="font-family: Avenir; font-size: 10px; fill: #000; opacity: 1;">2</text><text text-anchor="middle" transform="translate(50,15)" style="font-family: Avenir; font-size: 10px; fill: #000; opacity: 1;">4</text><text text-anchor="middle" transform="translate(75,15)" style="font-family: Avenir; font-size: 10px; fill: #000; opacity: 1;">6</text><text text-anchor="middle" transform="translate(100,15)" style="font-family: Avenir; font-size: 10px; fill: #000; opacity: 1;">8</text><text text-anchor="middle" transform="translate(125,15)" style="font-family: Avenir; font-size: 10px; fill: #000; opacity: 1;">10</text><text text-anchor="middle" transform="translate(150,15)" style="font-family: Avenir; font-size: 10px; fill: #000; opacity: 1;">12</text><text text-anchor="middle" transform="translate(175,15)" style="font-family: Avenir; font-size: 10px; fill: #000; opacity: 1;">14</text><text text-anchor="middle" transform="translate(200,15)" style="font-family: Avenir; font-size: 10px; fill: #000; opacity: 1;">16</text><text text-anchor="middle" transform="translate(225,15)" style="font-family: Avenir; font-size: 10px; fill: #000; opacity: 1;">18</text><text text-anchor="middle" transform="translate(250,15)" style="font-family: Avenir; font-size: 10px; fill: #000; opacity: 1;">20</text><text text-anchor="middle" transform="translate(275,15)" style="font-family: Avenir; font-size: 10px; fill: #000; opacity: 1;">22</text><text text-anchor="middle" transform="translate(300,15)" style="font-family: Avenir; font-size: 10px; fill: #000; opacity: 1;">24</text><text text-anchor="middle" transform="translate(325,15)" style="font-family: Avenir; font-size: 10px; fill: #000; opacity: 1;">26</text><text text-anchor="middle" transform="translate(350,15)" style="font-family: Avenir; font-size: 10px; fill: #000; opacity: 1;">28</text><text text-anchor="middle" transform="translate(375,15)" style="font-family: Avenir; font-size: 10px; fill: #000; opacity: 1;">30</text><text text-anchor="middle" transform="translate(400,15)" style="font-family: Avenir; font-size: 10px; fill: #000; opacity: 1;">32</text><text text-anchor="middle" transform="translate(425,15)" style="font-family: Avenir; font-size: 10px; fill: #000; opacity: 1;">34</text><text text-anchor="middle" transform="translate(450,15)" style="font-family: Avenir; font-size: 10px; fill: #000; opacity: 1;">36</text><text text-anchor="middle" transform="translate(475,15)" style="font-family: Avenir; font-size: 10px; fill: #000; opacity: 1;">38</text><text text-anchor="middle" transform="translate(500,15)" style="font-family: Avenir; font-size: 10px; fill: #000; opacity: 1;">40</text></g><g class="mark-rule role-axis-domain" style="pointer-events: none;"><line transform="translate(0,0)" x2="500" y2="0" style="fill: none; stroke: #DEDDDD; stroke-width: 1; stroke-dashoffset: 10; opacity: 1;"></line></g><g class="mark-text role-axis-title" style="pointer-events: none;"><text text-anchor="middle" transform="translate(250,36)" style="font-family: Avenir; font-size: 12px; font-weight: 400; fill: #000; opacity: 1;">Days since 100th case</text></g></g><path class="foreground" d="" style="pointer-events: none; display: none; fill: none;"></path></g></g><g class="mark-group role-axis"><g transform="translate(0.5,0.5)"><path class="background" d="M0,0h0v0h0Z" style="pointer-events: none; fill: none;"></path><g><g class="mark-rule role-axis-tick" style="pointer-events: none;"><line transform="translate(0,300)" x2="-5" y2="0" style="fill: none; stroke: #888; stroke-width: 1; opacity: 1;"></line><line transform="translate(0,273)" x2="-5" y2="0" style="fill: none; stroke: #888; stroke-width: 1; opacity: 1;"></line><line transform="translate(0,245)" x2="-5" y2="0" style="fill: none; stroke: #888; stroke-width: 1; opacity: 1;"></line><line transform="translate(0,218)" x2="-5" y2="0" style="fill: none; stroke: #888; stroke-width: 1; opacity: 1;"></line><line transform="translate(0,191)" x2="-5" y2="0" style="fill: none; stroke: #888; stroke-width: 1; opacity: 1;"></line><line transform="translate(0,164)" x2="-5" y2="0" style="fill: none; stroke: #888; stroke-width: 1; opacity: 1;"></line><line transform="translate(0,136)" x2="-5" y2="0" style="fill: none; stroke: #888; stroke-width: 1; opacity: 1;"></line><line transform="translate(0,109)" x2="-5" y2="0" style="fill: none; stroke: #888; stroke-width: 1; opacity: 1;"></line><line transform="translate(0,82)" x2="-5" y2="0" style="fill: none; stroke: #888; stroke-width: 1; opacity: 1;"></line><line transform="translate(0,55)" x2="-5" y2="0" style="fill: none; stroke: #888; stroke-width: 1; opacity: 1;"></line><line transform="translate(0,27)" x2="-5" y2="0" style="fill: none; stroke: #888; stroke-width: 1; opacity: 1;"></line><line transform="translate(0,0)" x2="-5" y2="0" style="fill: none; stroke: #888; stroke-width: 1; opacity: 1;"></line></g><g class="mark-text role-axis-label" style="pointer-events: none;"><text text-anchor="end" transform="translate(-7,303)" style="font-family: Avenir; font-size: 10px; fill: #000; opacity: 1;">0</text><text text-anchor="end" transform="translate(-7,275.7272727272727)" style="font-family: Avenir; font-size: 10px; fill: #000; opacity: 1;">1,000</text><text text-anchor="end" transform="translate(-7,248.45454545454544)" style="font-family: Avenir; font-size: 10px; fill: #000; opacity: 1;">2,000</text><text text-anchor="end" transform="translate(-7,221.1818181818182)" style="font-family: Avenir; font-size: 10px; fill: #000; opacity: 1;">3,000</text><text text-anchor="end" transform="translate(-7,193.9090909090909)" style="font-family: Avenir; font-size: 10px; fill: #000; opacity: 1;">4,000</text><text text-anchor="end" transform="translate(-7,166.63636363636363)" style="font-family: Avenir; font-size: 10px; fill: #000; opacity: 1;">5,000</text><text text-anchor="end" transform="translate(-7,139.36363636363637)" style="font-family: Avenir; font-size: 10px; fill: #000; opacity: 1;">6,000</text><text text-anchor="end" transform="translate(-7,112.0909090909091)" style="font-family: Avenir; font-size: 10px; fill: #000; opacity: 1;">7,000</text><text text-anchor="end" transform="translate(-7,84.81818181818181)" style="font-family: Avenir; font-size: 10px; fill: #000; opacity: 1;">8,000</text><text text-anchor="end" transform="translate(-7,57.54545454545453)" style="font-family: Avenir; font-size: 10px; fill: #000; opacity: 1;">9,000</text><text text-anchor="end" transform="translate(-7,30.27272727272728)" style="font-family: Avenir; font-size: 10px; fill: #000; opacity: 1;">10,000</text><text text-anchor="end" transform="translate(-7,3)" style="font-family: Avenir; font-size: 10px; fill: #000; opacity: 1;">11,000</text></g><g class="mark-text role-axis-title" style="pointer-events: none;"><text text-anchor="middle" transform="translate(-47.579986572265625,150) rotate(-90) translate(0,-3)" style="font-family: Avenir; font-size: 12px; font-weight: 400; fill: #000; opacity: 1;">COVID-19 deaths</text></g></g><path class="foreground" d="" style="pointer-events: none; display: none; fill: none;"></path></g></g></g><path class="foreground" d="" style="display: none; fill: none;"></path></g></g></g></svg>