<svg class="marks" width="683" height="448" viewBox="0 0 683 448" version="1.1" xmlns="http://www.w3.org/2000/svg" xmlns:xlink="http://www.w3.org/1999/xlink"><g transform="translate(55,105)"><g class="mark-group role-frame root"><g transform="translate(0,0)"><path class="background" d="M0,0h500v300h-500Z" style="fill: none; stroke: #ddd; stroke-width: 0;"></path><g><g class="mark-group role-axis"><g transform="translate(0.5,0.5)"><path class="background" d="M0,0h0v0h0Z" style="pointer-events: none; fill: none;"></path><g><g class="mark-rule role-axis-grid" style="pointer-events: none;"><line transform="translate(0,300)" x2="500" y2="0" style="fill: none; stroke: #DEDDDD; stroke-width: 1; stroke-dasharray: 5,2; opacity: 1;"></line><line transform="translate(0,263)" x2="500" y2="0" style="fill: none; stroke: #DEDDDD; stroke-width: 1; stroke-dasharray: 5,2; opacity: 1;"></line><line transform="translate(0,225)" x2="500" y2="0" style="fill: none; stroke: #DEDDDD; stroke-width: 1; stroke-dasharray: 5,2; opacity: 1;"></line><line transform="translate(0,188)" x2="500" y2="0" style="fill: none; stroke: #DEDDDD; stroke-width: 1; stroke-dasharray: 5,2; opacity: 1;"></line><line transform="translate(0,150)" x2="500" y2="0" style="fill: none; stroke: #DEDDDD; stroke-width: 1; stroke-dasharray: 5,2; opacity: 1;"></line><line transform="translate(0,113)" x2="500" y2="0" style="fill: none; stroke: #DEDDDD; stroke-width: 1; stroke-dasharray: 5,2; opacity: 1;"></line><line transform="translate(0,75)" x2="500" y2="0" style="fill: none; stroke: #DEDDDD; stroke-width: 1; stroke-dasharray: 5,2; opacity: 1;"></line><line transform="translate(0,37)" x2="500" y2="0" style="fill: none; stroke: #DEDDDD; stroke-width: 1; stroke-dasharray: 5,2; opacity: 1;"></line><line transform="translate(0,0)" x2="500" y2="0" style="fill: none; stroke: #DEDDDD; stroke-width: 1; stroke-dasharray: 5,2; opacity: 1;"></line></g></g><path class="foreground" d="" style="pointer-events: none; display: none; fill: none;"></path></g></g><g class="mark-group role-scope layer_0_pathgroup"><g transform="translate(0,0)"><path class="background" d="M0,0h500v300h-500Z" style="fill: none;"></path><g><g class="mark-line role-mark layer_0_marks"><path d="M0,242.30769230769232L20.833333333333332,241.09947643979058L41.666666666666664,226.47058823529412L62.5,247.91666666666666L83.33333333333333,240.78947368421052L104.16666666666667,248.5518292682927L125,256.6701680672269L145.83333333333334,236.89105403011516L166.66666666666666,241.21287128712873L187.5,230.74986010072746L208.33333333333334,221.1908931698774L229.16666666666666,221.1908931698774L250,219.21188982819743L270.8333333333333,223.828125" style="fill: none; stroke: #a6cee3; stroke-width: 1;"></path></g></g><path class="foreground" d="" style="display: none; fill: none;"></path></g><g transform="translate(0,0)"><path class="background" d="M0,0h500v300h-500Z" style="fill: none;"></path><g><g class="mark-line role-mark layer_0_marks"><path d="M0,300L20.833333333333332,300L41.666666666666664,300L62.5,300L83.33333333333333,300L104.16666666666667,300L125,300L145.83333333333334,300L166.66666666666666,293.6224489795918L187.5,294.8524365133837L208.33333333333334,294.1037735849057L229.16666666666666,294.5861405197305L250,292.85714285714283L270.8333333333333,292.639040348964" style="fill: none; stroke: #1f78b4; stroke-width: 1;"></path></g></g><path class="foreground" d="" style="display: none; fill: none;"></path></g><g transform="translate(0,0)"><path class="background" d="M0,0h500v300h-500Z" style="fill: none;"></path><g><g class="mark-line role-mark layer_0_marks"><path d="M0,227.41935483870967L20.833333333333332,185.37117903930132L41.666666666666664,183.54037267080744L62.5,200.66225165562918L83.33333333333333,202.67175572519085L104.16666666666667,211.31756756756758L125,203.5904255319149L145.83333333333334,224.73435655253834L166.66666666666666,204.22396856581534L187.5,181.59472422062348L208.33333333333334,170.103593395921L229.16666666666666,156.1430793157076L250,140.64926660914583L270.8333333333333,151.4788373278939L291.6666666666667,113.89830508474577L312.5,110.70104666375926L333.3333333333333,66.84895063553061L354.1666666666667,51.14347616754934L375,51.14347616754934L395.8333333333333,31.172140430351092L416.6666666666667,44.58807959540577" style="fill: none; stroke: #b2df8a; stroke-width: 1;"></path></g></g><path class="foreground" d="" style="display: none; fill: none;"></path></g><g transform="translate(0,0)"><path class="background" d="M0,0h500v300h-500Z" style="fill: none;"></path><g><g class="mark-line role-mark layer_0_marks"><path d="M0,263.9423076923077L20.833333333333332,263.2352941176471L41.666666666666664,282.67898383371823L62.5,262.624584717608L83.33333333333333,263.98559423769507L104.16666666666667,261.6171954964176L125,264.3140364789849L145.83333333333334,272.3952434881087L166.66666666666666,279.13992297817714L187.5,280.95238095238096L208.33333333333334,282.93629550321197L229.16666666666666,275.7785467128028L250,279.75318164288467L270.8333333333333,276.65006226650064L291.6666666666667,278.44119579500654L312.5,276.11102684665553L333.3333333333333,276.56582871751175L354.1666666666667,274.3642329778507L375,273.422037978069L395.8333333333333,273.0467190203647L416.6666666666667,270.9864603481625L437.5,268.5474647350362L458.3333333333333,268.9810753227222L479.1666666666667,266.6089537472174" style="fill: none; stroke: #33a02c; stroke-width: 1;"></path></g></g><path class="foreground" d="" style="display: none; fill: none;"></path></g><g transform="translate(0,0)"><path class="background" d="M0,0h500v300h-500Z" style="fill: none;"></path><g><g class="mark-line role-mark layer_0_marks"><path d="M0,300L20.833333333333332,277.27272727272725L41.666666666666664,266.21621621621625L62.5,256.56370656370655L83.33333333333333,253.125L104.16666666666667,225L125,205.27488855869242L145.83333333333334,202.14352283317803L166.66666666666666,222.56637168141594L187.5,211.06719367588934L208.33333333333334,209.42028985507247L229.16666666666666,204.6731651376147L250,185.58128618369582" style="fill: none; stroke: #fb9a99; stroke-width: 1;"></path></g></g><path class="foreground" d="" style="display: none; fill: none;"></path></g><g transform="translate(0,0)"><path class="background" d="M0,0h500v300h-500Z" style="fill: none;"></path><g><g class="mark-line role-mark layer_0_marks"><path d="M0,77.54237288135593L20.833333333333332,23.154362416107364L41.666666666666664,92.62672811059912L62.5,99.61832061068704L83.33333333333333,141.4179104477612L104.16666666666667,147.97297297297297L125,158.49056603773587L145.83333333333334,190.5109489051095L166.66666666666666,194.6135831381733L187.5,209.80156343956705L208.33333333333334,219.11427260211107L229.16666666666666,225.74257425742573" style="fill: none; stroke: #e31a1c; stroke-width: 1;"></path></g></g><path class="foreground" d="" style="display: none; fill: none;"></path></g><g transform="translate(0,0)"><path class="background" d="M0,0h500v300h-500Z" style="fill: none;"></path><g><g class="mark-line role-mark layer_0_marks"><path d="M0,267.67241379310343L20.833333333333332,254.2682926829268L41.666666666666664,263.768115942029L62.5,258.94160583941607L83.33333333333333,253.416149068323L104.16666666666667,241.40625L125,234.64052287581697L145.83333333333334,234.64052287581697L166.66666666666666,262.5468164794008L187.5,231.10236220472441" style="fill: none; stroke: #fdbf6f; stroke-width: 1;"></path></g></g><path class="foreground" d="" style="display: none; fill: none;"></path></g></g><g class="mark-symbol role-mark layer_1_marks"><path transform="translate(0,242.30769230769232)" d="M1.5811388300841898,0A1.5811388300841898,1.5811388300841898,0,1,1,-1.5811388300841898,0A1.5811388300841898,1.5811388300841898,0,1,1,1.5811388300841898,0" style="fill: #a6cee3; stroke-width: 2; opacity: 1;"></path><path transform="translate(20.833333333333332,241.09947643979058)" d="M1.5811388300841898,0A1.5811388300841898,1.5811388300841898,0,1,1,-1.5811388300841898,0A1.5811388300841898,1.5811388300841898,0,1,1,1.5811388300841898,0" style="fill: #a6cee3; stroke-width: 2; opacity: 1;"></path><path transform="translate(41.666666666666664,226.47058823529412)" d="M1.5811388300841898,0A1.5811388300841898,1.5811388300841898,0,1,1,-1.5811388300841898,0A1.5811388300841898,1.5811388300841898,0,1,1,1.5811388300841898,0" style="fill: #a6cee3; stroke-width: 2; opacity: 1;"></path><path transform="translate(62.5,247.91666666666666)" d="M1.5811388300841898,0A1.5811388300841898,1.5811388300841898,0,1,1,-1.5811388300841898,0A1.5811388300841898,1.5811388300841898,0,1,1,1.5811388300841898,0" style="fill: #a6cee3; stroke-width: 2; opacity: 1;"></path><path transform="translate(83.33333333333333,240.78947368421052)" d="M1.5811388300841898,0A1.5811388300841898,1.5811388300841898,0,1,1,-1.5811388300841898,0A1.5811388300841898,1.5811388300841898,0,1,1,1.5811388300841898,0" style="fill: #a6cee3; stroke-width: 2; opacity: 1;"></path><path transform="translate(104.16666666666667,248.5518292682927)" d="M1.5811388300841898,0A1.5811388300841898,1.5811388300841898,0,1,1,-1.5811388300841898,0A1.5811388300841898,1.5811388300841898,0,1,1,1.5811388300841898,0" style="fill: #a6cee3; stroke-width: 2; opacity: 1;"></path><path transform="translate(125,256.6701680672269)" d="M1.5811388300841898,0A1.5811388300841898,1.5811388300841898,0,1,1,-1.5811388300841898,0A1.5811388300841898,1.5811388300841898,0,1,1,1.5811388300841898,0" style="fill: #a6cee3; stroke-width: 2; opacity: 1;"></path><path transform="translate(145.83333333333334,236.89105403011516)" d="M1.5811388300841898,0A1.5811388300841898,1.5811388300841898,0,1,1,-1.5811388300841898,0A1.5811388300841898,1.5811388300841898,0,1,1,1.5811388300841898,0" style="fill: #a6cee3; stroke-width: 2; opacity: 1;"></path><path transform="translate(166.66666666666666,241.21287128712873)" d="M1.5811388300841898,0A1.5811388300841898,1.5811388300841898,0,1,1,-1.5811388300841898,0A1.5811388300841898,1.5811388300841898,0,1,1,1.5811388300841898,0" style="fill: #a6cee3; stroke-width: 2; opacity: 1;"></path><path transform="translate(187.5,230.74986010072746)" d="M1.5811388300841898,0A1.5811388300841898,1.5811388300841898,0,1,1,-1.5811388300841898,0A1.5811388300841898,1.5811388300841898,0,1,1,1.5811388300841898,0" style="fill: #a6cee3; stroke-width: 2; opacity: 1;"></path><path transform="translate(208.33333333333334,221.1908931698774)" d="M1.5811388300841898,0A1.5811388300841898,1.5811388300841898,0,1,1,-1.5811388300841898,0A1.5811388300841898,1.5811388300841898,0,1,1,1.5811388300841898,0" style="fill: #a6cee3; stroke-width: 2; opacity: 1;"></path><path transform="translate(229.16666666666666,221.1908931698774)" d="M1.5811388300841898,0A1.5811388300841898,1.5811388300841898,0,1,1,-1.5811388300841898,0A1.5811388300841898,1.5811388300841898,0,1,1,1.5811388300841898,0" style="fill: #a6cee3; stroke-width: 2; opacity: 1;"></path><path transform="translate(250,219.21188982819743)" d="M1.5811388300841898,0A1.5811388300841898,1.5811388300841898,0,1,1,-1.5811388300841898,0A1.5811388300841898,1.5811388300841898,0,1,1,1.5811388300841898,0" style="fill: #a6cee3; stroke-width: 2; opacity: 1;"></path><path transform="translate(270.8333333333333,223.828125)" d="M1.5811388300841898,0A1.5811388300841898,1.5811388300841898,0,1,1,-1.5811388300841898,0A1.5811388300841898,1.5811388300841898,0,1,1,1.5811388300841898,0" style="fill: #a6cee3; stroke-width: 2; opacity: 1;"></path><path transform="translate(0,300)" d="M1.5811388300841898,0A1.5811388300841898,1.5811388300841898,0,1,1,-1.5811388300841898,0A1.5811388300841898,1.5811388300841898,0,1,1,1.5811388300841898,0" style="fill: #1f78b4; stroke-width: 2; opacity: 1;"></path><path transform="translate(20.833333333333332,300)" d="M1.5811388300841898,0A1.5811388300841898,1.5811388300841898,0,1,1,-1.5811388300841898,0A1.5811388300841898,1.5811388300841898,0,1,1,1.5811388300841898,0" style="fill: #1f78b4; stroke-width: 2; opacity: 1;"></path><path transform="translate(41.666666666666664,300)" d="M1.5811388300841898,0A1.5811388300841898,1.5811388300841898,0,1,1,-1.5811388300841898,0A1.5811388300841898,1.5811388300841898,0,1,1,1.5811388300841898,0" style="fill: #1f78b4; stroke-width: 2; opacity: 1;"></path><path transform="translate(62.5,300)" d="M1.5811388300841898,0A1.5811388300841898,1.5811388300841898,0,1,1,-1.5811388300841898,0A1.5811388300841898,1.5811388300841898,0,1,1,1.5811388300841898,0" style="fill: #1f78b4; stroke-width: 2; opacity: 1;"></path><path transform="translate(83.33333333333333,300)" d="M1.5811388300841898,0A1.5811388300841898,1.5811388300841898,0,1,1,-1.5811388300841898,0A1.5811388300841898,1.5811388300841898,0,1,1,1.5811388300841898,0" style="fill: #1f78b4; stroke-width: 2; opacity: 1;"></path><path transform="translate(104.16666666666667,300)" d="M1.5811388300841898,0A1.5811388300841898,1.5811388300841898,0,1,1,-1.5811388300841898,0A1.5811388300841898,1.5811388300841898,0,1,1,1.5811388300841898,0" style="fill: #1f78b4; stroke-width: 2; opacity: 1;"></path><path transform="translate(125,300)" d="M1.5811388300841898,0A1.5811388300841898,1.5811388300841898,0,1,1,-1.5811388300841898,0A1.5811388300841898,1.5811388300841898,0,1,1,1.5811388300841898,0" style="fill: #1f78b4; stroke-width: 2; opacity: 1;"></path><path transform="translate(145.83333333333334,300)" d="M1.5811388300841898,0A1.5811388300841898,1.5811388300841898,0,1,1,-1.5811388300841898,0A1.5811388300841898,1.5811388300841898,0,1,1,1.5811388300841898,0" style="fill: #1f78b4; stroke-width: 2; opacity: 1;"></path><path transform="translate(166.66666666666666,293.6224489795918)" d="M1.5811388300841898,0A1.5811388300841898,1.5811388300841898,0,1,1,-1.5811388300841898,0A1.5811388300841898,1.5811388300841898,0,1,1,1.5811388300841898,0" style="fill: #1f78b4; stroke-width: 2; opacity: 1;"></path><path transform="translate(187.5,294.8524365133837)" d="M1.5811388300841898,0A1.5811388300841898,1.5811388300841898,0,1,1,-1.5811388300841898,0A1.5811388300841898,1.5811388300841898,0,1,1,1.5811388300841898,0" style="fill: #1f78b4; stroke-width: 2; opacity: 1;"></path><path transform="translate(208.33333333333334,294.1037735849057)" d="M1.5811388300841898,0A1.5811388300841898,1.5811388300841898,0,1,1,-1.5811388300841898,0A1.5811388300841898,1.5811388300841898,0,1,1,1.5811388300841898,0" style="fill: #1f78b4; stroke-width: 2; opacity: 1;"></path><path transform="translate(229.16666666666666,294.5861405197305)" d="M1.5811388300841898,0A1.5811388300841898,1.5811388300841898,0,1,1,-1.5811388300841898,0A1.5811388300841898,1.5811388300841898,0,1,1,1.5811388300841898,0" style="fill: #1f78b4; stroke-width: 2; opacity: 1;"></path><path transform="translate(250,292.85714285714283)" d="M1.5811388300841898,0A1.5811388300841898,1.5811388300841898,0,1,1,-1.5811388300841898,0A1.5811388300841898,1.5811388300841898,0,1,1,1.5811388300841898,0" style="fill: #1f78b4; stroke-width: 2; opacity: 1;"></path><path transform="translate(270.8333333333333,292.639040348964)" d="M1.5811388300841898,0A1.5811388300841898,1.5811388300841898,0,1,1,-1.5811388300841898,0A1.5811388300841898,1.5811388300841898,0,1,1,1.5811388300841898,0" style="fill: #1f78b4; stroke-width: 2; opacity: 1;"></path><path transform="translate(0,227.41935483870967)" d="M1.5811388300841898,0A1.5811388300841898,1.5811388300841898,0,1,1,-1.5811388300841898,0A1.5811388300841898,1.5811388300841898,0,1,1,1.5811388300841898,0" style="fill: #b2df8a; stroke-width: 2; opacity: 1;"></path><path transform="translate(20.833333333333332,185.37117903930132)" d="M1.5811388300841898,0A1.5811388300841898,1.5811388300841898,0,1,1,-1.5811388300841898,0A1.5811388300841898,1.5811388300841898,0,1,1,1.5811388300841898,0" style="fill: #b2df8a; stroke-width: 2; opacity: 1;"></path><path transform="translate(41.666666666666664,183.54037267080744)" d="M1.5811388300841898,0A1.5811388300841898,1.5811388300841898,0,1,1,-1.5811388300841898,0A1.5811388300841898,1.5811388300841898,0,1,1,1.5811388300841898,0" style="fill: #b2df8a; stroke-width: 2; opacity: 1;"></path><path transform="translate(62.5,200.66225165562918)" d="M1.5811388300841898,0A1.5811388300841898,1.5811388300841898,0,1,1,-1.5811388300841898,0A1.5811388300841898,1.5811388300841898,0,1,1,1.5811388300841898,0" style="fill: #b2df8a; stroke-width: 2; opacity: 1;"></path><path transform="translate(83.33333333333333,202.67175572519085)" d="M1.5811388300841898,0A1.5811388300841898,1.5811388300841898,0,1,1,-1.5811388300841898,0A1.5811388300841898,1.5811388300841898,0,1,1,1.5811388300841898,0" style="fill: #b2df8a; stroke-width: 2; opacity: 1;"></path><path transform="translate(104.16666666666667,211.31756756756758)" d="M1.5811388300841898,0A1.5811388300841898,1.5811388300841898,0,1,1,-1.5811388300841898,0A1.5811388300841898,1.5811388300841898,0,1,1,1.5811388300841898,0" style="fill: #b2df8a; stroke-width: 2; opacity: 1;"></path><path transform="translate(125,203.5904255319149)" d="M1.5811388300841898,0A1.5811388300841898,1.5811388300841898,0,1,1,-1.5811388300841898,0A1.5811388300841898,1.5811388300841898,0,1,1,1.5811388300841898,0" style="fill: #b2df8a; stroke-width: 2; opacity: 1;"></path><path transform="translate(145.83333333333334,224.73435655253834)" d="M1.5811388300841898,0A1.5811388300841898,1.5811388300841898,0,1,1,-1.5811388300841898,0A1.5811388300841898,1.5811388300841898,0,1,1,1.5811388300841898,0" style="fill: #b2df8a; stroke-width: 2; opacity: 1;"></path><path transform="translate(166.66666666666666,204.22396856581534)" d="M1.5811388300841898,0A1.5811388300841898,1.5811388300841898,0,1,1,-1.5811388300841898,0A1.5811388300841898,1.5811388300841898,0,1,1,1.5811388300841898,0" style="fill: #b2df8a; stroke-width: 2; opacity: 1;"></path><path transform="translate(187.5,181.59472422062348)" d="M1.5811388300841898,0A1.5811388300841898,1.5811388300841898,0,1,1,-1.5811388300841898,0A1.5811388300841898,1.5811388300841898,0,1,1,1.5811388300841898,0" style="fill: #b2df8a; stroke-width: 2; opacity: 1;"></path><path transform="translate(208.33333333333334,170.103593395921)" d="M1.5811388300841898,0A1.5811388300841898,1.5811388300841898,0,1,1,-1.5811388300841898,0A1.5811388300841898,1.5811388300841898,0,1,1,1.5811388300841898,0" style="fill: #b2df8a; stroke-width: 2; opacity: 1;"></path><path transform="translate(229.16666666666666,156.1430793157076)" d="M1.5811388300841898,0A1.5811388300841898,1.5811388300841898,0,1,1,-1.5811388300841898,0A1.5811388300841898,1.5811388300841898,0,1,1,1.5811388300841898,0" style="fill: #b2df8a; stroke-width: 2; opacity: 1;"></path><path transform="translate(250,140.64926660914583)" d="M1.5811388300841898,0A1.5811388300841898,1.5811388300841898,0,1,1,-1.5811388300841898,0A1.5811388300841898,1.5811388300841898,0,1,1,1.5811388300841898,0" style="fill: #b2df8a; stroke-width: 2; opacity: 1;"></path><path transform="translate(270.8333333333333,151.4788373278939)" d="M1.5811388300841898,0A1.5811388300841898,1.5811388300841898,0,1,1,-1.5811388300841898,0A1.5811388300841898,1.5811388300841898,0,1,1,1.5811388300841898,0" style="fill: #b2df8a; stroke-width: 2; opacity: 1;"></path><path transform="translate(291.6666666666667,113.89830508474577)" d="M1.5811388300841898,0A1.5811388300841898,1.5811388300841898,0,1,1,-1.5811388300841898,0A1.5811388300841898,1.5811388300841898,0,1,1,1.5811388300841898,0" style="fill: #b2df8a; stroke-width: 2; opacity: 1;"></path><path transform="translate(312.5,110.70104666375926)" d="M1.5811388300841898,0A1.5811388300841898,1.5811388300841898,0,1,1,-1.5811388300841898,0A1.5811388300841898,1.5811388300841898,0,1,1,1.5811388300841898,0" style="fill: #b2df8a; stroke-width: 2; opacity: 1;"></path><path transform="translate(333.3333333333333,66.84895063553061)" d="M1.5811388300841898,0A1.5811388300841898,1.5811388300841898,0,1,1,-1.5811388300841898,0A1.5811388300841898,1.5811388300841898,0,1,1,1.5811388300841898,0" style="fill: #b2df8a; stroke-width: 2; opacity: 1;"></path><path transform="translate(354.1666666666667,51.14347616754934)" d="M1.5811388300841898,0A1.5811388300841898,1.5811388300841898,0,1,1,-1.5811388300841898,0A1.5811388300841898,1.5811388300841898,0,1,1,1.5811388300841898,0" style="fill: #b2df8a; stroke-width: 2; opacity: 1;"></path><path transform="translate(375,51.14347616754934)" d="M1.5811388300841898,0A1.5811388300841898,1.5811388300841898,0,1,1,-1.5811388300841898,0A1.5811388300841898,1.5811388300841898,0,1,1,1.5811388300841898,0" style="fill: #b2df8a; stroke-width: 2; opacity: 1;"></path><path transform="translate(395.8333333333333,31.172140430351092)" d="M1.5811388300841898,0A1.5811388300841898,1.5811388300841898,0,1,1,-1.5811388300841898,0A1.5811388300841898,1.5811388300841898,0,1,1,1.5811388300841898,0" style="fill: #b2df8a; stroke-width: 2; opacity: 1;"></path><path transform="translate(416.6666666666667,44.58807959540577)" d="M1.5811388300841898,0A1.5811388300841898,1.5811388300841898,0,1,1,-1.5811388300841898,0A1.5811388300841898,1.5811388300841898,0,1,1,1.5811388300841898,0" style="fill: #b2df8a; stroke-width: 2; opacity: 1;"></path><path transform="translate(0,263.9423076923077)" d="M1.5811388300841898,0A1.5811388300841898,1.5811388300841898,0,1,1,-1.5811388300841898,0A1.5811388300841898,1.5811388300841898,0,1,1,1.5811388300841898,0" style="fill: #33a02c; stroke-width: 2; opacity: 1;"></path><path transform="translate(20.833333333333332,263.2352941176471)" d="M1.5811388300841898,0A1.5811388300841898,1.5811388300841898,0,1,1,-1.5811388300841898,0A1.5811388300841898,1.5811388300841898,0,1,1,1.5811388300841898,0" style="fill: #33a02c; stroke-width: 2; opacity: 1;"></path><path transform="translate(41.666666666666664,282.67898383371823)" d="M1.5811388300841898,0A1.5811388300841898,1.5811388300841898,0,1,1,-1.5811388300841898,0A1.5811388300841898,1.5811388300841898,0,1,1,1.5811388300841898,0" style="fill: #33a02c; stroke-width: 2; opacity: 1;"></path><path transform="translate(62.5,262.624584717608)" d="M1.5811388300841898,0A1.5811388300841898,1.5811388300841898,0,1,1,-1.5811388300841898,0A1.5811388300841898,1.5811388300841898,0,1,1,1.5811388300841898,0" style="fill: #33a02c; stroke-width: 2; opacity: 1;"></path><path transform="translate(83.33333333333333,263.98559423769507)" d="M1.5811388300841898,0A1.5811388300841898,1.5811388300841898,0,1,1,-1.5811388300841898,0A1.5811388300841898,1.5811388300841898,0,1,1,1.5811388300841898,0" style="fill: #33a02c; stroke-width: 2; opacity: 1;"></path><path transform="translate(104.16666666666667,261.6171954964176)" d="M1.5811388300841898,0A1.5811388300841898,1.5811388300841898,0,1,1,-1.5811388300841898,0A1.5811388300841898,1.5811388300841898,0,1,1,1.5811388300841898,0" style="fill: #33a02c; stroke-width: 2; opacity: 1;"></path><path transform="translate(125,264.3140364789849)" d="M1.5811388300841898,0A1.5811388300841898,1.5811388300841898,0,1,1,-1.5811388300841898,0A1.5811388300841898,1.5811388300841898,0,1,1,1.5811388300841898,0" style="fill: #33a02c; stroke-width: 2; opacity: 1;"></path><path transform="translate(145.83333333333334,272.3952434881087)" d="M1.5811388300841898,0A1.5811388300841898,1.5811388300841898,0,1,1,-1.5811388300841898,0A1.5811388300841898,1.5811388300841898,0,1,1,1.5811388300841898,0" style="fill: #33a02c; stroke-width: 2; opacity: 1;"></path><path transform="translate(166.66666666666666,279.13992297817714)" d="M1.5811388300841898,0A1.5811388300841898,1.5811388300841898,0,1,1,-1.5811388300841898,0A1.5811388300841898,1.5811388300841898,0,1,1,1.5811388300841898,0" style="fill: #33a02c; stroke-width: 2; opacity: 1;"></path><path transform="translate(187.5,280.95238095238096)" d="M1.5811388300841898,0A1.5811388300841898,1.5811388300841898,0,1,1,-1.5811388300841898,0A1.5811388300841898,1.5811388300841898,0,1,1,1.5811388300841898,0" style="fill: #33a02c; stroke-width: 2; opacity: 1;"></path><path transform="translate(208.33333333333334,282.93629550321197)" d="M1.5811388300841898,0A1.5811388300841898,1.5811388300841898,0,1,1,-1.5811388300841898,0A1.5811388300841898,1.5811388300841898,0,1,1,1.5811388300841898,0" style="fill: #33a02c; stroke-width: 2; opacity: 1;"></path><path transform="translate(229.16666666666666,275.7785467128028)" d="M1.5811388300841898,0A1.5811388300841898,1.5811388300841898,0,1,1,-1.5811388300841898,0A1.5811388300841898,1.5811388300841898,0,1,1,1.5811388300841898,0" style="fill: #33a02c; stroke-width: 2; opacity: 1;"></path><path transform="translate(250,279.75318164288467)" d="M1.5811388300841898,0A1.5811388300841898,1.5811388300841898,0,1,1,-1.5811388300841898,0A1.5811388300841898,1.5811388300841898,0,1,1,1.5811388300841898,0" style="fill: #33a02c; stroke-width: 2; opacity: 1;"></path><path transform="translate(270.8333333333333,276.65006226650064)" d="M1.5811388300841898,0A1.5811388300841898,1.5811388300841898,0,1,1,-1.5811388300841898,0A1.5811388300841898,1.5811388300841898,0,1,1,1.5811388300841898,0" style="fill: #33a02c; stroke-width: 2; opacity: 1;"></path><path transform="translate(291.6666666666667,278.44119579500654)" d="M1.5811388300841898,0A1.5811388300841898,1.5811388300841898,0,1,1,-1.5811388300841898,0A1.5811388300841898,1.5811388300841898,0,1,1,1.5811388300841898,0" style="fill: #33a02c; stroke-width: 2; opacity: 1;"></path><path transform="translate(312.5,276.11102684665553)" d="M1.5811388300841898,0A1.5811388300841898,1.5811388300841898,0,1,1,-1.5811388300841898,0A1.5811388300841898,1.5811388300841898,0,1,1,1.5811388300841898,0" style="fill: #33a02c; stroke-width: 2; opacity: 1;"></path><path transform="translate(333.3333333333333,276.56582871751175)" d="M1.5811388300841898,0A1.5811388300841898,1.5811388300841898,0,1,1,-1.5811388300841898,0A1.5811388300841898,1.5811388300841898,0,1,1,1.5811388300841898,0" style="fill: #33a02c; stroke-width: 2; opacity: 1;"></path><path transform="translate(354.1666666666667,274.3642329778507)" d="M1.5811388300841898,0A1.5811388300841898,1.5811388300841898,0,1,1,-1.5811388300841898,0A1.5811388300841898,1.5811388300841898,0,1,1,1.5811388300841898,0" style="fill: #33a02c; stroke-width: 2; opacity: 1;"></path><path transform="translate(375,273.422037978069)" d="M1.5811388300841898,0A1.5811388300841898,1.5811388300841898,0,1,1,-1.5811388300841898,0A1.5811388300841898,1.5811388300841898,0,1,1,1.5811388300841898,0" style="fill: #33a02c; stroke-width: 2; opacity: 1;"></path><path transform="translate(395.8333333333333,273.0467190203647)" d="M1.5811388300841898,0A1.5811388300841898,1.5811388300841898,0,1,1,-1.5811388300841898,0A1.5811388300841898,1.5811388300841898,0,1,1,1.5811388300841898,0" style="fill: #33a02c; stroke-width: 2; opacity: 1;"></path><path transform="translate(416.6666666666667,270.9864603481625)" d="M1.5811388300841898,0A1.5811388300841898,1.5811388300841898,0,1,1,-1.5811388300841898,0A1.5811388300841898,1.5811388300841898,0,1,1,1.5811388300841898,0" style="fill: #33a02c; stroke-width: 2; opacity: 1;"></path><path transform="translate(437.5,268.5474647350362)" d="M1.5811388300841898,0A1.5811388300841898,1.5811388300841898,0,1,1,-1.5811388300841898,0A1.5811388300841898,1.5811388300841898,0,1,1,1.5811388300841898,0" style="fill: #33a02c; stroke-width: 2; opacity: 1;"></path><path transform="translate(458.3333333333333,268.9810753227222)" d="M1.5811388300841898,0A1.5811388300841898,1.5811388300841898,0,1,1,-1.5811388300841898,0A1.5811388300841898,1.5811388300841898,0,1,1,1.5811388300841898,0" style="fill: #33a02c; stroke-width: 2; opacity: 1;"></path><path transform="translate(479.1666666666667,266.6089537472174)" d="M1.5811388300841898,0A1.5811388300841898,1.5811388300841898,0,1,1,-1.5811388300841898,0A1.5811388300841898,1.5811388300841898,0,1,1,1.5811388300841898,0" style="fill: #33a02c; stroke-width: 2; opacity: 1;"></path><path transform="translate(0,300)" d="M1.5811388300841898,0A1.5811388300841898,1.5811388300841898,0,1,1,-1.5811388300841898,0A1.5811388300841898,1.5811388300841898,0,1,1,1.5811388300841898,0" style="fill: #fb9a99; stroke-width: 2; opacity: 1;"></path><path transform="translate(20.833333333333332,277.27272727272725)" d="M1.5811388300841898,0A1.5811388300841898,1.5811388300841898,0,1,1,-1.5811388300841898,0A1.5811388300841898,1.5811388300841898,0,1,1,1.5811388300841898,0" style="fill: #fb9a99; stroke-width: 2; opacity: 1;"></path><path transform="translate(41.666666666666664,266.21621621621625)" d="M1.5811388300841898,0A1.5811388300841898,1.5811388300841898,0,1,1,-1.5811388300841898,0A1.5811388300841898,1.5811388300841898,0,1,1,1.5811388300841898,0" style="fill: #fb9a99; stroke-width: 2; opacity: 1;"></path><path transform="translate(62.5,256.56370656370655)" d="M1.5811388300841898,0A1.5811388300841898,1.5811388300841898,0,1,1,-1.5811388300841898,0A1.5811388300841898,1.5811388300841898,0,1,1,1.5811388300841898,0" style="fill: #fb9a99; stroke-width: 2; opacity: 1;"></path><path transform="translate(83.33333333333333,253.125)" d="M1.5811388300841898,0A1.5811388300841898,1.5811388300841898,0,1,1,-1.5811388300841898,0A1.5811388300841898,1.5811388300841898,0,1,1,1.5811388300841898,0" style="fill: #fb9a99; stroke-width: 2; opacity: 1;"></path><path transform="translate(104.16666666666667,225)" d="M1.5811388300841898,0A1.5811388300841898,1.5811388300841898,0,1,1,-1.5811388300841898,0A1.5811388300841898,1.5811388300841898,0,1,1,1.5811388300841898,0" style="fill: #fb9a99; stroke-width: 2; opacity: 1;"></path><path transform="translate(125,205.27488855869242)" d="M1.5811388300841898,0A1.5811388300841898,1.5811388300841898,0,1,1,-1.5811388300841898,0A1.5811388300841898,1.5811388300841898,0,1,1,1.5811388300841898,0" style="fill: #fb9a99; stroke-width: 2; opacity: 1;"></path><path transform="translate(145.83333333333334,202.14352283317803)" d="M1.5811388300841898,0A1.5811388300841898,1.5811388300841898,0,1,1,-1.5811388300841898,0A1.5811388300841898,1.5811388300841898,0,1,1,1.5811388300841898,0" style="fill: #fb9a99; stroke-width: 2; opacity: 1;"></path><path transform="translate(166.66666666666666,222.56637168141594)" d="M1.5811388300841898,0A1.5811388300841898,1.5811388300841898,0,1,1,-1.5811388300841898,0A1.5811388300841898,1.5811388300841898,0,1,1,1.5811388300841898,0" style="fill: #fb9a99; stroke-width: 2; opacity: 1;"></path><path transform="translate(187.5,211.06719367588934)" d="M1.5811388300841898,0A1.5811388300841898,1.5811388300841898,0,1,1,-1.5811388300841898,0A1.5811388300841898,1.5811388300841898,0,1,1,1.5811388300841898,0" style="fill: #fb9a99; stroke-width: 2; opacity: 1;"></path><path transform="translate(208.33333333333334,209.42028985507247)" d="M1.5811388300841898,0A1.5811388300841898,1.5811388300841898,0,1,1,-1.5811388300841898,0A1.5811388300841898,1.5811388300841898,0,1,1,1.5811388300841898,0" style="fill: #fb9a99; stroke-width: 2; opacity: 1;"></path><path transform="translate(229.16666666666666,204.6731651376147)" d="M1.5811388300841898,0A1.5811388300841898,1.5811388300841898,0,1,1,-1.5811388300841898,0A1.5811388300841898,1.5811388300841898,0,1,1,1.5811388300841898,0" style="fill: #fb9a99; stroke-width: 2; opacity: 1;"></path><path transform="translate(250,185.58128618369582)" d="M1.5811388300841898,0A1.5811388300841898,1.5811388300841898,0,1,1,-1.5811388300841898,0A1.5811388300841898,1.5811388300841898,0,1,1,1.5811388300841898,0" style="fill: #fb9a99; stroke-width: 2; opacity: 1;"></path><path transform="translate(0,77.54237288135593)" d="M1.5811388300841898,0A1.5811388300841898,1.5811388300841898,0,1,1,-1.5811388300841898,0A1.5811388300841898,1.5811388300841898,0,1,1,1.5811388300841898,0" style="fill: #e31a1c; stroke-width: 2; opacity: 1;"></path><path transform="translate(20.833333333333332,23.154362416107364)" d="M1.5811388300841898,0A1.5811388300841898,1.5811388300841898,0,1,1,-1.5811388300841898,0A1.5811388300841898,1.5811388300841898,0,1,1,1.5811388300841898,0" style="fill: #e31a1c; stroke-width: 2; opacity: 1;"></path><path transform="translate(41.666666666666664,92.62672811059912)" d="M1.5811388300841898,0A1.5811388300841898,1.5811388300841898,0,1,1,-1.5811388300841898,0A1.5811388300841898,1.5811388300841898,0,1,1,1.5811388300841898,0" style="fill: #e31a1c; stroke-width: 2; opacity: 1;"></path><path transform="translate(62.5,99.61832061068704)" d="M1.5811388300841898,0A1.5811388300841898,1.5811388300841898,0,1,1,-1.5811388300841898,0A1.5811388300841898,1.5811388300841898,0,1,1,1.5811388300841898,0" style="fill: #e31a1c; stroke-width: 2; opacity: 1;"></path><path transform="translate(83.33333333333333,141.4179104477612)" d="M1.5811388300841898,0A1.5811388300841898,1.5811388300841898,0,1,1,-1.5811388300841898,0A1.5811388300841898,1.5811388300841898,0,1,1,1.5811388300841898,0" style="fill: #e31a1c; stroke-width: 2; opacity: 1;"></path><path transform="translate(104.16666666666667,147.97297297297297)" d="M1.5811388300841898,0A1.5811388300841898,1.5811388300841898,0,1,1,-1.5811388300841898,0A1.5811388300841898,1.5811388300841898,0,1,1,1.5811388300841898,0" style="fill: #e31a1c; stroke-width: 2; opacity: 1;"></path><path transform="translate(125,158.49056603773587)" d="M1.5811388300841898,0A1.5811388300841898,1.5811388300841898,0,1,1,-1.5811388300841898,0A1.5811388300841898,1.5811388300841898,0,1,1,1.5811388300841898,0" style="fill: #e31a1c; stroke-width: 2; opacity: 1;"></path><path transform="translate(145.83333333333334,190.5109489051095)" d="M1.5811388300841898,0A1.5811388300841898,1.5811388300841898,0,1,1,-1.5811388300841898,0A1.5811388300841898,1.5811388300841898,0,1,1,1.5811388300841898,0" style="fill: #e31a1c; stroke-width: 2; opacity: 1;"></path><path transform="translate(166.66666666666666,194.6135831381733)" d="M1.5811388300841898,0A1.5811388300841898,1.5811388300841898,0,1,1,-1.5811388300841898,0A1.5811388300841898,1.5811388300841898,0,1,1,1.5811388300841898,0" style="fill: #e31a1c; stroke-width: 2; opacity: 1;"></path><path transform="translate(187.5,209.80156343956705)" d="M1.5811388300841898,0A1.5811388300841898,1.5811388300841898,0,1,1,-1.5811388300841898,0A1.5811388300841898,1.5811388300841898,0,1,1,1.5811388300841898,0" style="fill: #e31a1c; stroke-width: 2; opacity: 1;"></path><path transform="translate(208.33333333333334,219.11427260211107)" d="M1.5811388300841898,0A1.5811388300841898,1.5811388300841898,0,1,1,-1.5811388300841898,0A1.5811388300841898,1.5811388300841898,0,1,1,1.5811388300841898,0" style="fill: #e31a1c; stroke-width: 2; opacity: 1;"></path><path transform="translate(229.16666666666666,225.74257425742573)" d="M1.5811388300841898,0A1.5811388300841898,1.5811388300841898,0,1,1,-1.5811388300841898,0A1.5811388300841898,1.5811388300841898,0,1,1,1.5811388300841898,0" style="fill: #e31a1c; stroke-width: 2; opacity: 1;"></path><path transform="translate(0,267.67241379310343)" d="M1.5811388300841898,0A1.5811388300841898,1.5811388300841898,0,1,1,-1.5811388300841898,0A1.5811388300841898,1.5811388300841898,0,1,1,1.5811388300841898,0" style="fill: #fdbf6f; stroke-width: 2; opacity: 1;"></path><path transform="translate(20.833333333333332,254.2682926829268)" d="M1.5811388300841898,0A1.5811388300841898,1.5811388300841898,0,1,1,-1.5811388300841898,0A1.5811388300841898,1.5811388300841898,0,1,1,1.5811388300841898,0" style="fill: #fdbf6f; stroke-width: 2; opacity: 1;"></path><path transform="translate(41.666666666666664,263.768115942029)" d="M1.5811388300841898,0A1.5811388300841898,1.5811388300841898,0,1,1,-1.5811388300841898,0A1.5811388300841898,1.5811388300841898,0,1,1,1.5811388300841898,0" style="fill: #fdbf6f; stroke-width: 2; opacity: 1;"></path><path transform="translate(62.5,258.94160583941607)" d="M1.5811388300841898,0A1.5811388300841898,1.5811388300841898,0,1,1,-1.5811388300841898,0A1.5811388300841898,1.5811388300841898,0,1,1,1.5811388300841898,0" style="fill: #fdbf6f; stroke-width: 2; opacity: 1;"></path><path transform="translate(83.33333333333333,253.416149068323)" d="M1.5811388300841898,0A1.5811388300841898,1.5811388300841898,0,1,1,-1.5811388300841898,0A1.5811388300841898,1.5811388300841898,0,1,1,1.5811388300841898,0" style="fill: #fdbf6f; stroke-width: 2; opacity: 1;"></path><path transform="translate(104.16666666666667,241.40625)" d="M1.5811388300841898,0A1.5811388300841898,1.5811388300841898,0,1,1,-1.5811388300841898,0A1.5811388300841898,1.5811388300841898,0,1,1,1.5811388300841898,0" style="fill: #fdbf6f; stroke-width: 2; opacity: 1;"></path><path transform="translate(125,234.64052287581697)" d="M1.5811388300841898,0A1.5811388300841898,1.5811388300841898,0,1,1,-1.5811388300841898,0A1.5811388300841898,1.5811388300841898,0,1,1,1.5811388300841898,0" style="fill: #fdbf6f; stroke-width: 2; opacity: 1;"></path><path transform="translate(145.83333333333334,234.64052287581697)" d="M1.5811388300841898,0A1.5811388300841898,1.5811388300841898,0,1,1,-1.5811388300841898,0A1.5811388300841898,1.5811388300841898,0,1,1,1.5811388300841898,0" style="fill: #fdbf6f; stroke-width: 2; opacity: 1;"></path><path transform="translate(166.66666666666666,262.5468164794008)" d="M1.5811388300841898,0A1.5811388300841898,1.5811388300841898,0,1,1,-1.5811388300841898,0A1.5811388300841898,1.5811388300841898,0,1,1,1.5811388300841898,0" style="fill: #fdbf6f; stroke-width: 2; opacity: 1;"></path><path transform="translate(187.5,231.10236220472441)" d="M1.5811388300841898,0A1.5811388300841898,1.5811388300841898,0,1,1,-1.5811388300841898,0A1.5811388300841898,1.5811388300841898,0,1,1,1.5811388300841898,0" style="fill: #fdbf6f; stroke-width: 2; opacity: 1;"></path></g><g class="mark-group role-legend"><g transform="translate(518,0)"><path class="background" d="M0,0h105v96h-105Z" style="pointer-events: none; fill: none;"></path><g><g class="mark-group role-legend-entry"><g transform="translate(0,0)"><path class="background" d="M0,0h0v0h0Z" style="pointer-events: none; fill: none;"></path><g><g class="mark-group role-scope"><g transform="translate(0,0)"><path class="background" d="M0,0h104.68333435058594v12h-104.68333435058594Z" style="pointer-events: none; fill: none; opacity: 1;"></path><g><g class="mark-symbol role-legend-symbol" style="pointer-events: none;"><path transform="translate(6,6)" d="M3.5355339059327378,0A3.5355339059327378,3.5355339059327378,0,1,1,-3.5355339059327378,0A3.5355339059327378,3.5355339059327378,0,1,1,3.5355339059327378,0" style="fill: #a6cee3; stroke: #a6cee3; stroke-width: 1; opacity: 1;"></path></g><g class="mark-text role-legend-label" style="pointer-events: none;"><text text-anchor="start" transform="translate(16,10)" style="font-family: Avenir; font-size: 12px; fill: #000; opacity: 1;">France</text></g></g><path class="foreground" d="" style="pointer-events: none; display: none; fill: none;"></path></g><g transform="translate(0,14)"><path class="background" d="M0,0h104.68333435058594v12h-104.68333435058594Z" style="pointer-events: none; fill: none; opacity: 1;"></path><g><g class="mark-symbol role-legend-symbol" style="pointer-events: none;"><path transform="translate(6,6)" d="M3.5355339059327378,0A3.5355339059327378,3.5355339059327378,0,1,1,-3.5355339059327378,0A3.5355339059327378,3.5355339059327378,0,1,1,3.5355339059327378,0" style="fill: #1f78b4; stroke: #1f78b4; stroke-width: 1; opacity: 1;"></path></g><g class="mark-text role-legend-label" style="pointer-events: none;"><text text-anchor="start" transform="translate(16,10)" style="font-family: Avenir; font-size: 12px; fill: #000; opacity: 1;">Germany</text></g></g><path class="foreground" d="" style="pointer-events: none; display: none; fill: none;"></path></g><g transform="translate(0,28)"><path class="background" d="M0,0h104.68333435058594v12h-104.68333435058594Z" style="pointer-events: none; fill: none; opacity: 1;"></path><g><g class="mark-symbol role-legend-symbol" style="pointer-events: none;"><path transform="translate(6,6)" d="M3.5355339059327378,0A3.5355339059327378,3.5355339059327378,0,1,1,-3.5355339059327378,0A3.5355339059327378,3.5355339059327378,0,1,1,3.5355339059327378,0" style="fill: #b2df8a; stroke: #b2df8a; stroke-width: 1; opacity: 1;"></path></g><g class="mark-text role-legend-label" style="pointer-events: none;"><text text-anchor="start" transform="translate(16,10)" style="font-family: Avenir; font-size: 12px; fill: #000; opacity: 1;">Italy</text></g></g><path class="foreground" d="" style="pointer-events: none; display: none; fill: none;"></path></g><g transform="translate(0,42)"><path class="background" d="M0,0h104.68333435058594v12h-104.68333435058594Z" style="pointer-events: none; fill: none; opacity: 1;"></path><g><g class="mark-symbol role-legend-symbol" style="pointer-events: none;"><path transform="translate(6,6)" d="M3.5355339059327378,0A3.5355339059327378,3.5355339059327378,0,1,1,-3.5355339059327378,0A3.5355339059327378,3.5355339059327378,0,1,1,3.5355339059327378,0" style="fill: #33a02c; stroke: #33a02c; stroke-width: 1; opacity: 1;"></path></g><g class="mark-text role-legend-label" style="pointer-events: none;"><text text-anchor="start" transform="translate(16,10)" style="font-family: Avenir; font-size: 12px; fill: #000; opacity: 1;">Korea, South</text></g></g><path class="foreground" d="" style="pointer-events: none; display: none; fill: none;"></path></g><g transform="translate(0,56)"><path class="background" d="M0,0h104.68333435058594v12h-104.68333435058594Z" style="pointer-events: none; fill: none; opacity: 1;"></path><g><g class="mark-symbol role-legend-symbol" style="pointer-events: none;"><path transform="translate(6,6)" d="M3.5355339059327378,0A3.5355339059327378,3.5355339059327378,0,1,1,-3.5355339059327378,0A3.5355339059327378,3.5355339059327378,0,1,1,3.5355339059327378,0" style="fill: #fb9a99; stroke: #fb9a99; stroke-width: 1; opacity: 1;"></path></g><g class="mark-text role-legend-label" style="pointer-events: none;"><text text-anchor="start" transform="translate(16,10)" style="font-family: Avenir; font-size: 12px; fill: #000; opacity: 1;">Spain</text></g></g><path class="foreground" d="" style="pointer-events: none; display: none; fill: none;"></path></g><g transform="translate(0,70)"><path class="background" d="M0,0h104.68333435058594v12h-104.68333435058594Z" style="pointer-events: none; fill: none; opacity: 1;"></path><g><g class="mark-symbol role-legend-symbol" style="pointer-events: none;"><path transform="translate(6,6)" d="M3.5355339059327378,0A3.5355339059327378,3.5355339059327378,0,1,1,-3.5355339059327378,0A3.5355339059327378,3.5355339059327378,0,1,1,3.5355339059327378,0" style="fill: #e31a1c; stroke: #e31a1c; stroke-width: 1; opacity: 1;"></path></g><g class="mark-text role-legend-label" style="pointer-events: none;"><text text-anchor="start" transform="translate(16,10)" style="font-family: Avenir; font-size: 12px; fill: #000; opacity: 1;">US</text></g></g><path class="foreground" d="" style="pointer-events: none; display: none; fill: none;"></path></g><g transform="translate(0,84)"><path class="background" d="M0,0h104.68333435058594v12h-104.68333435058594Z" style="pointer-events: none; fill: none; opacity: 1;"></path><g><g class="mark-symbol role-legend-symbol" style="pointer-events: none;"><path transform="translate(6,6)" d="M3.5355339059327378,0A3.5355339059327378,3.5355339059327378,0,1,1,-3.5355339059327378,0A3.5355339059327378,3.5355339059327378,0,1,1,3.5355339059327378,0" style="fill: #fdbf6f; stroke: #fdbf6f; stroke-width: 1; opacity: 1;"></path></g><g class="mark-text role-legend-label" style="pointer-events: none;"><text text-anchor="start" transform="translate(16,10)" style="font-family: Avenir; font-size: 12px; fill: #000; opacity: 1;">United Kingdom</text></g></g><path class="foreground" d="" style="pointer-events: none; display: none; fill: none;"></path></g></g></g><path class="foreground" d="" style="pointer-events: none; display: none; fill: none;"></path></g></g></g><path class="foreground" d="" style="pointer-events: none; display: none; fill: none;"></path></g></g><g class="mark-group role-title"><g transform="translate(-49.483333587646484,-55)"><path class="background" d="M0,0h0v0h0Z" style="pointer-events: none; fill: none;"></path><g><g class="mark-text role-title-text" style="pointer-events: none;"><text text-anchor="start" transform="translate(0,16)" style="font-family: Avenir; font-size: 20px; font-weight: 300; fill: #4d4d4d; opacity: 1;">Development of confirmed COVID-19 deaths in infected persons</text></g></g><path class="foreground" d="" style="pointer-events: none; display: none; fill: none;"></path></g></g><g class="mark-group role-axis"><g transform="translate(0.5,300.5)"><path class="background" d="M0,0h0v0h0Z" style="pointer-events: none; fill: none;"></path><g><g class="mark-rule role-axis-tick" style="pointer-events: none;"><line transform="translate(0,0)" x2="0" y2="5" style="fill: none; stroke: #DEDDDD; stroke-width: 1; opacity: 1;"></line><line transform="translate(42,0)" x2="0" y2="5" style="fill: none; stroke: #DEDDDD; stroke-width: 1; opacity: 1;"></line><line transform="translate(83,0)" x2="0" y2="5" style="fill: none; stroke: #DEDDDD; stroke-width: 1; opacity: 1;"></line><line transform="translate(125,0)" x2="0" y2="5" style="fill: none; stroke: #DEDDDD; stroke-width: 1; opacity: 1;"></line><line transform="translate(167,0)" x2="0" y2="5" style="fill: none; stroke: #DEDDDD; stroke-width: 1; opacity: 1;"></line><line transform="translate(208,0)" x2="0" y2="5" style="fill: none; stroke: #DEDDDD; stroke-width: 1; opacity: 1;"></line><line transform="translate(250,0)" x2="0" y2="5" style="fill: none; stroke: #DEDDDD; stroke-width: 1; opacity: 1;"></line><line transform="translate(292,0)" x2="0" y2="5" style="fill: none; stroke: #DEDDDD; stroke-width: 1; opacity: 1;"></line><line transform="translate(333,0)" x2="0" y2="5" style="fill: none; stroke: #DEDDDD; stroke-width: 1; opacity: 1;"></line><line transform="translate(375,0)" x2="0" y2="5" style="fill: none; stroke: #DEDDDD; stroke-width: 1; opacity: 1;"></line><line transform="translate(417,0)" x2="0" y2="5" style="fill: none; stroke: #DEDDDD; stroke-width: 1; opacity: 1;"></line><line transform="translate(458,0)" x2="0" y2="5" style="fill: none; stroke: #DEDDDD; stroke-width: 1; opacity: 1;"></line><line transform="translate(500,0)" x2="0" y2="5" style="fill: none; stroke: #DEDDDD; stroke-width: 1; opacity: 1;"></line></g><g class="mark-text role-axis-label" style="pointer-events: none;"><text text-anchor="middle" transform="translate(0,15)" style="font-family: Avenir; font-size: 10px; fill: #000; opacity: 1;">0</text><text text-anchor="middle" transform="translate(41.666666666666664,15)" style="font-family: Avenir; font-size: 10px; fill: #000; opacity: 1;">2</text><text text-anchor="middle" transform="translate(83.33333333333333,15)" style="font-family: Avenir; font-size: 10px; fill: #000; opacity: 1;">4</text><text text-anchor="middle" transform="translate(125,15)" style="font-family: Avenir; font-size: 10px; fill: #000; opacity: 1;">6</text><text text-anchor="middle" transform="translate(166.66666666666666,15)" style="font-family: Avenir; font-size: 10px; fill: #000; opacity: 1;">8</text><text text-anchor="middle" transform="translate(208.33333333333334,15)" style="font-family: Avenir; font-size: 10px; fill: #000; opacity: 1;">10</text><text text-anchor="middle" transform="translate(250,15)" style="font-family: Avenir; font-size: 10px; fill: #000; opacity: 1;">12</text><text text-anchor="middle" transform="translate(291.6666666666667,15)" style="font-family: Avenir; font-size: 10px; fill: #000; opacity: 1;">14</text><text text-anchor="middle" transform="translate(333.3333333333333,15)" style="font-family: Avenir; font-size: 10px; fill: #000; opacity: 1;">16</text><text text-anchor="middle" transform="translate(375,15)" style="font-family: Avenir; font-size: 10px; fill: #000; opacity: 1;">18</text><text text-anchor="middle" transform="translate(416.6666666666667,15)" style="font-family: Avenir; font-size: 10px; fill: #000; opacity: 1;">20</text><text text-anchor="middle" transform="translate(458.3333333333333,15)" style="font-family: Avenir; font-size: 10px; fill: #000; opacity: 1;">22</text><text text-anchor="middle" transform="translate(500,15)" style="font-family: Avenir; font-size: 10px; fill: #000; opacity: 1;">24</text></g><g class="mark-rule role-axis-domain" style="pointer-events: none;"><line transform="translate(0,0)" x2="500" y2="0" style="fill: none; stroke: #DEDDDD; stroke-width: 1; stroke-dashoffset: 10; opacity: 1;"></line></g><g class="mark-text role-axis-title" style="pointer-events: none;"><text text-anchor="middle" transform="translate(250,36)" style="font-family: Avenir; font-size: 12px; font-weight: 400; fill: #000; opacity: 1;">Days since 100th case</text></g></g><path class="foreground" d="" style="pointer-events: none; display: none; fill: none;"></path></g></g><g class="mark-group role-axis"><g transform="translate(0.5,0.5)"><path class="background" d="M0,0h0v0h0Z" style="pointer-events: none; fill: none;"></path><g><g class="mark-rule role-axis-tick" style="pointer-events: none;"><line transform="translate(0,300)" x2="-5" y2="0" style="fill: none; stroke: #888; stroke-width: 1; opacity: 1;"></line><line transform="translate(0,263)" x2="-5" y2="0" style="fill: none; stroke: #888; stroke-width: 1; opacity: 1;"></line><line transform="translate(0,225)" x2="-5" y2="0" style="fill: none; stroke: #888; stroke-width: 1; opacity: 1;"></line><line transform="translate(0,188)" x2="-5" y2="0" style="fill: none; stroke: #888; stroke-width: 1; opacity: 1;"></line><line transform="translate(0,150)" x2="-5" y2="0" style="fill: none; stroke: #888; stroke-width: 1; opacity: 1;"></line><line transform="translate(0,113)" x2="-5" y2="0" style="fill: none; stroke: #888; stroke-width: 1; opacity: 1;"></line><line transform="translate(0,75)" x2="-5" y2="0" style="fill: none; stroke: #888; stroke-width: 1; opacity: 1;"></line><line transform="translate(0,37)" x2="-5" y2="0" style="fill: none; stroke: #888; stroke-width: 1; opacity: 1;"></line><line transform="translate(0,0)" x2="-5" y2="0" style="fill: none; stroke: #888; stroke-width: 1; opacity: 1;"></line></g><g class="mark-text role-axis-label" style="pointer-events: none;"><text text-anchor="end" transform="translate(-7,303)" style="font-family: Avenir; font-size: 10px; fill: #000; opacity: 1;">0.00</text><text text-anchor="end" transform="translate(-7,265.5)" style="font-family: Avenir; font-size: 10px; fill: #000; opacity: 1;">0.01</text><text text-anchor="end" transform="translate(-7,228)" style="font-family: Avenir; font-size: 10px; fill: #000; opacity: 1;">0.02</text><text text-anchor="end" transform="translate(-7,190.5)" style="font-family: Avenir; font-size: 10px; fill: #000; opacity: 1;">0.03</text><text text-anchor="end" transform="translate(-7,153)" style="font-family: Avenir; font-size: 10px; fill: #000; opacity: 1;">0.04</text><text text-anchor="end" transform="translate(-7,115.5)" style="font-family: Avenir; font-size: 10px; fill: #000; opacity: 1;">0.05</text><text text-anchor="end" transform="translate(-7,78)" style="font-family: Avenir; font-size: 10px; fill: #000; opacity: 1;">0.06</text><text text-anchor="end" transform="translate(-7,40.499999999999964)" style="font-family: Avenir; font-size: 10px; fill: #000; opacity: 1;">0.07</text><text text-anchor="end" transform="translate(-7,3)" style="font-family: Avenir; font-size: 10px; fill: #000; opacity: 1;">0.08</text></g><g class="mark-text role-axis-title" style="pointer-events: none;"><text text-anchor="middle" transform="translate(-36.483333587646484,150) rotate(-90) translate(0,-3)" style="font-family: Avenir; font-size: 12px; font-weight: 400; fill: #000; opacity: 1;">share of COVID-19 deaths in infected persons</text></g></g><path class="foreground" d="" style="pointer-events: none; display: none; fill: none;"></path></g></g></g><path class="foreground" d="" style="display: none; fill: none;"></path></g></g></g></svg>