<svg class="marks" width="1024.5" height="664.5" viewBox="0 0 683 443" version="1.1" xmlns="http://www.w3.org/2000/svg" xmlns:xlink="http://www.w3.org/1999/xlink"><g transform="translate(55,100)"><g class="mark-group role-frame root"><g transform="translate(0,0)"><path class="background" d="M0,0h500v300h-500Z" style="fill: none; stroke: #ddd; stroke-width: 0;"></path><g><g class="mark-group role-axis"><g transform="translate(0.5,0.5)"><path class="background" d="M0,0h0v0h0Z" style="pointer-events: none; fill: none;"></path><g><g class="mark-rule role-axis-grid" style="pointer-events: none;"><line transform="translate(0,300)" x2="500" y2="0" style="fill: none; stroke: #DEDDDD; stroke-width: 1; stroke-dasharray: 5,2; opacity: 1;"></line><line transform="translate(0,254)" x2="500" y2="0" style="fill: none; stroke: #DEDDDD; stroke-width: 1; stroke-dasharray: 5,2; opacity: 1;"></line><line transform="translate(0,208)" x2="500" y2="0" style="fill: none; stroke: #DEDDDD; stroke-width: 1; stroke-dasharray: 5,2; opacity: 1;"></line><line transform="translate(0,162)" x2="500" y2="0" style="fill: none; stroke: #DEDDDD; stroke-width: 1; stroke-dasharray: 5,2; opacity: 1;"></line><line transform="translate(0,115)" x2="500" y2="0" style="fill: none; stroke: #DEDDDD; stroke-width: 1; stroke-dasharray: 5,2; opacity: 1;"></line><line transform="translate(0,69)" x2="500" y2="0" style="fill: none; stroke: #DEDDDD; stroke-width: 1; stroke-dasharray: 5,2; opacity: 1;"></line><line transform="translate(0,23)" x2="500" y2="0" style="fill: none; stroke: #DEDDDD; stroke-width: 1; stroke-dasharray: 5,2; opacity: 1;"></line></g></g><path class="foreground" d="" style="pointer-events: none; display: none; fill: none;"></path></g></g><g class="mark-group role-scope layer_0_pathgroup"><g transform="translate(0,0)"><path class="background" d="M0,0h500v300h-500Z" style="fill: none;"></path><g><g class="mark-line role-mark layer_0_marks"><path d="M0,264.4970414201183L11.11111111111111,263.75352396294807L22.22222222222222,254.75113122171945L33.333333333333336,267.94871794871796L44.44444444444444,263.56275303643724L55.55555555555555,268.33958724202625L66.66666666666667,273.53011951552094L77.77777777777779,261.4030335861322L88.88888888888889,264.0310468858459L100,257.55081039361977L111.1111111111111,251.69244187996915L122.22222222222221,251.69244187996915L133.33333333333334,250.47332455645412L144.44444444444443,253.2918149466192L155.55555555555557,253.66284201235655L166.66666666666666,248.54913155077753L177.77777777777777,255.43147714242983L188.88888888888889,262.31409975381916L200,248.67120117803802L211.11111111111111,218.4222267777684L222.2222222222222,210.1686531680309L233.33333333333334,203.95862833220463L244.44444444444443,201.1464111101342L255.55555555555554,187.58390402807342L266.6666666666667,179.8377403846154L277.77777777777777,167.40003592225176L288.88888888888886,162.03037128131433L300,159.6792264289968L311.11111111111114,151.98524576533814L322.22222222222223,145.20018392057358L333.3333333333333,145.70826980958162L344.44444444444446,138.43876084434362L355.55555555555554,92.13864611585248L366.66666666666663,69.23784782439427" style="fill: none; stroke: #a6cee3; stroke-width: 1;"></path></g></g><path class="foreground" d="" style="display: none; fill: none;"></path></g><g transform="translate(0,0)"><path class="background" d="M0,0h500v300h-500Z" style="fill: none;"></path><g><g class="mark-line role-mark layer_0_marks"><path d="M0,300L11.11111111111111,300L22.22222222222222,300L33.333333333333336,300L44.44444444444444,300L55.55555555555555,300L66.66666666666667,300L77.77777777777779,300L88.88888888888889,296.07535321821035L100,296.83226862362073L111.1111111111111,296.37155297532655L122.22222222222221,296.668394165988L133.33333333333334,295.6043956043956L144.44444444444443,295.4701786762855L155.55555555555557,295.61956593880666L166.66666666666666,294.6052297537446L177.77777777777777,294.01700168687313L188.88888888888889,294.75822303760975L200,293.3721630849568L211.11111111111111,292.21002697423495L222.2222222222222,291.2733014970444L233.33333333333334,291.27877309037603L244.44444444444443,290.23106574042697L255.55555555555554,289.01631927764225L266.6666666666667,287.26295808523923L277.77777777777777,285.9767434531875L288.88888888888886,284.4856446849724L300,282.68080822894933L311.11111111111114,280.1916418391175L322.22222222222223,277.74595890765437L333.3333333333333,275.0938399835459L344.44444444444446,272.73632469851907L355.55555555555554,269.872686928139L366.66666666666663,267.7233439122008" style="fill: none; stroke: #1f78b4; stroke-width: 1;"></path></g></g><path class="foreground" d="" style="display: none; fill: none;"></path></g><g transform="translate(0,0)"><path class="background" d="M0,0h500v300h-500Z" style="fill: none;"></path><g><g class="mark-line role-mark layer_0_marks"><path d="M0,255.33498759305212L11.11111111111111,229.4591871011085L22.22222222222222,228.3325370281892L33.333333333333336,238.86907794192564L44.44444444444444,240.10569583088667L55.55555555555555,245.42619542619542L66.66666666666667,240.671031096563L77.77777777777779,253.68268095540824L88.88888888888889,241.0609037328094L100,227.13521490499906L111.1111111111111,220.06374978210522L122.22222222222221,211.4726641942816L133.33333333333334,201.9380102210128L144.44444444444443,208.6023614325501L155.55555555555557,185.47588005215124L166.66666666666666,183.50833640846724L177.77777777777777,156.52243116032653L188.88888888888889,146.85752379541498L200,146.85752379541498L211.11111111111111,134.5674710340622L222.2222222222222,142.82343359717277L233.33333333333334,131.30822384065203L244.44444444444443,122.01572551822731L255.55555555555554,116.66495759049556L266.6666666666667,107.5684570798395L277.77777777777777,108.5124331011988L288.88888888888886,102.11787531921091L300,92.17933882161739L311.11111111111114,86.31466946932468L322.22222222222223,80.6271817253093L333.3333333333333,72.48667834998353L344.44444444444446,67.23287467244664L355.55555555555554,64.76079480211558L366.66666666666663,56.31272932944651L377.77777777777777,49.87023098883986L388.8888888888889,45.36933140255932L400,37.087434135763665L411.1111111111111,28.90199637023594L422.22222222222223,25.453611991134384L433.33333333333337,21.355595516057846L444.4444444444444,17.265467972737625" style="fill: none; stroke: #b2df8a; stroke-width: 1;"></path></g></g><path class="foreground" d="" style="display: none; fill: none;"></path></g><g transform="translate(0,0)"><path class="background" d="M0,0h500v300h-500Z" style="fill: none;"></path><g><g class="mark-line role-mark layer_0_marks"><path d="M0,277.81065088757396L11.11111111111111,277.3755656108597L22.22222222222222,289.340913128442L33.333333333333336,276.99974444160495L44.44444444444444,277.8372887616585L55.55555555555555,276.3798126131801L66.66666666666667,278.0394070639907L77.77777777777779,283.0124575311438L88.88888888888889,287.1630295250321L100,288.27838827838826L111.1111111111111,289.4992587712074L122.22222222222221,285.0944902848017L133.33333333333334,287.54041947254444L144.44444444444443,285.63080754861573L155.55555555555557,286.7330435661579L166.66666666666666,285.2990934440957L177.77777777777777,285.57897151846873L188.88888888888889,284.2241433709851L200,283.64433106342705L211.11111111111111,283.41336555099366L222.2222222222222,282.14551406040766L233.33333333333334,280.64459368309923L244.44444444444443,280.911430967829L255.55555555555554,279.4516638444415L266.6666666666667,278.7947901155448L277.77777777777777,278.98531774199574L288.88888888888886,277.53328402366867L300,276.95873602209036L311.11111111111114,275.4816112084063L322.22222222222223,274.9279846367225L333.3333333333333,273.24870833224054L344.44444444444446,271.41459143467847L355.55555555555554,271.41459143467847L366.66666666666663,269.3567470484589L377.77777777777777,268.17672860137566L388.8888888888889,267.2862577310148L400,265.6269576972535L411.1111111111111,264.93904913402696L422.22222222222223,263.3967201534769L433.33333333333337,262.2590430995358L444.4444444444444,261.79785879356695L455.55555555555554,261.48789008099214L466.6666666666667,260.90617481956696L477.7777777777778,260.0935736892803" style="fill: none; stroke: #33a02c; stroke-width: 1;"></path></g></g><path class="foreground" d="" style="display: none; fill: none;"></path></g><g transform="translate(0,0)"><path class="background" d="M0,0h500v300h-500Z" style="fill: none;"></path><g><g class="mark-line role-mark layer_0_marks"><path d="M0,300L11.11111111111111,286.013986013986L22.22222222222222,279.2099792099792L33.333333333333336,273.26997326997326L44.44444444444444,271.15384615384613L55.55555555555555,253.84615384615384L66.66666666666667,241.7076237284261L77.77777777777779,239.78062943580184L88.88888888888889,252.3485364193329L100,245.27211918516264L111.1111111111111,244.25863991081383L122.22222222222221,241.33733239237827L133.33333333333334,229.58848380535127L144.44444444444443,214.47511196164697L155.55555555555557,220.61649876978785L166.66666666666666,195.30132788559754L177.77777777777777,196.64325609688657L188.88888888888889,193.3705608537207L200,182.07138280631665L211.11111111111111,174.94770540407805L222.2222222222222,157.85488149225634L233.33333333333334,148.21616225304751L244.44444444444443,137.53290710793533L255.55555555555554,130.0281965837858L266.6666666666667,125.68309066076692L277.77777777777777,119.58150493885975L288.88888888888886,111.50248672608203L300,104.02907540593222L311.11111111111114,97.55612071770152L322.22222222222223,96.3751374299418L333.3333333333333,91.94464269091135L344.44444444444446,86.90938294739661L355.55555555555554,83.20675121822782" style="fill: none; stroke: #fb9a99; stroke-width: 1;"></path></g></g><path class="foreground" d="" style="display: none; fill: none;"></path></g><g transform="translate(0,0)"><path class="background" d="M0,0h500v300h-500Z" style="fill: none;"></path><g><g class="mark-line role-mark layer_0_marks"><path d="M0,163.10299869621903L11.11111111111111,129.6334537945276L22.22222222222222,172.38567883729175L33.333333333333336,176.68819729888435L44.44444444444444,202.4110218140069L55.55555555555555,206.44490644490645L66.66666666666667,212.91727140783746L77.77777777777779,232.6221224031443L88.88888888888889,235.14682039272205L100,244.49326980896433L111.1111111111111,250.2241677551453L122.22222222222221,254.3031226199543L133.33333333333334,258.4496669378064L144.44444444444443,257.6524511757672L155.55555555555557,261.1850538497478L166.66666666666666,265.0125025944119L177.77777777777777,266.2544080179527L188.88888888888889,270.5195328231977L200,272.2052046584198L211.11111111111111,271.08102859996114L222.2222222222222,270.6847762587038L233.33333333333334,269.6830895193381L244.44444444444443,266.9517748510725L255.55555555555554,266.7207404933441L266.6666666666667,264.1100805801712L277.77777777777777,261.51249925595897L288.88888888888886,259.59089673156365L300,257.52774792000537L311.11111111111114,252.50253859398686L322.22222222222223,248.55139236782563L333.3333333333333,243.82741385242898L344.44444444444446,240.65512985196858" style="fill: none; stroke: #e31a1c; stroke-width: 1;"></path></g></g><path class="foreground" d="" style="display: none; fill: none;"></path></g><g transform="translate(0,0)"><path class="background" d="M0,0h500v300h-500Z" style="fill: none;"></path><g><g class="mark-line role-mark layer_0_marks"><path d="M0,280.106100795756L11.11111111111111,271.8574108818011L22.22222222222222,277.70345596432554L33.333333333333336,274.7332959011791L44.44444444444444,271.3330148112757L55.55555555555555,263.9423076923077L66.66666666666667,259.77878330819505L77.77777777777779,259.77878330819505L88.88888888888889,276.98062535967773L100,257.63851533082305L111.1111111111111,257.67551226066513L122.22222222222221,216.67906561523583L133.33333333333334,234.06593406593407L144.44444444444443,237.11058056251093L155.55555555555557,182.74611985952194L166.66666666666666,197.66586179142234L177.77777777777777,193.42806394316165L188.88888888888889,186.72424181562565L200,184.71831469155288L211.11111111111111,180.43191497380622L222.2222222222222,188.4455793169486L233.33333333333334,186.68629034358804L244.44444444444443,180.89834885358792L255.55555555555554,163.9005403099673L266.6666666666667,156.38173757486194L277.77777777777777,154.97911877460265L288.88888888888886,137.61656498205298L300,117.87273499980684L311.11111111111114,102.40810896591779L322.22222222222223,84.61379402215299" style="fill: none; stroke: #fdbf6f; stroke-width: 1;"></path></g></g><path class="foreground" d="" style="display: none; fill: none;"></path></g></g><g class="mark-symbol role-mark layer_1_marks"><path transform="translate(0,264.4970414201183)" d="M1.5811388300841898,0A1.5811388300841898,1.5811388300841898,0,1,1,-1.5811388300841898,0A1.5811388300841898,1.5811388300841898,0,1,1,1.5811388300841898,0" style="fill: #a6cee3; stroke-width: 2; opacity: 1;"></path><path transform="translate(11.11111111111111,263.75352396294807)" d="M1.5811388300841898,0A1.5811388300841898,1.5811388300841898,0,1,1,-1.5811388300841898,0A1.5811388300841898,1.5811388300841898,0,1,1,1.5811388300841898,0" style="fill: #a6cee3; stroke-width: 2; opacity: 1;"></path><path transform="translate(22.22222222222222,254.75113122171945)" d="M1.5811388300841898,0A1.5811388300841898,1.5811388300841898,0,1,1,-1.5811388300841898,0A1.5811388300841898,1.5811388300841898,0,1,1,1.5811388300841898,0" style="fill: #a6cee3; stroke-width: 2; opacity: 1;"></path><path transform="translate(33.333333333333336,267.94871794871796)" d="M1.5811388300841898,0A1.5811388300841898,1.5811388300841898,0,1,1,-1.5811388300841898,0A1.5811388300841898,1.5811388300841898,0,1,1,1.5811388300841898,0" style="fill: #a6cee3; stroke-width: 2; opacity: 1;"></path><path transform="translate(44.44444444444444,263.56275303643724)" d="M1.5811388300841898,0A1.5811388300841898,1.5811388300841898,0,1,1,-1.5811388300841898,0A1.5811388300841898,1.5811388300841898,0,1,1,1.5811388300841898,0" style="fill: #a6cee3; stroke-width: 2; opacity: 1;"></path><path transform="translate(55.55555555555555,268.33958724202625)" d="M1.5811388300841898,0A1.5811388300841898,1.5811388300841898,0,1,1,-1.5811388300841898,0A1.5811388300841898,1.5811388300841898,0,1,1,1.5811388300841898,0" style="fill: #a6cee3; stroke-width: 2; opacity: 1;"></path><path transform="translate(66.66666666666667,273.53011951552094)" d="M1.5811388300841898,0A1.5811388300841898,1.5811388300841898,0,1,1,-1.5811388300841898,0A1.5811388300841898,1.5811388300841898,0,1,1,1.5811388300841898,0" style="fill: #a6cee3; stroke-width: 2; opacity: 1;"></path><path transform="translate(77.77777777777779,261.4030335861322)" d="M1.5811388300841898,0A1.5811388300841898,1.5811388300841898,0,1,1,-1.5811388300841898,0A1.5811388300841898,1.5811388300841898,0,1,1,1.5811388300841898,0" style="fill: #a6cee3; stroke-width: 2; opacity: 1;"></path><path transform="translate(88.88888888888889,264.0310468858459)" d="M1.5811388300841898,0A1.5811388300841898,1.5811388300841898,0,1,1,-1.5811388300841898,0A1.5811388300841898,1.5811388300841898,0,1,1,1.5811388300841898,0" style="fill: #a6cee3; stroke-width: 2; opacity: 1;"></path><path transform="translate(100,257.55081039361977)" d="M1.5811388300841898,0A1.5811388300841898,1.5811388300841898,0,1,1,-1.5811388300841898,0A1.5811388300841898,1.5811388300841898,0,1,1,1.5811388300841898,0" style="fill: #a6cee3; stroke-width: 2; opacity: 1;"></path><path transform="translate(111.1111111111111,251.69244187996915)" d="M1.5811388300841898,0A1.5811388300841898,1.5811388300841898,0,1,1,-1.5811388300841898,0A1.5811388300841898,1.5811388300841898,0,1,1,1.5811388300841898,0" style="fill: #a6cee3; stroke-width: 2; opacity: 1;"></path><path transform="translate(122.22222222222221,251.69244187996915)" d="M1.5811388300841898,0A1.5811388300841898,1.5811388300841898,0,1,1,-1.5811388300841898,0A1.5811388300841898,1.5811388300841898,0,1,1,1.5811388300841898,0" style="fill: #a6cee3; stroke-width: 2; opacity: 1;"></path><path transform="translate(133.33333333333334,250.47332455645412)" d="M1.5811388300841898,0A1.5811388300841898,1.5811388300841898,0,1,1,-1.5811388300841898,0A1.5811388300841898,1.5811388300841898,0,1,1,1.5811388300841898,0" style="fill: #a6cee3; stroke-width: 2; opacity: 1;"></path><path transform="translate(144.44444444444443,253.2918149466192)" d="M1.5811388300841898,0A1.5811388300841898,1.5811388300841898,0,1,1,-1.5811388300841898,0A1.5811388300841898,1.5811388300841898,0,1,1,1.5811388300841898,0" style="fill: #a6cee3; stroke-width: 2; opacity: 1;"></path><path transform="translate(155.55555555555557,253.66284201235655)" d="M1.5811388300841898,0A1.5811388300841898,1.5811388300841898,0,1,1,-1.5811388300841898,0A1.5811388300841898,1.5811388300841898,0,1,1,1.5811388300841898,0" style="fill: #a6cee3; stroke-width: 2; opacity: 1;"></path><path transform="translate(166.66666666666666,248.54913155077753)" d="M1.5811388300841898,0A1.5811388300841898,1.5811388300841898,0,1,1,-1.5811388300841898,0A1.5811388300841898,1.5811388300841898,0,1,1,1.5811388300841898,0" style="fill: #a6cee3; stroke-width: 2; opacity: 1;"></path><path transform="translate(177.77777777777777,255.43147714242983)" d="M1.5811388300841898,0A1.5811388300841898,1.5811388300841898,0,1,1,-1.5811388300841898,0A1.5811388300841898,1.5811388300841898,0,1,1,1.5811388300841898,0" style="fill: #a6cee3; stroke-width: 2; opacity: 1;"></path><path transform="translate(188.88888888888889,262.31409975381916)" d="M1.5811388300841898,0A1.5811388300841898,1.5811388300841898,0,1,1,-1.5811388300841898,0A1.5811388300841898,1.5811388300841898,0,1,1,1.5811388300841898,0" style="fill: #a6cee3; stroke-width: 2; opacity: 1;"></path><path transform="translate(200,248.67120117803802)" d="M1.5811388300841898,0A1.5811388300841898,1.5811388300841898,0,1,1,-1.5811388300841898,0A1.5811388300841898,1.5811388300841898,0,1,1,1.5811388300841898,0" style="fill: #a6cee3; stroke-width: 2; opacity: 1;"></path><path transform="translate(211.11111111111111,218.4222267777684)" d="M1.5811388300841898,0A1.5811388300841898,1.5811388300841898,0,1,1,-1.5811388300841898,0A1.5811388300841898,1.5811388300841898,0,1,1,1.5811388300841898,0" style="fill: #a6cee3; stroke-width: 2; opacity: 1;"></path><path transform="translate(222.2222222222222,210.1686531680309)" d="M1.5811388300841898,0A1.5811388300841898,1.5811388300841898,0,1,1,-1.5811388300841898,0A1.5811388300841898,1.5811388300841898,0,1,1,1.5811388300841898,0" style="fill: #a6cee3; stroke-width: 2; opacity: 1;"></path><path transform="translate(233.33333333333334,203.95862833220463)" d="M1.5811388300841898,0A1.5811388300841898,1.5811388300841898,0,1,1,-1.5811388300841898,0A1.5811388300841898,1.5811388300841898,0,1,1,1.5811388300841898,0" style="fill: #a6cee3; stroke-width: 2; opacity: 1;"></path><path transform="translate(244.44444444444443,201.1464111101342)" d="M1.5811388300841898,0A1.5811388300841898,1.5811388300841898,0,1,1,-1.5811388300841898,0A1.5811388300841898,1.5811388300841898,0,1,1,1.5811388300841898,0" style="fill: #a6cee3; stroke-width: 2; opacity: 1;"></path><path transform="translate(255.55555555555554,187.58390402807342)" d="M1.5811388300841898,0A1.5811388300841898,1.5811388300841898,0,1,1,-1.5811388300841898,0A1.5811388300841898,1.5811388300841898,0,1,1,1.5811388300841898,0" style="fill: #a6cee3; stroke-width: 2; opacity: 1;"></path><path transform="translate(266.6666666666667,179.8377403846154)" d="M1.5811388300841898,0A1.5811388300841898,1.5811388300841898,0,1,1,-1.5811388300841898,0A1.5811388300841898,1.5811388300841898,0,1,1,1.5811388300841898,0" style="fill: #a6cee3; stroke-width: 2; opacity: 1;"></path><path transform="translate(277.77777777777777,167.40003592225176)" d="M1.5811388300841898,0A1.5811388300841898,1.5811388300841898,0,1,1,-1.5811388300841898,0A1.5811388300841898,1.5811388300841898,0,1,1,1.5811388300841898,0" style="fill: #a6cee3; stroke-width: 2; opacity: 1;"></path><path transform="translate(288.88888888888886,162.03037128131433)" d="M1.5811388300841898,0A1.5811388300841898,1.5811388300841898,0,1,1,-1.5811388300841898,0A1.5811388300841898,1.5811388300841898,0,1,1,1.5811388300841898,0" style="fill: #a6cee3; stroke-width: 2; opacity: 1;"></path><path transform="translate(300,159.6792264289968)" d="M1.5811388300841898,0A1.5811388300841898,1.5811388300841898,0,1,1,-1.5811388300841898,0A1.5811388300841898,1.5811388300841898,0,1,1,1.5811388300841898,0" style="fill: #a6cee3; stroke-width: 2; opacity: 1;"></path><path transform="translate(311.11111111111114,151.98524576533814)" d="M1.5811388300841898,0A1.5811388300841898,1.5811388300841898,0,1,1,-1.5811388300841898,0A1.5811388300841898,1.5811388300841898,0,1,1,1.5811388300841898,0" style="fill: #a6cee3; stroke-width: 2; opacity: 1;"></path><path transform="translate(322.22222222222223,145.20018392057358)" d="M1.5811388300841898,0A1.5811388300841898,1.5811388300841898,0,1,1,-1.5811388300841898,0A1.5811388300841898,1.5811388300841898,0,1,1,1.5811388300841898,0" style="fill: #a6cee3; stroke-width: 2; opacity: 1;"></path><path transform="translate(333.3333333333333,145.70826980958162)" d="M1.5811388300841898,0A1.5811388300841898,1.5811388300841898,0,1,1,-1.5811388300841898,0A1.5811388300841898,1.5811388300841898,0,1,1,1.5811388300841898,0" style="fill: #a6cee3; stroke-width: 2; opacity: 1;"></path><path transform="translate(344.44444444444446,138.43876084434362)" d="M1.5811388300841898,0A1.5811388300841898,1.5811388300841898,0,1,1,-1.5811388300841898,0A1.5811388300841898,1.5811388300841898,0,1,1,1.5811388300841898,0" style="fill: #a6cee3; stroke-width: 2; opacity: 1;"></path><path transform="translate(355.55555555555554,92.13864611585248)" d="M1.5811388300841898,0A1.5811388300841898,1.5811388300841898,0,1,1,-1.5811388300841898,0A1.5811388300841898,1.5811388300841898,0,1,1,1.5811388300841898,0" style="fill: #a6cee3; stroke-width: 2; opacity: 1;"></path><path transform="translate(366.66666666666663,69.23784782439427)" d="M1.5811388300841898,0A1.5811388300841898,1.5811388300841898,0,1,1,-1.5811388300841898,0A1.5811388300841898,1.5811388300841898,0,1,1,1.5811388300841898,0" style="fill: #a6cee3; stroke-width: 2; opacity: 1;"></path><path transform="translate(0,300)" d="M1.5811388300841898,0A1.5811388300841898,1.5811388300841898,0,1,1,-1.5811388300841898,0A1.5811388300841898,1.5811388300841898,0,1,1,1.5811388300841898,0" style="fill: #1f78b4; stroke-width: 2; opacity: 1;"></path><path transform="translate(11.11111111111111,300)" d="M1.5811388300841898,0A1.5811388300841898,1.5811388300841898,0,1,1,-1.5811388300841898,0A1.5811388300841898,1.5811388300841898,0,1,1,1.5811388300841898,0" style="fill: #1f78b4; stroke-width: 2; opacity: 1;"></path><path transform="translate(22.22222222222222,300)" d="M1.5811388300841898,0A1.5811388300841898,1.5811388300841898,0,1,1,-1.5811388300841898,0A1.5811388300841898,1.5811388300841898,0,1,1,1.5811388300841898,0" style="fill: #1f78b4; stroke-width: 2; opacity: 1;"></path><path transform="translate(33.333333333333336,300)" d="M1.5811388300841898,0A1.5811388300841898,1.5811388300841898,0,1,1,-1.5811388300841898,0A1.5811388300841898,1.5811388300841898,0,1,1,1.5811388300841898,0" style="fill: #1f78b4; stroke-width: 2; opacity: 1;"></path><path transform="translate(44.44444444444444,300)" d="M1.5811388300841898,0A1.5811388300841898,1.5811388300841898,0,1,1,-1.5811388300841898,0A1.5811388300841898,1.5811388300841898,0,1,1,1.5811388300841898,0" style="fill: #1f78b4; stroke-width: 2; opacity: 1;"></path><path transform="translate(55.55555555555555,300)" d="M1.5811388300841898,0A1.5811388300841898,1.5811388300841898,0,1,1,-1.5811388300841898,0A1.5811388300841898,1.5811388300841898,0,1,1,1.5811388300841898,0" style="fill: #1f78b4; stroke-width: 2; opacity: 1;"></path><path transform="translate(66.66666666666667,300)" d="M1.5811388300841898,0A1.5811388300841898,1.5811388300841898,0,1,1,-1.5811388300841898,0A1.5811388300841898,1.5811388300841898,0,1,1,1.5811388300841898,0" style="fill: #1f78b4; stroke-width: 2; opacity: 1;"></path><path transform="translate(77.77777777777779,300)" d="M1.5811388300841898,0A1.5811388300841898,1.5811388300841898,0,1,1,-1.5811388300841898,0A1.5811388300841898,1.5811388300841898,0,1,1,1.5811388300841898,0" style="fill: #1f78b4; stroke-width: 2; opacity: 1;"></path><path transform="translate(88.88888888888889,296.07535321821035)" d="M1.5811388300841898,0A1.5811388300841898,1.5811388300841898,0,1,1,-1.5811388300841898,0A1.5811388300841898,1.5811388300841898,0,1,1,1.5811388300841898,0" style="fill: #1f78b4; stroke-width: 2; opacity: 1;"></path><path transform="translate(100,296.83226862362073)" d="M1.5811388300841898,0A1.5811388300841898,1.5811388300841898,0,1,1,-1.5811388300841898,0A1.5811388300841898,1.5811388300841898,0,1,1,1.5811388300841898,0" style="fill: #1f78b4; stroke-width: 2; opacity: 1;"></path><path transform="translate(111.1111111111111,296.37155297532655)" d="M1.5811388300841898,0A1.5811388300841898,1.5811388300841898,0,1,1,-1.5811388300841898,0A1.5811388300841898,1.5811388300841898,0,1,1,1.5811388300841898,0" style="fill: #1f78b4; stroke-width: 2; opacity: 1;"></path><path transform="translate(122.22222222222221,296.668394165988)" d="M1.5811388300841898,0A1.5811388300841898,1.5811388300841898,0,1,1,-1.5811388300841898,0A1.5811388300841898,1.5811388300841898,0,1,1,1.5811388300841898,0" style="fill: #1f78b4; stroke-width: 2; opacity: 1;"></path><path transform="translate(133.33333333333334,295.6043956043956)" d="M1.5811388300841898,0A1.5811388300841898,1.5811388300841898,0,1,1,-1.5811388300841898,0A1.5811388300841898,1.5811388300841898,0,1,1,1.5811388300841898,0" style="fill: #1f78b4; stroke-width: 2; opacity: 1;"></path><path transform="translate(144.44444444444443,295.4701786762855)" d="M1.5811388300841898,0A1.5811388300841898,1.5811388300841898,0,1,1,-1.5811388300841898,0A1.5811388300841898,1.5811388300841898,0,1,1,1.5811388300841898,0" style="fill: #1f78b4; stroke-width: 2; opacity: 1;"></path><path transform="translate(155.55555555555557,295.61956593880666)" d="M1.5811388300841898,0A1.5811388300841898,1.5811388300841898,0,1,1,-1.5811388300841898,0A1.5811388300841898,1.5811388300841898,0,1,1,1.5811388300841898,0" style="fill: #1f78b4; stroke-width: 2; opacity: 1;"></path><path transform="translate(166.66666666666666,294.6052297537446)" d="M1.5811388300841898,0A1.5811388300841898,1.5811388300841898,0,1,1,-1.5811388300841898,0A1.5811388300841898,1.5811388300841898,0,1,1,1.5811388300841898,0" style="fill: #1f78b4; stroke-width: 2; opacity: 1;"></path><path transform="translate(177.77777777777777,294.01700168687313)" d="M1.5811388300841898,0A1.5811388300841898,1.5811388300841898,0,1,1,-1.5811388300841898,0A1.5811388300841898,1.5811388300841898,0,1,1,1.5811388300841898,0" style="fill: #1f78b4; stroke-width: 2; opacity: 1;"></path><path transform="translate(188.88888888888889,294.75822303760975)" d="M1.5811388300841898,0A1.5811388300841898,1.5811388300841898,0,1,1,-1.5811388300841898,0A1.5811388300841898,1.5811388300841898,0,1,1,1.5811388300841898,0" style="fill: #1f78b4; stroke-width: 2; opacity: 1;"></path><path transform="translate(200,293.3721630849568)" d="M1.5811388300841898,0A1.5811388300841898,1.5811388300841898,0,1,1,-1.5811388300841898,0A1.5811388300841898,1.5811388300841898,0,1,1,1.5811388300841898,0" style="fill: #1f78b4; stroke-width: 2; opacity: 1;"></path><path transform="translate(211.11111111111111,292.21002697423495)" d="M1.5811388300841898,0A1.5811388300841898,1.5811388300841898,0,1,1,-1.5811388300841898,0A1.5811388300841898,1.5811388300841898,0,1,1,1.5811388300841898,0" style="fill: #1f78b4; stroke-width: 2; opacity: 1;"></path><path transform="translate(222.2222222222222,291.2733014970444)" d="M1.5811388300841898,0A1.5811388300841898,1.5811388300841898,0,1,1,-1.5811388300841898,0A1.5811388300841898,1.5811388300841898,0,1,1,1.5811388300841898,0" style="fill: #1f78b4; stroke-width: 2; opacity: 1;"></path><path transform="translate(233.33333333333334,291.27877309037603)" d="M1.5811388300841898,0A1.5811388300841898,1.5811388300841898,0,1,1,-1.5811388300841898,0A1.5811388300841898,1.5811388300841898,0,1,1,1.5811388300841898,0" style="fill: #1f78b4; stroke-width: 2; opacity: 1;"></path><path transform="translate(244.44444444444443,290.23106574042697)" d="M1.5811388300841898,0A1.5811388300841898,1.5811388300841898,0,1,1,-1.5811388300841898,0A1.5811388300841898,1.5811388300841898,0,1,1,1.5811388300841898,0" style="fill: #1f78b4; stroke-width: 2; opacity: 1;"></path><path transform="translate(255.55555555555554,289.01631927764225)" d="M1.5811388300841898,0A1.5811388300841898,1.5811388300841898,0,1,1,-1.5811388300841898,0A1.5811388300841898,1.5811388300841898,0,1,1,1.5811388300841898,0" style="fill: #1f78b4; stroke-width: 2; opacity: 1;"></path><path transform="translate(266.6666666666667,287.26295808523923)" d="M1.5811388300841898,0A1.5811388300841898,1.5811388300841898,0,1,1,-1.5811388300841898,0A1.5811388300841898,1.5811388300841898,0,1,1,1.5811388300841898,0" style="fill: #1f78b4; stroke-width: 2; opacity: 1;"></path><path transform="translate(277.77777777777777,285.9767434531875)" d="M1.5811388300841898,0A1.5811388300841898,1.5811388300841898,0,1,1,-1.5811388300841898,0A1.5811388300841898,1.5811388300841898,0,1,1,1.5811388300841898,0" style="fill: #1f78b4; stroke-width: 2; opacity: 1;"></path><path transform="translate(288.88888888888886,284.4856446849724)" d="M1.5811388300841898,0A1.5811388300841898,1.5811388300841898,0,1,1,-1.5811388300841898,0A1.5811388300841898,1.5811388300841898,0,1,1,1.5811388300841898,0" style="fill: #1f78b4; stroke-width: 2; opacity: 1;"></path><path transform="translate(300,282.68080822894933)" d="M1.5811388300841898,0A1.5811388300841898,1.5811388300841898,0,1,1,-1.5811388300841898,0A1.5811388300841898,1.5811388300841898,0,1,1,1.5811388300841898,0" style="fill: #1f78b4; stroke-width: 2; opacity: 1;"></path><path transform="translate(311.11111111111114,280.1916418391175)" d="M1.5811388300841898,0A1.5811388300841898,1.5811388300841898,0,1,1,-1.5811388300841898,0A1.5811388300841898,1.5811388300841898,0,1,1,1.5811388300841898,0" style="fill: #1f78b4; stroke-width: 2; opacity: 1;"></path><path transform="translate(322.22222222222223,277.74595890765437)" d="M1.5811388300841898,0A1.5811388300841898,1.5811388300841898,0,1,1,-1.5811388300841898,0A1.5811388300841898,1.5811388300841898,0,1,1,1.5811388300841898,0" style="fill: #1f78b4; stroke-width: 2; opacity: 1;"></path><path transform="translate(333.3333333333333,275.0938399835459)" d="M1.5811388300841898,0A1.5811388300841898,1.5811388300841898,0,1,1,-1.5811388300841898,0A1.5811388300841898,1.5811388300841898,0,1,1,1.5811388300841898,0" style="fill: #1f78b4; stroke-width: 2; opacity: 1;"></path><path transform="translate(344.44444444444446,272.73632469851907)" d="M1.5811388300841898,0A1.5811388300841898,1.5811388300841898,0,1,1,-1.5811388300841898,0A1.5811388300841898,1.5811388300841898,0,1,1,1.5811388300841898,0" style="fill: #1f78b4; stroke-width: 2; opacity: 1;"></path><path transform="translate(355.55555555555554,269.872686928139)" d="M1.5811388300841898,0A1.5811388300841898,1.5811388300841898,0,1,1,-1.5811388300841898,0A1.5811388300841898,1.5811388300841898,0,1,1,1.5811388300841898,0" style="fill: #1f78b4; stroke-width: 2; opacity: 1;"></path><path transform="translate(366.66666666666663,267.7233439122008)" d="M1.5811388300841898,0A1.5811388300841898,1.5811388300841898,0,1,1,-1.5811388300841898,0A1.5811388300841898,1.5811388300841898,0,1,1,1.5811388300841898,0" style="fill: #1f78b4; stroke-width: 2; opacity: 1;"></path><path transform="translate(0,255.33498759305212)" d="M1.5811388300841898,0A1.5811388300841898,1.5811388300841898,0,1,1,-1.5811388300841898,0A1.5811388300841898,1.5811388300841898,0,1,1,1.5811388300841898,0" style="fill: #b2df8a; stroke-width: 2; opacity: 1;"></path><path transform="translate(11.11111111111111,229.4591871011085)" d="M1.5811388300841898,0A1.5811388300841898,1.5811388300841898,0,1,1,-1.5811388300841898,0A1.5811388300841898,1.5811388300841898,0,1,1,1.5811388300841898,0" style="fill: #b2df8a; stroke-width: 2; opacity: 1;"></path><path transform="translate(22.22222222222222,228.3325370281892)" d="M1.5811388300841898,0A1.5811388300841898,1.5811388300841898,0,1,1,-1.5811388300841898,0A1.5811388300841898,1.5811388300841898,0,1,1,1.5811388300841898,0" style="fill: #b2df8a; stroke-width: 2; opacity: 1;"></path><path transform="translate(33.333333333333336,238.86907794192564)" d="M1.5811388300841898,0A1.5811388300841898,1.5811388300841898,0,1,1,-1.5811388300841898,0A1.5811388300841898,1.5811388300841898,0,1,1,1.5811388300841898,0" style="fill: #b2df8a; stroke-width: 2; opacity: 1;"></path><path transform="translate(44.44444444444444,240.10569583088667)" d="M1.5811388300841898,0A1.5811388300841898,1.5811388300841898,0,1,1,-1.5811388300841898,0A1.5811388300841898,1.5811388300841898,0,1,1,1.5811388300841898,0" style="fill: #b2df8a; stroke-width: 2; opacity: 1;"></path><path transform="translate(55.55555555555555,245.42619542619542)" d="M1.5811388300841898,0A1.5811388300841898,1.5811388300841898,0,1,1,-1.5811388300841898,0A1.5811388300841898,1.5811388300841898,0,1,1,1.5811388300841898,0" style="fill: #b2df8a; stroke-width: 2; opacity: 1;"></path><path transform="translate(66.66666666666667,240.671031096563)" d="M1.5811388300841898,0A1.5811388300841898,1.5811388300841898,0,1,1,-1.5811388300841898,0A1.5811388300841898,1.5811388300841898,0,1,1,1.5811388300841898,0" style="fill: #b2df8a; stroke-width: 2; opacity: 1;"></path><path transform="translate(77.77777777777779,253.68268095540824)" d="M1.5811388300841898,0A1.5811388300841898,1.5811388300841898,0,1,1,-1.5811388300841898,0A1.5811388300841898,1.5811388300841898,0,1,1,1.5811388300841898,0" style="fill: #b2df8a; stroke-width: 2; opacity: 1;"></path><path transform="translate(88.88888888888889,241.0609037328094)" d="M1.5811388300841898,0A1.5811388300841898,1.5811388300841898,0,1,1,-1.5811388300841898,0A1.5811388300841898,1.5811388300841898,0,1,1,1.5811388300841898,0" style="fill: #b2df8a; stroke-width: 2; opacity: 1;"></path><path transform="translate(100,227.13521490499906)" d="M1.5811388300841898,0A1.5811388300841898,1.5811388300841898,0,1,1,-1.5811388300841898,0A1.5811388300841898,1.5811388300841898,0,1,1,1.5811388300841898,0" style="fill: #b2df8a; stroke-width: 2; opacity: 1;"></path><path transform="translate(111.1111111111111,220.06374978210522)" d="M1.5811388300841898,0A1.5811388300841898,1.5811388300841898,0,1,1,-1.5811388300841898,0A1.5811388300841898,1.5811388300841898,0,1,1,1.5811388300841898,0" style="fill: #b2df8a; stroke-width: 2; opacity: 1;"></path><path transform="translate(122.22222222222221,211.4726641942816)" d="M1.5811388300841898,0A1.5811388300841898,1.5811388300841898,0,1,1,-1.5811388300841898,0A1.5811388300841898,1.5811388300841898,0,1,1,1.5811388300841898,0" style="fill: #b2df8a; stroke-width: 2; opacity: 1;"></path><path transform="translate(133.33333333333334,201.9380102210128)" d="M1.5811388300841898,0A1.5811388300841898,1.5811388300841898,0,1,1,-1.5811388300841898,0A1.5811388300841898,1.5811388300841898,0,1,1,1.5811388300841898,0" style="fill: #b2df8a; stroke-width: 2; opacity: 1;"></path><path transform="translate(144.44444444444443,208.6023614325501)" d="M1.5811388300841898,0A1.5811388300841898,1.5811388300841898,0,1,1,-1.5811388300841898,0A1.5811388300841898,1.5811388300841898,0,1,1,1.5811388300841898,0" style="fill: #b2df8a; stroke-width: 2; opacity: 1;"></path><path transform="translate(155.55555555555557,185.47588005215124)" d="M1.5811388300841898,0A1.5811388300841898,1.5811388300841898,0,1,1,-1.5811388300841898,0A1.5811388300841898,1.5811388300841898,0,1,1,1.5811388300841898,0" style="fill: #b2df8a; stroke-width: 2; opacity: 1;"></path><path transform="translate(166.66666666666666,183.50833640846724)" d="M1.5811388300841898,0A1.5811388300841898,1.5811388300841898,0,1,1,-1.5811388300841898,0A1.5811388300841898,1.5811388300841898,0,1,1,1.5811388300841898,0" style="fill: #b2df8a; stroke-width: 2; opacity: 1;"></path><path transform="translate(177.77777777777777,156.52243116032653)" d="M1.5811388300841898,0A1.5811388300841898,1.5811388300841898,0,1,1,-1.5811388300841898,0A1.5811388300841898,1.5811388300841898,0,1,1,1.5811388300841898,0" style="fill: #b2df8a; stroke-width: 2; opacity: 1;"></path><path transform="translate(188.88888888888889,146.85752379541498)" d="M1.5811388300841898,0A1.5811388300841898,1.5811388300841898,0,1,1,-1.5811388300841898,0A1.5811388300841898,1.5811388300841898,0,1,1,1.5811388300841898,0" style="fill: #b2df8a; stroke-width: 2; opacity: 1;"></path><path transform="translate(200,146.85752379541498)" d="M1.5811388300841898,0A1.5811388300841898,1.5811388300841898,0,1,1,-1.5811388300841898,0A1.5811388300841898,1.5811388300841898,0,1,1,1.5811388300841898,0" style="fill: #b2df8a; stroke-width: 2; opacity: 1;"></path><path transform="translate(211.11111111111111,134.5674710340622)" d="M1.5811388300841898,0A1.5811388300841898,1.5811388300841898,0,1,1,-1.5811388300841898,0A1.5811388300841898,1.5811388300841898,0,1,1,1.5811388300841898,0" style="fill: #b2df8a; stroke-width: 2; opacity: 1;"></path><path transform="translate(222.2222222222222,142.82343359717277)" d="M1.5811388300841898,0A1.5811388300841898,1.5811388300841898,0,1,1,-1.5811388300841898,0A1.5811388300841898,1.5811388300841898,0,1,1,1.5811388300841898,0" style="fill: #b2df8a; stroke-width: 2; opacity: 1;"></path><path transform="translate(233.33333333333334,131.30822384065203)" d="M1.5811388300841898,0A1.5811388300841898,1.5811388300841898,0,1,1,-1.5811388300841898,0A1.5811388300841898,1.5811388300841898,0,1,1,1.5811388300841898,0" style="fill: #b2df8a; stroke-width: 2; opacity: 1;"></path><path transform="translate(244.44444444444443,122.01572551822731)" d="M1.5811388300841898,0A1.5811388300841898,1.5811388300841898,0,1,1,-1.5811388300841898,0A1.5811388300841898,1.5811388300841898,0,1,1,1.5811388300841898,0" style="fill: #b2df8a; stroke-width: 2; opacity: 1;"></path><path transform="translate(255.55555555555554,116.66495759049556)" d="M1.5811388300841898,0A1.5811388300841898,1.5811388300841898,0,1,1,-1.5811388300841898,0A1.5811388300841898,1.5811388300841898,0,1,1,1.5811388300841898,0" style="fill: #b2df8a; stroke-width: 2; opacity: 1;"></path><path transform="translate(266.6666666666667,107.5684570798395)" d="M1.5811388300841898,0A1.5811388300841898,1.5811388300841898,0,1,1,-1.5811388300841898,0A1.5811388300841898,1.5811388300841898,0,1,1,1.5811388300841898,0" style="fill: #b2df8a; stroke-width: 2; opacity: 1;"></path><path transform="translate(277.77777777777777,108.5124331011988)" d="M1.5811388300841898,0A1.5811388300841898,1.5811388300841898,0,1,1,-1.5811388300841898,0A1.5811388300841898,1.5811388300841898,0,1,1,1.5811388300841898,0" style="fill: #b2df8a; stroke-width: 2; opacity: 1;"></path><path transform="translate(288.88888888888886,102.11787531921091)" d="M1.5811388300841898,0A1.5811388300841898,1.5811388300841898,0,1,1,-1.5811388300841898,0A1.5811388300841898,1.5811388300841898,0,1,1,1.5811388300841898,0" style="fill: #b2df8a; stroke-width: 2; opacity: 1;"></path><path transform="translate(300,92.17933882161739)" d="M1.5811388300841898,0A1.5811388300841898,1.5811388300841898,0,1,1,-1.5811388300841898,0A1.5811388300841898,1.5811388300841898,0,1,1,1.5811388300841898,0" style="fill: #b2df8a; stroke-width: 2; opacity: 1;"></path><path transform="translate(311.11111111111114,86.31466946932468)" d="M1.5811388300841898,0A1.5811388300841898,1.5811388300841898,0,1,1,-1.5811388300841898,0A1.5811388300841898,1.5811388300841898,0,1,1,1.5811388300841898,0" style="fill: #b2df8a; stroke-width: 2; opacity: 1;"></path><path transform="translate(322.22222222222223,80.6271817253093)" d="M1.5811388300841898,0A1.5811388300841898,1.5811388300841898,0,1,1,-1.5811388300841898,0A1.5811388300841898,1.5811388300841898,0,1,1,1.5811388300841898,0" style="fill: #b2df8a; stroke-width: 2; opacity: 1;"></path><path transform="translate(333.3333333333333,72.48667834998353)" d="M1.5811388300841898,0A1.5811388300841898,1.5811388300841898,0,1,1,-1.5811388300841898,0A1.5811388300841898,1.5811388300841898,0,1,1,1.5811388300841898,0" style="fill: #b2df8a; stroke-width: 2; opacity: 1;"></path><path transform="translate(344.44444444444446,67.23287467244664)" d="M1.5811388300841898,0A1.5811388300841898,1.5811388300841898,0,1,1,-1.5811388300841898,0A1.5811388300841898,1.5811388300841898,0,1,1,1.5811388300841898,0" style="fill: #b2df8a; stroke-width: 2; opacity: 1;"></path><path transform="translate(355.55555555555554,64.76079480211558)" d="M1.5811388300841898,0A1.5811388300841898,1.5811388300841898,0,1,1,-1.5811388300841898,0A1.5811388300841898,1.5811388300841898,0,1,1,1.5811388300841898,0" style="fill: #b2df8a; stroke-width: 2; opacity: 1;"></path><path transform="translate(366.66666666666663,56.31272932944651)" d="M1.5811388300841898,0A1.5811388300841898,1.5811388300841898,0,1,1,-1.5811388300841898,0A1.5811388300841898,1.5811388300841898,0,1,1,1.5811388300841898,0" style="fill: #b2df8a; stroke-width: 2; opacity: 1;"></path><path transform="translate(377.77777777777777,49.87023098883986)" d="M1.5811388300841898,0A1.5811388300841898,1.5811388300841898,0,1,1,-1.5811388300841898,0A1.5811388300841898,1.5811388300841898,0,1,1,1.5811388300841898,0" style="fill: #b2df8a; stroke-width: 2; opacity: 1;"></path><path transform="translate(388.8888888888889,45.36933140255932)" d="M1.5811388300841898,0A1.5811388300841898,1.5811388300841898,0,1,1,-1.5811388300841898,0A1.5811388300841898,1.5811388300841898,0,1,1,1.5811388300841898,0" style="fill: #b2df8a; stroke-width: 2; opacity: 1;"></path><path transform="translate(400,37.087434135763665)" d="M1.5811388300841898,0A1.5811388300841898,1.5811388300841898,0,1,1,-1.5811388300841898,0A1.5811388300841898,1.5811388300841898,0,1,1,1.5811388300841898,0" style="fill: #b2df8a; stroke-width: 2; opacity: 1;"></path><path transform="translate(411.1111111111111,28.90199637023594)" d="M1.5811388300841898,0A1.5811388300841898,1.5811388300841898,0,1,1,-1.5811388300841898,0A1.5811388300841898,1.5811388300841898,0,1,1,1.5811388300841898,0" style="fill: #b2df8a; stroke-width: 2; opacity: 1;"></path><path transform="translate(422.22222222222223,25.453611991134384)" d="M1.5811388300841898,0A1.5811388300841898,1.5811388300841898,0,1,1,-1.5811388300841898,0A1.5811388300841898,1.5811388300841898,0,1,1,1.5811388300841898,0" style="fill: #b2df8a; stroke-width: 2; opacity: 1;"></path><path transform="translate(433.33333333333337,21.355595516057846)" d="M1.5811388300841898,0A1.5811388300841898,1.5811388300841898,0,1,1,-1.5811388300841898,0A1.5811388300841898,1.5811388300841898,0,1,1,1.5811388300841898,0" style="fill: #b2df8a; stroke-width: 2; opacity: 1;"></path><path transform="translate(444.4444444444444,17.265467972737625)" d="M1.5811388300841898,0A1.5811388300841898,1.5811388300841898,0,1,1,-1.5811388300841898,0A1.5811388300841898,1.5811388300841898,0,1,1,1.5811388300841898,0" style="fill: #b2df8a; stroke-width: 2; opacity: 1;"></path><path transform="translate(0,277.81065088757396)" d="M1.5811388300841898,0A1.5811388300841898,1.5811388300841898,0,1,1,-1.5811388300841898,0A1.5811388300841898,1.5811388300841898,0,1,1,1.5811388300841898,0" style="fill: #33a02c; stroke-width: 2; opacity: 1;"></path><path transform="translate(11.11111111111111,277.3755656108597)" d="M1.5811388300841898,0A1.5811388300841898,1.5811388300841898,0,1,1,-1.5811388300841898,0A1.5811388300841898,1.5811388300841898,0,1,1,1.5811388300841898,0" style="fill: #33a02c; stroke-width: 2; opacity: 1;"></path><path transform="translate(22.22222222222222,289.340913128442)" d="M1.5811388300841898,0A1.5811388300841898,1.5811388300841898,0,1,1,-1.5811388300841898,0A1.5811388300841898,1.5811388300841898,0,1,1,1.5811388300841898,0" style="fill: #33a02c; stroke-width: 2; opacity: 1;"></path><path transform="translate(33.333333333333336,276.99974444160495)" d="M1.5811388300841898,0A1.5811388300841898,1.5811388300841898,0,1,1,-1.5811388300841898,0A1.5811388300841898,1.5811388300841898,0,1,1,1.5811388300841898,0" style="fill: #33a02c; stroke-width: 2; opacity: 1;"></path><path transform="translate(44.44444444444444,277.8372887616585)" d="M1.5811388300841898,0A1.5811388300841898,1.5811388300841898,0,1,1,-1.5811388300841898,0A1.5811388300841898,1.5811388300841898,0,1,1,1.5811388300841898,0" style="fill: #33a02c; stroke-width: 2; opacity: 1;"></path><path transform="translate(55.55555555555555,276.3798126131801)" d="M1.5811388300841898,0A1.5811388300841898,1.5811388300841898,0,1,1,-1.5811388300841898,0A1.5811388300841898,1.5811388300841898,0,1,1,1.5811388300841898,0" style="fill: #33a02c; stroke-width: 2; opacity: 1;"></path><path transform="translate(66.66666666666667,278.0394070639907)" d="M1.5811388300841898,0A1.5811388300841898,1.5811388300841898,0,1,1,-1.5811388300841898,0A1.5811388300841898,1.5811388300841898,0,1,1,1.5811388300841898,0" style="fill: #33a02c; stroke-width: 2; opacity: 1;"></path><path transform="translate(77.77777777777779,283.0124575311438)" d="M1.5811388300841898,0A1.5811388300841898,1.5811388300841898,0,1,1,-1.5811388300841898,0A1.5811388300841898,1.5811388300841898,0,1,1,1.5811388300841898,0" style="fill: #33a02c; stroke-width: 2; opacity: 1;"></path><path transform="translate(88.88888888888889,287.1630295250321)" d="M1.5811388300841898,0A1.5811388300841898,1.5811388300841898,0,1,1,-1.5811388300841898,0A1.5811388300841898,1.5811388300841898,0,1,1,1.5811388300841898,0" style="fill: #33a02c; stroke-width: 2; opacity: 1;"></path><path transform="translate(100,288.27838827838826)" d="M1.5811388300841898,0A1.5811388300841898,1.5811388300841898,0,1,1,-1.5811388300841898,0A1.5811388300841898,1.5811388300841898,0,1,1,1.5811388300841898,0" style="fill: #33a02c; stroke-width: 2; opacity: 1;"></path><path transform="translate(111.1111111111111,289.4992587712074)" d="M1.5811388300841898,0A1.5811388300841898,1.5811388300841898,0,1,1,-1.5811388300841898,0A1.5811388300841898,1.5811388300841898,0,1,1,1.5811388300841898,0" style="fill: #33a02c; stroke-width: 2; opacity: 1;"></path><path transform="translate(122.22222222222221,285.0944902848017)" d="M1.5811388300841898,0A1.5811388300841898,1.5811388300841898,0,1,1,-1.5811388300841898,0A1.5811388300841898,1.5811388300841898,0,1,1,1.5811388300841898,0" style="fill: #33a02c; stroke-width: 2; opacity: 1;"></path><path transform="translate(133.33333333333334,287.54041947254444)" d="M1.5811388300841898,0A1.5811388300841898,1.5811388300841898,0,1,1,-1.5811388300841898,0A1.5811388300841898,1.5811388300841898,0,1,1,1.5811388300841898,0" style="fill: #33a02c; stroke-width: 2; opacity: 1;"></path><path transform="translate(144.44444444444443,285.63080754861573)" d="M1.5811388300841898,0A1.5811388300841898,1.5811388300841898,0,1,1,-1.5811388300841898,0A1.5811388300841898,1.5811388300841898,0,1,1,1.5811388300841898,0" style="fill: #33a02c; stroke-width: 2; opacity: 1;"></path><path transform="translate(155.55555555555557,286.7330435661579)" d="M1.5811388300841898,0A1.5811388300841898,1.5811388300841898,0,1,1,-1.5811388300841898,0A1.5811388300841898,1.5811388300841898,0,1,1,1.5811388300841898,0" style="fill: #33a02c; stroke-width: 2; opacity: 1;"></path><path transform="translate(166.66666666666666,285.2990934440957)" d="M1.5811388300841898,0A1.5811388300841898,1.5811388300841898,0,1,1,-1.5811388300841898,0A1.5811388300841898,1.5811388300841898,0,1,1,1.5811388300841898,0" style="fill: #33a02c; stroke-width: 2; opacity: 1;"></path><path transform="translate(177.77777777777777,285.57897151846873)" d="M1.5811388300841898,0A1.5811388300841898,1.5811388300841898,0,1,1,-1.5811388300841898,0A1.5811388300841898,1.5811388300841898,0,1,1,1.5811388300841898,0" style="fill: #33a02c; stroke-width: 2; opacity: 1;"></path><path transform="translate(188.88888888888889,284.2241433709851)" d="M1.5811388300841898,0A1.5811388300841898,1.5811388300841898,0,1,1,-1.5811388300841898,0A1.5811388300841898,1.5811388300841898,0,1,1,1.5811388300841898,0" style="fill: #33a02c; stroke-width: 2; opacity: 1;"></path><path transform="translate(200,283.64433106342705)" d="M1.5811388300841898,0A1.5811388300841898,1.5811388300841898,0,1,1,-1.5811388300841898,0A1.5811388300841898,1.5811388300841898,0,1,1,1.5811388300841898,0" style="fill: #33a02c; stroke-width: 2; opacity: 1;"></path><path transform="translate(211.11111111111111,283.41336555099366)" d="M1.5811388300841898,0A1.5811388300841898,1.5811388300841898,0,1,1,-1.5811388300841898,0A1.5811388300841898,1.5811388300841898,0,1,1,1.5811388300841898,0" style="fill: #33a02c; stroke-width: 2; opacity: 1;"></path><path transform="translate(222.2222222222222,282.14551406040766)" d="M1.5811388300841898,0A1.5811388300841898,1.5811388300841898,0,1,1,-1.5811388300841898,0A1.5811388300841898,1.5811388300841898,0,1,1,1.5811388300841898,0" style="fill: #33a02c; stroke-width: 2; opacity: 1;"></path><path transform="translate(233.33333333333334,280.64459368309923)" d="M1.5811388300841898,0A1.5811388300841898,1.5811388300841898,0,1,1,-1.5811388300841898,0A1.5811388300841898,1.5811388300841898,0,1,1,1.5811388300841898,0" style="fill: #33a02c; stroke-width: 2; opacity: 1;"></path><path transform="translate(244.44444444444443,280.911430967829)" d="M1.5811388300841898,0A1.5811388300841898,1.5811388300841898,0,1,1,-1.5811388300841898,0A1.5811388300841898,1.5811388300841898,0,1,1,1.5811388300841898,0" style="fill: #33a02c; stroke-width: 2; opacity: 1;"></path><path transform="translate(255.55555555555554,279.4516638444415)" d="M1.5811388300841898,0A1.5811388300841898,1.5811388300841898,0,1,1,-1.5811388300841898,0A1.5811388300841898,1.5811388300841898,0,1,1,1.5811388300841898,0" style="fill: #33a02c; stroke-width: 2; opacity: 1;"></path><path transform="translate(266.6666666666667,278.7947901155448)" d="M1.5811388300841898,0A1.5811388300841898,1.5811388300841898,0,1,1,-1.5811388300841898,0A1.5811388300841898,1.5811388300841898,0,1,1,1.5811388300841898,0" style="fill: #33a02c; stroke-width: 2; opacity: 1;"></path><path transform="translate(277.77777777777777,278.98531774199574)" d="M1.5811388300841898,0A1.5811388300841898,1.5811388300841898,0,1,1,-1.5811388300841898,0A1.5811388300841898,1.5811388300841898,0,1,1,1.5811388300841898,0" style="fill: #33a02c; stroke-width: 2; opacity: 1;"></path><path transform="translate(288.88888888888886,277.53328402366867)" d="M1.5811388300841898,0A1.5811388300841898,1.5811388300841898,0,1,1,-1.5811388300841898,0A1.5811388300841898,1.5811388300841898,0,1,1,1.5811388300841898,0" style="fill: #33a02c; stroke-width: 2; opacity: 1;"></path><path transform="translate(300,276.95873602209036)" d="M1.5811388300841898,0A1.5811388300841898,1.5811388300841898,0,1,1,-1.5811388300841898,0A1.5811388300841898,1.5811388300841898,0,1,1,1.5811388300841898,0" style="fill: #33a02c; stroke-width: 2; opacity: 1;"></path><path transform="translate(311.11111111111114,275.4816112084063)" d="M1.5811388300841898,0A1.5811388300841898,1.5811388300841898,0,1,1,-1.5811388300841898,0A1.5811388300841898,1.5811388300841898,0,1,1,1.5811388300841898,0" style="fill: #33a02c; stroke-width: 2; opacity: 1;"></path><path transform="translate(322.22222222222223,274.9279846367225)" d="M1.5811388300841898,0A1.5811388300841898,1.5811388300841898,0,1,1,-1.5811388300841898,0A1.5811388300841898,1.5811388300841898,0,1,1,1.5811388300841898,0" style="fill: #33a02c; stroke-width: 2; opacity: 1;"></path><path transform="translate(333.3333333333333,273.24870833224054)" d="M1.5811388300841898,0A1.5811388300841898,1.5811388300841898,0,1,1,-1.5811388300841898,0A1.5811388300841898,1.5811388300841898,0,1,1,1.5811388300841898,0" style="fill: #33a02c; stroke-width: 2; opacity: 1;"></path><path transform="translate(344.44444444444446,271.41459143467847)" d="M1.5811388300841898,0A1.5811388300841898,1.5811388300841898,0,1,1,-1.5811388300841898,0A1.5811388300841898,1.5811388300841898,0,1,1,1.5811388300841898,0" style="fill: #33a02c; stroke-width: 2; opacity: 1;"></path><path transform="translate(355.55555555555554,271.41459143467847)" d="M1.5811388300841898,0A1.5811388300841898,1.5811388300841898,0,1,1,-1.5811388300841898,0A1.5811388300841898,1.5811388300841898,0,1,1,1.5811388300841898,0" style="fill: #33a02c; stroke-width: 2; opacity: 1;"></path><path transform="translate(366.66666666666663,269.3567470484589)" d="M1.5811388300841898,0A1.5811388300841898,1.5811388300841898,0,1,1,-1.5811388300841898,0A1.5811388300841898,1.5811388300841898,0,1,1,1.5811388300841898,0" style="fill: #33a02c; stroke-width: 2; opacity: 1;"></path><path transform="translate(377.77777777777777,268.17672860137566)" d="M1.5811388300841898,0A1.5811388300841898,1.5811388300841898,0,1,1,-1.5811388300841898,0A1.5811388300841898,1.5811388300841898,0,1,1,1.5811388300841898,0" style="fill: #33a02c; stroke-width: 2; opacity: 1;"></path><path transform="translate(388.8888888888889,267.2862577310148)" d="M1.5811388300841898,0A1.5811388300841898,1.5811388300841898,0,1,1,-1.5811388300841898,0A1.5811388300841898,1.5811388300841898,0,1,1,1.5811388300841898,0" style="fill: #33a02c; stroke-width: 2; opacity: 1;"></path><path transform="translate(400,265.6269576972535)" d="M1.5811388300841898,0A1.5811388300841898,1.5811388300841898,0,1,1,-1.5811388300841898,0A1.5811388300841898,1.5811388300841898,0,1,1,1.5811388300841898,0" style="fill: #33a02c; stroke-width: 2; opacity: 1;"></path><path transform="translate(411.1111111111111,264.93904913402696)" d="M1.5811388300841898,0A1.5811388300841898,1.5811388300841898,0,1,1,-1.5811388300841898,0A1.5811388300841898,1.5811388300841898,0,1,1,1.5811388300841898,0" style="fill: #33a02c; stroke-width: 2; opacity: 1;"></path><path transform="translate(422.22222222222223,263.3967201534769)" d="M1.5811388300841898,0A1.5811388300841898,1.5811388300841898,0,1,1,-1.5811388300841898,0A1.5811388300841898,1.5811388300841898,0,1,1,1.5811388300841898,0" style="fill: #33a02c; stroke-width: 2; opacity: 1;"></path><path transform="translate(433.33333333333337,262.2590430995358)" d="M1.5811388300841898,0A1.5811388300841898,1.5811388300841898,0,1,1,-1.5811388300841898,0A1.5811388300841898,1.5811388300841898,0,1,1,1.5811388300841898,0" style="fill: #33a02c; stroke-width: 2; opacity: 1;"></path><path transform="translate(444.4444444444444,261.79785879356695)" d="M1.5811388300841898,0A1.5811388300841898,1.5811388300841898,0,1,1,-1.5811388300841898,0A1.5811388300841898,1.5811388300841898,0,1,1,1.5811388300841898,0" style="fill: #33a02c; stroke-width: 2; opacity: 1;"></path><path transform="translate(455.55555555555554,261.48789008099214)" d="M1.5811388300841898,0A1.5811388300841898,1.5811388300841898,0,1,1,-1.5811388300841898,0A1.5811388300841898,1.5811388300841898,0,1,1,1.5811388300841898,0" style="fill: #33a02c; stroke-width: 2; opacity: 1;"></path><path transform="translate(466.6666666666667,260.90617481956696)" d="M1.5811388300841898,0A1.5811388300841898,1.5811388300841898,0,1,1,-1.5811388300841898,0A1.5811388300841898,1.5811388300841898,0,1,1,1.5811388300841898,0" style="fill: #33a02c; stroke-width: 2; opacity: 1;"></path><path transform="translate(477.7777777777778,260.0935736892803)" d="M1.5811388300841898,0A1.5811388300841898,1.5811388300841898,0,1,1,-1.5811388300841898,0A1.5811388300841898,1.5811388300841898,0,1,1,1.5811388300841898,0" style="fill: #33a02c; stroke-width: 2; opacity: 1;"></path><path transform="translate(0,300)" d="M1.5811388300841898,0A1.5811388300841898,1.5811388300841898,0,1,1,-1.5811388300841898,0A1.5811388300841898,1.5811388300841898,0,1,1,1.5811388300841898,0" style="fill: #fb9a99; stroke-width: 2; opacity: 1;"></path><path transform="translate(11.11111111111111,286.013986013986)" d="M1.5811388300841898,0A1.5811388300841898,1.5811388300841898,0,1,1,-1.5811388300841898,0A1.5811388300841898,1.5811388300841898,0,1,1,1.5811388300841898,0" style="fill: #fb9a99; stroke-width: 2; opacity: 1;"></path><path transform="translate(22.22222222222222,279.2099792099792)" d="M1.5811388300841898,0A1.5811388300841898,1.5811388300841898,0,1,1,-1.5811388300841898,0A1.5811388300841898,1.5811388300841898,0,1,1,1.5811388300841898,0" style="fill: #fb9a99; stroke-width: 2; opacity: 1;"></path><path transform="translate(33.333333333333336,273.26997326997326)" d="M1.5811388300841898,0A1.5811388300841898,1.5811388300841898,0,1,1,-1.5811388300841898,0A1.5811388300841898,1.5811388300841898,0,1,1,1.5811388300841898,0" style="fill: #fb9a99; stroke-width: 2; opacity: 1;"></path><path transform="translate(44.44444444444444,271.15384615384613)" d="M1.5811388300841898,0A1.5811388300841898,1.5811388300841898,0,1,1,-1.5811388300841898,0A1.5811388300841898,1.5811388300841898,0,1,1,1.5811388300841898,0" style="fill: #fb9a99; stroke-width: 2; opacity: 1;"></path><path transform="translate(55.55555555555555,253.84615384615384)" d="M1.5811388300841898,0A1.5811388300841898,1.5811388300841898,0,1,1,-1.5811388300841898,0A1.5811388300841898,1.5811388300841898,0,1,1,1.5811388300841898,0" style="fill: #fb9a99; stroke-width: 2; opacity: 1;"></path><path transform="translate(66.66666666666667,241.7076237284261)" d="M1.5811388300841898,0A1.5811388300841898,1.5811388300841898,0,1,1,-1.5811388300841898,0A1.5811388300841898,1.5811388300841898,0,1,1,1.5811388300841898,0" style="fill: #fb9a99; stroke-width: 2; opacity: 1;"></path><path transform="translate(77.77777777777779,239.78062943580184)" d="M1.5811388300841898,0A1.5811388300841898,1.5811388300841898,0,1,1,-1.5811388300841898,0A1.5811388300841898,1.5811388300841898,0,1,1,1.5811388300841898,0" style="fill: #fb9a99; stroke-width: 2; opacity: 1;"></path><path transform="translate(88.88888888888889,252.3485364193329)" d="M1.5811388300841898,0A1.5811388300841898,1.5811388300841898,0,1,1,-1.5811388300841898,0A1.5811388300841898,1.5811388300841898,0,1,1,1.5811388300841898,0" style="fill: #fb9a99; stroke-width: 2; opacity: 1;"></path><path transform="translate(100,245.27211918516264)" d="M1.5811388300841898,0A1.5811388300841898,1.5811388300841898,0,1,1,-1.5811388300841898,0A1.5811388300841898,1.5811388300841898,0,1,1,1.5811388300841898,0" style="fill: #fb9a99; stroke-width: 2; opacity: 1;"></path><path transform="translate(111.1111111111111,244.25863991081383)" d="M1.5811388300841898,0A1.5811388300841898,1.5811388300841898,0,1,1,-1.5811388300841898,0A1.5811388300841898,1.5811388300841898,0,1,1,1.5811388300841898,0" style="fill: #fb9a99; stroke-width: 2; opacity: 1;"></path><path transform="translate(122.22222222222221,241.33733239237827)" d="M1.5811388300841898,0A1.5811388300841898,1.5811388300841898,0,1,1,-1.5811388300841898,0A1.5811388300841898,1.5811388300841898,0,1,1,1.5811388300841898,0" style="fill: #fb9a99; stroke-width: 2; opacity: 1;"></path><path transform="translate(133.33333333333334,229.58848380535127)" d="M1.5811388300841898,0A1.5811388300841898,1.5811388300841898,0,1,1,-1.5811388300841898,0A1.5811388300841898,1.5811388300841898,0,1,1,1.5811388300841898,0" style="fill: #fb9a99; stroke-width: 2; opacity: 1;"></path><path transform="translate(144.44444444444443,214.47511196164697)" d="M1.5811388300841898,0A1.5811388300841898,1.5811388300841898,0,1,1,-1.5811388300841898,0A1.5811388300841898,1.5811388300841898,0,1,1,1.5811388300841898,0" style="fill: #fb9a99; stroke-width: 2; opacity: 1;"></path><path transform="translate(155.55555555555557,220.61649876978785)" d="M1.5811388300841898,0A1.5811388300841898,1.5811388300841898,0,1,1,-1.5811388300841898,0A1.5811388300841898,1.5811388300841898,0,1,1,1.5811388300841898,0" style="fill: #fb9a99; stroke-width: 2; opacity: 1;"></path><path transform="translate(166.66666666666666,195.30132788559754)" d="M1.5811388300841898,0A1.5811388300841898,1.5811388300841898,0,1,1,-1.5811388300841898,0A1.5811388300841898,1.5811388300841898,0,1,1,1.5811388300841898,0" style="fill: #fb9a99; stroke-width: 2; opacity: 1;"></path><path transform="translate(177.77777777777777,196.64325609688657)" d="M1.5811388300841898,0A1.5811388300841898,1.5811388300841898,0,1,1,-1.5811388300841898,0A1.5811388300841898,1.5811388300841898,0,1,1,1.5811388300841898,0" style="fill: #fb9a99; stroke-width: 2; opacity: 1;"></path><path transform="translate(188.88888888888889,193.3705608537207)" d="M1.5811388300841898,0A1.5811388300841898,1.5811388300841898,0,1,1,-1.5811388300841898,0A1.5811388300841898,1.5811388300841898,0,1,1,1.5811388300841898,0" style="fill: #fb9a99; stroke-width: 2; opacity: 1;"></path><path transform="translate(200,182.07138280631665)" d="M1.5811388300841898,0A1.5811388300841898,1.5811388300841898,0,1,1,-1.5811388300841898,0A1.5811388300841898,1.5811388300841898,0,1,1,1.5811388300841898,0" style="fill: #fb9a99; stroke-width: 2; opacity: 1;"></path><path transform="translate(211.11111111111111,174.94770540407805)" d="M1.5811388300841898,0A1.5811388300841898,1.5811388300841898,0,1,1,-1.5811388300841898,0A1.5811388300841898,1.5811388300841898,0,1,1,1.5811388300841898,0" style="fill: #fb9a99; stroke-width: 2; opacity: 1;"></path><path transform="translate(222.2222222222222,157.85488149225634)" d="M1.5811388300841898,0A1.5811388300841898,1.5811388300841898,0,1,1,-1.5811388300841898,0A1.5811388300841898,1.5811388300841898,0,1,1,1.5811388300841898,0" style="fill: #fb9a99; stroke-width: 2; opacity: 1;"></path><path transform="translate(233.33333333333334,148.21616225304751)" d="M1.5811388300841898,0A1.5811388300841898,1.5811388300841898,0,1,1,-1.5811388300841898,0A1.5811388300841898,1.5811388300841898,0,1,1,1.5811388300841898,0" style="fill: #fb9a99; stroke-width: 2; opacity: 1;"></path><path transform="translate(244.44444444444443,137.53290710793533)" d="M1.5811388300841898,0A1.5811388300841898,1.5811388300841898,0,1,1,-1.5811388300841898,0A1.5811388300841898,1.5811388300841898,0,1,1,1.5811388300841898,0" style="fill: #fb9a99; stroke-width: 2; opacity: 1;"></path><path transform="translate(255.55555555555554,130.0281965837858)" d="M1.5811388300841898,0A1.5811388300841898,1.5811388300841898,0,1,1,-1.5811388300841898,0A1.5811388300841898,1.5811388300841898,0,1,1,1.5811388300841898,0" style="fill: #fb9a99; stroke-width: 2; opacity: 1;"></path><path transform="translate(266.6666666666667,125.68309066076692)" d="M1.5811388300841898,0A1.5811388300841898,1.5811388300841898,0,1,1,-1.5811388300841898,0A1.5811388300841898,1.5811388300841898,0,1,1,1.5811388300841898,0" style="fill: #fb9a99; stroke-width: 2; opacity: 1;"></path><path transform="translate(277.77777777777777,119.58150493885975)" d="M1.5811388300841898,0A1.5811388300841898,1.5811388300841898,0,1,1,-1.5811388300841898,0A1.5811388300841898,1.5811388300841898,0,1,1,1.5811388300841898,0" style="fill: #fb9a99; stroke-width: 2; opacity: 1;"></path><path transform="translate(288.88888888888886,111.50248672608203)" d="M1.5811388300841898,0A1.5811388300841898,1.5811388300841898,0,1,1,-1.5811388300841898,0A1.5811388300841898,1.5811388300841898,0,1,1,1.5811388300841898,0" style="fill: #fb9a99; stroke-width: 2; opacity: 1;"></path><path transform="translate(300,104.02907540593222)" d="M1.5811388300841898,0A1.5811388300841898,1.5811388300841898,0,1,1,-1.5811388300841898,0A1.5811388300841898,1.5811388300841898,0,1,1,1.5811388300841898,0" style="fill: #fb9a99; stroke-width: 2; opacity: 1;"></path><path transform="translate(311.11111111111114,97.55612071770152)" d="M1.5811388300841898,0A1.5811388300841898,1.5811388300841898,0,1,1,-1.5811388300841898,0A1.5811388300841898,1.5811388300841898,0,1,1,1.5811388300841898,0" style="fill: #fb9a99; stroke-width: 2; opacity: 1;"></path><path transform="translate(322.22222222222223,96.3751374299418)" d="M1.5811388300841898,0A1.5811388300841898,1.5811388300841898,0,1,1,-1.5811388300841898,0A1.5811388300841898,1.5811388300841898,0,1,1,1.5811388300841898,0" style="fill: #fb9a99; stroke-width: 2; opacity: 1;"></path><path transform="translate(333.3333333333333,91.94464269091135)" d="M1.5811388300841898,0A1.5811388300841898,1.5811388300841898,0,1,1,-1.5811388300841898,0A1.5811388300841898,1.5811388300841898,0,1,1,1.5811388300841898,0" style="fill: #fb9a99; stroke-width: 2; opacity: 1;"></path><path transform="translate(344.44444444444446,86.90938294739661)" d="M1.5811388300841898,0A1.5811388300841898,1.5811388300841898,0,1,1,-1.5811388300841898,0A1.5811388300841898,1.5811388300841898,0,1,1,1.5811388300841898,0" style="fill: #fb9a99; stroke-width: 2; opacity: 1;"></path><path transform="translate(355.55555555555554,83.20675121822782)" d="M1.5811388300841898,0A1.5811388300841898,1.5811388300841898,0,1,1,-1.5811388300841898,0A1.5811388300841898,1.5811388300841898,0,1,1,1.5811388300841898,0" style="fill: #fb9a99; stroke-width: 2; opacity: 1;"></path><path transform="translate(0,163.10299869621903)" d="M1.5811388300841898,0A1.5811388300841898,1.5811388300841898,0,1,1,-1.5811388300841898,0A1.5811388300841898,1.5811388300841898,0,1,1,1.5811388300841898,0" style="fill: #e31a1c; stroke-width: 2; opacity: 1;"></path><path transform="translate(11.11111111111111,129.6334537945276)" d="M1.5811388300841898,0A1.5811388300841898,1.5811388300841898,0,1,1,-1.5811388300841898,0A1.5811388300841898,1.5811388300841898,0,1,1,1.5811388300841898,0" style="fill: #e31a1c; stroke-width: 2; opacity: 1;"></path><path transform="translate(22.22222222222222,172.38567883729175)" d="M1.5811388300841898,0A1.5811388300841898,1.5811388300841898,0,1,1,-1.5811388300841898,0A1.5811388300841898,1.5811388300841898,0,1,1,1.5811388300841898,0" style="fill: #e31a1c; stroke-width: 2; opacity: 1;"></path><path transform="translate(33.333333333333336,176.68819729888435)" d="M1.5811388300841898,0A1.5811388300841898,1.5811388300841898,0,1,1,-1.5811388300841898,0A1.5811388300841898,1.5811388300841898,0,1,1,1.5811388300841898,0" style="fill: #e31a1c; stroke-width: 2; opacity: 1;"></path><path transform="translate(44.44444444444444,202.4110218140069)" d="M1.5811388300841898,0A1.5811388300841898,1.5811388300841898,0,1,1,-1.5811388300841898,0A1.5811388300841898,1.5811388300841898,0,1,1,1.5811388300841898,0" style="fill: #e31a1c; stroke-width: 2; opacity: 1;"></path><path transform="translate(55.55555555555555,206.44490644490645)" d="M1.5811388300841898,0A1.5811388300841898,1.5811388300841898,0,1,1,-1.5811388300841898,0A1.5811388300841898,1.5811388300841898,0,1,1,1.5811388300841898,0" style="fill: #e31a1c; stroke-width: 2; opacity: 1;"></path><path transform="translate(66.66666666666667,212.91727140783746)" d="M1.5811388300841898,0A1.5811388300841898,1.5811388300841898,0,1,1,-1.5811388300841898,0A1.5811388300841898,1.5811388300841898,0,1,1,1.5811388300841898,0" style="fill: #e31a1c; stroke-width: 2; opacity: 1;"></path><path transform="translate(77.77777777777779,232.6221224031443)" d="M1.5811388300841898,0A1.5811388300841898,1.5811388300841898,0,1,1,-1.5811388300841898,0A1.5811388300841898,1.5811388300841898,0,1,1,1.5811388300841898,0" style="fill: #e31a1c; stroke-width: 2; opacity: 1;"></path><path transform="translate(88.88888888888889,235.14682039272205)" d="M1.5811388300841898,0A1.5811388300841898,1.5811388300841898,0,1,1,-1.5811388300841898,0A1.5811388300841898,1.5811388300841898,0,1,1,1.5811388300841898,0" style="fill: #e31a1c; stroke-width: 2; opacity: 1;"></path><path transform="translate(100,244.49326980896433)" d="M1.5811388300841898,0A1.5811388300841898,1.5811388300841898,0,1,1,-1.5811388300841898,0A1.5811388300841898,1.5811388300841898,0,1,1,1.5811388300841898,0" style="fill: #e31a1c; stroke-width: 2; opacity: 1;"></path><path transform="translate(111.1111111111111,250.2241677551453)" d="M1.5811388300841898,0A1.5811388300841898,1.5811388300841898,0,1,1,-1.5811388300841898,0A1.5811388300841898,1.5811388300841898,0,1,1,1.5811388300841898,0" style="fill: #e31a1c; stroke-width: 2; opacity: 1;"></path><path transform="translate(122.22222222222221,254.3031226199543)" d="M1.5811388300841898,0A1.5811388300841898,1.5811388300841898,0,1,1,-1.5811388300841898,0A1.5811388300841898,1.5811388300841898,0,1,1,1.5811388300841898,0" style="fill: #e31a1c; stroke-width: 2; opacity: 1;"></path><path transform="translate(133.33333333333334,258.4496669378064)" d="M1.5811388300841898,0A1.5811388300841898,1.5811388300841898,0,1,1,-1.5811388300841898,0A1.5811388300841898,1.5811388300841898,0,1,1,1.5811388300841898,0" style="fill: #e31a1c; stroke-width: 2; opacity: 1;"></path><path transform="translate(144.44444444444443,257.6524511757672)" d="M1.5811388300841898,0A1.5811388300841898,1.5811388300841898,0,1,1,-1.5811388300841898,0A1.5811388300841898,1.5811388300841898,0,1,1,1.5811388300841898,0" style="fill: #e31a1c; stroke-width: 2; opacity: 1;"></path><path transform="translate(155.55555555555557,261.1850538497478)" d="M1.5811388300841898,0A1.5811388300841898,1.5811388300841898,0,1,1,-1.5811388300841898,0A1.5811388300841898,1.5811388300841898,0,1,1,1.5811388300841898,0" style="fill: #e31a1c; stroke-width: 2; opacity: 1;"></path><path transform="translate(166.66666666666666,265.0125025944119)" d="M1.5811388300841898,0A1.5811388300841898,1.5811388300841898,0,1,1,-1.5811388300841898,0A1.5811388300841898,1.5811388300841898,0,1,1,1.5811388300841898,0" style="fill: #e31a1c; stroke-width: 2; opacity: 1;"></path><path transform="translate(177.77777777777777,266.2544080179527)" d="M1.5811388300841898,0A1.5811388300841898,1.5811388300841898,0,1,1,-1.5811388300841898,0A1.5811388300841898,1.5811388300841898,0,1,1,1.5811388300841898,0" style="fill: #e31a1c; stroke-width: 2; opacity: 1;"></path><path transform="translate(188.88888888888889,270.5195328231977)" d="M1.5811388300841898,0A1.5811388300841898,1.5811388300841898,0,1,1,-1.5811388300841898,0A1.5811388300841898,1.5811388300841898,0,1,1,1.5811388300841898,0" style="fill: #e31a1c; stroke-width: 2; opacity: 1;"></path><path transform="translate(200,272.2052046584198)" d="M1.5811388300841898,0A1.5811388300841898,1.5811388300841898,0,1,1,-1.5811388300841898,0A1.5811388300841898,1.5811388300841898,0,1,1,1.5811388300841898,0" style="fill: #e31a1c; stroke-width: 2; opacity: 1;"></path><path transform="translate(211.11111111111111,271.08102859996114)" d="M1.5811388300841898,0A1.5811388300841898,1.5811388300841898,0,1,1,-1.5811388300841898,0A1.5811388300841898,1.5811388300841898,0,1,1,1.5811388300841898,0" style="fill: #e31a1c; stroke-width: 2; opacity: 1;"></path><path transform="translate(222.2222222222222,270.6847762587038)" d="M1.5811388300841898,0A1.5811388300841898,1.5811388300841898,0,1,1,-1.5811388300841898,0A1.5811388300841898,1.5811388300841898,0,1,1,1.5811388300841898,0" style="fill: #e31a1c; stroke-width: 2; opacity: 1;"></path><path transform="translate(233.33333333333334,269.6830895193381)" d="M1.5811388300841898,0A1.5811388300841898,1.5811388300841898,0,1,1,-1.5811388300841898,0A1.5811388300841898,1.5811388300841898,0,1,1,1.5811388300841898,0" style="fill: #e31a1c; stroke-width: 2; opacity: 1;"></path><path transform="translate(244.44444444444443,266.9517748510725)" d="M1.5811388300841898,0A1.5811388300841898,1.5811388300841898,0,1,1,-1.5811388300841898,0A1.5811388300841898,1.5811388300841898,0,1,1,1.5811388300841898,0" style="fill: #e31a1c; stroke-width: 2; opacity: 1;"></path><path transform="translate(255.55555555555554,266.7207404933441)" d="M1.5811388300841898,0A1.5811388300841898,1.5811388300841898,0,1,1,-1.5811388300841898,0A1.5811388300841898,1.5811388300841898,0,1,1,1.5811388300841898,0" style="fill: #e31a1c; stroke-width: 2; opacity: 1;"></path><path transform="translate(266.6666666666667,264.1100805801712)" d="M1.5811388300841898,0A1.5811388300841898,1.5811388300841898,0,1,1,-1.5811388300841898,0A1.5811388300841898,1.5811388300841898,0,1,1,1.5811388300841898,0" style="fill: #e31a1c; stroke-width: 2; opacity: 1;"></path><path transform="translate(277.77777777777777,261.51249925595897)" d="M1.5811388300841898,0A1.5811388300841898,1.5811388300841898,0,1,1,-1.5811388300841898,0A1.5811388300841898,1.5811388300841898,0,1,1,1.5811388300841898,0" style="fill: #e31a1c; stroke-width: 2; opacity: 1;"></path><path transform="translate(288.88888888888886,259.59089673156365)" d="M1.5811388300841898,0A1.5811388300841898,1.5811388300841898,0,1,1,-1.5811388300841898,0A1.5811388300841898,1.5811388300841898,0,1,1,1.5811388300841898,0" style="fill: #e31a1c; stroke-width: 2; opacity: 1;"></path><path transform="translate(300,257.52774792000537)" d="M1.5811388300841898,0A1.5811388300841898,1.5811388300841898,0,1,1,-1.5811388300841898,0A1.5811388300841898,1.5811388300841898,0,1,1,1.5811388300841898,0" style="fill: #e31a1c; stroke-width: 2; opacity: 1;"></path><path transform="translate(311.11111111111114,252.50253859398686)" d="M1.5811388300841898,0A1.5811388300841898,1.5811388300841898,0,1,1,-1.5811388300841898,0A1.5811388300841898,1.5811388300841898,0,1,1,1.5811388300841898,0" style="fill: #e31a1c; stroke-width: 2; opacity: 1;"></path><path transform="translate(322.22222222222223,248.55139236782563)" d="M1.5811388300841898,0A1.5811388300841898,1.5811388300841898,0,1,1,-1.5811388300841898,0A1.5811388300841898,1.5811388300841898,0,1,1,1.5811388300841898,0" style="fill: #e31a1c; stroke-width: 2; opacity: 1;"></path><path transform="translate(333.3333333333333,243.82741385242898)" d="M1.5811388300841898,0A1.5811388300841898,1.5811388300841898,0,1,1,-1.5811388300841898,0A1.5811388300841898,1.5811388300841898,0,1,1,1.5811388300841898,0" style="fill: #e31a1c; stroke-width: 2; opacity: 1;"></path><path transform="translate(344.44444444444446,240.65512985196858)" d="M1.5811388300841898,0A1.5811388300841898,1.5811388300841898,0,1,1,-1.5811388300841898,0A1.5811388300841898,1.5811388300841898,0,1,1,1.5811388300841898,0" style="fill: #e31a1c; stroke-width: 2; opacity: 1;"></path><path transform="translate(0,280.106100795756)" d="M1.5811388300841898,0A1.5811388300841898,1.5811388300841898,0,1,1,-1.5811388300841898,0A1.5811388300841898,1.5811388300841898,0,1,1,1.5811388300841898,0" style="fill: #fdbf6f; stroke-width: 2; opacity: 1;"></path><path transform="translate(11.11111111111111,271.8574108818011)" d="M1.5811388300841898,0A1.5811388300841898,1.5811388300841898,0,1,1,-1.5811388300841898,0A1.5811388300841898,1.5811388300841898,0,1,1,1.5811388300841898,0" style="fill: #fdbf6f; stroke-width: 2; opacity: 1;"></path><path transform="translate(22.22222222222222,277.70345596432554)" d="M1.5811388300841898,0A1.5811388300841898,1.5811388300841898,0,1,1,-1.5811388300841898,0A1.5811388300841898,1.5811388300841898,0,1,1,1.5811388300841898,0" style="fill: #fdbf6f; stroke-width: 2; opacity: 1;"></path><path transform="translate(33.333333333333336,274.7332959011791)" d="M1.5811388300841898,0A1.5811388300841898,1.5811388300841898,0,1,1,-1.5811388300841898,0A1.5811388300841898,1.5811388300841898,0,1,1,1.5811388300841898,0" style="fill: #fdbf6f; stroke-width: 2; opacity: 1;"></path><path transform="translate(44.44444444444444,271.3330148112757)" d="M1.5811388300841898,0A1.5811388300841898,1.5811388300841898,0,1,1,-1.5811388300841898,0A1.5811388300841898,1.5811388300841898,0,1,1,1.5811388300841898,0" style="fill: #fdbf6f; stroke-width: 2; opacity: 1;"></path><path transform="translate(55.55555555555555,263.9423076923077)" d="M1.5811388300841898,0A1.5811388300841898,1.5811388300841898,0,1,1,-1.5811388300841898,0A1.5811388300841898,1.5811388300841898,0,1,1,1.5811388300841898,0" style="fill: #fdbf6f; stroke-width: 2; opacity: 1;"></path><path transform="translate(66.66666666666667,259.77878330819505)" d="M1.5811388300841898,0A1.5811388300841898,1.5811388300841898,0,1,1,-1.5811388300841898,0A1.5811388300841898,1.5811388300841898,0,1,1,1.5811388300841898,0" style="fill: #fdbf6f; stroke-width: 2; opacity: 1;"></path><path transform="translate(77.77777777777779,259.77878330819505)" d="M1.5811388300841898,0A1.5811388300841898,1.5811388300841898,0,1,1,-1.5811388300841898,0A1.5811388300841898,1.5811388300841898,0,1,1,1.5811388300841898,0" style="fill: #fdbf6f; stroke-width: 2; opacity: 1;"></path><path transform="translate(88.88888888888889,276.98062535967773)" d="M1.5811388300841898,0A1.5811388300841898,1.5811388300841898,0,1,1,-1.5811388300841898,0A1.5811388300841898,1.5811388300841898,0,1,1,1.5811388300841898,0" style="fill: #fdbf6f; stroke-width: 2; opacity: 1;"></path><path transform="translate(100,257.63851533082305)" d="M1.5811388300841898,0A1.5811388300841898,1.5811388300841898,0,1,1,-1.5811388300841898,0A1.5811388300841898,1.5811388300841898,0,1,1,1.5811388300841898,0" style="fill: #fdbf6f; stroke-width: 2; opacity: 1;"></path><path transform="translate(111.1111111111111,257.67551226066513)" d="M1.5811388300841898,0A1.5811388300841898,1.5811388300841898,0,1,1,-1.5811388300841898,0A1.5811388300841898,1.5811388300841898,0,1,1,1.5811388300841898,0" style="fill: #fdbf6f; stroke-width: 2; opacity: 1;"></path><path transform="translate(122.22222222222221,216.67906561523583)" d="M1.5811388300841898,0A1.5811388300841898,1.5811388300841898,0,1,1,-1.5811388300841898,0A1.5811388300841898,1.5811388300841898,0,1,1,1.5811388300841898,0" style="fill: #fdbf6f; stroke-width: 2; opacity: 1;"></path><path transform="translate(133.33333333333334,234.06593406593407)" d="M1.5811388300841898,0A1.5811388300841898,1.5811388300841898,0,1,1,-1.5811388300841898,0A1.5811388300841898,1.5811388300841898,0,1,1,1.5811388300841898,0" style="fill: #fdbf6f; stroke-width: 2; opacity: 1;"></path><path transform="translate(144.44444444444443,237.11058056251093)" d="M1.5811388300841898,0A1.5811388300841898,1.5811388300841898,0,1,1,-1.5811388300841898,0A1.5811388300841898,1.5811388300841898,0,1,1,1.5811388300841898,0" style="fill: #fdbf6f; stroke-width: 2; opacity: 1;"></path><path transform="translate(155.55555555555557,182.74611985952194)" d="M1.5811388300841898,0A1.5811388300841898,1.5811388300841898,0,1,1,-1.5811388300841898,0A1.5811388300841898,1.5811388300841898,0,1,1,1.5811388300841898,0" style="fill: #fdbf6f; stroke-width: 2; opacity: 1;"></path><path transform="translate(166.66666666666666,197.66586179142234)" d="M1.5811388300841898,0A1.5811388300841898,1.5811388300841898,0,1,1,-1.5811388300841898,0A1.5811388300841898,1.5811388300841898,0,1,1,1.5811388300841898,0" style="fill: #fdbf6f; stroke-width: 2; opacity: 1;"></path><path transform="translate(177.77777777777777,193.42806394316165)" d="M1.5811388300841898,0A1.5811388300841898,1.5811388300841898,0,1,1,-1.5811388300841898,0A1.5811388300841898,1.5811388300841898,0,1,1,1.5811388300841898,0" style="fill: #fdbf6f; stroke-width: 2; opacity: 1;"></path><path transform="translate(188.88888888888889,186.72424181562565)" d="M1.5811388300841898,0A1.5811388300841898,1.5811388300841898,0,1,1,-1.5811388300841898,0A1.5811388300841898,1.5811388300841898,0,1,1,1.5811388300841898,0" style="fill: #fdbf6f; stroke-width: 2; opacity: 1;"></path><path transform="translate(200,184.71831469155288)" d="M1.5811388300841898,0A1.5811388300841898,1.5811388300841898,0,1,1,-1.5811388300841898,0A1.5811388300841898,1.5811388300841898,0,1,1,1.5811388300841898,0" style="fill: #fdbf6f; stroke-width: 2; opacity: 1;"></path><path transform="translate(211.11111111111111,180.43191497380622)" d="M1.5811388300841898,0A1.5811388300841898,1.5811388300841898,0,1,1,-1.5811388300841898,0A1.5811388300841898,1.5811388300841898,0,1,1,1.5811388300841898,0" style="fill: #fdbf6f; stroke-width: 2; opacity: 1;"></path><path transform="translate(222.2222222222222,188.4455793169486)" d="M1.5811388300841898,0A1.5811388300841898,1.5811388300841898,0,1,1,-1.5811388300841898,0A1.5811388300841898,1.5811388300841898,0,1,1,1.5811388300841898,0" style="fill: #fdbf6f; stroke-width: 2; opacity: 1;"></path><path transform="translate(233.33333333333334,186.68629034358804)" d="M1.5811388300841898,0A1.5811388300841898,1.5811388300841898,0,1,1,-1.5811388300841898,0A1.5811388300841898,1.5811388300841898,0,1,1,1.5811388300841898,0" style="fill: #fdbf6f; stroke-width: 2; opacity: 1;"></path><path transform="translate(244.44444444444443,180.89834885358792)" d="M1.5811388300841898,0A1.5811388300841898,1.5811388300841898,0,1,1,-1.5811388300841898,0A1.5811388300841898,1.5811388300841898,0,1,1,1.5811388300841898,0" style="fill: #fdbf6f; stroke-width: 2; opacity: 1;"></path><path transform="translate(255.55555555555554,163.9005403099673)" d="M1.5811388300841898,0A1.5811388300841898,1.5811388300841898,0,1,1,-1.5811388300841898,0A1.5811388300841898,1.5811388300841898,0,1,1,1.5811388300841898,0" style="fill: #fdbf6f; stroke-width: 2; opacity: 1;"></path><path transform="translate(266.6666666666667,156.38173757486194)" d="M1.5811388300841898,0A1.5811388300841898,1.5811388300841898,0,1,1,-1.5811388300841898,0A1.5811388300841898,1.5811388300841898,0,1,1,1.5811388300841898,0" style="fill: #fdbf6f; stroke-width: 2; opacity: 1;"></path><path transform="translate(277.77777777777777,154.97911877460265)" d="M1.5811388300841898,0A1.5811388300841898,1.5811388300841898,0,1,1,-1.5811388300841898,0A1.5811388300841898,1.5811388300841898,0,1,1,1.5811388300841898,0" style="fill: #fdbf6f; stroke-width: 2; opacity: 1;"></path><path transform="translate(288.88888888888886,137.61656498205298)" d="M1.5811388300841898,0A1.5811388300841898,1.5811388300841898,0,1,1,-1.5811388300841898,0A1.5811388300841898,1.5811388300841898,0,1,1,1.5811388300841898,0" style="fill: #fdbf6f; stroke-width: 2; opacity: 1;"></path><path transform="translate(300,117.87273499980684)" d="M1.5811388300841898,0A1.5811388300841898,1.5811388300841898,0,1,1,-1.5811388300841898,0A1.5811388300841898,1.5811388300841898,0,1,1,1.5811388300841898,0" style="fill: #fdbf6f; stroke-width: 2; opacity: 1;"></path><path transform="translate(311.11111111111114,102.40810896591779)" d="M1.5811388300841898,0A1.5811388300841898,1.5811388300841898,0,1,1,-1.5811388300841898,0A1.5811388300841898,1.5811388300841898,0,1,1,1.5811388300841898,0" style="fill: #fdbf6f; stroke-width: 2; opacity: 1;"></path><path transform="translate(322.22222222222223,84.61379402215299)" d="M1.5811388300841898,0A1.5811388300841898,1.5811388300841898,0,1,1,-1.5811388300841898,0A1.5811388300841898,1.5811388300841898,0,1,1,1.5811388300841898,0" style="fill: #fdbf6f; stroke-width: 2; opacity: 1;"></path></g><g class="mark-group role-legend"><g transform="translate(518,0)"><path class="background" d="M0,0h105v96h-105Z" style="pointer-events: none; fill: none;"></path><g><g class="mark-group role-legend-entry"><g transform="translate(0,0)"><path class="background" d="M0,0h0v0h0Z" style="pointer-events: none; fill: none;"></path><g><g class="mark-group role-scope"><g transform="translate(0,0)"><path class="background" d="M0,0h104.22390747070312v12h-104.22390747070312Z" style="pointer-events: none; fill: none; opacity: 1;"></path><g><g class="mark-symbol role-legend-symbol" style="pointer-events: none;"><path transform="translate(6,6)" d="M3.5355339059327378,0A3.5355339059327378,3.5355339059327378,0,1,1,-3.5355339059327378,0A3.5355339059327378,3.5355339059327378,0,1,1,3.5355339059327378,0" style="fill: #a6cee3; stroke: #a6cee3; stroke-width: 1; opacity: 1;"></path></g><g class="mark-text role-legend-label" style="pointer-events: none;"><text text-anchor="start" transform="translate(16,10)" style="font-family: Avenir; font-size: 12px; fill: #000; opacity: 1;">France</text></g></g><path class="foreground" d="" style="pointer-events: none; display: none; fill: none;"></path></g><g transform="translate(0,14)"><path class="background" d="M0,0h104.22390747070312v12h-104.22390747070312Z" style="pointer-events: none; fill: none; opacity: 1;"></path><g><g class="mark-symbol role-legend-symbol" style="pointer-events: none;"><path transform="translate(6,6)" d="M3.5355339059327378,0A3.5355339059327378,3.5355339059327378,0,1,1,-3.5355339059327378,0A3.5355339059327378,3.5355339059327378,0,1,1,3.5355339059327378,0" style="fill: #1f78b4; stroke: #1f78b4; stroke-width: 1; opacity: 1;"></path></g><g class="mark-text role-legend-label" style="pointer-events: none;"><text text-anchor="start" transform="translate(16,10)" style="font-family: Avenir; font-size: 12px; fill: #000; opacity: 1;">Germany</text></g></g><path class="foreground" d="" style="pointer-events: none; display: none; fill: none;"></path></g><g transform="translate(0,28)"><path class="background" d="M0,0h104.22390747070312v12h-104.22390747070312Z" style="pointer-events: none; fill: none; opacity: 1;"></path><g><g class="mark-symbol role-legend-symbol" style="pointer-events: none;"><path transform="translate(6,6)" d="M3.5355339059327378,0A3.5355339059327378,3.5355339059327378,0,1,1,-3.5355339059327378,0A3.5355339059327378,3.5355339059327378,0,1,1,3.5355339059327378,0" style="fill: #b2df8a; stroke: #b2df8a; stroke-width: 1; opacity: 1;"></path></g><g class="mark-text role-legend-label" style="pointer-events: none;"><text text-anchor="start" transform="translate(16,10)" style="font-family: Avenir; font-size: 12px; fill: #000; opacity: 1;">Italy</text></g></g><path class="foreground" d="" style="pointer-events: none; display: none; fill: none;"></path></g><g transform="translate(0,42)"><path class="background" d="M0,0h104.22390747070312v12h-104.22390747070312Z" style="pointer-events: none; fill: none; opacity: 1;"></path><g><g class="mark-symbol role-legend-symbol" style="pointer-events: none;"><path transform="translate(6,6)" d="M3.5355339059327378,0A3.5355339059327378,3.5355339059327378,0,1,1,-3.5355339059327378,0A3.5355339059327378,3.5355339059327378,0,1,1,3.5355339059327378,0" style="fill: #33a02c; stroke: #33a02c; stroke-width: 1; opacity: 1;"></path></g><g class="mark-text role-legend-label" style="pointer-events: none;"><text text-anchor="start" transform="translate(16,10)" style="font-family: Avenir; font-size: 12px; fill: #000; opacity: 1;">Korea, South</text></g></g><path class="foreground" d="" style="pointer-events: none; display: none; fill: none;"></path></g><g transform="translate(0,56)"><path class="background" d="M0,0h104.22390747070312v12h-104.22390747070312Z" style="pointer-events: none; fill: none; opacity: 1;"></path><g><g class="mark-symbol role-legend-symbol" style="pointer-events: none;"><path transform="translate(6,6)" d="M3.5355339059327378,0A3.5355339059327378,3.5355339059327378,0,1,1,-3.5355339059327378,0A3.5355339059327378,3.5355339059327378,0,1,1,3.5355339059327378,0" style="fill: #fb9a99; stroke: #fb9a99; stroke-width: 1; opacity: 1;"></path></g><g class="mark-text role-legend-label" style="pointer-events: none;"><text text-anchor="start" transform="translate(16,10)" style="font-family: Avenir; font-size: 12px; fill: #000; opacity: 1;">Spain</text></g></g><path class="foreground" d="" style="pointer-events: none; display: none; fill: none;"></path></g><g transform="translate(0,70)"><path class="background" d="M0,0h104.22390747070312v12h-104.22390747070312Z" style="pointer-events: none; fill: none; opacity: 1;"></path><g><g class="mark-symbol role-legend-symbol" style="pointer-events: none;"><path transform="translate(6,6)" d="M3.5355339059327378,0A3.5355339059327378,3.5355339059327378,0,1,1,-3.5355339059327378,0A3.5355339059327378,3.5355339059327378,0,1,1,3.5355339059327378,0" style="fill: #e31a1c; stroke: #e31a1c; stroke-width: 1; opacity: 1;"></path></g><g class="mark-text role-legend-label" style="pointer-events: none;"><text text-anchor="start" transform="translate(16,10)" style="font-family: Avenir; font-size: 12px; fill: #000; opacity: 1;">US</text></g></g><path class="foreground" d="" style="pointer-events: none; display: none; fill: none;"></path></g><g transform="translate(0,84)"><path class="background" d="M0,0h104.22390747070312v12h-104.22390747070312Z" style="pointer-events: none; fill: none; opacity: 1;"></path><g><g class="mark-symbol role-legend-symbol" style="pointer-events: none;"><path transform="translate(6,6)" d="M3.5355339059327378,0A3.5355339059327378,3.5355339059327378,0,1,1,-3.5355339059327378,0A3.5355339059327378,3.5355339059327378,0,1,1,3.5355339059327378,0" style="fill: #fdbf6f; stroke: #fdbf6f; stroke-width: 1; opacity: 1;"></path></g><g class="mark-text role-legend-label" style="pointer-events: none;"><text text-anchor="start" transform="translate(16,10)" style="font-family: Avenir; font-size: 12px; fill: #000; opacity: 1;">United Kingdom</text></g></g><path class="foreground" d="" style="pointer-events: none; display: none; fill: none;"></path></g></g></g><path class="foreground" d="" style="pointer-events: none; display: none; fill: none;"></path></g></g></g><path class="foreground" d="" style="pointer-events: none; display: none; fill: none;"></path></g></g><g class="mark-group role-title"><g transform="translate(-49.459991455078125,-50)"><path class="background" d="M0,0h0v0h0Z" style="pointer-events: none; fill: none;"></path><g><g class="mark-text role-title-text" style="pointer-events: none;"><text text-anchor="start" transform="translate(0,16)" style="font-family: Avenir; font-size: 20px; font-weight: 300; fill: #4d4d4d; opacity: 1;">Development of confirmed COVID-19 deaths in infected persons</text></g></g><path class="foreground" d="" style="pointer-events: none; display: none; fill: none;"></path></g></g><g class="mark-group role-axis"><g transform="translate(0.5,300.5)"><path class="background" d="M0,0h0v0h0Z" style="pointer-events: none; fill: none;"></path><g><g class="mark-rule role-axis-tick" style="pointer-events: none;"><line transform="translate(0,0)" x2="0" y2="5" style="fill: none; stroke: #DEDDDD; stroke-width: 1; opacity: 1;"></line><line transform="translate(56,0)" x2="0" y2="5" style="fill: none; stroke: #DEDDDD; stroke-width: 1; opacity: 1;"></line><line transform="translate(111,0)" x2="0" y2="5" style="fill: none; stroke: #DEDDDD; stroke-width: 1; opacity: 1;"></line><line transform="translate(167,0)" x2="0" y2="5" style="fill: none; stroke: #DEDDDD; stroke-width: 1; opacity: 1;"></line><line transform="translate(222,0)" x2="0" y2="5" style="fill: none; stroke: #DEDDDD; stroke-width: 1; opacity: 1;"></line><line transform="translate(278,0)" x2="0" y2="5" style="fill: none; stroke: #DEDDDD; stroke-width: 1; opacity: 1;"></line><line transform="translate(333,0)" x2="0" y2="5" style="fill: none; stroke: #DEDDDD; stroke-width: 1; opacity: 1;"></line><line transform="translate(389,0)" x2="0" y2="5" style="fill: none; stroke: #DEDDDD; stroke-width: 1; opacity: 1;"></line><line transform="translate(444,0)" x2="0" y2="5" style="fill: none; stroke: #DEDDDD; stroke-width: 1; opacity: 1;"></line><line transform="translate(500,0)" x2="0" y2="5" style="fill: none; stroke: #DEDDDD; stroke-width: 1; opacity: 1;"></line></g><g class="mark-text role-axis-label" style="pointer-events: none;"><text text-anchor="middle" transform="translate(0,15)" style="font-family: Avenir; font-size: 10px; fill: #000; opacity: 1;">0</text><text text-anchor="middle" transform="translate(55.55555555555555,15)" style="font-family: Avenir; font-size: 10px; fill: #000; opacity: 1;">5</text><text text-anchor="middle" transform="translate(111.1111111111111,15)" style="font-family: Avenir; font-size: 10px; fill: #000; opacity: 1;">10</text><text text-anchor="middle" transform="translate(166.66666666666666,15)" style="font-family: Avenir; font-size: 10px; fill: #000; opacity: 1;">15</text><text text-anchor="middle" transform="translate(222.2222222222222,15)" style="font-family: Avenir; font-size: 10px; fill: #000; opacity: 1;">20</text><text text-anchor="middle" transform="translate(277.77777777777777,15)" style="font-family: Avenir; font-size: 10px; fill: #000; opacity: 1;">25</text><text text-anchor="middle" transform="translate(333.3333333333333,15)" style="font-family: Avenir; font-size: 10px; fill: #000; opacity: 1;">30</text><text text-anchor="middle" transform="translate(388.8888888888889,15)" style="font-family: Avenir; font-size: 10px; fill: #000; opacity: 1;">35</text><text text-anchor="middle" transform="translate(444.4444444444444,15)" style="font-family: Avenir; font-size: 10px; fill: #000; opacity: 1;">40</text><text text-anchor="middle" transform="translate(500,15)" style="font-family: Avenir; font-size: 10px; fill: #000; opacity: 1;">45</text></g><g class="mark-rule role-axis-domain" style="pointer-events: none;"><line transform="translate(0,0)" x2="500" y2="0" style="fill: none; stroke: #DEDDDD; stroke-width: 1; stroke-dashoffset: 10; opacity: 1;"></line></g><g class="mark-text role-axis-title" style="pointer-events: none;"><text text-anchor="middle" transform="translate(250,36)" style="font-family: Avenir; font-size: 12px; font-weight: 400; fill: #000; opacity: 1;">Days since 100th case</text></g></g><path class="foreground" d="" style="pointer-events: none; display: none; fill: none;"></path></g></g><g class="mark-group role-axis"><g transform="translate(0.5,0.5)"><path class="background" d="M0,0h0v0h0Z" style="pointer-events: none; fill: none;"></path><g><g class="mark-rule role-axis-tick" style="pointer-events: none;"><line transform="translate(0,300)" x2="-5" y2="0" style="fill: none; stroke: #888; stroke-width: 1; opacity: 1;"></line><line transform="translate(0,254)" x2="-5" y2="0" style="fill: none; stroke: #888; stroke-width: 1; opacity: 1;"></line><line transform="translate(0,208)" x2="-5" y2="0" style="fill: none; stroke: #888; stroke-width: 1; opacity: 1;"></line><line transform="translate(0,162)" x2="-5" y2="0" style="fill: none; stroke: #888; stroke-width: 1; opacity: 1;"></line><line transform="translate(0,115)" x2="-5" y2="0" style="fill: none; stroke: #888; stroke-width: 1; opacity: 1;"></line><line transform="translate(0,69)" x2="-5" y2="0" style="fill: none; stroke: #888; stroke-width: 1; opacity: 1;"></line><line transform="translate(0,23)" x2="-5" y2="0" style="fill: none; stroke: #888; stroke-width: 1; opacity: 1;"></line></g><g class="mark-text role-axis-label" style="pointer-events: none;"><text text-anchor="end" transform="translate(-7,303)" style="font-family: Avenir; font-size: 10px; fill: #000; opacity: 1;">0.00</text><text text-anchor="end" transform="translate(-7,256.8461538461538)" style="font-family: Avenir; font-size: 10px; fill: #000; opacity: 1;">0.02</text><text text-anchor="end" transform="translate(-7,210.69230769230768)" style="font-family: Avenir; font-size: 10px; fill: #000; opacity: 1;">0.04</text><text text-anchor="end" transform="translate(-7,164.53846153846158)" style="font-family: Avenir; font-size: 10px; fill: #000; opacity: 1;">0.06</text><text text-anchor="end" transform="translate(-7,118.38461538461537)" style="font-family: Avenir; font-size: 10px; fill: #000; opacity: 1;">0.08</text><text text-anchor="end" transform="translate(-7,72.23076923076921)" style="font-family: Avenir; font-size: 10px; fill: #000; opacity: 1;">0.10</text><text text-anchor="end" transform="translate(-7,26.076923076923094)" style="font-family: Avenir; font-size: 10px; fill: #000; opacity: 1;">0.12</text></g><g class="mark-text role-axis-title" style="pointer-events: none;"><text text-anchor="middle" transform="translate(-36.459991455078125,150) rotate(-90) translate(0,-3)" style="font-family: Avenir; font-size: 12px; font-weight: 400; fill: #000; opacity: 1;">share of COVID-19 deaths in infected persons</text></g></g><path class="foreground" d="" style="pointer-events: none; display: none; fill: none;"></path></g></g></g><path class="foreground" d="" style="display: none; fill: none;"></path></g></g></g></svg>