<svg class="marks" width="684" height="448" viewBox="0 0 684 448" version="1.1" xmlns="http://www.w3.org/2000/svg" xmlns:xlink="http://www.w3.org/1999/xlink"><g transform="translate(55,105)"><g class="mark-group role-frame root"><g transform="translate(0,0)"><path class="background" d="M0,0h500v300h-500Z" style="fill: none; stroke: #ddd; stroke-width: 0;"></path><g><g class="mark-group role-axis"><g transform="translate(0.5,0.5)"><path class="background" d="M0,0h0v0h0Z" style="pointer-events: none; fill: none;"></path><g><g class="mark-rule role-axis-grid" style="pointer-events: none;"><line transform="translate(0,300)" x2="500" y2="0" style="fill: none; stroke: #DEDDDD; stroke-width: 1; stroke-dasharray: 5,2; opacity: 1;"></line><line transform="translate(0,263)" x2="500" y2="0" style="fill: none; stroke: #DEDDDD; stroke-width: 1; stroke-dasharray: 5,2; opacity: 1;"></line><line transform="translate(0,225)" x2="500" y2="0" style="fill: none; stroke: #DEDDDD; stroke-width: 1; stroke-dasharray: 5,2; opacity: 1;"></line><line transform="translate(0,188)" x2="500" y2="0" style="fill: none; stroke: #DEDDDD; stroke-width: 1; stroke-dasharray: 5,2; opacity: 1;"></line><line transform="translate(0,150)" x2="500" y2="0" style="fill: none; stroke: #DEDDDD; stroke-width: 1; stroke-dasharray: 5,2; opacity: 1;"></line><line transform="translate(0,113)" x2="500" y2="0" style="fill: none; stroke: #DEDDDD; stroke-width: 1; stroke-dasharray: 5,2; opacity: 1;"></line><line transform="translate(0,75)" x2="500" y2="0" style="fill: none; stroke: #DEDDDD; stroke-width: 1; stroke-dasharray: 5,2; opacity: 1;"></line><line transform="translate(0,37)" x2="500" y2="0" style="fill: none; stroke: #DEDDDD; stroke-width: 1; stroke-dasharray: 5,2; opacity: 1;"></line><line transform="translate(0,0)" x2="500" y2="0" style="fill: none; stroke: #DEDDDD; stroke-width: 1; stroke-dasharray: 5,2; opacity: 1;"></line></g></g><path class="foreground" d="" style="pointer-events: none; display: none; fill: none;"></path></g></g><g class="mark-group role-scope layer_0_pathgroup"><g transform="translate(0,0)"><path class="background" d="M0,0h500v300h-500Z" style="fill: none;"></path><g><g class="mark-line role-mark layer_0_marks"><path d="M217.3913043478261,242.30769230769232L239.13043478260872,241.09947643979058L260.8695652173913,226.47058823529412L282.6086956521739,247.91666666666666L304.34782608695656,240.78947368421052L326.0869565217391,248.5518292682927L347.82608695652175,256.6701680672269L369.5652173913043,236.89105403011516L391.304347826087,241.21287128712873L413.04347826086956,230.74986010072746L434.7826086956522,221.1908931698774L456.52173913043475,221.1908931698774L478.26086956521743,219.21188982819743L500,223.828125" style="fill: none; stroke: #a6cee3; stroke-width: 1;"></path></g></g><path class="foreground" d="" style="display: none; fill: none;"></path></g><g transform="translate(0,0)"><path class="background" d="M0,0h500v300h-500Z" style="fill: none;"></path><g><g class="mark-line role-mark layer_0_marks"><path d="M217.3913043478261,300L239.13043478260872,300L260.8695652173913,300L282.6086956521739,300L304.34782608695656,300L326.0869565217391,300L347.82608695652175,300L369.5652173913043,300L391.304347826087,293.6224489795918L413.04347826086956,294.8524365133837L434.7826086956522,294.1037735849057L456.52173913043475,294.5861405197305L478.26086956521743,292.85714285714283L500,292.639040348964" style="fill: none; stroke: #1f78b4; stroke-width: 1;"></path></g></g><path class="foreground" d="" style="display: none; fill: none;"></path></g><g transform="translate(0,0)"><path class="background" d="M0,0h500v300h-500Z" style="fill: none;"></path><g><g class="mark-line role-mark layer_0_marks"><path d="M65.21739130434783,227.41935483870967L86.95652173913044,185.37117903930132L108.69565217391305,183.54037267080744L130.43478260869566,200.66225165562918L152.17391304347828,202.67175572519085L173.91304347826087,211.31756756756758L195.6521739130435,203.5904255319149L217.3913043478261,224.73435655253834L239.13043478260872,204.22396856581534L260.8695652173913,181.59472422062348L282.6086956521739,170.103593395921L304.34782608695656,156.1430793157076L326.0869565217391,140.64926660914583L347.82608695652175,151.4788373278939L369.5652173913043,113.89830508474577L391.304347826087,110.70104666375926L413.04347826086956,66.84895063553061L434.7826086956522,51.14347616754934L456.52173913043475,51.14347616754934L478.26086956521743,31.172140430351092L500,44.58807959540577" style="fill: none; stroke: #b2df8a; stroke-width: 1;"></path></g></g><path class="foreground" d="" style="display: none; fill: none;"></path></g><g transform="translate(0,0)"><path class="background" d="M0,0h500v300h-500Z" style="fill: none;"></path><g><g class="mark-line role-mark layer_0_marks"><path d="M0,263.9423076923077L21.73913043478261,263.2352941176471L43.47826086956522,282.67898383371823L65.21739130434783,262.624584717608L86.95652173913044,263.98559423769507L108.69565217391305,261.6171954964176L130.43478260869566,264.3140364789849L152.17391304347828,272.3952434881087L173.91304347826087,279.13992297817714L195.6521739130435,280.95238095238096L217.3913043478261,282.93629550321197L239.13043478260872,275.7785467128028L260.8695652173913,279.75318164288467L282.6086956521739,276.65006226650064L304.34782608695656,278.44119579500654L326.0869565217391,276.11102684665553L347.82608695652175,276.56582871751175L369.5652173913043,274.3642329778507L391.304347826087,273.422037978069L413.04347826086956,273.0467190203647L434.7826086956522,270.9864603481625L456.52173913043475,268.5474647350362L478.26086956521743,268.9810753227222L500,266.6089537472174" style="fill: none; stroke: #33a02c; stroke-width: 1;"></path></g></g><path class="foreground" d="" style="display: none; fill: none;"></path></g><g transform="translate(0,0)"><path class="background" d="M0,0h500v300h-500Z" style="fill: none;"></path><g><g class="mark-line role-mark layer_0_marks"><path d="M239.13043478260872,300L260.8695652173913,277.27272727272725L282.6086956521739,266.21621621621625L304.34782608695656,256.56370656370655L326.0869565217391,253.125L347.82608695652175,225L369.5652173913043,205.27488855869242L391.304347826087,202.14352283317803L413.04347826086956,222.56637168141594L434.7826086956522,211.06719367588934L456.52173913043475,209.42028985507247L478.26086956521743,204.6731651376147L500,185.58128618369582" style="fill: none; stroke: #fb9a99; stroke-width: 1;"></path></g></g><path class="foreground" d="" style="display: none; fill: none;"></path></g><g transform="translate(0,0)"><path class="background" d="M0,0h500v300h-500Z" style="fill: none;"></path><g><g class="mark-line role-mark layer_0_marks"><path d="M260.8695652173913,77.54237288135593L282.6086956521739,23.154362416107364L304.34782608695656,92.62672811059912L326.0869565217391,99.61832061068704L347.82608695652175,141.4179104477612L369.5652173913043,147.97297297297297L391.304347826087,158.49056603773587L413.04347826086956,190.5109489051095L434.7826086956522,194.6135831381733L456.52173913043475,209.80156343956705L478.26086956521743,219.11427260211107L500,225.74257425742573" style="fill: none; stroke: #e31a1c; stroke-width: 1;"></path></g></g><path class="foreground" d="" style="display: none; fill: none;"></path></g><g transform="translate(0,0)"><path class="background" d="M0,0h500v300h-500Z" style="fill: none;"></path><g><g class="mark-line role-mark layer_0_marks"><path d="M304.34782608695656,267.67241379310343L326.0869565217391,254.2682926829268L347.82608695652175,263.768115942029L369.5652173913043,258.94160583941607L391.304347826087,253.416149068323L413.04347826086956,241.40625L434.7826086956522,234.64052287581697L456.52173913043475,234.64052287581697L478.26086956521743,262.5468164794008L500,231.10236220472441" style="fill: none; stroke: #fdbf6f; stroke-width: 1;"></path></g></g><path class="foreground" d="" style="display: none; fill: none;"></path></g></g><g class="mark-symbol role-mark layer_1_marks"><path transform="translate(217.3913043478261,242.30769230769232)" d="M1.5811388300841898,0A1.5811388300841898,1.5811388300841898,0,1,1,-1.5811388300841898,0A1.5811388300841898,1.5811388300841898,0,1,1,1.5811388300841898,0" style="fill: #a6cee3; stroke-width: 2; opacity: 1;"></path><path transform="translate(239.13043478260872,241.09947643979058)" d="M1.5811388300841898,0A1.5811388300841898,1.5811388300841898,0,1,1,-1.5811388300841898,0A1.5811388300841898,1.5811388300841898,0,1,1,1.5811388300841898,0" style="fill: #a6cee3; stroke-width: 2; opacity: 1;"></path><path transform="translate(260.8695652173913,226.47058823529412)" d="M1.5811388300841898,0A1.5811388300841898,1.5811388300841898,0,1,1,-1.5811388300841898,0A1.5811388300841898,1.5811388300841898,0,1,1,1.5811388300841898,0" style="fill: #a6cee3; stroke-width: 2; opacity: 1;"></path><path transform="translate(282.6086956521739,247.91666666666666)" d="M1.5811388300841898,0A1.5811388300841898,1.5811388300841898,0,1,1,-1.5811388300841898,0A1.5811388300841898,1.5811388300841898,0,1,1,1.5811388300841898,0" style="fill: #a6cee3; stroke-width: 2; opacity: 1;"></path><path transform="translate(304.34782608695656,240.78947368421052)" d="M1.5811388300841898,0A1.5811388300841898,1.5811388300841898,0,1,1,-1.5811388300841898,0A1.5811388300841898,1.5811388300841898,0,1,1,1.5811388300841898,0" style="fill: #a6cee3; stroke-width: 2; opacity: 1;"></path><path transform="translate(326.0869565217391,248.5518292682927)" d="M1.5811388300841898,0A1.5811388300841898,1.5811388300841898,0,1,1,-1.5811388300841898,0A1.5811388300841898,1.5811388300841898,0,1,1,1.5811388300841898,0" style="fill: #a6cee3; stroke-width: 2; opacity: 1;"></path><path transform="translate(347.82608695652175,256.6701680672269)" d="M1.5811388300841898,0A1.5811388300841898,1.5811388300841898,0,1,1,-1.5811388300841898,0A1.5811388300841898,1.5811388300841898,0,1,1,1.5811388300841898,0" style="fill: #a6cee3; stroke-width: 2; opacity: 1;"></path><path transform="translate(369.5652173913043,236.89105403011516)" d="M1.5811388300841898,0A1.5811388300841898,1.5811388300841898,0,1,1,-1.5811388300841898,0A1.5811388300841898,1.5811388300841898,0,1,1,1.5811388300841898,0" style="fill: #a6cee3; stroke-width: 2; opacity: 1;"></path><path transform="translate(391.304347826087,241.21287128712873)" d="M1.5811388300841898,0A1.5811388300841898,1.5811388300841898,0,1,1,-1.5811388300841898,0A1.5811388300841898,1.5811388300841898,0,1,1,1.5811388300841898,0" style="fill: #a6cee3; stroke-width: 2; opacity: 1;"></path><path transform="translate(413.04347826086956,230.74986010072746)" d="M1.5811388300841898,0A1.5811388300841898,1.5811388300841898,0,1,1,-1.5811388300841898,0A1.5811388300841898,1.5811388300841898,0,1,1,1.5811388300841898,0" style="fill: #a6cee3; stroke-width: 2; opacity: 1;"></path><path transform="translate(434.7826086956522,221.1908931698774)" d="M1.5811388300841898,0A1.5811388300841898,1.5811388300841898,0,1,1,-1.5811388300841898,0A1.5811388300841898,1.5811388300841898,0,1,1,1.5811388300841898,0" style="fill: #a6cee3; stroke-width: 2; opacity: 1;"></path><path transform="translate(456.52173913043475,221.1908931698774)" d="M1.5811388300841898,0A1.5811388300841898,1.5811388300841898,0,1,1,-1.5811388300841898,0A1.5811388300841898,1.5811388300841898,0,1,1,1.5811388300841898,0" style="fill: #a6cee3; stroke-width: 2; opacity: 1;"></path><path transform="translate(478.26086956521743,219.21188982819743)" d="M1.5811388300841898,0A1.5811388300841898,1.5811388300841898,0,1,1,-1.5811388300841898,0A1.5811388300841898,1.5811388300841898,0,1,1,1.5811388300841898,0" style="fill: #a6cee3; stroke-width: 2; opacity: 1;"></path><path transform="translate(500,223.828125)" d="M1.5811388300841898,0A1.5811388300841898,1.5811388300841898,0,1,1,-1.5811388300841898,0A1.5811388300841898,1.5811388300841898,0,1,1,1.5811388300841898,0" style="fill: #a6cee3; stroke-width: 2; opacity: 1;"></path><path transform="translate(217.3913043478261,300)" d="M1.5811388300841898,0A1.5811388300841898,1.5811388300841898,0,1,1,-1.5811388300841898,0A1.5811388300841898,1.5811388300841898,0,1,1,1.5811388300841898,0" style="fill: #1f78b4; stroke-width: 2; opacity: 1;"></path><path transform="translate(239.13043478260872,300)" d="M1.5811388300841898,0A1.5811388300841898,1.5811388300841898,0,1,1,-1.5811388300841898,0A1.5811388300841898,1.5811388300841898,0,1,1,1.5811388300841898,0" style="fill: #1f78b4; stroke-width: 2; opacity: 1;"></path><path transform="translate(260.8695652173913,300)" d="M1.5811388300841898,0A1.5811388300841898,1.5811388300841898,0,1,1,-1.5811388300841898,0A1.5811388300841898,1.5811388300841898,0,1,1,1.5811388300841898,0" style="fill: #1f78b4; stroke-width: 2; opacity: 1;"></path><path transform="translate(282.6086956521739,300)" d="M1.5811388300841898,0A1.5811388300841898,1.5811388300841898,0,1,1,-1.5811388300841898,0A1.5811388300841898,1.5811388300841898,0,1,1,1.5811388300841898,0" style="fill: #1f78b4; stroke-width: 2; opacity: 1;"></path><path transform="translate(304.34782608695656,300)" d="M1.5811388300841898,0A1.5811388300841898,1.5811388300841898,0,1,1,-1.5811388300841898,0A1.5811388300841898,1.5811388300841898,0,1,1,1.5811388300841898,0" style="fill: #1f78b4; stroke-width: 2; opacity: 1;"></path><path transform="translate(326.0869565217391,300)" d="M1.5811388300841898,0A1.5811388300841898,1.5811388300841898,0,1,1,-1.5811388300841898,0A1.5811388300841898,1.5811388300841898,0,1,1,1.5811388300841898,0" style="fill: #1f78b4; stroke-width: 2; opacity: 1;"></path><path transform="translate(347.82608695652175,300)" d="M1.5811388300841898,0A1.5811388300841898,1.5811388300841898,0,1,1,-1.5811388300841898,0A1.5811388300841898,1.5811388300841898,0,1,1,1.5811388300841898,0" style="fill: #1f78b4; stroke-width: 2; opacity: 1;"></path><path transform="translate(369.5652173913043,300)" d="M1.5811388300841898,0A1.5811388300841898,1.5811388300841898,0,1,1,-1.5811388300841898,0A1.5811388300841898,1.5811388300841898,0,1,1,1.5811388300841898,0" style="fill: #1f78b4; stroke-width: 2; opacity: 1;"></path><path transform="translate(391.304347826087,293.6224489795918)" d="M1.5811388300841898,0A1.5811388300841898,1.5811388300841898,0,1,1,-1.5811388300841898,0A1.5811388300841898,1.5811388300841898,0,1,1,1.5811388300841898,0" style="fill: #1f78b4; stroke-width: 2; opacity: 1;"></path><path transform="translate(413.04347826086956,294.8524365133837)" d="M1.5811388300841898,0A1.5811388300841898,1.5811388300841898,0,1,1,-1.5811388300841898,0A1.5811388300841898,1.5811388300841898,0,1,1,1.5811388300841898,0" style="fill: #1f78b4; stroke-width: 2; opacity: 1;"></path><path transform="translate(434.7826086956522,294.1037735849057)" d="M1.5811388300841898,0A1.5811388300841898,1.5811388300841898,0,1,1,-1.5811388300841898,0A1.5811388300841898,1.5811388300841898,0,1,1,1.5811388300841898,0" style="fill: #1f78b4; stroke-width: 2; opacity: 1;"></path><path transform="translate(456.52173913043475,294.5861405197305)" d="M1.5811388300841898,0A1.5811388300841898,1.5811388300841898,0,1,1,-1.5811388300841898,0A1.5811388300841898,1.5811388300841898,0,1,1,1.5811388300841898,0" style="fill: #1f78b4; stroke-width: 2; opacity: 1;"></path><path transform="translate(478.26086956521743,292.85714285714283)" d="M1.5811388300841898,0A1.5811388300841898,1.5811388300841898,0,1,1,-1.5811388300841898,0A1.5811388300841898,1.5811388300841898,0,1,1,1.5811388300841898,0" style="fill: #1f78b4; stroke-width: 2; opacity: 1;"></path><path transform="translate(500,292.639040348964)" d="M1.5811388300841898,0A1.5811388300841898,1.5811388300841898,0,1,1,-1.5811388300841898,0A1.5811388300841898,1.5811388300841898,0,1,1,1.5811388300841898,0" style="fill: #1f78b4; stroke-width: 2; opacity: 1;"></path><path transform="translate(65.21739130434783,227.41935483870967)" d="M1.5811388300841898,0A1.5811388300841898,1.5811388300841898,0,1,1,-1.5811388300841898,0A1.5811388300841898,1.5811388300841898,0,1,1,1.5811388300841898,0" style="fill: #b2df8a; stroke-width: 2; opacity: 1;"></path><path transform="translate(86.95652173913044,185.37117903930132)" d="M1.5811388300841898,0A1.5811388300841898,1.5811388300841898,0,1,1,-1.5811388300841898,0A1.5811388300841898,1.5811388300841898,0,1,1,1.5811388300841898,0" style="fill: #b2df8a; stroke-width: 2; opacity: 1;"></path><path transform="translate(108.69565217391305,183.54037267080744)" d="M1.5811388300841898,0A1.5811388300841898,1.5811388300841898,0,1,1,-1.5811388300841898,0A1.5811388300841898,1.5811388300841898,0,1,1,1.5811388300841898,0" style="fill: #b2df8a; stroke-width: 2; opacity: 1;"></path><path transform="translate(130.43478260869566,200.66225165562918)" d="M1.5811388300841898,0A1.5811388300841898,1.5811388300841898,0,1,1,-1.5811388300841898,0A1.5811388300841898,1.5811388300841898,0,1,1,1.5811388300841898,0" style="fill: #b2df8a; stroke-width: 2; opacity: 1;"></path><path transform="translate(152.17391304347828,202.67175572519085)" d="M1.5811388300841898,0A1.5811388300841898,1.5811388300841898,0,1,1,-1.5811388300841898,0A1.5811388300841898,1.5811388300841898,0,1,1,1.5811388300841898,0" style="fill: #b2df8a; stroke-width: 2; opacity: 1;"></path><path transform="translate(173.91304347826087,211.31756756756758)" d="M1.5811388300841898,0A1.5811388300841898,1.5811388300841898,0,1,1,-1.5811388300841898,0A1.5811388300841898,1.5811388300841898,0,1,1,1.5811388300841898,0" style="fill: #b2df8a; stroke-width: 2; opacity: 1;"></path><path transform="translate(195.6521739130435,203.5904255319149)" d="M1.5811388300841898,0A1.5811388300841898,1.5811388300841898,0,1,1,-1.5811388300841898,0A1.5811388300841898,1.5811388300841898,0,1,1,1.5811388300841898,0" style="fill: #b2df8a; stroke-width: 2; opacity: 1;"></path><path transform="translate(217.3913043478261,224.73435655253834)" d="M1.5811388300841898,0A1.5811388300841898,1.5811388300841898,0,1,1,-1.5811388300841898,0A1.5811388300841898,1.5811388300841898,0,1,1,1.5811388300841898,0" style="fill: #b2df8a; stroke-width: 2; opacity: 1;"></path><path transform="translate(239.13043478260872,204.22396856581534)" d="M1.5811388300841898,0A1.5811388300841898,1.5811388300841898,0,1,1,-1.5811388300841898,0A1.5811388300841898,1.5811388300841898,0,1,1,1.5811388300841898,0" style="fill: #b2df8a; stroke-width: 2; opacity: 1;"></path><path transform="translate(260.8695652173913,181.59472422062348)" d="M1.5811388300841898,0A1.5811388300841898,1.5811388300841898,0,1,1,-1.5811388300841898,0A1.5811388300841898,1.5811388300841898,0,1,1,1.5811388300841898,0" style="fill: #b2df8a; stroke-width: 2; opacity: 1;"></path><path transform="translate(282.6086956521739,170.103593395921)" d="M1.5811388300841898,0A1.5811388300841898,1.5811388300841898,0,1,1,-1.5811388300841898,0A1.5811388300841898,1.5811388300841898,0,1,1,1.5811388300841898,0" style="fill: #b2df8a; stroke-width: 2; opacity: 1;"></path><path transform="translate(304.34782608695656,156.1430793157076)" d="M1.5811388300841898,0A1.5811388300841898,1.5811388300841898,0,1,1,-1.5811388300841898,0A1.5811388300841898,1.5811388300841898,0,1,1,1.5811388300841898,0" style="fill: #b2df8a; stroke-width: 2; opacity: 1;"></path><path transform="translate(326.0869565217391,140.64926660914583)" d="M1.5811388300841898,0A1.5811388300841898,1.5811388300841898,0,1,1,-1.5811388300841898,0A1.5811388300841898,1.5811388300841898,0,1,1,1.5811388300841898,0" style="fill: #b2df8a; stroke-width: 2; opacity: 1;"></path><path transform="translate(347.82608695652175,151.4788373278939)" d="M1.5811388300841898,0A1.5811388300841898,1.5811388300841898,0,1,1,-1.5811388300841898,0A1.5811388300841898,1.5811388300841898,0,1,1,1.5811388300841898,0" style="fill: #b2df8a; stroke-width: 2; opacity: 1;"></path><path transform="translate(369.5652173913043,113.89830508474577)" d="M1.5811388300841898,0A1.5811388300841898,1.5811388300841898,0,1,1,-1.5811388300841898,0A1.5811388300841898,1.5811388300841898,0,1,1,1.5811388300841898,0" style="fill: #b2df8a; stroke-width: 2; opacity: 1;"></path><path transform="translate(391.304347826087,110.70104666375926)" d="M1.5811388300841898,0A1.5811388300841898,1.5811388300841898,0,1,1,-1.5811388300841898,0A1.5811388300841898,1.5811388300841898,0,1,1,1.5811388300841898,0" style="fill: #b2df8a; stroke-width: 2; opacity: 1;"></path><path transform="translate(413.04347826086956,66.84895063553061)" d="M1.5811388300841898,0A1.5811388300841898,1.5811388300841898,0,1,1,-1.5811388300841898,0A1.5811388300841898,1.5811388300841898,0,1,1,1.5811388300841898,0" style="fill: #b2df8a; stroke-width: 2; opacity: 1;"></path><path transform="translate(434.7826086956522,51.14347616754934)" d="M1.5811388300841898,0A1.5811388300841898,1.5811388300841898,0,1,1,-1.5811388300841898,0A1.5811388300841898,1.5811388300841898,0,1,1,1.5811388300841898,0" style="fill: #b2df8a; stroke-width: 2; opacity: 1;"></path><path transform="translate(456.52173913043475,51.14347616754934)" d="M1.5811388300841898,0A1.5811388300841898,1.5811388300841898,0,1,1,-1.5811388300841898,0A1.5811388300841898,1.5811388300841898,0,1,1,1.5811388300841898,0" style="fill: #b2df8a; stroke-width: 2; opacity: 1;"></path><path transform="translate(478.26086956521743,31.172140430351092)" d="M1.5811388300841898,0A1.5811388300841898,1.5811388300841898,0,1,1,-1.5811388300841898,0A1.5811388300841898,1.5811388300841898,0,1,1,1.5811388300841898,0" style="fill: #b2df8a; stroke-width: 2; opacity: 1;"></path><path transform="translate(500,44.58807959540577)" d="M1.5811388300841898,0A1.5811388300841898,1.5811388300841898,0,1,1,-1.5811388300841898,0A1.5811388300841898,1.5811388300841898,0,1,1,1.5811388300841898,0" style="fill: #b2df8a; stroke-width: 2; opacity: 1;"></path><path transform="translate(0,263.9423076923077)" d="M1.5811388300841898,0A1.5811388300841898,1.5811388300841898,0,1,1,-1.5811388300841898,0A1.5811388300841898,1.5811388300841898,0,1,1,1.5811388300841898,0" style="fill: #33a02c; stroke-width: 2; opacity: 1;"></path><path transform="translate(21.73913043478261,263.2352941176471)" d="M1.5811388300841898,0A1.5811388300841898,1.5811388300841898,0,1,1,-1.5811388300841898,0A1.5811388300841898,1.5811388300841898,0,1,1,1.5811388300841898,0" style="fill: #33a02c; stroke-width: 2; opacity: 1;"></path><path transform="translate(43.47826086956522,282.67898383371823)" d="M1.5811388300841898,0A1.5811388300841898,1.5811388300841898,0,1,1,-1.5811388300841898,0A1.5811388300841898,1.5811388300841898,0,1,1,1.5811388300841898,0" style="fill: #33a02c; stroke-width: 2; opacity: 1;"></path><path transform="translate(65.21739130434783,262.624584717608)" d="M1.5811388300841898,0A1.5811388300841898,1.5811388300841898,0,1,1,-1.5811388300841898,0A1.5811388300841898,1.5811388300841898,0,1,1,1.5811388300841898,0" style="fill: #33a02c; stroke-width: 2; opacity: 1;"></path><path transform="translate(86.95652173913044,263.98559423769507)" d="M1.5811388300841898,0A1.5811388300841898,1.5811388300841898,0,1,1,-1.5811388300841898,0A1.5811388300841898,1.5811388300841898,0,1,1,1.5811388300841898,0" style="fill: #33a02c; stroke-width: 2; opacity: 1;"></path><path transform="translate(108.69565217391305,261.6171954964176)" d="M1.5811388300841898,0A1.5811388300841898,1.5811388300841898,0,1,1,-1.5811388300841898,0A1.5811388300841898,1.5811388300841898,0,1,1,1.5811388300841898,0" style="fill: #33a02c; stroke-width: 2; opacity: 1;"></path><path transform="translate(130.43478260869566,264.3140364789849)" d="M1.5811388300841898,0A1.5811388300841898,1.5811388300841898,0,1,1,-1.5811388300841898,0A1.5811388300841898,1.5811388300841898,0,1,1,1.5811388300841898,0" style="fill: #33a02c; stroke-width: 2; opacity: 1;"></path><path transform="translate(152.17391304347828,272.3952434881087)" d="M1.5811388300841898,0A1.5811388300841898,1.5811388300841898,0,1,1,-1.5811388300841898,0A1.5811388300841898,1.5811388300841898,0,1,1,1.5811388300841898,0" style="fill: #33a02c; stroke-width: 2; opacity: 1;"></path><path transform="translate(173.91304347826087,279.13992297817714)" d="M1.5811388300841898,0A1.5811388300841898,1.5811388300841898,0,1,1,-1.5811388300841898,0A1.5811388300841898,1.5811388300841898,0,1,1,1.5811388300841898,0" style="fill: #33a02c; stroke-width: 2; opacity: 1;"></path><path transform="translate(195.6521739130435,280.95238095238096)" d="M1.5811388300841898,0A1.5811388300841898,1.5811388300841898,0,1,1,-1.5811388300841898,0A1.5811388300841898,1.5811388300841898,0,1,1,1.5811388300841898,0" style="fill: #33a02c; stroke-width: 2; opacity: 1;"></path><path transform="translate(217.3913043478261,282.93629550321197)" d="M1.5811388300841898,0A1.5811388300841898,1.5811388300841898,0,1,1,-1.5811388300841898,0A1.5811388300841898,1.5811388300841898,0,1,1,1.5811388300841898,0" style="fill: #33a02c; stroke-width: 2; opacity: 1;"></path><path transform="translate(239.13043478260872,275.7785467128028)" d="M1.5811388300841898,0A1.5811388300841898,1.5811388300841898,0,1,1,-1.5811388300841898,0A1.5811388300841898,1.5811388300841898,0,1,1,1.5811388300841898,0" style="fill: #33a02c; stroke-width: 2; opacity: 1;"></path><path transform="translate(260.8695652173913,279.75318164288467)" d="M1.5811388300841898,0A1.5811388300841898,1.5811388300841898,0,1,1,-1.5811388300841898,0A1.5811388300841898,1.5811388300841898,0,1,1,1.5811388300841898,0" style="fill: #33a02c; stroke-width: 2; opacity: 1;"></path><path transform="translate(282.6086956521739,276.65006226650064)" d="M1.5811388300841898,0A1.5811388300841898,1.5811388300841898,0,1,1,-1.5811388300841898,0A1.5811388300841898,1.5811388300841898,0,1,1,1.5811388300841898,0" style="fill: #33a02c; stroke-width: 2; opacity: 1;"></path><path transform="translate(304.34782608695656,278.44119579500654)" d="M1.5811388300841898,0A1.5811388300841898,1.5811388300841898,0,1,1,-1.5811388300841898,0A1.5811388300841898,1.5811388300841898,0,1,1,1.5811388300841898,0" style="fill: #33a02c; stroke-width: 2; opacity: 1;"></path><path transform="translate(326.0869565217391,276.11102684665553)" d="M1.5811388300841898,0A1.5811388300841898,1.5811388300841898,0,1,1,-1.5811388300841898,0A1.5811388300841898,1.5811388300841898,0,1,1,1.5811388300841898,0" style="fill: #33a02c; stroke-width: 2; opacity: 1;"></path><path transform="translate(347.82608695652175,276.56582871751175)" d="M1.5811388300841898,0A1.5811388300841898,1.5811388300841898,0,1,1,-1.5811388300841898,0A1.5811388300841898,1.5811388300841898,0,1,1,1.5811388300841898,0" style="fill: #33a02c; stroke-width: 2; opacity: 1;"></path><path transform="translate(369.5652173913043,274.3642329778507)" d="M1.5811388300841898,0A1.5811388300841898,1.5811388300841898,0,1,1,-1.5811388300841898,0A1.5811388300841898,1.5811388300841898,0,1,1,1.5811388300841898,0" style="fill: #33a02c; stroke-width: 2; opacity: 1;"></path><path transform="translate(391.304347826087,273.422037978069)" d="M1.5811388300841898,0A1.5811388300841898,1.5811388300841898,0,1,1,-1.5811388300841898,0A1.5811388300841898,1.5811388300841898,0,1,1,1.5811388300841898,0" style="fill: #33a02c; stroke-width: 2; opacity: 1;"></path><path transform="translate(413.04347826086956,273.0467190203647)" d="M1.5811388300841898,0A1.5811388300841898,1.5811388300841898,0,1,1,-1.5811388300841898,0A1.5811388300841898,1.5811388300841898,0,1,1,1.5811388300841898,0" style="fill: #33a02c; stroke-width: 2; opacity: 1;"></path><path transform="translate(434.7826086956522,270.9864603481625)" d="M1.5811388300841898,0A1.5811388300841898,1.5811388300841898,0,1,1,-1.5811388300841898,0A1.5811388300841898,1.5811388300841898,0,1,1,1.5811388300841898,0" style="fill: #33a02c; stroke-width: 2; opacity: 1;"></path><path transform="translate(456.52173913043475,268.5474647350362)" d="M1.5811388300841898,0A1.5811388300841898,1.5811388300841898,0,1,1,-1.5811388300841898,0A1.5811388300841898,1.5811388300841898,0,1,1,1.5811388300841898,0" style="fill: #33a02c; stroke-width: 2; opacity: 1;"></path><path transform="translate(478.26086956521743,268.9810753227222)" d="M1.5811388300841898,0A1.5811388300841898,1.5811388300841898,0,1,1,-1.5811388300841898,0A1.5811388300841898,1.5811388300841898,0,1,1,1.5811388300841898,0" style="fill: #33a02c; stroke-width: 2; opacity: 1;"></path><path transform="translate(500,266.6089537472174)" d="M1.5811388300841898,0A1.5811388300841898,1.5811388300841898,0,1,1,-1.5811388300841898,0A1.5811388300841898,1.5811388300841898,0,1,1,1.5811388300841898,0" style="fill: #33a02c; stroke-width: 2; opacity: 1;"></path><path transform="translate(239.13043478260872,300)" d="M1.5811388300841898,0A1.5811388300841898,1.5811388300841898,0,1,1,-1.5811388300841898,0A1.5811388300841898,1.5811388300841898,0,1,1,1.5811388300841898,0" style="fill: #fb9a99; stroke-width: 2; opacity: 1;"></path><path transform="translate(260.8695652173913,277.27272727272725)" d="M1.5811388300841898,0A1.5811388300841898,1.5811388300841898,0,1,1,-1.5811388300841898,0A1.5811388300841898,1.5811388300841898,0,1,1,1.5811388300841898,0" style="fill: #fb9a99; stroke-width: 2; opacity: 1;"></path><path transform="translate(282.6086956521739,266.21621621621625)" d="M1.5811388300841898,0A1.5811388300841898,1.5811388300841898,0,1,1,-1.5811388300841898,0A1.5811388300841898,1.5811388300841898,0,1,1,1.5811388300841898,0" style="fill: #fb9a99; stroke-width: 2; opacity: 1;"></path><path transform="translate(304.34782608695656,256.56370656370655)" d="M1.5811388300841898,0A1.5811388300841898,1.5811388300841898,0,1,1,-1.5811388300841898,0A1.5811388300841898,1.5811388300841898,0,1,1,1.5811388300841898,0" style="fill: #fb9a99; stroke-width: 2; opacity: 1;"></path><path transform="translate(326.0869565217391,253.125)" d="M1.5811388300841898,0A1.5811388300841898,1.5811388300841898,0,1,1,-1.5811388300841898,0A1.5811388300841898,1.5811388300841898,0,1,1,1.5811388300841898,0" style="fill: #fb9a99; stroke-width: 2; opacity: 1;"></path><path transform="translate(347.82608695652175,225)" d="M1.5811388300841898,0A1.5811388300841898,1.5811388300841898,0,1,1,-1.5811388300841898,0A1.5811388300841898,1.5811388300841898,0,1,1,1.5811388300841898,0" style="fill: #fb9a99; stroke-width: 2; opacity: 1;"></path><path transform="translate(369.5652173913043,205.27488855869242)" d="M1.5811388300841898,0A1.5811388300841898,1.5811388300841898,0,1,1,-1.5811388300841898,0A1.5811388300841898,1.5811388300841898,0,1,1,1.5811388300841898,0" style="fill: #fb9a99; stroke-width: 2; opacity: 1;"></path><path transform="translate(391.304347826087,202.14352283317803)" d="M1.5811388300841898,0A1.5811388300841898,1.5811388300841898,0,1,1,-1.5811388300841898,0A1.5811388300841898,1.5811388300841898,0,1,1,1.5811388300841898,0" style="fill: #fb9a99; stroke-width: 2; opacity: 1;"></path><path transform="translate(413.04347826086956,222.56637168141594)" d="M1.5811388300841898,0A1.5811388300841898,1.5811388300841898,0,1,1,-1.5811388300841898,0A1.5811388300841898,1.5811388300841898,0,1,1,1.5811388300841898,0" style="fill: #fb9a99; stroke-width: 2; opacity: 1;"></path><path transform="translate(434.7826086956522,211.06719367588934)" d="M1.5811388300841898,0A1.5811388300841898,1.5811388300841898,0,1,1,-1.5811388300841898,0A1.5811388300841898,1.5811388300841898,0,1,1,1.5811388300841898,0" style="fill: #fb9a99; stroke-width: 2; opacity: 1;"></path><path transform="translate(456.52173913043475,209.42028985507247)" d="M1.5811388300841898,0A1.5811388300841898,1.5811388300841898,0,1,1,-1.5811388300841898,0A1.5811388300841898,1.5811388300841898,0,1,1,1.5811388300841898,0" style="fill: #fb9a99; stroke-width: 2; opacity: 1;"></path><path transform="translate(478.26086956521743,204.6731651376147)" d="M1.5811388300841898,0A1.5811388300841898,1.5811388300841898,0,1,1,-1.5811388300841898,0A1.5811388300841898,1.5811388300841898,0,1,1,1.5811388300841898,0" style="fill: #fb9a99; stroke-width: 2; opacity: 1;"></path><path transform="translate(500,185.58128618369582)" d="M1.5811388300841898,0A1.5811388300841898,1.5811388300841898,0,1,1,-1.5811388300841898,0A1.5811388300841898,1.5811388300841898,0,1,1,1.5811388300841898,0" style="fill: #fb9a99; stroke-width: 2; opacity: 1;"></path><path transform="translate(260.8695652173913,77.54237288135593)" d="M1.5811388300841898,0A1.5811388300841898,1.5811388300841898,0,1,1,-1.5811388300841898,0A1.5811388300841898,1.5811388300841898,0,1,1,1.5811388300841898,0" style="fill: #e31a1c; stroke-width: 2; opacity: 1;"></path><path transform="translate(282.6086956521739,23.154362416107364)" d="M1.5811388300841898,0A1.5811388300841898,1.5811388300841898,0,1,1,-1.5811388300841898,0A1.5811388300841898,1.5811388300841898,0,1,1,1.5811388300841898,0" style="fill: #e31a1c; stroke-width: 2; opacity: 1;"></path><path transform="translate(304.34782608695656,92.62672811059912)" d="M1.5811388300841898,0A1.5811388300841898,1.5811388300841898,0,1,1,-1.5811388300841898,0A1.5811388300841898,1.5811388300841898,0,1,1,1.5811388300841898,0" style="fill: #e31a1c; stroke-width: 2; opacity: 1;"></path><path transform="translate(326.0869565217391,99.61832061068704)" d="M1.5811388300841898,0A1.5811388300841898,1.5811388300841898,0,1,1,-1.5811388300841898,0A1.5811388300841898,1.5811388300841898,0,1,1,1.5811388300841898,0" style="fill: #e31a1c; stroke-width: 2; opacity: 1;"></path><path transform="translate(347.82608695652175,141.4179104477612)" d="M1.5811388300841898,0A1.5811388300841898,1.5811388300841898,0,1,1,-1.5811388300841898,0A1.5811388300841898,1.5811388300841898,0,1,1,1.5811388300841898,0" style="fill: #e31a1c; stroke-width: 2; opacity: 1;"></path><path transform="translate(369.5652173913043,147.97297297297297)" d="M1.5811388300841898,0A1.5811388300841898,1.5811388300841898,0,1,1,-1.5811388300841898,0A1.5811388300841898,1.5811388300841898,0,1,1,1.5811388300841898,0" style="fill: #e31a1c; stroke-width: 2; opacity: 1;"></path><path transform="translate(391.304347826087,158.49056603773587)" d="M1.5811388300841898,0A1.5811388300841898,1.5811388300841898,0,1,1,-1.5811388300841898,0A1.5811388300841898,1.5811388300841898,0,1,1,1.5811388300841898,0" style="fill: #e31a1c; stroke-width: 2; opacity: 1;"></path><path transform="translate(413.04347826086956,190.5109489051095)" d="M1.5811388300841898,0A1.5811388300841898,1.5811388300841898,0,1,1,-1.5811388300841898,0A1.5811388300841898,1.5811388300841898,0,1,1,1.5811388300841898,0" style="fill: #e31a1c; stroke-width: 2; opacity: 1;"></path><path transform="translate(434.7826086956522,194.6135831381733)" d="M1.5811388300841898,0A1.5811388300841898,1.5811388300841898,0,1,1,-1.5811388300841898,0A1.5811388300841898,1.5811388300841898,0,1,1,1.5811388300841898,0" style="fill: #e31a1c; stroke-width: 2; opacity: 1;"></path><path transform="translate(456.52173913043475,209.80156343956705)" d="M1.5811388300841898,0A1.5811388300841898,1.5811388300841898,0,1,1,-1.5811388300841898,0A1.5811388300841898,1.5811388300841898,0,1,1,1.5811388300841898,0" style="fill: #e31a1c; stroke-width: 2; opacity: 1;"></path><path transform="translate(478.26086956521743,219.11427260211107)" d="M1.5811388300841898,0A1.5811388300841898,1.5811388300841898,0,1,1,-1.5811388300841898,0A1.5811388300841898,1.5811388300841898,0,1,1,1.5811388300841898,0" style="fill: #e31a1c; stroke-width: 2; opacity: 1;"></path><path transform="translate(500,225.74257425742573)" d="M1.5811388300841898,0A1.5811388300841898,1.5811388300841898,0,1,1,-1.5811388300841898,0A1.5811388300841898,1.5811388300841898,0,1,1,1.5811388300841898,0" style="fill: #e31a1c; stroke-width: 2; opacity: 1;"></path><path transform="translate(304.34782608695656,267.67241379310343)" d="M1.5811388300841898,0A1.5811388300841898,1.5811388300841898,0,1,1,-1.5811388300841898,0A1.5811388300841898,1.5811388300841898,0,1,1,1.5811388300841898,0" style="fill: #fdbf6f; stroke-width: 2; opacity: 1;"></path><path transform="translate(326.0869565217391,254.2682926829268)" d="M1.5811388300841898,0A1.5811388300841898,1.5811388300841898,0,1,1,-1.5811388300841898,0A1.5811388300841898,1.5811388300841898,0,1,1,1.5811388300841898,0" style="fill: #fdbf6f; stroke-width: 2; opacity: 1;"></path><path transform="translate(347.82608695652175,263.768115942029)" d="M1.5811388300841898,0A1.5811388300841898,1.5811388300841898,0,1,1,-1.5811388300841898,0A1.5811388300841898,1.5811388300841898,0,1,1,1.5811388300841898,0" style="fill: #fdbf6f; stroke-width: 2; opacity: 1;"></path><path transform="translate(369.5652173913043,258.94160583941607)" d="M1.5811388300841898,0A1.5811388300841898,1.5811388300841898,0,1,1,-1.5811388300841898,0A1.5811388300841898,1.5811388300841898,0,1,1,1.5811388300841898,0" style="fill: #fdbf6f; stroke-width: 2; opacity: 1;"></path><path transform="translate(391.304347826087,253.416149068323)" d="M1.5811388300841898,0A1.5811388300841898,1.5811388300841898,0,1,1,-1.5811388300841898,0A1.5811388300841898,1.5811388300841898,0,1,1,1.5811388300841898,0" style="fill: #fdbf6f; stroke-width: 2; opacity: 1;"></path><path transform="translate(413.04347826086956,241.40625)" d="M1.5811388300841898,0A1.5811388300841898,1.5811388300841898,0,1,1,-1.5811388300841898,0A1.5811388300841898,1.5811388300841898,0,1,1,1.5811388300841898,0" style="fill: #fdbf6f; stroke-width: 2; opacity: 1;"></path><path transform="translate(434.7826086956522,234.64052287581697)" d="M1.5811388300841898,0A1.5811388300841898,1.5811388300841898,0,1,1,-1.5811388300841898,0A1.5811388300841898,1.5811388300841898,0,1,1,1.5811388300841898,0" style="fill: #fdbf6f; stroke-width: 2; opacity: 1;"></path><path transform="translate(456.52173913043475,234.64052287581697)" d="M1.5811388300841898,0A1.5811388300841898,1.5811388300841898,0,1,1,-1.5811388300841898,0A1.5811388300841898,1.5811388300841898,0,1,1,1.5811388300841898,0" style="fill: #fdbf6f; stroke-width: 2; opacity: 1;"></path><path transform="translate(478.26086956521743,262.5468164794008)" d="M1.5811388300841898,0A1.5811388300841898,1.5811388300841898,0,1,1,-1.5811388300841898,0A1.5811388300841898,1.5811388300841898,0,1,1,1.5811388300841898,0" style="fill: #fdbf6f; stroke-width: 2; opacity: 1;"></path><path transform="translate(500,231.10236220472441)" d="M1.5811388300841898,0A1.5811388300841898,1.5811388300841898,0,1,1,-1.5811388300841898,0A1.5811388300841898,1.5811388300841898,0,1,1,1.5811388300841898,0" style="fill: #fdbf6f; stroke-width: 2; opacity: 1;"></path></g><g class="mark-group role-legend"><g transform="translate(519,0)"><path class="background" d="M0,0h105v96h-105Z" style="pointer-events: none; fill: none;"></path><g><g class="mark-group role-legend-entry"><g transform="translate(0,0)"><path class="background" d="M0,0h0v0h0Z" style="pointer-events: none; fill: none;"></path><g><g class="mark-group role-scope"><g transform="translate(0,0)"><path class="background" d="M0,0h104.68333435058594v12h-104.68333435058594Z" style="pointer-events: none; fill: none; opacity: 1;"></path><g><g class="mark-symbol role-legend-symbol" style="pointer-events: none;"><path transform="translate(6,6)" d="M3.5355339059327378,0A3.5355339059327378,3.5355339059327378,0,1,1,-3.5355339059327378,0A3.5355339059327378,3.5355339059327378,0,1,1,3.5355339059327378,0" style="fill: #a6cee3; stroke: #a6cee3; stroke-width: 1; opacity: 1;"></path></g><g class="mark-text role-legend-label" style="pointer-events: none;"><text text-anchor="start" transform="translate(16,10)" style="font-family: Avenir; font-size: 12px; fill: #000; opacity: 1;">France</text></g></g><path class="foreground" d="" style="pointer-events: none; display: none; fill: none;"></path></g><g transform="translate(0,14)"><path class="background" d="M0,0h104.68333435058594v12h-104.68333435058594Z" style="pointer-events: none; fill: none; opacity: 1;"></path><g><g class="mark-symbol role-legend-symbol" style="pointer-events: none;"><path transform="translate(6,6)" d="M3.5355339059327378,0A3.5355339059327378,3.5355339059327378,0,1,1,-3.5355339059327378,0A3.5355339059327378,3.5355339059327378,0,1,1,3.5355339059327378,0" style="fill: #1f78b4; stroke: #1f78b4; stroke-width: 1; opacity: 1;"></path></g><g class="mark-text role-legend-label" style="pointer-events: none;"><text text-anchor="start" transform="translate(16,10)" style="font-family: Avenir; font-size: 12px; fill: #000; opacity: 1;">Germany</text></g></g><path class="foreground" d="" style="pointer-events: none; display: none; fill: none;"></path></g><g transform="translate(0,28)"><path class="background" d="M0,0h104.68333435058594v12h-104.68333435058594Z" style="pointer-events: none; fill: none; opacity: 1;"></path><g><g class="mark-symbol role-legend-symbol" style="pointer-events: none;"><path transform="translate(6,6)" d="M3.5355339059327378,0A3.5355339059327378,3.5355339059327378,0,1,1,-3.5355339059327378,0A3.5355339059327378,3.5355339059327378,0,1,1,3.5355339059327378,0" style="fill: #b2df8a; stroke: #b2df8a; stroke-width: 1; opacity: 1;"></path></g><g class="mark-text role-legend-label" style="pointer-events: none;"><text text-anchor="start" transform="translate(16,10)" style="font-family: Avenir; font-size: 12px; fill: #000; opacity: 1;">Italy</text></g></g><path class="foreground" d="" style="pointer-events: none; display: none; fill: none;"></path></g><g transform="translate(0,42)"><path class="background" d="M0,0h104.68333435058594v12h-104.68333435058594Z" style="pointer-events: none; fill: none; opacity: 1;"></path><g><g class="mark-symbol role-legend-symbol" style="pointer-events: none;"><path transform="translate(6,6)" d="M3.5355339059327378,0A3.5355339059327378,3.5355339059327378,0,1,1,-3.5355339059327378,0A3.5355339059327378,3.5355339059327378,0,1,1,3.5355339059327378,0" style="fill: #33a02c; stroke: #33a02c; stroke-width: 1; opacity: 1;"></path></g><g class="mark-text role-legend-label" style="pointer-events: none;"><text text-anchor="start" transform="translate(16,10)" style="font-family: Avenir; font-size: 12px; fill: #000; opacity: 1;">Korea, South</text></g></g><path class="foreground" d="" style="pointer-events: none; display: none; fill: none;"></path></g><g transform="translate(0,56)"><path class="background" d="M0,0h104.68333435058594v12h-104.68333435058594Z" style="pointer-events: none; fill: none; opacity: 1;"></path><g><g class="mark-symbol role-legend-symbol" style="pointer-events: none;"><path transform="translate(6,6)" d="M3.5355339059327378,0A3.5355339059327378,3.5355339059327378,0,1,1,-3.5355339059327378,0A3.5355339059327378,3.5355339059327378,0,1,1,3.5355339059327378,0" style="fill: #fb9a99; stroke: #fb9a99; stroke-width: 1; opacity: 1;"></path></g><g class="mark-text role-legend-label" style="pointer-events: none;"><text text-anchor="start" transform="translate(16,10)" style="font-family: Avenir; font-size: 12px; fill: #000; opacity: 1;">Spain</text></g></g><path class="foreground" d="" style="pointer-events: none; display: none; fill: none;"></path></g><g transform="translate(0,70)"><path class="background" d="M0,0h104.68333435058594v12h-104.68333435058594Z" style="pointer-events: none; fill: none; opacity: 1;"></path><g><g class="mark-symbol role-legend-symbol" style="pointer-events: none;"><path transform="translate(6,6)" d="M3.5355339059327378,0A3.5355339059327378,3.5355339059327378,0,1,1,-3.5355339059327378,0A3.5355339059327378,3.5355339059327378,0,1,1,3.5355339059327378,0" style="fill: #e31a1c; stroke: #e31a1c; stroke-width: 1; opacity: 1;"></path></g><g class="mark-text role-legend-label" style="pointer-events: none;"><text text-anchor="start" transform="translate(16,10)" style="font-family: Avenir; font-size: 12px; fill: #000; opacity: 1;">US</text></g></g><path class="foreground" d="" style="pointer-events: none; display: none; fill: none;"></path></g><g transform="translate(0,84)"><path class="background" d="M0,0h104.68333435058594v12h-104.68333435058594Z" style="pointer-events: none; fill: none; opacity: 1;"></path><g><g class="mark-symbol role-legend-symbol" style="pointer-events: none;"><path transform="translate(6,6)" d="M3.5355339059327378,0A3.5355339059327378,3.5355339059327378,0,1,1,-3.5355339059327378,0A3.5355339059327378,3.5355339059327378,0,1,1,3.5355339059327378,0" style="fill: #fdbf6f; stroke: #fdbf6f; stroke-width: 1; opacity: 1;"></path></g><g class="mark-text role-legend-label" style="pointer-events: none;"><text text-anchor="start" transform="translate(16,10)" style="font-family: Avenir; font-size: 12px; fill: #000; opacity: 1;">United Kingdom</text></g></g><path class="foreground" d="" style="pointer-events: none; display: none; fill: none;"></path></g></g></g><path class="foreground" d="" style="pointer-events: none; display: none; fill: none;"></path></g></g></g><path class="foreground" d="" style="pointer-events: none; display: none; fill: none;"></path></g></g><g class="mark-group role-title"><g transform="translate(-49.483333587646484,-55)"><path class="background" d="M0,0h0v0h0Z" style="pointer-events: none; fill: none;"></path><g><g class="mark-text role-title-text" style="pointer-events: none;"><text text-anchor="start" transform="translate(0,16)" style="font-family: Avenir; font-size: 20px; font-weight: 300; fill: #4d4d4d; opacity: 1;">Development of confirmed COVID-19 deaths in infected persons</text></g></g><path class="foreground" d="" style="pointer-events: none; display: none; fill: none;"></path></g></g><g class="mark-group role-axis"><g transform="translate(0.5,300.5)"><path class="background" d="M0,0h0v0h0Z" style="pointer-events: none; fill: none;"></path><g><g class="mark-rule role-axis-tick" style="pointer-events: none;"><line transform="translate(22,0)" x2="0" y2="5" style="fill: none; stroke: #DEDDDD; stroke-width: 1; opacity: 1;"></line><line transform="translate(65,0)" x2="0" y2="5" style="fill: none; stroke: #DEDDDD; stroke-width: 1; opacity: 1;"></line><line transform="translate(109,0)" x2="0" y2="5" style="fill: none; stroke: #DEDDDD; stroke-width: 1; opacity: 1;"></line><line transform="translate(152,0)" x2="0" y2="5" style="fill: none; stroke: #DEDDDD; stroke-width: 1; opacity: 1;"></line><line transform="translate(196,0)" x2="0" y2="5" style="fill: none; stroke: #DEDDDD; stroke-width: 1; opacity: 1;"></line><line transform="translate(217,0)" x2="0" y2="5" style="fill: none; stroke: #DEDDDD; stroke-width: 1; opacity: 1;"></line><line transform="translate(261,0)" x2="0" y2="5" style="fill: none; stroke: #DEDDDD; stroke-width: 1; opacity: 1;"></line><line transform="translate(304,0)" x2="0" y2="5" style="fill: none; stroke: #DEDDDD; stroke-width: 1; opacity: 1;"></line><line transform="translate(348,0)" x2="0" y2="5" style="fill: none; stroke: #DEDDDD; stroke-width: 1; opacity: 1;"></line><line transform="translate(391,0)" x2="0" y2="5" style="fill: none; stroke: #DEDDDD; stroke-width: 1; opacity: 1;"></line><line transform="translate(435,0)" x2="0" y2="5" style="fill: none; stroke: #DEDDDD; stroke-width: 1; opacity: 1;"></line><line transform="translate(478,0)" x2="0" y2="5" style="fill: none; stroke: #DEDDDD; stroke-width: 1; opacity: 1;"></line></g><g class="mark-text role-axis-label" style="pointer-events: none;"><text text-anchor="middle" transform="translate(21.73913043478261,15)" style="font-family: Avenir; font-size: 10px; fill: #000; opacity: 1;">Fri 21</text><text text-anchor="middle" transform="translate(65.21739130434783,15)" style="font-family: Avenir; font-size: 10px; fill: #000; opacity: 0;">Feb 23</text><text text-anchor="middle" transform="translate(108.69565217391305,15)" style="font-family: Avenir; font-size: 10px; fill: #000; opacity: 1;">Tue 25</text><text text-anchor="middle" transform="translate(152.17391304347828,15)" style="font-family: Avenir; font-size: 10px; fill: #000; opacity: 0;">Thu 27</text><text text-anchor="middle" transform="translate(195.6521739130435,15)" style="font-family: Avenir; font-size: 10px; fill: #000; opacity: 1;">Sat 29</text><text text-anchor="middle" transform="translate(217.3913043478261,15)" style="font-family: Avenir; font-size: 10px; fill: #000; opacity: 0;">March</text><text text-anchor="middle" transform="translate(260.8695652173913,15)" style="font-family: Avenir; font-size: 10px; fill: #000; opacity: 1;">Tue 03</text><text text-anchor="middle" transform="translate(304.34782608695656,15)" style="font-family: Avenir; font-size: 10px; fill: #000; opacity: 0;">Thu 05</text><text text-anchor="middle" transform="translate(347.82608695652175,15)" style="font-family: Avenir; font-size: 10px; fill: #000; opacity: 1;">Sat 07</text><text text-anchor="middle" transform="translate(391.304347826087,15)" style="font-family: Avenir; font-size: 10px; fill: #000; opacity: 0;">Mon 09</text><text text-anchor="middle" transform="translate(434.7826086956522,15)" style="font-family: Avenir; font-size: 10px; fill: #000; opacity: 1;">Wed 11</text><text text-anchor="middle" transform="translate(478.26086956521743,15)" style="font-family: Avenir; font-size: 10px; fill: #000; opacity: 0;">Fri 13</text></g><g class="mark-rule role-axis-domain" style="pointer-events: none;"><line transform="translate(0,0)" x2="500" y2="0" style="fill: none; stroke: #DEDDDD; stroke-width: 1; stroke-dashoffset: 10; opacity: 1;"></line></g><g class="mark-text role-axis-title" style="pointer-events: none;"><text text-anchor="middle" transform="translate(250,36)" style="font-family: Avenir; font-size: 12px; font-weight: 400; fill: #000; opacity: 1;">Date</text></g></g><path class="foreground" d="" style="pointer-events: none; display: none; fill: none;"></path></g></g><g class="mark-group role-axis"><g transform="translate(0.5,0.5)"><path class="background" d="M0,0h0v0h0Z" style="pointer-events: none; fill: none;"></path><g><g class="mark-rule role-axis-tick" style="pointer-events: none;"><line transform="translate(0,300)" x2="-5" y2="0" style="fill: none; stroke: #888; stroke-width: 1; opacity: 1;"></line><line transform="translate(0,263)" x2="-5" y2="0" style="fill: none; stroke: #888; stroke-width: 1; opacity: 1;"></line><line transform="translate(0,225)" x2="-5" y2="0" style="fill: none; stroke: #888; stroke-width: 1; opacity: 1;"></line><line transform="translate(0,188)" x2="-5" y2="0" style="fill: none; stroke: #888; stroke-width: 1; opacity: 1;"></line><line transform="translate(0,150)" x2="-5" y2="0" style="fill: none; stroke: #888; stroke-width: 1; opacity: 1;"></line><line transform="translate(0,113)" x2="-5" y2="0" style="fill: none; stroke: #888; stroke-width: 1; opacity: 1;"></line><line transform="translate(0,75)" x2="-5" y2="0" style="fill: none; stroke: #888; stroke-width: 1; opacity: 1;"></line><line transform="translate(0,37)" x2="-5" y2="0" style="fill: none; stroke: #888; stroke-width: 1; opacity: 1;"></line><line transform="translate(0,0)" x2="-5" y2="0" style="fill: none; stroke: #888; stroke-width: 1; opacity: 1;"></line></g><g class="mark-text role-axis-label" style="pointer-events: none;"><text text-anchor="end" transform="translate(-7,303)" style="font-family: Avenir; font-size: 10px; fill: #000; opacity: 1;">0.00</text><text text-anchor="end" transform="translate(-7,265.5)" style="font-family: Avenir; font-size: 10px; fill: #000; opacity: 1;">0.01</text><text text-anchor="end" transform="translate(-7,228)" style="font-family: Avenir; font-size: 10px; fill: #000; opacity: 1;">0.02</text><text text-anchor="end" transform="translate(-7,190.5)" style="font-family: Avenir; font-size: 10px; fill: #000; opacity: 1;">0.03</text><text text-anchor="end" transform="translate(-7,153)" style="font-family: Avenir; font-size: 10px; fill: #000; opacity: 1;">0.04</text><text text-anchor="end" transform="translate(-7,115.5)" style="font-family: Avenir; font-size: 10px; fill: #000; opacity: 1;">0.05</text><text text-anchor="end" transform="translate(-7,78)" style="font-family: Avenir; font-size: 10px; fill: #000; opacity: 1;">0.06</text><text text-anchor="end" transform="translate(-7,40.499999999999964)" style="font-family: Avenir; font-size: 10px; fill: #000; opacity: 1;">0.07</text><text text-anchor="end" transform="translate(-7,3)" style="font-family: Avenir; font-size: 10px; fill: #000; opacity: 1;">0.08</text></g><g class="mark-text role-axis-title" style="pointer-events: none;"><text text-anchor="middle" transform="translate(-36.483333587646484,150) rotate(-90) translate(0,-3)" style="font-family: Avenir; font-size: 12px; font-weight: 400; fill: #000; opacity: 1;">share of COVID-19 deaths in infected persons</text></g></g><path class="foreground" d="" style="pointer-events: none; display: none; fill: none;"></path></g></g></g><path class="foreground" d="" style="display: none; fill: none;"></path></g></g></g></svg>