<svg class="marks" width="1017" height="672" viewBox="0 0 678 448" version="1.1" xmlns="http://www.w3.org/2000/svg" xmlns:xlink="http://www.w3.org/1999/xlink"><g transform="translate(49,105)"><g class="mark-group role-frame root"><g transform="translate(0,0)"><path class="background" d="M0,0h500v300h-500Z" style="fill: none; stroke: #ddd; stroke-width: 0;"></path><g><g class="mark-group role-axis"><g transform="translate(0.5,0.5)"><path class="background" d="M0,0h0v0h0Z" style="pointer-events: none; fill: none;"></path><g><g class="mark-rule role-axis-grid" style="pointer-events: none;"><line transform="translate(0,300)" x2="500" y2="0" style="fill: none; stroke: #DEDDDD; stroke-width: 1; stroke-dasharray: 5,2; opacity: 1;"></line><line transform="translate(0,275)" x2="500" y2="0" style="fill: none; stroke: #DEDDDD; stroke-width: 1; stroke-dasharray: 5,2; opacity: 1;"></line><line transform="translate(0,250)" x2="500" y2="0" style="fill: none; stroke: #DEDDDD; stroke-width: 1; stroke-dasharray: 5,2; opacity: 1;"></line><line transform="translate(0,225)" x2="500" y2="0" style="fill: none; stroke: #DEDDDD; stroke-width: 1; stroke-dasharray: 5,2; opacity: 1;"></line><line transform="translate(0,200)" x2="500" y2="0" style="fill: none; stroke: #DEDDDD; stroke-width: 1; stroke-dasharray: 5,2; opacity: 1;"></line><line transform="translate(0,175)" x2="500" y2="0" style="fill: none; stroke: #DEDDDD; stroke-width: 1; stroke-dasharray: 5,2; opacity: 1;"></line><line transform="translate(0,150)" x2="500" y2="0" style="fill: none; stroke: #DEDDDD; stroke-width: 1; stroke-dasharray: 5,2; opacity: 1;"></line><line transform="translate(0,125)" x2="500" y2="0" style="fill: none; stroke: #DEDDDD; stroke-width: 1; stroke-dasharray: 5,2; opacity: 1;"></line><line transform="translate(0,100)" x2="500" y2="0" style="fill: none; stroke: #DEDDDD; stroke-width: 1; stroke-dasharray: 5,2; opacity: 1;"></line><line transform="translate(0,75)" x2="500" y2="0" style="fill: none; stroke: #DEDDDD; stroke-width: 1; stroke-dasharray: 5,2; opacity: 1;"></line><line transform="translate(0,50)" x2="500" y2="0" style="fill: none; stroke: #DEDDDD; stroke-width: 1; stroke-dasharray: 5,2; opacity: 1;"></line><line transform="translate(0,25)" x2="500" y2="0" style="fill: none; stroke: #DEDDDD; stroke-width: 1; stroke-dasharray: 5,2; opacity: 1;"></line><line transform="translate(0,0)" x2="500" y2="0" style="fill: none; stroke: #DEDDDD; stroke-width: 1; stroke-dasharray: 5,2; opacity: 1;"></line></g></g><path class="foreground" d="" style="pointer-events: none; display: none; fill: none;"></path></g></g><g class="mark-group role-scope pathgroup"><g transform="translate(0,0)"><path class="background" d="M0,0h500v300h-500Z" style="fill: none;"></path><g><g class="mark-line role-mark marks"><path d="M135.13513513513513,137.49999999999997L148.64864864864865,116.34615384615384L162.16216216216216,166.49214659685865L175.67567567567568,123.52941176470587L189.1891891891892,135.06944444444446L202.7027027027027,84.21052631578947L216.21621621621622,117.26371951219512L229.72972972972974,151.92909280500518L243.24324324324326,165.8670774647887L256.7567567567567,116.03773584905662L270.27027027027026,140.2313266443701L283.78378378378375,174.99999999999997L297.2972972972973,99.33493240296555L310.8108108108108,147.32409671284978L324.3243243243243,173.99911032028473L337.8378378378378,115.67188879082083L351.35135135135135,155.69729163549303L364.86486486486484,152.17109526895655L378.3783783783784,149.70955721174923L391.8918918918919,154.62625341841385L405.4054054054054,158.29479542248L418.9189189189189,159.6159164765263L432.43243243243245,145.14098380840977L445.94594594594594,159.47671818317346L459.4594594594595,158.54477941826542L472.97297297297297,155.7080078125L486.4864864864865,158.71036513146763L500,157.40000598766542" style="fill: none; stroke: #a6cee3; stroke-width: 1;"></path></g></g><path class="foreground" d="" style="display: none; fill: none;"></path></g><g transform="translate(0,0)"><path class="background" d="M0,0h500v300h-500Z" style="fill: none;"></path><g><g class="mark-line role-mark marks"><path d="M148.64864864864865,147.11538461538458L162.16216216216216,145.9119496855346L175.67567567567568,132.90816326530611L189.1891891891892,70.0381679389313L202.7027027027027,126.24481327800828L216.21621621621622,150.93283582089552L229.72972972972974,137.29662077596996L243.24324324324326,158.65384615384616L256.7567567567567,145.1318027210884L270.27027027027026,136.30748112560056L283.78378378378375,163.86268343815516L297.2972972972973,78.93407122232917L310.8108108108108,144.04761904761904L324.3243243243243,142.01199563794984L337.8378378378378,143.1406384814495L351.35135135135135,140.87940044004398L364.86486486486484,133.54488495192828L378.3783783783784,144.6499553824937L391.8918918918919,138.05483028720627L405.4054054054054,160.1055521966949L418.9189189189189,160.03128798451354L432.43243243243245,153.97820930326057L445.94594594594594,158.09299284140968L459.4594594594595,158.56499727156975L472.97297297297297,152.8454304316373L486.4864864864865,155.27618462378805L500,158.23209687248135" style="fill: none; stroke: #1f78b4; stroke-width: 1;"></path></g></g><path class="foreground" d="" style="display: none; fill: none;"></path></g><g transform="translate(0,0)"><path class="background" d="M0,0h500v300h-500Z" style="fill: none;"></path><g><g class="mark-line role-mark marks"><path d="M54.054054054054056,115.32258064516125L67.56756756756756,124.235807860262L81.08108108108108,124.14596273291927L94.5945945945946,119.2604856512141L108.10810810810811,130.5343511450382L121.62162162162163,141.2162162162162L135.13513513513513,112.27836879432623L148.64864864864865,149.7638724911452L162.16216216216216,146.38998035363457L175.67567567567568,145.67346123101518L189.1891891891892,143.88151505341534L202.7027027027027,149.7926386728875L216.21621621621622,141.37726488352024L229.72972972972974,143.2984871664117L243.24324324324326,144.54237288135593L256.7567567567567,161.68501962494548L270.27027027027026,146.51197162282L283.78378378378375,174.99999999999997L297.2972972972973,122.86149895682875L310.8108108108108,150.2477349943375L324.3243243243243,153.7895259252257L337.8378378378378,158.6697377459894L351.35135135135135,159.2476769120801L364.86486486486484,158.30873484415667L378.3783783783784,156.37232940385854L391.8918918918919,156.76556598026076L405.4054054054054,157.5689585504349L418.9189189189189,162.02825786703497L432.43243243243245,164.87748993878722L445.94594594594594,164.73633988768438L459.4594594594595,165.5856077252226L472.97297297297297,164.57633156776814L486.4864864864865,165.83466726228144L500,166.36685241277254" style="fill: none; stroke: #b2df8a; stroke-width: 1;"></path></g></g><path class="foreground" d="" style="display: none; fill: none;"></path></g><g transform="translate(0,0)"><path class="background" d="M0,0h500v300h-500Z" style="fill: none;"></path><g><g class="mark-line role-mark marks"><path d="M13.513513513513514,54.807692307692314L27.027027027027028,34.681372549019585L40.54054054054054,126.21247113163973L54.054054054054056,127.03488372093022L67.56756756756756,153.39135654261707L81.08108108108108,138.66427840327535L94.5945945945946,124.94052339413163L108.10810810810811,134.58380520951303L121.62162162162163,131.5147625160462L135.13513513513513,151.74603174603175L148.64864864864865,154.9585117773019L162.16216216216216,150.46136101499422L175.67567567567568,164.51504049363675L189.1891891891892,164.61483721757696L202.7027027027027,164.63124178712218L216.21621621621622,166.50614287881086L229.72972972972974,170.1533873029399L243.24324324324326,172.19715613891168L256.7567567567567,174.41495052152982L270.27027027027026,170.9736456808199L283.78378378378375,173.16247582205028L297.2972972972973,173.25263692972422L310.8108108108108,173.32372477754103L324.3243243243243,173.82512985406876L337.8378378378378,173.86669933839744L351.35135135135135,173.72510927634772L364.86486486486484,173.6027644230769L378.3783783783784,172.741590395816L391.8918918918919,173.73029772329247L405.4054054054054,172.87621359223297L418.9189189189189,172.69860211387658L432.43243243243245,174.99999999999997L445.94594594594594,173.93985046311795L459.4594594594595,173.61679760982628L472.97297297297297,173.577213527416L486.4864864864865,173.76907261118927L500,173.0443634804972" style="fill: none; stroke: #33a02c; stroke-width: 1;"></path></g></g><path class="foreground" d="" style="display: none; fill: none;"></path></g><g transform="translate(0,0)"><path class="background" d="M0,0h500v300h-500Z" style="fill: none;"></path><g><g class="mark-line role-mark marks"><path d="M162.16216216216216,128.12499999999997L175.67567567567568,131.8181818181818L189.1891891891892,154.16666666666666L202.7027027027027,106.94980694980694L216.21621621621622,143.75L229.72972972972974,131.74999999999997L243.24324324324326,100.70579494799404L256.7567567567567,102.53960857409135L270.27027027027026,132.0796460176991L283.78378378378375,174.99999999999997L297.2972972972973,12.779973649538878L310.8108108108108,147.3098241590214L324.3243243243243,147.48083242059147L337.8378378378378,140.6322133880482L351.35135135135135,152.29330114665058L364.86486486486484,151.99608443990465L378.3783783783784,138.578360891445L391.8918918918919,157.97194232589212L405.4054054054054,144.59823615874572L418.9189189189189,158.280129266178L432.43243243243245,147.33036707452723L445.94594594594594,158.1049351092896L459.4594594594595,144.81948100789768L472.97297297297297,154.11996364737956L486.4864864864865,157.83970165784095L500,160.70428643162552" style="fill: none; stroke: #fb9a99; stroke-width: 1;"></path></g></g><path class="foreground" d="" style="display: none; fill: none;"></path></g><g transform="translate(0,0)"><path class="background" d="M0,0h500v300h-500Z" style="fill: none;"></path><g><g class="mark-line role-mark marks"><path d="M175.67567567567568,142.16101694915255L189.1891891891892,117.95302013422817L202.7027027027027,149.07834101382485L216.21621621621622,108.20610687022901L229.72972972972974,138.93034825870646L243.24324324324326,159.31467181467178L256.7567567567567,94.38250428816467L270.27027027027026,133.02919708029194L283.78378378378375,137.72443403590944L297.2972972972973,136.21467227901383L310.8108108108108,143.56356126663607L324.3243243243243,139.6131279794646L337.8378378378378,134.52414975707345L351.35135135135135,126.72171848013815L364.86486486486484,148.48543840523283L378.3783783783784,80.3385583965052L391.8918918918919,125.43686480953427L405.4054054054054,133.1871727748691L418.9189189189189,136.81195809957237L432.43243243243245,135.29044957326602L445.94594594594594,146.79681620179258L459.4594594594595,146.99944175660588L472.97297297297297,140.68381525738087L486.4864864864865,148.42877761343573L500,150.62760065711163" style="fill: none; stroke: #e31a1c; stroke-width: 1;"></path></g></g><path class="foreground" d="" style="display: none; fill: none;"></path></g><g transform="translate(0,0)"><path class="background" d="M0,0h500v300h-500Z" style="fill: none;"></path><g><g class="mark-line role-mark marks"><path d="M202.7027027027027,123.27586206896552L216.21621621621622,142.22560975609753L229.72972972972974,134.54106280193233L243.24324324324326,153.1021897810219L256.7567567567567,150.93167701863354L270.27027027027026,150.5859375L283.78378378378375,174.99999999999997L297.2972972972973,81.59041394335513L310.8108108108108,121.69576059850374L324.3243243243243,174.89073426573427L337.8378378378378,130.67685589519652L351.35135135135135,142.03739522888458L364.86486486486484,131.5051020408163L378.3783783783784,171.49886449659348L391.8918918918919,115.26141384388806L405.4054054054054,142.2085201793722L418.9189189189189,158.27412670219064L432.43243243243245,153.65535248041775L445.94594594594594,148.2753493904252L459.4594594594595,152.40078392944636L472.97297297297297,146.83609958506221L486.4864864864865,143.96164917033525L500,153.23838589352323" style="fill: none; stroke: #fdbf6f; stroke-width: 1;"></path></g></g><path class="foreground" d="" style="display: none; fill: none;"></path></g></g><g class="mark-group role-legend"><g transform="translate(519,0)"><path class="background" d="M0,0h105v96h-105Z" style="pointer-events: none; fill: none;"></path><g><g class="mark-group role-legend-entry"><g transform="translate(0,0)"><path class="background" d="M0,0h0v0h0Z" style="pointer-events: none; fill: none;"></path><g><g class="mark-group role-scope"><g transform="translate(0,0)"><path class="background" d="M0,0h104.22390747070312v12h-104.22390747070312Z" style="pointer-events: none; fill: none; opacity: 1;"></path><g><g class="mark-symbol role-legend-symbol" style="pointer-events: none;"><path transform="translate(6,6)" d="M3.5355339059327378,0A3.5355339059327378,3.5355339059327378,0,1,1,-3.5355339059327378,0A3.5355339059327378,3.5355339059327378,0,1,1,3.5355339059327378,0" style="fill: none; stroke: #a6cee3; stroke-width: 1; opacity: 1;"></path></g><g class="mark-text role-legend-label" style="pointer-events: none;"><text text-anchor="start" transform="translate(16,10)" style="font-family: Avenir; font-size: 12px; fill: #000; opacity: 1;">France</text></g></g><path class="foreground" d="" style="pointer-events: none; display: none; fill: none;"></path></g><g transform="translate(0,14)"><path class="background" d="M0,0h104.22390747070312v12h-104.22390747070312Z" style="pointer-events: none; fill: none; opacity: 1;"></path><g><g class="mark-symbol role-legend-symbol" style="pointer-events: none;"><path transform="translate(6,6)" d="M3.5355339059327378,0A3.5355339059327378,3.5355339059327378,0,1,1,-3.5355339059327378,0A3.5355339059327378,3.5355339059327378,0,1,1,3.5355339059327378,0" style="fill: none; stroke: #1f78b4; stroke-width: 1; opacity: 1;"></path></g><g class="mark-text role-legend-label" style="pointer-events: none;"><text text-anchor="start" transform="translate(16,10)" style="font-family: Avenir; font-size: 12px; fill: #000; opacity: 1;">Germany</text></g></g><path class="foreground" d="" style="pointer-events: none; display: none; fill: none;"></path></g><g transform="translate(0,28)"><path class="background" d="M0,0h104.22390747070312v12h-104.22390747070312Z" style="pointer-events: none; fill: none; opacity: 1;"></path><g><g class="mark-symbol role-legend-symbol" style="pointer-events: none;"><path transform="translate(6,6)" d="M3.5355339059327378,0A3.5355339059327378,3.5355339059327378,0,1,1,-3.5355339059327378,0A3.5355339059327378,3.5355339059327378,0,1,1,3.5355339059327378,0" style="fill: none; stroke: #b2df8a; stroke-width: 1; opacity: 1;"></path></g><g class="mark-text role-legend-label" style="pointer-events: none;"><text text-anchor="start" transform="translate(16,10)" style="font-family: Avenir; font-size: 12px; fill: #000; opacity: 1;">Italy</text></g></g><path class="foreground" d="" style="pointer-events: none; display: none; fill: none;"></path></g><g transform="translate(0,42)"><path class="background" d="M0,0h104.22390747070312v12h-104.22390747070312Z" style="pointer-events: none; fill: none; opacity: 1;"></path><g><g class="mark-symbol role-legend-symbol" style="pointer-events: none;"><path transform="translate(6,6)" d="M3.5355339059327378,0A3.5355339059327378,3.5355339059327378,0,1,1,-3.5355339059327378,0A3.5355339059327378,3.5355339059327378,0,1,1,3.5355339059327378,0" style="fill: none; stroke: #33a02c; stroke-width: 1; opacity: 1;"></path></g><g class="mark-text role-legend-label" style="pointer-events: none;"><text text-anchor="start" transform="translate(16,10)" style="font-family: Avenir; font-size: 12px; fill: #000; opacity: 1;">Korea, South</text></g></g><path class="foreground" d="" style="pointer-events: none; display: none; fill: none;"></path></g><g transform="translate(0,56)"><path class="background" d="M0,0h104.22390747070312v12h-104.22390747070312Z" style="pointer-events: none; fill: none; opacity: 1;"></path><g><g class="mark-symbol role-legend-symbol" style="pointer-events: none;"><path transform="translate(6,6)" d="M3.5355339059327378,0A3.5355339059327378,3.5355339059327378,0,1,1,-3.5355339059327378,0A3.5355339059327378,3.5355339059327378,0,1,1,3.5355339059327378,0" style="fill: none; stroke: #fb9a99; stroke-width: 1; opacity: 1;"></path></g><g class="mark-text role-legend-label" style="pointer-events: none;"><text text-anchor="start" transform="translate(16,10)" style="font-family: Avenir; font-size: 12px; fill: #000; opacity: 1;">Spain</text></g></g><path class="foreground" d="" style="pointer-events: none; display: none; fill: none;"></path></g><g transform="translate(0,70)"><path class="background" d="M0,0h104.22390747070312v12h-104.22390747070312Z" style="pointer-events: none; fill: none; opacity: 1;"></path><g><g class="mark-symbol role-legend-symbol" style="pointer-events: none;"><path transform="translate(6,6)" d="M3.5355339059327378,0A3.5355339059327378,3.5355339059327378,0,1,1,-3.5355339059327378,0A3.5355339059327378,3.5355339059327378,0,1,1,3.5355339059327378,0" style="fill: none; stroke: #e31a1c; stroke-width: 1; opacity: 1;"></path></g><g class="mark-text role-legend-label" style="pointer-events: none;"><text text-anchor="start" transform="translate(16,10)" style="font-family: Avenir; font-size: 12px; fill: #000; opacity: 1;">US</text></g></g><path class="foreground" d="" style="pointer-events: none; display: none; fill: none;"></path></g><g transform="translate(0,84)"><path class="background" d="M0,0h104.22390747070312v12h-104.22390747070312Z" style="pointer-events: none; fill: none; opacity: 1;"></path><g><g class="mark-symbol role-legend-symbol" style="pointer-events: none;"><path transform="translate(6,6)" d="M3.5355339059327378,0A3.5355339059327378,3.5355339059327378,0,1,1,-3.5355339059327378,0A3.5355339059327378,3.5355339059327378,0,1,1,3.5355339059327378,0" style="fill: none; stroke: #fdbf6f; stroke-width: 1; opacity: 1;"></path></g><g class="mark-text role-legend-label" style="pointer-events: none;"><text text-anchor="start" transform="translate(16,10)" style="font-family: Avenir; font-size: 12px; fill: #000; opacity: 1;">United Kingdom</text></g></g><path class="foreground" d="" style="pointer-events: none; display: none; fill: none;"></path></g></g></g><path class="foreground" d="" style="pointer-events: none; display: none; fill: none;"></path></g></g></g><path class="foreground" d="" style="pointer-events: none; display: none; fill: none;"></path></g></g><g class="mark-group role-title"><g transform="translate(-43.899993896484375,-55)"><path class="background" d="M0,0h0v0h0Z" style="pointer-events: none; fill: none;"></path><g><g class="mark-text role-title-text" style="pointer-events: none;"><text text-anchor="start" transform="translate(0,16)" style="font-family: Avenir; font-size: 20px; font-weight: 300; fill: #4d4d4d; opacity: 1;">Growth rates of COVID-19 cases across countries</text></g></g><path class="foreground" d="" style="pointer-events: none; display: none; fill: none;"></path></g></g><g class="mark-group role-axis"><g transform="translate(0.5,300.5)"><path class="background" d="M0,0h0v0h0Z" style="pointer-events: none; fill: none;"></path><g><g class="mark-rule role-axis-tick" style="pointer-events: none;"><line transform="translate(14,0)" x2="0" y2="5" style="fill: none; stroke: #DEDDDD; stroke-width: 1; opacity: 1;"></line><line transform="translate(41,0)" x2="0" y2="5" style="fill: none; stroke: #DEDDDD; stroke-width: 1; opacity: 1;"></line><line transform="translate(68,0)" x2="0" y2="5" style="fill: none; stroke: #DEDDDD; stroke-width: 1; opacity: 1;"></line><line transform="translate(95,0)" x2="0" y2="5" style="fill: none; stroke: #DEDDDD; stroke-width: 1; opacity: 1;"></line><line transform="translate(122,0)" x2="0" y2="5" style="fill: none; stroke: #DEDDDD; stroke-width: 1; opacity: 1;"></line><line transform="translate(135,0)" x2="0" y2="5" style="fill: none; stroke: #DEDDDD; stroke-width: 1; opacity: 1;"></line><line transform="translate(162,0)" x2="0" y2="5" style="fill: none; stroke: #DEDDDD; stroke-width: 1; opacity: 1;"></line><line transform="translate(189,0)" x2="0" y2="5" style="fill: none; stroke: #DEDDDD; stroke-width: 1; opacity: 1;"></line><line transform="translate(216,0)" x2="0" y2="5" style="fill: none; stroke: #DEDDDD; stroke-width: 1; opacity: 1;"></line><line transform="translate(243,0)" x2="0" y2="5" style="fill: none; stroke: #DEDDDD; stroke-width: 1; opacity: 1;"></line><line transform="translate(270,0)" x2="0" y2="5" style="fill: none; stroke: #DEDDDD; stroke-width: 1; opacity: 1;"></line><line transform="translate(297,0)" x2="0" y2="5" style="fill: none; stroke: #DEDDDD; stroke-width: 1; opacity: 1;"></line><line transform="translate(324,0)" x2="0" y2="5" style="fill: none; stroke: #DEDDDD; stroke-width: 1; opacity: 1;"></line><line transform="translate(351,0)" x2="0" y2="5" style="fill: none; stroke: #DEDDDD; stroke-width: 1; opacity: 1;"></line><line transform="translate(378,0)" x2="0" y2="5" style="fill: none; stroke: #DEDDDD; stroke-width: 1; opacity: 1;"></line><line transform="translate(405,0)" x2="0" y2="5" style="fill: none; stroke: #DEDDDD; stroke-width: 1; opacity: 1;"></line><line transform="translate(432,0)" x2="0" y2="5" style="fill: none; stroke: #DEDDDD; stroke-width: 1; opacity: 1;"></line><line transform="translate(459,0)" x2="0" y2="5" style="fill: none; stroke: #DEDDDD; stroke-width: 1; opacity: 1;"></line><line transform="translate(486,0)" x2="0" y2="5" style="fill: none; stroke: #DEDDDD; stroke-width: 1; opacity: 1;"></line></g><g class="mark-text role-axis-label" style="pointer-events: none;"><text text-anchor="middle" transform="translate(13.513513513513514,15)" style="font-family: Avenir; font-size: 10px; fill: #000; opacity: 1;">Fri 21</text><text text-anchor="middle" transform="translate(40.54054054054054,15)" style="font-family: Avenir; font-size: 10px; fill: #000; opacity: 0;">Feb 23</text><text text-anchor="middle" transform="translate(67.56756756756756,15)" style="font-family: Avenir; font-size: 10px; fill: #000; opacity: 1;">Tue 25</text><text text-anchor="middle" transform="translate(94.5945945945946,15)" style="font-family: Avenir; font-size: 10px; fill: #000; opacity: 0;">Thu 27</text><text text-anchor="middle" transform="translate(121.62162162162163,15)" style="font-family: Avenir; font-size: 10px; fill: #000; opacity: 1;">Sat 29</text><text text-anchor="middle" transform="translate(135.13513513513513,15)" style="font-family: Avenir; font-size: 10px; fill: #000; opacity: 0;">March</text><text text-anchor="middle" transform="translate(162.16216216216216,15)" style="font-family: Avenir; font-size: 10px; fill: #000; opacity: 1;">Tue 03</text><text text-anchor="middle" transform="translate(189.1891891891892,15)" style="font-family: Avenir; font-size: 10px; fill: #000; opacity: 0;">Thu 05</text><text text-anchor="middle" transform="translate(216.21621621621622,15)" style="font-family: Avenir; font-size: 10px; fill: #000; opacity: 1;">Sat 07</text><text text-anchor="middle" transform="translate(243.24324324324326,15)" style="font-family: Avenir; font-size: 10px; fill: #000; opacity: 0;">Mon 09</text><text text-anchor="middle" transform="translate(270.27027027027026,15)" style="font-family: Avenir; font-size: 10px; fill: #000; opacity: 1;">Wed 11</text><text text-anchor="middle" transform="translate(297.2972972972973,15)" style="font-family: Avenir; font-size: 10px; fill: #000; opacity: 0;">Fri 13</text><text text-anchor="middle" transform="translate(324.3243243243243,15)" style="font-family: Avenir; font-size: 10px; fill: #000; opacity: 1;">Mar 15</text><text text-anchor="middle" transform="translate(351.35135135135135,15)" style="font-family: Avenir; font-size: 10px; fill: #000; opacity: 0;">Tue 17</text><text text-anchor="middle" transform="translate(378.3783783783784,15)" style="font-family: Avenir; font-size: 10px; fill: #000; opacity: 1;">Thu 19</text><text text-anchor="middle" transform="translate(405.4054054054054,15)" style="font-family: Avenir; font-size: 10px; fill: #000; opacity: 0;">Sat 21</text><text text-anchor="middle" transform="translate(432.43243243243245,15)" style="font-family: Avenir; font-size: 10px; fill: #000; opacity: 1;">Mon 23</text><text text-anchor="middle" transform="translate(459.4594594594595,15)" style="font-family: Avenir; font-size: 10px; fill: #000; opacity: 0;">Wed 25</text><text text-anchor="middle" transform="translate(486.4864864864865,15)" style="font-family: Avenir; font-size: 10px; fill: #000; opacity: 1;">Fri 27</text></g><g class="mark-rule role-axis-domain" style="pointer-events: none;"><line transform="translate(0,0)" x2="500" y2="0" style="fill: none; stroke: #DEDDDD; stroke-width: 1; stroke-dashoffset: 10; opacity: 1;"></line></g><g class="mark-text role-axis-title" style="pointer-events: none;"><text text-anchor="middle" transform="translate(250,36)" style="font-family: Avenir; font-size: 12px; font-weight: 400; fill: #000; opacity: 1;">Days since 100th case</text></g></g><path class="foreground" d="" style="pointer-events: none; display: none; fill: none;"></path></g></g><g class="mark-group role-axis"><g transform="translate(0.5,0.5)"><path class="background" d="M0,0h0v0h0Z" style="pointer-events: none; fill: none;"></path><g><g class="mark-rule role-axis-tick" style="pointer-events: none;"><line transform="translate(0,300)" x2="-5" y2="0" style="fill: none; stroke: #888; stroke-width: 1; opacity: 1;"></line><line transform="translate(0,275)" x2="-5" y2="0" style="fill: none; stroke: #888; stroke-width: 1; opacity: 1;"></line><line transform="translate(0,250)" x2="-5" y2="0" style="fill: none; stroke: #888; stroke-width: 1; opacity: 1;"></line><line transform="translate(0,225)" x2="-5" y2="0" style="fill: none; stroke: #888; stroke-width: 1; opacity: 1;"></line><line transform="translate(0,200)" x2="-5" y2="0" style="fill: none; stroke: #888; stroke-width: 1; opacity: 1;"></line><line transform="translate(0,175)" x2="-5" y2="0" style="fill: none; stroke: #888; stroke-width: 1; opacity: 1;"></line><line transform="translate(0,150)" x2="-5" y2="0" style="fill: none; stroke: #888; stroke-width: 1; opacity: 1;"></line><line transform="translate(0,125)" x2="-5" y2="0" style="fill: none; stroke: #888; stroke-width: 1; opacity: 1;"></line><line transform="translate(0,100)" x2="-5" y2="0" style="fill: none; stroke: #888; stroke-width: 1; opacity: 1;"></line><line transform="translate(0,75)" x2="-5" y2="0" style="fill: none; stroke: #888; stroke-width: 1; opacity: 1;"></line><line transform="translate(0,50)" x2="-5" y2="0" style="fill: none; stroke: #888; stroke-width: 1; opacity: 1;"></line><line transform="translate(0,25)" x2="-5" y2="0" style="fill: none; stroke: #888; stroke-width: 1; opacity: 1;"></line><line transform="translate(0,0)" x2="-5" y2="0" style="fill: none; stroke: #888; stroke-width: 1; opacity: 1;"></line></g><g class="mark-text role-axis-label" style="pointer-events: none;"><text text-anchor="end" transform="translate(-7,303)" style="font-family: Avenir; font-size: 10px; fill: #000; opacity: 1;">0.0</text><text text-anchor="end" transform="translate(-7,278)" style="font-family: Avenir; font-size: 10px; fill: #000; opacity: 1;">0.2</text><text text-anchor="end" transform="translate(-7,252.99999999999997)" style="font-family: Avenir; font-size: 10px; fill: #000; opacity: 1;">0.4</text><text text-anchor="end" transform="translate(-7,228)" style="font-family: Avenir; font-size: 10px; fill: #000; opacity: 1;">0.6</text><text text-anchor="end" transform="translate(-7,203)" style="font-family: Avenir; font-size: 10px; fill: #000; opacity: 1;">0.8</text><text text-anchor="end" transform="translate(-7,177.99999999999997)" style="font-family: Avenir; font-size: 10px; fill: #000; opacity: 1;">1.0</text><text text-anchor="end" transform="translate(-7,153)" style="font-family: Avenir; font-size: 10px; fill: #000; opacity: 1;">1.2</text><text text-anchor="end" transform="translate(-7,127.99999999999999)" style="font-family: Avenir; font-size: 10px; fill: #000; opacity: 1;">1.4</text><text text-anchor="end" transform="translate(-7,102.99999999999997)" style="font-family: Avenir; font-size: 10px; fill: #000; opacity: 1;">1.6</text><text text-anchor="end" transform="translate(-7,78)" style="font-family: Avenir; font-size: 10px; fill: #000; opacity: 1;">1.8</text><text text-anchor="end" transform="translate(-7,52.999999999999986)" style="font-family: Avenir; font-size: 10px; fill: #000; opacity: 1;">2.0</text><text text-anchor="end" transform="translate(-7,27.99999999999998)" style="font-family: Avenir; font-size: 10px; fill: #000; opacity: 1;">2.2</text><text text-anchor="end" transform="translate(-7,3)" style="font-family: Avenir; font-size: 10px; fill: #000; opacity: 1;">2.4</text></g><g class="mark-text role-axis-title" style="pointer-events: none;"><text text-anchor="middle" transform="translate(-30.899993896484375,150) rotate(-90) translate(0,-3)" style="font-family: Avenir; font-size: 12px; font-weight: 400; fill: #000; opacity: 1;">Growth rate compared to previous day</text></g></g><path class="foreground" d="" style="pointer-events: none; display: none; fill: none;"></path></g></g></g><path class="foreground" d="" style="display: none; fill: none;"></path></g></g></g></svg>