<svg class="marks" width="1017" height="672" viewBox="0 0 678 448" version="1.1" xmlns="http://www.w3.org/2000/svg" xmlns:xlink="http://www.w3.org/1999/xlink"><g transform="translate(49,105)"><g class="mark-group role-frame root"><g transform="translate(0,0)"><path class="background" d="M0,0h500v300h-500Z" style="fill: none; stroke: #ddd; stroke-width: 0;"></path><g><g class="mark-group role-axis"><g transform="translate(0.5,0.5)"><path class="background" d="M0,0h0v0h0Z" style="pointer-events: none; fill: none;"></path><g><g class="mark-rule role-axis-grid" style="pointer-events: none;"><line transform="translate(0,300)" x2="500" y2="0" style="fill: none; stroke: #DEDDDD; stroke-width: 1; stroke-dasharray: 5,2; opacity: 1;"></line><line transform="translate(0,275)" x2="500" y2="0" style="fill: none; stroke: #DEDDDD; stroke-width: 1; stroke-dasharray: 5,2; opacity: 1;"></line><line transform="translate(0,250)" x2="500" y2="0" style="fill: none; stroke: #DEDDDD; stroke-width: 1; stroke-dasharray: 5,2; opacity: 1;"></line><line transform="translate(0,225)" x2="500" y2="0" style="fill: none; stroke: #DEDDDD; stroke-width: 1; stroke-dasharray: 5,2; opacity: 1;"></line><line transform="translate(0,200)" x2="500" y2="0" style="fill: none; stroke: #DEDDDD; stroke-width: 1; stroke-dasharray: 5,2; opacity: 1;"></line><line transform="translate(0,175)" x2="500" y2="0" style="fill: none; stroke: #DEDDDD; stroke-width: 1; stroke-dasharray: 5,2; opacity: 1;"></line><line transform="translate(0,150)" x2="500" y2="0" style="fill: none; stroke: #DEDDDD; stroke-width: 1; stroke-dasharray: 5,2; opacity: 1;"></line><line transform="translate(0,125)" x2="500" y2="0" style="fill: none; stroke: #DEDDDD; stroke-width: 1; stroke-dasharray: 5,2; opacity: 1;"></line><line transform="translate(0,100)" x2="500" y2="0" style="fill: none; stroke: #DEDDDD; stroke-width: 1; stroke-dasharray: 5,2; opacity: 1;"></line><line transform="translate(0,75)" x2="500" y2="0" style="fill: none; stroke: #DEDDDD; stroke-width: 1; stroke-dasharray: 5,2; opacity: 1;"></line><line transform="translate(0,50)" x2="500" y2="0" style="fill: none; stroke: #DEDDDD; stroke-width: 1; stroke-dasharray: 5,2; opacity: 1;"></line><line transform="translate(0,25)" x2="500" y2="0" style="fill: none; stroke: #DEDDDD; stroke-width: 1; stroke-dasharray: 5,2; opacity: 1;"></line><line transform="translate(0,0)" x2="500" y2="0" style="fill: none; stroke: #DEDDDD; stroke-width: 1; stroke-dasharray: 5,2; opacity: 1;"></line></g></g><path class="foreground" d="" style="pointer-events: none; display: none; fill: none;"></path></g></g><g class="mark-group role-scope pathgroup"><g transform="translate(0,0)"><path class="background" d="M0,0h500v300h-500Z" style="fill: none;"></path><g><g class="mark-line role-mark marks"><path d="M161.29032258064515,137.49999999999997L177.4193548387097,116.34615384615384L193.54838709677418,166.49214659685865L209.67741935483872,123.52941176470587L225.80645161290323,135.06944444444446L241.93548387096774,84.21052631578947L258.06451612903226,117.64481707317074L274.19354838709677,151.88087774294672L290.32258064516134,165.85097001763666L306.4516129032258,115.94083812654065L322.5806451612903,140.26227678571428L338.7096774193548,174.99999999999997L354.8387096774194,99.23580786026201L370.9677419354839,147.50543773790105L387.09677419354836,173.99710274125252L403.22580645161287,115.71965509617512L419.35483870967744,155.67261547690464L435.48387096774195,152.1723600467593L451.61290322580646,149.71169686985172L467.7419354838709,154.68621540147984L483.8709677419355,158.25278956467073L500,159.8849698565588" style="fill: none; stroke: #a6cee3; stroke-width: 1;"></path></g></g><path class="foreground" d="" style="display: none; fill: none;"></path></g><g transform="translate(0,0)"><path class="background" d="M0,0h500v300h-500Z" style="fill: none;"></path><g><g class="mark-line role-mark marks"><path d="M177.4193548387097,147.11538461538458L193.54838709677418,145.9119496855346L209.67741935483872,132.90816326530611L225.80645161290323,70.0381679389313L241.93548387096774,126.24481327800828L258.06451612903226,150.93283582089552L274.19354838709677,137.29662077596996L290.32258064516134,158.65384615384616L306.4516129032258,145.1318027210884L322.5806451612903,136.30748112560056L338.7096774193548,163.86268343815516L354.8387096774194,78.93407122232917L370.9677419354839,144.04761904761904L387.09677419354836,142.01199563794984L403.22580645161287,143.1406384814495L419.35483870967744,140.87940044004398L435.48387096774195,133.54488495192828L451.61290322580646,144.6499553824937L467.7419354838709,138.05483028720627L483.8709677419355,160.1055521966949L500,160.03128798451354" style="fill: none; stroke: #1f78b4; stroke-width: 1;"></path></g></g><path class="foreground" d="" style="display: none; fill: none;"></path></g><g transform="translate(0,0)"><path class="background" d="M0,0h500v300h-500Z" style="fill: none;"></path><g><g class="mark-line role-mark marks"><path d="M64.51612903225806,115.32258064516125L80.64516129032258,124.235807860262L96.77419354838709,124.14596273291927L112.90322580645162,119.2604856512141L129.03225806451613,130.5343511450382L145.16129032258067,141.2162162162162L161.29032258064515,112.27836879432623L177.4193548387097,149.7638724911452L193.54838709677418,146.38998035363457L209.67741935483872,145.67346123101518L225.80645161290323,143.88151505341534L241.93548387096774,149.7926386728875L258.06451612903226,141.37726488352024L274.19354838709677,143.2984871664117L290.32258064516134,144.54237288135593L306.4516129032258,161.68501962494548L322.5806451612903,146.51197162282L338.7096774193548,174.99999999999997L354.8387096774194,122.86149895682875L370.9677419354839,150.2477349943375L387.09677419354836,153.7895259252257L403.22580645161287,158.6697377459894L419.35483870967744,159.2476769120801L435.48387096774195,158.30873484415667L451.61290322580646,156.37232940385854L467.7419354838709,156.76556598026076L483.8709677419355,157.5689585504349L500,162.02825786703497" style="fill: none; stroke: #b2df8a; stroke-width: 1;"></path></g></g><path class="foreground" d="" style="display: none; fill: none;"></path></g><g transform="translate(0,0)"><path class="background" d="M0,0h500v300h-500Z" style="fill: none;"></path><g><g class="mark-line role-mark marks"><path d="M16.129032258064516,54.807692307692314L32.25806451612903,34.681372549019585L48.387096774193544,126.21247113163973L64.51612903225806,127.03488372093022L80.64516129032258,153.39135654261707L96.77419354838709,138.66427840327535L112.90322580645162,124.94052339413163L129.03225806451613,134.58380520951303L145.16129032258067,131.5147625160462L161.29032258064515,151.74603174603175L177.4193548387097,154.9585117773019L193.54838709677418,150.46136101499422L209.67741935483872,164.51504049363675L225.80645161290323,164.61483721757696L241.93548387096774,164.63124178712218L258.06451612903226,166.50614287881086L274.19354838709677,170.1533873029399L290.32258064516134,172.19715613891168L306.4516129032258,174.41495052152982L322.5806451612903,170.9736456808199L338.7096774193548,173.16247582205028L354.8387096774194,173.25263692972422L370.9677419354839,173.32372477754103L387.09677419354836,173.82512985406876L403.22580645161287,173.86669933839744L419.35483870967744,173.72510927634772L435.48387096774195,173.6027644230769L451.61290322580646,172.741590395816L467.7419354838709,173.73029772329247L483.8709677419355,172.87621359223297L500,173.60779634049322" style="fill: none; stroke: #33a02c; stroke-width: 1;"></path></g></g><path class="foreground" d="" style="display: none; fill: none;"></path></g><g transform="translate(0,0)"><path class="background" d="M0,0h500v300h-500Z" style="fill: none;"></path><g><g class="mark-line role-mark marks"><path d="M193.54838709677418,128.12499999999997L209.67741935483872,131.8181818181818L225.80645161290323,154.16666666666666L241.93548387096774,106.94980694980694L258.06451612903226,143.75L274.19354838709677,131.74999999999997L290.32258064516134,100.70579494799404L306.4516129032258,102.53960857409135L322.5806451612903,132.0796460176991L338.7096774193548,174.99999999999997L354.8387096774194,12.779973649538878L370.9677419354839,147.3098241590214L387.09677419354836,147.48083242059147L403.22580645161287,140.6322133880482L419.35483870967744,152.29330114665058L435.48387096774195,151.99608443990465L451.61290322580646,138.578360891445L467.7419354838709,157.97194232589212L483.8709677419355,144.59823615874572L500,158.280129266178" style="fill: none; stroke: #fb9a99; stroke-width: 1;"></path></g></g><path class="foreground" d="" style="display: none; fill: none;"></path></g><g transform="translate(0,0)"><path class="background" d="M0,0h500v300h-500Z" style="fill: none;"></path><g><g class="mark-line role-mark marks"><path d="M209.67741935483872,142.16101694915255L225.80645161290323,117.95302013422817L241.93548387096774,149.07834101382485L258.06451612903226,108.20610687022901L274.19354838709677,138.93034825870646L290.32258064516134,159.31467181467178L306.4516129032258,94.38250428816467L322.5806451612903,133.02919708029194L338.7096774193548,137.72443403590944L354.8387096774194,136.21467227901383L370.9677419354839,143.56356126663607L387.09677419354836,139.6131279794646L403.22580645161287,134.52414975707345L419.35483870967744,126.72171848013815L435.48387096774195,148.48543840523283L451.61290322580646,80.3385583965052L467.7419354838709,125.43686480953427L483.8709677419355,133.1871727748691L500,136.83157440464515" style="fill: none; stroke: #e31a1c; stroke-width: 1;"></path></g></g><path class="foreground" d="" style="display: none; fill: none;"></path></g><g transform="translate(0,0)"><path class="background" d="M0,0h500v300h-500Z" style="fill: none;"></path><g><g class="mark-line role-mark marks"><path d="M241.93548387096774,123.27586206896552L258.06451612903226,142.22560975609753L274.19354838709677,134.54106280193233L290.32258064516134,153.1021897810219L306.4516129032258,150.93167701863354L322.5806451612903,150.5859375L338.7096774193548,174.99999999999997L354.8387096774194,81.59041394335513L370.9677419354839,121.69576059850374L387.09677419354836,174.89073426573427L403.22580645161287,130.67685589519652L419.35483870967744,142.03739522888458L435.48387096774195,131.5051020408163L451.61290322580646,171.49886449659348L467.7419354838709,115.26141384388806L483.8709677419355,142.2085201793722L500,158.37280442076178" style="fill: none; stroke: #fdbf6f; stroke-width: 1;"></path></g></g><path class="foreground" d="" style="display: none; fill: none;"></path></g></g><g class="mark-group role-legend"><g transform="translate(519,0)"><path class="background" d="M0,0h105v96h-105Z" style="pointer-events: none; fill: none;"></path><g><g class="mark-group role-legend-entry"><g transform="translate(0,0)"><path class="background" d="M0,0h0v0h0Z" style="pointer-events: none; fill: none;"></path><g><g class="mark-group role-scope"><g transform="translate(0,0)"><path class="background" d="M0,0h104.22390747070312v12h-104.22390747070312Z" style="pointer-events: none; fill: none; opacity: 1;"></path><g><g class="mark-symbol role-legend-symbol" style="pointer-events: none;"><path transform="translate(6,6)" d="M3.5355339059327378,0A3.5355339059327378,3.5355339059327378,0,1,1,-3.5355339059327378,0A3.5355339059327378,3.5355339059327378,0,1,1,3.5355339059327378,0" style="fill: none; stroke: #a6cee3; stroke-width: 1; opacity: 1;"></path></g><g class="mark-text role-legend-label" style="pointer-events: none;"><text text-anchor="start" transform="translate(16,10)" style="font-family: Avenir; font-size: 12px; fill: #000; opacity: 1;">France</text></g></g><path class="foreground" d="" style="pointer-events: none; display: none; fill: none;"></path></g><g transform="translate(0,14)"><path class="background" d="M0,0h104.22390747070312v12h-104.22390747070312Z" style="pointer-events: none; fill: none; opacity: 1;"></path><g><g class="mark-symbol role-legend-symbol" style="pointer-events: none;"><path transform="translate(6,6)" d="M3.5355339059327378,0A3.5355339059327378,3.5355339059327378,0,1,1,-3.5355339059327378,0A3.5355339059327378,3.5355339059327378,0,1,1,3.5355339059327378,0" style="fill: none; stroke: #1f78b4; stroke-width: 1; opacity: 1;"></path></g><g class="mark-text role-legend-label" style="pointer-events: none;"><text text-anchor="start" transform="translate(16,10)" style="font-family: Avenir; font-size: 12px; fill: #000; opacity: 1;">Germany</text></g></g><path class="foreground" d="" style="pointer-events: none; display: none; fill: none;"></path></g><g transform="translate(0,28)"><path class="background" d="M0,0h104.22390747070312v12h-104.22390747070312Z" style="pointer-events: none; fill: none; opacity: 1;"></path><g><g class="mark-symbol role-legend-symbol" style="pointer-events: none;"><path transform="translate(6,6)" d="M3.5355339059327378,0A3.5355339059327378,3.5355339059327378,0,1,1,-3.5355339059327378,0A3.5355339059327378,3.5355339059327378,0,1,1,3.5355339059327378,0" style="fill: none; stroke: #b2df8a; stroke-width: 1; opacity: 1;"></path></g><g class="mark-text role-legend-label" style="pointer-events: none;"><text text-anchor="start" transform="translate(16,10)" style="font-family: Avenir; font-size: 12px; fill: #000; opacity: 1;">Italy</text></g></g><path class="foreground" d="" style="pointer-events: none; display: none; fill: none;"></path></g><g transform="translate(0,42)"><path class="background" d="M0,0h104.22390747070312v12h-104.22390747070312Z" style="pointer-events: none; fill: none; opacity: 1;"></path><g><g class="mark-symbol role-legend-symbol" style="pointer-events: none;"><path transform="translate(6,6)" d="M3.5355339059327378,0A3.5355339059327378,3.5355339059327378,0,1,1,-3.5355339059327378,0A3.5355339059327378,3.5355339059327378,0,1,1,3.5355339059327378,0" style="fill: none; stroke: #33a02c; stroke-width: 1; opacity: 1;"></path></g><g class="mark-text role-legend-label" style="pointer-events: none;"><text text-anchor="start" transform="translate(16,10)" style="font-family: Avenir; font-size: 12px; fill: #000; opacity: 1;">Korea, South</text></g></g><path class="foreground" d="" style="pointer-events: none; display: none; fill: none;"></path></g><g transform="translate(0,56)"><path class="background" d="M0,0h104.22390747070312v12h-104.22390747070312Z" style="pointer-events: none; fill: none; opacity: 1;"></path><g><g class="mark-symbol role-legend-symbol" style="pointer-events: none;"><path transform="translate(6,6)" d="M3.5355339059327378,0A3.5355339059327378,3.5355339059327378,0,1,1,-3.5355339059327378,0A3.5355339059327378,3.5355339059327378,0,1,1,3.5355339059327378,0" style="fill: none; stroke: #fb9a99; stroke-width: 1; opacity: 1;"></path></g><g class="mark-text role-legend-label" style="pointer-events: none;"><text text-anchor="start" transform="translate(16,10)" style="font-family: Avenir; font-size: 12px; fill: #000; opacity: 1;">Spain</text></g></g><path class="foreground" d="" style="pointer-events: none; display: none; fill: none;"></path></g><g transform="translate(0,70)"><path class="background" d="M0,0h104.22390747070312v12h-104.22390747070312Z" style="pointer-events: none; fill: none; opacity: 1;"></path><g><g class="mark-symbol role-legend-symbol" style="pointer-events: none;"><path transform="translate(6,6)" d="M3.5355339059327378,0A3.5355339059327378,3.5355339059327378,0,1,1,-3.5355339059327378,0A3.5355339059327378,3.5355339059327378,0,1,1,3.5355339059327378,0" style="fill: none; stroke: #e31a1c; stroke-width: 1; opacity: 1;"></path></g><g class="mark-text role-legend-label" style="pointer-events: none;"><text text-anchor="start" transform="translate(16,10)" style="font-family: Avenir; font-size: 12px; fill: #000; opacity: 1;">US</text></g></g><path class="foreground" d="" style="pointer-events: none; display: none; fill: none;"></path></g><g transform="translate(0,84)"><path class="background" d="M0,0h104.22390747070312v12h-104.22390747070312Z" style="pointer-events: none; fill: none; opacity: 1;"></path><g><g class="mark-symbol role-legend-symbol" style="pointer-events: none;"><path transform="translate(6,6)" d="M3.5355339059327378,0A3.5355339059327378,3.5355339059327378,0,1,1,-3.5355339059327378,0A3.5355339059327378,3.5355339059327378,0,1,1,3.5355339059327378,0" style="fill: none; stroke: #fdbf6f; stroke-width: 1; opacity: 1;"></path></g><g class="mark-text role-legend-label" style="pointer-events: none;"><text text-anchor="start" transform="translate(16,10)" style="font-family: Avenir; font-size: 12px; fill: #000; opacity: 1;">United Kingdom</text></g></g><path class="foreground" d="" style="pointer-events: none; display: none; fill: none;"></path></g></g></g><path class="foreground" d="" style="pointer-events: none; display: none; fill: none;"></path></g></g></g><path class="foreground" d="" style="pointer-events: none; display: none; fill: none;"></path></g></g><g class="mark-group role-title"><g transform="translate(-43.899993896484375,-55)"><path class="background" d="M0,0h0v0h0Z" style="pointer-events: none; fill: none;"></path><g><g class="mark-text role-title-text" style="pointer-events: none;"><text text-anchor="start" transform="translate(0,16)" style="font-family: Avenir; font-size: 20px; font-weight: 300; fill: #4d4d4d; opacity: 1;">Growth rates of COVID-19 cases across countries</text></g></g><path class="foreground" d="" style="pointer-events: none; display: none; fill: none;"></path></g></g><g class="mark-group role-axis"><g transform="translate(0.5,300.5)"><path class="background" d="M0,0h0v0h0Z" style="pointer-events: none; fill: none;"></path><g><g class="mark-rule role-axis-tick" style="pointer-events: none;"><line transform="translate(16,0)" x2="0" y2="5" style="fill: none; stroke: #DEDDDD; stroke-width: 1; opacity: 1;"></line><line transform="translate(48,0)" x2="0" y2="5" style="fill: none; stroke: #DEDDDD; stroke-width: 1; opacity: 1;"></line><line transform="translate(81,0)" x2="0" y2="5" style="fill: none; stroke: #DEDDDD; stroke-width: 1; opacity: 1;"></line><line transform="translate(113,0)" x2="0" y2="5" style="fill: none; stroke: #DEDDDD; stroke-width: 1; opacity: 1;"></line><line transform="translate(145,0)" x2="0" y2="5" style="fill: none; stroke: #DEDDDD; stroke-width: 1; opacity: 1;"></line><line transform="translate(161,0)" x2="0" y2="5" style="fill: none; stroke: #DEDDDD; stroke-width: 1; opacity: 1;"></line><line transform="translate(194,0)" x2="0" y2="5" style="fill: none; stroke: #DEDDDD; stroke-width: 1; opacity: 1;"></line><line transform="translate(226,0)" x2="0" y2="5" style="fill: none; stroke: #DEDDDD; stroke-width: 1; opacity: 1;"></line><line transform="translate(258,0)" x2="0" y2="5" style="fill: none; stroke: #DEDDDD; stroke-width: 1; opacity: 1;"></line><line transform="translate(290,0)" x2="0" y2="5" style="fill: none; stroke: #DEDDDD; stroke-width: 1; opacity: 1;"></line><line transform="translate(323,0)" x2="0" y2="5" style="fill: none; stroke: #DEDDDD; stroke-width: 1; opacity: 1;"></line><line transform="translate(355,0)" x2="0" y2="5" style="fill: none; stroke: #DEDDDD; stroke-width: 1; opacity: 1;"></line><line transform="translate(387,0)" x2="0" y2="5" style="fill: none; stroke: #DEDDDD; stroke-width: 1; opacity: 1;"></line><line transform="translate(419,0)" x2="0" y2="5" style="fill: none; stroke: #DEDDDD; stroke-width: 1; opacity: 1;"></line><line transform="translate(452,0)" x2="0" y2="5" style="fill: none; stroke: #DEDDDD; stroke-width: 1; opacity: 1;"></line><line transform="translate(484,0)" x2="0" y2="5" style="fill: none; stroke: #DEDDDD; stroke-width: 1; opacity: 1;"></line></g><g class="mark-text role-axis-label" style="pointer-events: none;"><text text-anchor="middle" transform="translate(16.129032258064516,15)" style="font-family: Avenir; font-size: 10px; fill: #000; opacity: 1;">Fri 21</text><text text-anchor="middle" transform="translate(48.387096774193544,15)" style="font-family: Avenir; font-size: 10px; fill: #000; opacity: 0;">Feb 23</text><text text-anchor="middle" transform="translate(80.64516129032258,15)" style="font-family: Avenir; font-size: 10px; fill: #000; opacity: 1;">Tue 25</text><text text-anchor="middle" transform="translate(112.90322580645162,15)" style="font-family: Avenir; font-size: 10px; fill: #000; opacity: 0;">Thu 27</text><text text-anchor="middle" transform="translate(145.16129032258067,15)" style="font-family: Avenir; font-size: 10px; fill: #000; opacity: 1;">Sat 29</text><text text-anchor="middle" transform="translate(161.29032258064515,15)" style="font-family: Avenir; font-size: 10px; fill: #000; opacity: 0;">March</text><text text-anchor="middle" transform="translate(193.54838709677418,15)" style="font-family: Avenir; font-size: 10px; fill: #000; opacity: 1;">Tue 03</text><text text-anchor="middle" transform="translate(225.80645161290323,15)" style="font-family: Avenir; font-size: 10px; fill: #000; opacity: 0;">Thu 05</text><text text-anchor="middle" transform="translate(258.06451612903226,15)" style="font-family: Avenir; font-size: 10px; fill: #000; opacity: 1;">Sat 07</text><text text-anchor="middle" transform="translate(290.32258064516134,15)" style="font-family: Avenir; font-size: 10px; fill: #000; opacity: 0;">Mon 09</text><text text-anchor="middle" transform="translate(322.5806451612903,15)" style="font-family: Avenir; font-size: 10px; fill: #000; opacity: 1;">Wed 11</text><text text-anchor="middle" transform="translate(354.8387096774194,15)" style="font-family: Avenir; font-size: 10px; fill: #000; opacity: 0;">Fri 13</text><text text-anchor="middle" transform="translate(387.09677419354836,15)" style="font-family: Avenir; font-size: 10px; fill: #000; opacity: 1;">Mar 15</text><text text-anchor="middle" transform="translate(419.35483870967744,15)" style="font-family: Avenir; font-size: 10px; fill: #000; opacity: 0;">Tue 17</text><text text-anchor="middle" transform="translate(451.61290322580646,15)" style="font-family: Avenir; font-size: 10px; fill: #000; opacity: 1;">Thu 19</text><text text-anchor="middle" transform="translate(483.8709677419355,15)" style="font-family: Avenir; font-size: 10px; fill: #000; opacity: 0;">Sat 21</text></g><g class="mark-rule role-axis-domain" style="pointer-events: none;"><line transform="translate(0,0)" x2="500" y2="0" style="fill: none; stroke: #DEDDDD; stroke-width: 1; stroke-dashoffset: 10; opacity: 1;"></line></g><g class="mark-text role-axis-title" style="pointer-events: none;"><text text-anchor="middle" transform="translate(250,36)" style="font-family: Avenir; font-size: 12px; font-weight: 400; fill: #000; opacity: 1;">Days since 100th case</text></g></g><path class="foreground" d="" style="pointer-events: none; display: none; fill: none;"></path></g></g><g class="mark-group role-axis"><g transform="translate(0.5,0.5)"><path class="background" d="M0,0h0v0h0Z" style="pointer-events: none; fill: none;"></path><g><g class="mark-rule role-axis-tick" style="pointer-events: none;"><line transform="translate(0,300)" x2="-5" y2="0" style="fill: none; stroke: #888; stroke-width: 1; opacity: 1;"></line><line transform="translate(0,275)" x2="-5" y2="0" style="fill: none; stroke: #888; stroke-width: 1; opacity: 1;"></line><line transform="translate(0,250)" x2="-5" y2="0" style="fill: none; stroke: #888; stroke-width: 1; opacity: 1;"></line><line transform="translate(0,225)" x2="-5" y2="0" style="fill: none; stroke: #888; stroke-width: 1; opacity: 1;"></line><line transform="translate(0,200)" x2="-5" y2="0" style="fill: none; stroke: #888; stroke-width: 1; opacity: 1;"></line><line transform="translate(0,175)" x2="-5" y2="0" style="fill: none; stroke: #888; stroke-width: 1; opacity: 1;"></line><line transform="translate(0,150)" x2="-5" y2="0" style="fill: none; stroke: #888; stroke-width: 1; opacity: 1;"></line><line transform="translate(0,125)" x2="-5" y2="0" style="fill: none; stroke: #888; stroke-width: 1; opacity: 1;"></line><line transform="translate(0,100)" x2="-5" y2="0" style="fill: none; stroke: #888; stroke-width: 1; opacity: 1;"></line><line transform="translate(0,75)" x2="-5" y2="0" style="fill: none; stroke: #888; stroke-width: 1; opacity: 1;"></line><line transform="translate(0,50)" x2="-5" y2="0" style="fill: none; stroke: #888; stroke-width: 1; opacity: 1;"></line><line transform="translate(0,25)" x2="-5" y2="0" style="fill: none; stroke: #888; stroke-width: 1; opacity: 1;"></line><line transform="translate(0,0)" x2="-5" y2="0" style="fill: none; stroke: #888; stroke-width: 1; opacity: 1;"></line></g><g class="mark-text role-axis-label" style="pointer-events: none;"><text text-anchor="end" transform="translate(-7,303)" style="font-family: Avenir; font-size: 10px; fill: #000; opacity: 1;">0.0</text><text text-anchor="end" transform="translate(-7,278)" style="font-family: Avenir; font-size: 10px; fill: #000; opacity: 1;">0.2</text><text text-anchor="end" transform="translate(-7,252.99999999999997)" style="font-family: Avenir; font-size: 10px; fill: #000; opacity: 1;">0.4</text><text text-anchor="end" transform="translate(-7,228)" style="font-family: Avenir; font-size: 10px; fill: #000; opacity: 1;">0.6</text><text text-anchor="end" transform="translate(-7,203)" style="font-family: Avenir; font-size: 10px; fill: #000; opacity: 1;">0.8</text><text text-anchor="end" transform="translate(-7,177.99999999999997)" style="font-family: Avenir; font-size: 10px; fill: #000; opacity: 1;">1.0</text><text text-anchor="end" transform="translate(-7,153)" style="font-family: Avenir; font-size: 10px; fill: #000; opacity: 1;">1.2</text><text text-anchor="end" transform="translate(-7,127.99999999999999)" style="font-family: Avenir; font-size: 10px; fill: #000; opacity: 1;">1.4</text><text text-anchor="end" transform="translate(-7,102.99999999999997)" style="font-family: Avenir; font-size: 10px; fill: #000; opacity: 1;">1.6</text><text text-anchor="end" transform="translate(-7,78)" style="font-family: Avenir; font-size: 10px; fill: #000; opacity: 1;">1.8</text><text text-anchor="end" transform="translate(-7,52.999999999999986)" style="font-family: Avenir; font-size: 10px; fill: #000; opacity: 1;">2.0</text><text text-anchor="end" transform="translate(-7,27.99999999999998)" style="font-family: Avenir; font-size: 10px; fill: #000; opacity: 1;">2.2</text><text text-anchor="end" transform="translate(-7,3)" style="font-family: Avenir; font-size: 10px; fill: #000; opacity: 1;">2.4</text></g><g class="mark-text role-axis-title" style="pointer-events: none;"><text text-anchor="middle" transform="translate(-30.899993896484375,150) rotate(-90) translate(0,-3)" style="font-family: Avenir; font-size: 12px; font-weight: 400; fill: #000; opacity: 1;">Growth rate compared to previous day</text></g></g><path class="foreground" d="" style="pointer-events: none; display: none; fill: none;"></path></g></g></g><path class="foreground" d="" style="display: none; fill: none;"></path></g></g></g></svg>