<svg class="marks" width="1017" height="672" viewBox="0 0 678 448" version="1.1" xmlns="http://www.w3.org/2000/svg" xmlns:xlink="http://www.w3.org/1999/xlink"><g transform="translate(49,105)"><g class="mark-group role-frame root"><g transform="translate(0,0)"><path class="background" d="M0,0h500v300h-500Z" style="fill: none; stroke: #ddd; stroke-width: 0;"></path><g><g class="mark-group role-axis"><g transform="translate(0.5,0.5)"><path class="background" d="M0,0h0v0h0Z" style="pointer-events: none; fill: none;"></path><g><g class="mark-rule role-axis-grid" style="pointer-events: none;"><line transform="translate(0,300)" x2="500" y2="0" style="fill: none; stroke: #DEDDDD; stroke-width: 1; stroke-dasharray: 5,2; opacity: 1;"></line><line transform="translate(0,275)" x2="500" y2="0" style="fill: none; stroke: #DEDDDD; stroke-width: 1; stroke-dasharray: 5,2; opacity: 1;"></line><line transform="translate(0,250)" x2="500" y2="0" style="fill: none; stroke: #DEDDDD; stroke-width: 1; stroke-dasharray: 5,2; opacity: 1;"></line><line transform="translate(0,225)" x2="500" y2="0" style="fill: none; stroke: #DEDDDD; stroke-width: 1; stroke-dasharray: 5,2; opacity: 1;"></line><line transform="translate(0,200)" x2="500" y2="0" style="fill: none; stroke: #DEDDDD; stroke-width: 1; stroke-dasharray: 5,2; opacity: 1;"></line><line transform="translate(0,175)" x2="500" y2="0" style="fill: none; stroke: #DEDDDD; stroke-width: 1; stroke-dasharray: 5,2; opacity: 1;"></line><line transform="translate(0,150)" x2="500" y2="0" style="fill: none; stroke: #DEDDDD; stroke-width: 1; stroke-dasharray: 5,2; opacity: 1;"></line><line transform="translate(0,125)" x2="500" y2="0" style="fill: none; stroke: #DEDDDD; stroke-width: 1; stroke-dasharray: 5,2; opacity: 1;"></line><line transform="translate(0,100)" x2="500" y2="0" style="fill: none; stroke: #DEDDDD; stroke-width: 1; stroke-dasharray: 5,2; opacity: 1;"></line><line transform="translate(0,75)" x2="500" y2="0" style="fill: none; stroke: #DEDDDD; stroke-width: 1; stroke-dasharray: 5,2; opacity: 1;"></line><line transform="translate(0,50)" x2="500" y2="0" style="fill: none; stroke: #DEDDDD; stroke-width: 1; stroke-dasharray: 5,2; opacity: 1;"></line><line transform="translate(0,25)" x2="500" y2="0" style="fill: none; stroke: #DEDDDD; stroke-width: 1; stroke-dasharray: 5,2; opacity: 1;"></line><line transform="translate(0,0)" x2="500" y2="0" style="fill: none; stroke: #DEDDDD; stroke-width: 1; stroke-dasharray: 5,2; opacity: 1;"></line></g></g><path class="foreground" d="" style="pointer-events: none; display: none; fill: none;"></path></g></g><g class="mark-group role-scope pathgroup"><g transform="translate(0,0)"><path class="background" d="M0,0h500v300h-500Z" style="fill: none;"></path><g><g class="mark-line role-mark marks"><path d="M178.57142857142858,137.49999999999997L196.42857142857142,116.34615384615384L214.28571428571428,166.49214659685865L232.14285714285714,123.52941176470587L250,135.06944444444446L267.85714285714283,84.21052631578947L285.7142857142857,117.64481707317074L303.57142857142856,151.88087774294672L321.42857142857144,165.85097001763666L339.2857142857143,115.94083812654065L357.14285714285717,140.26227678571428L375,174.99999999999997L392.85714285714283,99.23580786026201L410.7142857142857,147.50543773790105L428.57142857142856,173.99710274125252L446.42857142857144,115.71965509617512L464.2857142857143,155.67261547690464L482.14285714285717,152.1723600467593L500,149.71169686985172" style="fill: none; stroke: #a6cee3; stroke-width: 1;"></path></g></g><path class="foreground" d="" style="display: none; fill: none;"></path></g><g transform="translate(0,0)"><path class="background" d="M0,0h500v300h-500Z" style="fill: none;"></path><g><g class="mark-line role-mark marks"><path d="M196.42857142857142,147.11538461538458L214.28571428571428,145.9119496855346L232.14285714285714,132.90816326530611L250,70.0381679389313L267.85714285714283,126.24481327800828L285.7142857142857,150.93283582089552L303.57142857142856,137.29662077596996L321.42857142857144,158.65384615384616L339.2857142857143,145.1318027210884L357.14285714285717,136.30748112560056L375,163.86268343815516L392.85714285714283,78.93407122232917L410.7142857142857,144.04761904761904L428.57142857142856,142.01199563794984L446.42857142857144,143.1406384814495L464.2857142857143,140.87940044004398L482.14285714285717,133.54488495192828L500,144.6499553824937" style="fill: none; stroke: #1f78b4; stroke-width: 1;"></path></g></g><path class="foreground" d="" style="display: none; fill: none;"></path></g><g transform="translate(0,0)"><path class="background" d="M0,0h500v300h-500Z" style="fill: none;"></path><g><g class="mark-line role-mark marks"><path d="M71.42857142857143,115.32258064516125L89.28571428571429,124.235807860262L107.14285714285714,124.14596273291927L125,119.2604856512141L142.85714285714286,130.5343511450382L160.71428571428572,141.2162162162162L178.57142857142858,112.27836879432623L196.42857142857142,149.7638724911452L214.28571428571428,146.38998035363457L232.14285714285714,145.67346123101518L250,143.88151505341534L267.85714285714283,149.7926386728875L285.7142857142857,141.37726488352024L303.57142857142856,143.2984871664117L321.42857142857144,144.54237288135593L339.2857142857143,161.68501962494548L357.14285714285717,146.51197162282L375,174.99999999999997L392.85714285714283,122.86149895682875L410.7142857142857,150.2477349943375L428.57142857142856,153.7895259252257L446.42857142857144,158.6697377459894L464.2857142857143,159.2476769120801L482.14285714285717,158.30873484415667L500,156.37232940385854" style="fill: none; stroke: #b2df8a; stroke-width: 1;"></path></g></g><path class="foreground" d="" style="display: none; fill: none;"></path></g><g transform="translate(0,0)"><path class="background" d="M0,0h500v300h-500Z" style="fill: none;"></path><g><g class="mark-line role-mark marks"><path d="M17.857142857142858,54.807692307692314L35.714285714285715,34.681372549019585L53.57142857142857,126.21247113163973L71.42857142857143,127.03488372093022L89.28571428571429,153.39135654261707L107.14285714285714,138.66427840327535L125,124.94052339413163L142.85714285714286,134.58380520951303L160.71428571428572,131.5147625160462L178.57142857142858,151.74603174603175L196.42857142857142,154.9585117773019L214.28571428571428,150.46136101499422L232.14285714285714,164.51504049363675L250,164.61483721757696L267.85714285714283,164.63124178712218L285.7142857142857,166.50614287881086L303.57142857142856,170.1533873029399L321.42857142857144,172.19715613891168L339.2857142857143,174.41495052152982L357.14285714285717,170.9736456808199L375,173.16247582205028L392.85714285714283,173.25263692972422L410.7142857142857,173.32372477754103L428.57142857142856,173.82512985406876L446.42857142857144,173.86669933839744L464.2857142857143,173.72510927634772L482.14285714285717,173.6027644230769L500,172.741590395816" style="fill: none; stroke: #33a02c; stroke-width: 1;"></path></g></g><path class="foreground" d="" style="display: none; fill: none;"></path></g><g transform="translate(0,0)"><path class="background" d="M0,0h500v300h-500Z" style="fill: none;"></path><g><g class="mark-line role-mark marks"><path d="M214.28571428571428,128.12499999999997L232.14285714285714,131.8181818181818L250,154.16666666666666L267.85714285714283,106.94980694980694L285.7142857142857,143.75L303.57142857142856,131.74999999999997L321.42857142857144,100.70579494799404L339.2857142857143,102.53960857409135L357.14285714285717,132.0796460176991L375,174.99999999999997L392.85714285714283,12.779973649538878L410.7142857142857,147.3098241590214L428.57142857142856,147.48083242059147L446.42857142857144,140.6322133880482L464.2857142857143,152.29330114665058L482.14285714285717,151.99608443990465L500,138.578360891445" style="fill: none; stroke: #fb9a99; stroke-width: 1;"></path></g></g><path class="foreground" d="" style="display: none; fill: none;"></path></g><g transform="translate(0,0)"><path class="background" d="M0,0h500v300h-500Z" style="fill: none;"></path><g><g class="mark-line role-mark marks"><path d="M232.14285714285714,142.16101694915255L250,117.95302013422817L267.85714285714283,149.07834101382485L285.7142857142857,108.20610687022901L303.57142857142856,138.93034825870646L321.42857142857144,159.31467181467178L339.2857142857143,94.38250428816467L357.14285714285717,133.02919708029194L375,137.72443403590944L392.85714285714283,136.21467227901383L410.7142857142857,143.56356126663607L428.57142857142856,139.6131279794646L446.42857142857144,134.52414975707345L464.2857142857143,126.72171848013815L482.14285714285717,148.48543840523283L500,80.3385583965052" style="fill: none; stroke: #e31a1c; stroke-width: 1;"></path></g></g><path class="foreground" d="" style="display: none; fill: none;"></path></g><g transform="translate(0,0)"><path class="background" d="M0,0h500v300h-500Z" style="fill: none;"></path><g><g class="mark-line role-mark marks"><path d="M267.85714285714283,123.27586206896552L285.7142857142857,142.22560975609753L303.57142857142856,134.54106280193233L321.42857142857144,153.1021897810219L339.2857142857143,150.93167701863354L357.14285714285717,150.5859375L375,174.99999999999997L392.85714285714283,81.59041394335513L410.7142857142857,121.69576059850374L428.57142857142856,174.89073426573427L446.42857142857144,130.67685589519652L464.2857142857143,142.03739522888458L482.14285714285717,131.5051020408163L500,171.49886449659348" style="fill: none; stroke: #fdbf6f; stroke-width: 1;"></path></g></g><path class="foreground" d="" style="display: none; fill: none;"></path></g></g><g class="mark-group role-legend"><g transform="translate(519,0)"><path class="background" d="M0,0h105v96h-105Z" style="pointer-events: none; fill: none;"></path><g><g class="mark-group role-legend-entry"><g transform="translate(0,0)"><path class="background" d="M0,0h0v0h0Z" style="pointer-events: none; fill: none;"></path><g><g class="mark-group role-scope"><g transform="translate(0,0)"><path class="background" d="M0,0h104.22390747070312v12h-104.22390747070312Z" style="pointer-events: none; fill: none; opacity: 1;"></path><g><g class="mark-symbol role-legend-symbol" style="pointer-events: none;"><path transform="translate(6,6)" d="M3.5355339059327378,0A3.5355339059327378,3.5355339059327378,0,1,1,-3.5355339059327378,0A3.5355339059327378,3.5355339059327378,0,1,1,3.5355339059327378,0" style="fill: none; stroke: #a6cee3; stroke-width: 1; opacity: 1;"></path></g><g class="mark-text role-legend-label" style="pointer-events: none;"><text text-anchor="start" transform="translate(16,10)" style="font-family: Avenir; font-size: 12px; fill: #000; opacity: 1;">France</text></g></g><path class="foreground" d="" style="pointer-events: none; display: none; fill: none;"></path></g><g transform="translate(0,14)"><path class="background" d="M0,0h104.22390747070312v12h-104.22390747070312Z" style="pointer-events: none; fill: none; opacity: 1;"></path><g><g class="mark-symbol role-legend-symbol" style="pointer-events: none;"><path transform="translate(6,6)" d="M3.5355339059327378,0A3.5355339059327378,3.5355339059327378,0,1,1,-3.5355339059327378,0A3.5355339059327378,3.5355339059327378,0,1,1,3.5355339059327378,0" style="fill: none; stroke: #1f78b4; stroke-width: 1; opacity: 1;"></path></g><g class="mark-text role-legend-label" style="pointer-events: none;"><text text-anchor="start" transform="translate(16,10)" style="font-family: Avenir; font-size: 12px; fill: #000; opacity: 1;">Germany</text></g></g><path class="foreground" d="" style="pointer-events: none; display: none; fill: none;"></path></g><g transform="translate(0,28)"><path class="background" d="M0,0h104.22390747070312v12h-104.22390747070312Z" style="pointer-events: none; fill: none; opacity: 1;"></path><g><g class="mark-symbol role-legend-symbol" style="pointer-events: none;"><path transform="translate(6,6)" d="M3.5355339059327378,0A3.5355339059327378,3.5355339059327378,0,1,1,-3.5355339059327378,0A3.5355339059327378,3.5355339059327378,0,1,1,3.5355339059327378,0" style="fill: none; stroke: #b2df8a; stroke-width: 1; opacity: 1;"></path></g><g class="mark-text role-legend-label" style="pointer-events: none;"><text text-anchor="start" transform="translate(16,10)" style="font-family: Avenir; font-size: 12px; fill: #000; opacity: 1;">Italy</text></g></g><path class="foreground" d="" style="pointer-events: none; display: none; fill: none;"></path></g><g transform="translate(0,42)"><path class="background" d="M0,0h104.22390747070312v12h-104.22390747070312Z" style="pointer-events: none; fill: none; opacity: 1;"></path><g><g class="mark-symbol role-legend-symbol" style="pointer-events: none;"><path transform="translate(6,6)" d="M3.5355339059327378,0A3.5355339059327378,3.5355339059327378,0,1,1,-3.5355339059327378,0A3.5355339059327378,3.5355339059327378,0,1,1,3.5355339059327378,0" style="fill: none; stroke: #33a02c; stroke-width: 1; opacity: 1;"></path></g><g class="mark-text role-legend-label" style="pointer-events: none;"><text text-anchor="start" transform="translate(16,10)" style="font-family: Avenir; font-size: 12px; fill: #000; opacity: 1;">Korea, South</text></g></g><path class="foreground" d="" style="pointer-events: none; display: none; fill: none;"></path></g><g transform="translate(0,56)"><path class="background" d="M0,0h104.22390747070312v12h-104.22390747070312Z" style="pointer-events: none; fill: none; opacity: 1;"></path><g><g class="mark-symbol role-legend-symbol" style="pointer-events: none;"><path transform="translate(6,6)" d="M3.5355339059327378,0A3.5355339059327378,3.5355339059327378,0,1,1,-3.5355339059327378,0A3.5355339059327378,3.5355339059327378,0,1,1,3.5355339059327378,0" style="fill: none; stroke: #fb9a99; stroke-width: 1; opacity: 1;"></path></g><g class="mark-text role-legend-label" style="pointer-events: none;"><text text-anchor="start" transform="translate(16,10)" style="font-family: Avenir; font-size: 12px; fill: #000; opacity: 1;">Spain</text></g></g><path class="foreground" d="" style="pointer-events: none; display: none; fill: none;"></path></g><g transform="translate(0,70)"><path class="background" d="M0,0h104.22390747070312v12h-104.22390747070312Z" style="pointer-events: none; fill: none; opacity: 1;"></path><g><g class="mark-symbol role-legend-symbol" style="pointer-events: none;"><path transform="translate(6,6)" d="M3.5355339059327378,0A3.5355339059327378,3.5355339059327378,0,1,1,-3.5355339059327378,0A3.5355339059327378,3.5355339059327378,0,1,1,3.5355339059327378,0" style="fill: none; stroke: #e31a1c; stroke-width: 1; opacity: 1;"></path></g><g class="mark-text role-legend-label" style="pointer-events: none;"><text text-anchor="start" transform="translate(16,10)" style="font-family: Avenir; font-size: 12px; fill: #000; opacity: 1;">US</text></g></g><path class="foreground" d="" style="pointer-events: none; display: none; fill: none;"></path></g><g transform="translate(0,84)"><path class="background" d="M0,0h104.22390747070312v12h-104.22390747070312Z" style="pointer-events: none; fill: none; opacity: 1;"></path><g><g class="mark-symbol role-legend-symbol" style="pointer-events: none;"><path transform="translate(6,6)" d="M3.5355339059327378,0A3.5355339059327378,3.5355339059327378,0,1,1,-3.5355339059327378,0A3.5355339059327378,3.5355339059327378,0,1,1,3.5355339059327378,0" style="fill: none; stroke: #fdbf6f; stroke-width: 1; opacity: 1;"></path></g><g class="mark-text role-legend-label" style="pointer-events: none;"><text text-anchor="start" transform="translate(16,10)" style="font-family: Avenir; font-size: 12px; fill: #000; opacity: 1;">United Kingdom</text></g></g><path class="foreground" d="" style="pointer-events: none; display: none; fill: none;"></path></g></g></g><path class="foreground" d="" style="pointer-events: none; display: none; fill: none;"></path></g></g></g><path class="foreground" d="" style="pointer-events: none; display: none; fill: none;"></path></g></g><g class="mark-group role-title"><g transform="translate(-43.899993896484375,-55)"><path class="background" d="M0,0h0v0h0Z" style="pointer-events: none; fill: none;"></path><g><g class="mark-text role-title-text" style="pointer-events: none;"><text text-anchor="start" transform="translate(0,16)" style="font-family: Avenir; font-size: 20px; font-weight: 300; fill: #4d4d4d; opacity: 1;">Growth rates of COVID-19 cases across countries</text></g></g><path class="foreground" d="" style="pointer-events: none; display: none; fill: none;"></path></g></g><g class="mark-group role-axis"><g transform="translate(0.5,300.5)"><path class="background" d="M0,0h0v0h0Z" style="pointer-events: none; fill: none;"></path><g><g class="mark-rule role-axis-tick" style="pointer-events: none;"><line transform="translate(18,0)" x2="0" y2="5" style="fill: none; stroke: #DEDDDD; stroke-width: 1; opacity: 1;"></line><line transform="translate(54,0)" x2="0" y2="5" style="fill: none; stroke: #DEDDDD; stroke-width: 1; opacity: 1;"></line><line transform="translate(89,0)" x2="0" y2="5" style="fill: none; stroke: #DEDDDD; stroke-width: 1; opacity: 1;"></line><line transform="translate(125,0)" x2="0" y2="5" style="fill: none; stroke: #DEDDDD; stroke-width: 1; opacity: 1;"></line><line transform="translate(161,0)" x2="0" y2="5" style="fill: none; stroke: #DEDDDD; stroke-width: 1; opacity: 1;"></line><line transform="translate(179,0)" x2="0" y2="5" style="fill: none; stroke: #DEDDDD; stroke-width: 1; opacity: 1;"></line><line transform="translate(214,0)" x2="0" y2="5" style="fill: none; stroke: #DEDDDD; stroke-width: 1; opacity: 1;"></line><line transform="translate(250,0)" x2="0" y2="5" style="fill: none; stroke: #DEDDDD; stroke-width: 1; opacity: 1;"></line><line transform="translate(286,0)" x2="0" y2="5" style="fill: none; stroke: #DEDDDD; stroke-width: 1; opacity: 1;"></line><line transform="translate(321,0)" x2="0" y2="5" style="fill: none; stroke: #DEDDDD; stroke-width: 1; opacity: 1;"></line><line transform="translate(357,0)" x2="0" y2="5" style="fill: none; stroke: #DEDDDD; stroke-width: 1; opacity: 1;"></line><line transform="translate(393,0)" x2="0" y2="5" style="fill: none; stroke: #DEDDDD; stroke-width: 1; opacity: 1;"></line><line transform="translate(429,0)" x2="0" y2="5" style="fill: none; stroke: #DEDDDD; stroke-width: 1; opacity: 1;"></line><line transform="translate(464,0)" x2="0" y2="5" style="fill: none; stroke: #DEDDDD; stroke-width: 1; opacity: 1;"></line><line transform="translate(500,0)" x2="0" y2="5" style="fill: none; stroke: #DEDDDD; stroke-width: 1; opacity: 1;"></line></g><g class="mark-text role-axis-label" style="pointer-events: none;"><text text-anchor="middle" transform="translate(17.857142857142858,15)" style="font-family: Avenir; font-size: 10px; fill: #000; opacity: 1;">Fri 21</text><text text-anchor="middle" transform="translate(53.57142857142857,15)" style="font-family: Avenir; font-size: 10px; fill: #000; opacity: 0;">Feb 23</text><text text-anchor="middle" transform="translate(89.28571428571429,15)" style="font-family: Avenir; font-size: 10px; fill: #000; opacity: 1;">Tue 25</text><text text-anchor="middle" transform="translate(125,15)" style="font-family: Avenir; font-size: 10px; fill: #000; opacity: 0;">Thu 27</text><text text-anchor="middle" transform="translate(160.71428571428572,15)" style="font-family: Avenir; font-size: 10px; fill: #000; opacity: 1;">Sat 29</text><text text-anchor="middle" transform="translate(178.57142857142858,15)" style="font-family: Avenir; font-size: 10px; fill: #000; opacity: 0;">March</text><text text-anchor="middle" transform="translate(214.28571428571428,15)" style="font-family: Avenir; font-size: 10px; fill: #000; opacity: 1;">Tue 03</text><text text-anchor="middle" transform="translate(250,15)" style="font-family: Avenir; font-size: 10px; fill: #000; opacity: 0;">Thu 05</text><text text-anchor="middle" transform="translate(285.7142857142857,15)" style="font-family: Avenir; font-size: 10px; fill: #000; opacity: 1;">Sat 07</text><text text-anchor="middle" transform="translate(321.42857142857144,15)" style="font-family: Avenir; font-size: 10px; fill: #000; opacity: 0;">Mon 09</text><text text-anchor="middle" transform="translate(357.14285714285717,15)" style="font-family: Avenir; font-size: 10px; fill: #000; opacity: 1;">Wed 11</text><text text-anchor="middle" transform="translate(392.85714285714283,15)" style="font-family: Avenir; font-size: 10px; fill: #000; opacity: 0;">Fri 13</text><text text-anchor="middle" transform="translate(428.57142857142856,15)" style="font-family: Avenir; font-size: 10px; fill: #000; opacity: 1;">Mar 15</text><text text-anchor="middle" transform="translate(464.2857142857143,15)" style="font-family: Avenir; font-size: 10px; fill: #000; opacity: 0;">Tue 17</text><text text-anchor="middle" transform="translate(500,15)" style="font-family: Avenir; font-size: 10px; fill: #000; opacity: 1;">Thu 19</text></g><g class="mark-rule role-axis-domain" style="pointer-events: none;"><line transform="translate(0,0)" x2="500" y2="0" style="fill: none; stroke: #DEDDDD; stroke-width: 1; stroke-dashoffset: 10; opacity: 1;"></line></g><g class="mark-text role-axis-title" style="pointer-events: none;"><text text-anchor="middle" transform="translate(250,36)" style="font-family: Avenir; font-size: 12px; font-weight: 400; fill: #000; opacity: 1;">Days since 100th case</text></g></g><path class="foreground" d="" style="pointer-events: none; display: none; fill: none;"></path></g></g><g class="mark-group role-axis"><g transform="translate(0.5,0.5)"><path class="background" d="M0,0h0v0h0Z" style="pointer-events: none; fill: none;"></path><g><g class="mark-rule role-axis-tick" style="pointer-events: none;"><line transform="translate(0,300)" x2="-5" y2="0" style="fill: none; stroke: #888; stroke-width: 1; opacity: 1;"></line><line transform="translate(0,275)" x2="-5" y2="0" style="fill: none; stroke: #888; stroke-width: 1; opacity: 1;"></line><line transform="translate(0,250)" x2="-5" y2="0" style="fill: none; stroke: #888; stroke-width: 1; opacity: 1;"></line><line transform="translate(0,225)" x2="-5" y2="0" style="fill: none; stroke: #888; stroke-width: 1; opacity: 1;"></line><line transform="translate(0,200)" x2="-5" y2="0" style="fill: none; stroke: #888; stroke-width: 1; opacity: 1;"></line><line transform="translate(0,175)" x2="-5" y2="0" style="fill: none; stroke: #888; stroke-width: 1; opacity: 1;"></line><line transform="translate(0,150)" x2="-5" y2="0" style="fill: none; stroke: #888; stroke-width: 1; opacity: 1;"></line><line transform="translate(0,125)" x2="-5" y2="0" style="fill: none; stroke: #888; stroke-width: 1; opacity: 1;"></line><line transform="translate(0,100)" x2="-5" y2="0" style="fill: none; stroke: #888; stroke-width: 1; opacity: 1;"></line><line transform="translate(0,75)" x2="-5" y2="0" style="fill: none; stroke: #888; stroke-width: 1; opacity: 1;"></line><line transform="translate(0,50)" x2="-5" y2="0" style="fill: none; stroke: #888; stroke-width: 1; opacity: 1;"></line><line transform="translate(0,25)" x2="-5" y2="0" style="fill: none; stroke: #888; stroke-width: 1; opacity: 1;"></line><line transform="translate(0,0)" x2="-5" y2="0" style="fill: none; stroke: #888; stroke-width: 1; opacity: 1;"></line></g><g class="mark-text role-axis-label" style="pointer-events: none;"><text text-anchor="end" transform="translate(-7,303)" style="font-family: Avenir; font-size: 10px; fill: #000; opacity: 1;">0.0</text><text text-anchor="end" transform="translate(-7,278)" style="font-family: Avenir; font-size: 10px; fill: #000; opacity: 1;">0.2</text><text text-anchor="end" transform="translate(-7,252.99999999999997)" style="font-family: Avenir; font-size: 10px; fill: #000; opacity: 1;">0.4</text><text text-anchor="end" transform="translate(-7,228)" style="font-family: Avenir; font-size: 10px; fill: #000; opacity: 1;">0.6</text><text text-anchor="end" transform="translate(-7,203)" style="font-family: Avenir; font-size: 10px; fill: #000; opacity: 1;">0.8</text><text text-anchor="end" transform="translate(-7,177.99999999999997)" style="font-family: Avenir; font-size: 10px; fill: #000; opacity: 1;">1.0</text><text text-anchor="end" transform="translate(-7,153)" style="font-family: Avenir; font-size: 10px; fill: #000; opacity: 1;">1.2</text><text text-anchor="end" transform="translate(-7,127.99999999999999)" style="font-family: Avenir; font-size: 10px; fill: #000; opacity: 1;">1.4</text><text text-anchor="end" transform="translate(-7,102.99999999999997)" style="font-family: Avenir; font-size: 10px; fill: #000; opacity: 1;">1.6</text><text text-anchor="end" transform="translate(-7,78)" style="font-family: Avenir; font-size: 10px; fill: #000; opacity: 1;">1.8</text><text text-anchor="end" transform="translate(-7,52.999999999999986)" style="font-family: Avenir; font-size: 10px; fill: #000; opacity: 1;">2.0</text><text text-anchor="end" transform="translate(-7,27.99999999999998)" style="font-family: Avenir; font-size: 10px; fill: #000; opacity: 1;">2.2</text><text text-anchor="end" transform="translate(-7,3)" style="font-family: Avenir; font-size: 10px; fill: #000; opacity: 1;">2.4</text></g><g class="mark-text role-axis-title" style="pointer-events: none;"><text text-anchor="middle" transform="translate(-30.899993896484375,150) rotate(-90) translate(0,-3)" style="font-family: Avenir; font-size: 12px; font-weight: 400; fill: #000; opacity: 1;">Growth rate compared to previous day</text></g></g><path class="foreground" d="" style="pointer-events: none; display: none; fill: none;"></path></g></g></g><path class="foreground" d="" style="display: none; fill: none;"></path></g></g></g></svg>