<svg class="marks" width="1017" height="672" viewBox="0 0 678 448" version="1.1" xmlns="http://www.w3.org/2000/svg" xmlns:xlink="http://www.w3.org/1999/xlink"><g transform="translate(49,105)"><g class="mark-group role-frame root"><g transform="translate(0,0)"><path class="background" d="M0,0h500v300h-500Z" style="fill: none; stroke: #ddd; stroke-width: 0;"></path><g><g class="mark-group role-axis"><g transform="translate(0.5,0.5)"><path class="background" d="M0,0h0v0h0Z" style="pointer-events: none; fill: none;"></path><g><g class="mark-rule role-axis-grid" style="pointer-events: none;"><line transform="translate(0,300)" x2="500" y2="0" style="fill: none; stroke: #DEDDDD; stroke-width: 1; stroke-dasharray: 5,2; opacity: 1;"></line><line transform="translate(0,275)" x2="500" y2="0" style="fill: none; stroke: #DEDDDD; stroke-width: 1; stroke-dasharray: 5,2; opacity: 1;"></line><line transform="translate(0,250)" x2="500" y2="0" style="fill: none; stroke: #DEDDDD; stroke-width: 1; stroke-dasharray: 5,2; opacity: 1;"></line><line transform="translate(0,225)" x2="500" y2="0" style="fill: none; stroke: #DEDDDD; stroke-width: 1; stroke-dasharray: 5,2; opacity: 1;"></line><line transform="translate(0,200)" x2="500" y2="0" style="fill: none; stroke: #DEDDDD; stroke-width: 1; stroke-dasharray: 5,2; opacity: 1;"></line><line transform="translate(0,175)" x2="500" y2="0" style="fill: none; stroke: #DEDDDD; stroke-width: 1; stroke-dasharray: 5,2; opacity: 1;"></line><line transform="translate(0,150)" x2="500" y2="0" style="fill: none; stroke: #DEDDDD; stroke-width: 1; stroke-dasharray: 5,2; opacity: 1;"></line><line transform="translate(0,125)" x2="500" y2="0" style="fill: none; stroke: #DEDDDD; stroke-width: 1; stroke-dasharray: 5,2; opacity: 1;"></line><line transform="translate(0,100)" x2="500" y2="0" style="fill: none; stroke: #DEDDDD; stroke-width: 1; stroke-dasharray: 5,2; opacity: 1;"></line><line transform="translate(0,75)" x2="500" y2="0" style="fill: none; stroke: #DEDDDD; stroke-width: 1; stroke-dasharray: 5,2; opacity: 1;"></line><line transform="translate(0,50)" x2="500" y2="0" style="fill: none; stroke: #DEDDDD; stroke-width: 1; stroke-dasharray: 5,2; opacity: 1;"></line><line transform="translate(0,25)" x2="500" y2="0" style="fill: none; stroke: #DEDDDD; stroke-width: 1; stroke-dasharray: 5,2; opacity: 1;"></line><line transform="translate(0,0)" x2="500" y2="0" style="fill: none; stroke: #DEDDDD; stroke-width: 1; stroke-dasharray: 5,2; opacity: 1;"></line></g></g><path class="foreground" d="" style="pointer-events: none; display: none; fill: none;"></path></g></g><g class="mark-group role-scope pathgroup"><g transform="translate(0,0)"><path class="background" d="M0,0h500v300h-500Z" style="fill: none;"></path><g><g class="mark-line role-mark marks"><path d="M116.39185257032007,137.49999999999997L128.0310378273521,116.34615384615384L139.6702230843841,166.49214659685865L151.3094083414161,123.52941176470587L162.9485935984481,135.06944444444446L174.58777885548014,84.21052631578947L186.22696411251212,117.26371951219512L197.86614936954413,151.92909280500518L209.50533462657614,165.8670774647887L221.14451988360815,116.03773584905662L232.78370514064014,140.2313266443701L244.42289039767218,174.99999999999997L256.0620756547042,99.33493240296555L267.7012609117362,147.32409671284978L279.3404461687682,173.99911032028473L290.97963142580016,115.67188879082083L302.6188166828322,155.69729163549303L314.2580019398642,152.17109526895655L325.8971871968962,149.70955721174923L337.5363724539282,154.62625341841385L349.1755577109603,158.29479542248L360.8147429679923,159.6159164765263L372.45392822502424,145.14098380840977L384.09311348205625,159.47671818317346L395.73229873908826,158.54477941826542L407.3714839961203,155.7080078125L419.0106692531523,158.71036513146763L430.6498545101843,157.40000598766542L442.2890397672163,166.46109434457418L453.443258971872,161.29876191412006L465.08244422890397,153.81060438344034L476.721629485936,163.35349347871355L488.360814742968,170.28130357235622L500,164.00156852275194" style="fill: none; stroke: #a6cee3; stroke-width: 1;"></path></g></g><path class="foreground" d="" style="display: none; fill: none;"></path></g><g transform="translate(0,0)"><path class="background" d="M0,0h500v300h-500Z" style="fill: none;"></path><g><g class="mark-line role-mark marks"><path d="M128.0310378273521,147.11538461538458L139.6702230843841,145.9119496855346L151.3094083414161,132.90816326530611L162.9485935984481,70.0381679389313L174.58777885548014,126.24481327800828L186.22696411251212,150.93283582089552L197.86614936954413,137.29662077596996L209.50533462657614,158.65384615384616L221.14451988360815,145.1318027210884L232.78370514064014,136.30748112560056L244.42289039767218,163.86268343815516L256.0620756547042,78.93407122232917L267.7012609117362,144.04761904761904L279.3404461687682,142.01199563794984L290.97963142580016,143.1406384814495L302.6188166828322,140.87940044004398L314.2580019398642,133.54488495192828L325.8971871968962,144.6499553824937L337.5363724539282,138.05483028720627L349.1755577109603,160.1055521966949L360.8147429679923,160.03128798451354L372.45392822502424,153.97820930326057L384.09311348205625,158.09299284140968L395.73229873908826,158.56499727156975L407.3714839961203,152.8454304316373L419.0106692531523,155.27618462378805L430.6498545101843,158.23209687248135L442.2890397672163,165.46711153479504L453.443258971872,165.3575167082696L465.08244422890397,165.79950661583314L476.721629485936,164.44407308377896L488.360814742968,163.88881754674335L500,165.61696582305353" style="fill: none; stroke: #1f78b4; stroke-width: 1;"></path></g></g><path class="foreground" d="" style="display: none; fill: none;"></path></g><g transform="translate(0,0)"><path class="background" d="M0,0h500v300h-500Z" style="fill: none;"></path><g><g class="mark-line role-mark marks"><path d="M46.55674102812803,115.32258064516125L58.195926285160034,124.235807860262L69.83511154219205,124.14596273291927L81.47429679922405,119.2604856512141L93.11348205625606,130.5343511450382L104.75266731328807,141.2162162162162L116.39185257032007,112.27836879432623L128.0310378273521,149.7638724911452L139.6702230843841,146.38998035363457L151.3094083414161,145.67346123101518L162.9485935984481,143.88151505341534L174.58777885548014,149.7926386728875L186.22696411251212,141.37726488352024L197.86614936954413,143.2984871664117L209.50533462657614,144.54237288135593L221.14451988360815,161.68501962494548L232.78370514064014,146.51197162282L244.42289039767218,174.99999999999997L256.0620756547042,122.86149895682875L267.7012609117362,150.2477349943375L279.3404461687682,153.7895259252257L290.97963142580016,158.6697377459894L302.6188166828322,159.2476769120801L314.2580019398642,158.30873484415667L325.8971871968962,156.37232940385854L337.5363724539282,156.76556598026076L349.1755577109603,157.5689585504349L360.8147429679923,162.02825786703497L372.45392822502424,164.87748993878722L384.09311348205625,164.73633988768438L395.73229873908826,165.5856077252226L407.3714839961203,164.57633156776814L419.0106692531523,165.83466726228144L430.6498545101843,166.36685241277254L442.2890397672163,167.94786529976642L453.443258971872,169.81773792340996L465.08244422890397,170.02034617993098L476.721629485936,169.34976179673322L488.360814742968,169.72299093819524L500,170.0267697540827" style="fill: none; stroke: #b2df8a; stroke-width: 1;"></path></g></g><path class="foreground" d="" style="display: none; fill: none;"></path></g><g transform="translate(0,0)"><path class="background" d="M0,0h500v300h-500Z" style="fill: none;"></path><g><g class="mark-line role-mark marks"><path d="M11.639185257032008,54.807692307692314L23.278370514064015,34.681372549019585L34.917555771096026,126.21247113163973L46.55674102812803,127.03488372093022L58.195926285160034,153.39135654261707L69.83511154219205,138.66427840327535L81.47429679922405,124.94052339413163L93.11348205625606,134.58380520951303L104.75266731328807,131.5147625160462L116.39185257032007,151.74603174603175L128.0310378273521,154.9585117773019L139.6702230843841,150.46136101499422L151.3094083414161,164.51504049363675L162.9485935984481,164.61483721757696L174.58777885548014,164.63124178712218L186.22696411251212,166.50614287881086L197.86614936954413,170.1533873029399L209.50533462657614,172.19715613891168L221.14451988360815,174.41495052152982L232.78370514064014,170.9736456808199L244.42289039767218,173.16247582205028L256.0620756547042,173.25263692972422L267.7012609117362,173.32372477754103L279.3404461687682,173.82512985406876L290.97963142580016,173.86669933839744L302.6188166828322,173.72510927634772L314.2580019398642,173.6027644230769L325.8971871968962,172.741590395816L337.5363724539282,173.73029772329247L349.1755577109603,172.87621359223297L360.8147429679923,172.69860211387658L372.45392822502424,174.99999999999997L384.09311348205625,173.93985046311795L395.73229873908826,173.61679760982628L407.3714839961203,173.577213527416L419.0106692531523,173.76907261118927L430.6498545101843,173.0443634804972L442.2890397672163,173.6152141802068L453.443258971872,173.98257330689762L465.08244422890397,173.38267260118L476.721629485936,173.7098916819947L488.360814742968,173.87478507130575L500,173.92241379310343" style="fill: none; stroke: #33a02c; stroke-width: 1;"></path></g></g><path class="foreground" d="" style="display: none; fill: none;"></path></g><g transform="translate(0,0)"><path class="background" d="M0,0h500v300h-500Z" style="fill: none;"></path><g><g class="mark-line role-mark marks"><path d="M139.6702230843841,128.12499999999997L151.3094083414161,131.8181818181818L162.9485935984481,154.16666666666666L174.58777885548014,106.94980694980694L186.22696411251212,143.75L197.86614936954413,131.74999999999997L209.50533462657614,100.70579494799404L221.14451988360815,102.53960857409135L232.78370514064014,132.0796460176991L244.42289039767218,174.99999999999997L256.0620756547042,12.779973649538878L267.7012609117362,147.3098241590214L279.3404461687682,147.48083242059147L290.97963142580016,140.6322133880482L302.6188166828322,152.29330114665058L314.2580019398642,151.99608443990465L325.8971871968962,138.578360891445L337.5363724539282,157.97194232589212L349.1755577109603,144.59823615874572L360.8147429679923,158.280129266178L372.45392822502424,147.33036707452723L384.09311348205625,158.1049351092896L395.73229873908826,144.81948100789768L407.3714839961203,154.11996364737956L419.0106692531523,157.83970165784095L430.6498545101843,160.70428643162552L442.2890397672163,163.2655151225507L453.443258971872,162.75745849456996L465.08244422890397,163.67757742507615L476.721629485936,164.3208615243476L488.360814742968,165.45914251138132L500,167.04256458305449" style="fill: none; stroke: #fb9a99; stroke-width: 1;"></path></g></g><path class="foreground" d="" style="display: none; fill: none;"></path></g><g transform="translate(0,0)"><path class="background" d="M0,0h500v300h-500Z" style="fill: none;"></path><g><g class="mark-line role-mark marks"><path d="M151.3094083414161,142.16101694915255L162.9485935984481,117.95302013422817L174.58777885548014,149.07834101382485L186.22696411251212,108.20610687022901L197.86614936954413,138.93034825870646L209.50533462657614,159.31467181467178L221.14451988360815,94.38250428816467L232.78370514064014,133.02919708029194L244.42289039767218,137.72443403590944L256.0620756547042,136.21467227901383L267.7012609117362,143.56356126663607L279.3404461687682,139.6131279794646L290.97963142580016,134.52414975707345L302.6188166828322,126.72171848013815L314.2580019398642,148.48543840523283L325.8971871968962,80.3385583965052L337.5363724539282,125.43686480953427L349.1755577109603,133.1871727748691L360.8147429679923,136.81195809957237L372.45392822502424,135.29044957326602L384.09311348205625,146.79681620179258L395.73229873908826,146.99944175660588L407.3714839961203,140.68381525738087L419.0106692531523,148.42877761343573L430.6498545101843,150.62760065711163L442.2890397672163,155.02930571790776L453.443258971872,156.4380066152776L465.08244422890397,154.63237066381555L476.721629485936,158.2599961737134L488.360814742968,157.37760812102803L500,158.5014355953716" style="fill: none; stroke: #e31a1c; stroke-width: 1;"></path></g></g><path class="foreground" d="" style="display: none; fill: none;"></path></g><g transform="translate(0,0)"><path class="background" d="M0,0h500v300h-500Z" style="fill: none;"></path><g><g class="mark-line role-mark marks"><path d="M174.58777885548014,123.27586206896552L186.22696411251212,142.22560975609753L197.86614936954413,134.54106280193233L209.50533462657614,153.1021897810219L221.14451988360815,150.93167701863354L232.78370514064014,150.5859375L244.42289039767218,174.99999999999997L256.0620756547042,81.59041394335513L267.7012609117362,121.69576059850374L279.3404461687682,174.89073426573427L290.97963142580016,130.67685589519652L302.6188166828322,142.03739522888458L314.2580019398642,131.5051020408163L325.8971871968962,171.49886449659348L337.5363724539282,115.26141384388806L349.1755577109603,142.2085201793722L360.8147429679923,158.27412670219064L372.45392822502424,153.65535248041775L384.09311348205625,148.2753493904252L395.73229873908826,152.40078392944636L407.3714839961203,146.83609958506221L419.0106692531523,143.96164917033525L430.6498545101843,153.23838589352323L442.2890397672163,157.17999075785582L453.443258971872,158.10793731041457L465.08244422890397,158.14256446799982L476.721629485936,153.4937796789765L488.360814742968,156.96885986941237L500,158.48111081848242" style="fill: none; stroke: #fdbf6f; stroke-width: 1;"></path></g></g><path class="foreground" d="" style="display: none; fill: none;"></path></g></g><g class="mark-group role-legend"><g transform="translate(519,0)"><path class="background" d="M0,0h105v96h-105Z" style="pointer-events: none; fill: none;"></path><g><g class="mark-group role-legend-entry"><g transform="translate(0,0)"><path class="background" d="M0,0h0v0h0Z" style="pointer-events: none; fill: none;"></path><g><g class="mark-group role-scope"><g transform="translate(0,0)"><path class="background" d="M0,0h104.22390747070312v12h-104.22390747070312Z" style="pointer-events: none; fill: none; opacity: 1;"></path><g><g class="mark-symbol role-legend-symbol" style="pointer-events: none;"><path transform="translate(6,6)" d="M3.5355339059327378,0A3.5355339059327378,3.5355339059327378,0,1,1,-3.5355339059327378,0A3.5355339059327378,3.5355339059327378,0,1,1,3.5355339059327378,0" style="fill: none; stroke: #a6cee3; stroke-width: 1; opacity: 1;"></path></g><g class="mark-text role-legend-label" style="pointer-events: none;"><text text-anchor="start" transform="translate(16,10)" style="font-family: Avenir; font-size: 12px; fill: #000; opacity: 1;">France</text></g></g><path class="foreground" d="" style="pointer-events: none; display: none; fill: none;"></path></g><g transform="translate(0,14)"><path class="background" d="M0,0h104.22390747070312v12h-104.22390747070312Z" style="pointer-events: none; fill: none; opacity: 1;"></path><g><g class="mark-symbol role-legend-symbol" style="pointer-events: none;"><path transform="translate(6,6)" d="M3.5355339059327378,0A3.5355339059327378,3.5355339059327378,0,1,1,-3.5355339059327378,0A3.5355339059327378,3.5355339059327378,0,1,1,3.5355339059327378,0" style="fill: none; stroke: #1f78b4; stroke-width: 1; opacity: 1;"></path></g><g class="mark-text role-legend-label" style="pointer-events: none;"><text text-anchor="start" transform="translate(16,10)" style="font-family: Avenir; font-size: 12px; fill: #000; opacity: 1;">Germany</text></g></g><path class="foreground" d="" style="pointer-events: none; display: none; fill: none;"></path></g><g transform="translate(0,28)"><path class="background" d="M0,0h104.22390747070312v12h-104.22390747070312Z" style="pointer-events: none; fill: none; opacity: 1;"></path><g><g class="mark-symbol role-legend-symbol" style="pointer-events: none;"><path transform="translate(6,6)" d="M3.5355339059327378,0A3.5355339059327378,3.5355339059327378,0,1,1,-3.5355339059327378,0A3.5355339059327378,3.5355339059327378,0,1,1,3.5355339059327378,0" style="fill: none; stroke: #b2df8a; stroke-width: 1; opacity: 1;"></path></g><g class="mark-text role-legend-label" style="pointer-events: none;"><text text-anchor="start" transform="translate(16,10)" style="font-family: Avenir; font-size: 12px; fill: #000; opacity: 1;">Italy</text></g></g><path class="foreground" d="" style="pointer-events: none; display: none; fill: none;"></path></g><g transform="translate(0,42)"><path class="background" d="M0,0h104.22390747070312v12h-104.22390747070312Z" style="pointer-events: none; fill: none; opacity: 1;"></path><g><g class="mark-symbol role-legend-symbol" style="pointer-events: none;"><path transform="translate(6,6)" d="M3.5355339059327378,0A3.5355339059327378,3.5355339059327378,0,1,1,-3.5355339059327378,0A3.5355339059327378,3.5355339059327378,0,1,1,3.5355339059327378,0" style="fill: none; stroke: #33a02c; stroke-width: 1; opacity: 1;"></path></g><g class="mark-text role-legend-label" style="pointer-events: none;"><text text-anchor="start" transform="translate(16,10)" style="font-family: Avenir; font-size: 12px; fill: #000; opacity: 1;">Korea, South</text></g></g><path class="foreground" d="" style="pointer-events: none; display: none; fill: none;"></path></g><g transform="translate(0,56)"><path class="background" d="M0,0h104.22390747070312v12h-104.22390747070312Z" style="pointer-events: none; fill: none; opacity: 1;"></path><g><g class="mark-symbol role-legend-symbol" style="pointer-events: none;"><path transform="translate(6,6)" d="M3.5355339059327378,0A3.5355339059327378,3.5355339059327378,0,1,1,-3.5355339059327378,0A3.5355339059327378,3.5355339059327378,0,1,1,3.5355339059327378,0" style="fill: none; stroke: #fb9a99; stroke-width: 1; opacity: 1;"></path></g><g class="mark-text role-legend-label" style="pointer-events: none;"><text text-anchor="start" transform="translate(16,10)" style="font-family: Avenir; font-size: 12px; fill: #000; opacity: 1;">Spain</text></g></g><path class="foreground" d="" style="pointer-events: none; display: none; fill: none;"></path></g><g transform="translate(0,70)"><path class="background" d="M0,0h104.22390747070312v12h-104.22390747070312Z" style="pointer-events: none; fill: none; opacity: 1;"></path><g><g class="mark-symbol role-legend-symbol" style="pointer-events: none;"><path transform="translate(6,6)" d="M3.5355339059327378,0A3.5355339059327378,3.5355339059327378,0,1,1,-3.5355339059327378,0A3.5355339059327378,3.5355339059327378,0,1,1,3.5355339059327378,0" style="fill: none; stroke: #e31a1c; stroke-width: 1; opacity: 1;"></path></g><g class="mark-text role-legend-label" style="pointer-events: none;"><text text-anchor="start" transform="translate(16,10)" style="font-family: Avenir; font-size: 12px; fill: #000; opacity: 1;">US</text></g></g><path class="foreground" d="" style="pointer-events: none; display: none; fill: none;"></path></g><g transform="translate(0,84)"><path class="background" d="M0,0h104.22390747070312v12h-104.22390747070312Z" style="pointer-events: none; fill: none; opacity: 1;"></path><g><g class="mark-symbol role-legend-symbol" style="pointer-events: none;"><path transform="translate(6,6)" d="M3.5355339059327378,0A3.5355339059327378,3.5355339059327378,0,1,1,-3.5355339059327378,0A3.5355339059327378,3.5355339059327378,0,1,1,3.5355339059327378,0" style="fill: none; stroke: #fdbf6f; stroke-width: 1; opacity: 1;"></path></g><g class="mark-text role-legend-label" style="pointer-events: none;"><text text-anchor="start" transform="translate(16,10)" style="font-family: Avenir; font-size: 12px; fill: #000; opacity: 1;">United Kingdom</text></g></g><path class="foreground" d="" style="pointer-events: none; display: none; fill: none;"></path></g></g></g><path class="foreground" d="" style="pointer-events: none; display: none; fill: none;"></path></g></g></g><path class="foreground" d="" style="pointer-events: none; display: none; fill: none;"></path></g></g><g class="mark-group role-title"><g transform="translate(-43.899993896484375,-55)"><path class="background" d="M0,0h0v0h0Z" style="pointer-events: none; fill: none;"></path><g><g class="mark-text role-title-text" style="pointer-events: none;"><text text-anchor="start" transform="translate(0,16)" style="font-family: Avenir; font-size: 20px; font-weight: 300; fill: #4d4d4d; opacity: 1;">Growth rates of COVID-19 cases across countries</text></g></g><path class="foreground" d="" style="pointer-events: none; display: none; fill: none;"></path></g></g><g class="mark-group role-axis"><g transform="translate(0.5,300.5)"><path class="background" d="M0,0h0v0h0Z" style="pointer-events: none; fill: none;"></path><g><g class="mark-rule role-axis-tick" style="pointer-events: none;"><line transform="translate(12,0)" x2="0" y2="5" style="fill: none; stroke: #DEDDDD; stroke-width: 1; opacity: 1;"></line><line transform="translate(35,0)" x2="0" y2="5" style="fill: none; stroke: #DEDDDD; stroke-width: 1; opacity: 1;"></line><line transform="translate(58,0)" x2="0" y2="5" style="fill: none; stroke: #DEDDDD; stroke-width: 1; opacity: 1;"></line><line transform="translate(81,0)" x2="0" y2="5" style="fill: none; stroke: #DEDDDD; stroke-width: 1; opacity: 1;"></line><line transform="translate(105,0)" x2="0" y2="5" style="fill: none; stroke: #DEDDDD; stroke-width: 1; opacity: 1;"></line><line transform="translate(116,0)" x2="0" y2="5" style="fill: none; stroke: #DEDDDD; stroke-width: 1; opacity: 1;"></line><line transform="translate(140,0)" x2="0" y2="5" style="fill: none; stroke: #DEDDDD; stroke-width: 1; opacity: 1;"></line><line transform="translate(163,0)" x2="0" y2="5" style="fill: none; stroke: #DEDDDD; stroke-width: 1; opacity: 1;"></line><line transform="translate(186,0)" x2="0" y2="5" style="fill: none; stroke: #DEDDDD; stroke-width: 1; opacity: 1;"></line><line transform="translate(210,0)" x2="0" y2="5" style="fill: none; stroke: #DEDDDD; stroke-width: 1; opacity: 1;"></line><line transform="translate(233,0)" x2="0" y2="5" style="fill: none; stroke: #DEDDDD; stroke-width: 1; opacity: 1;"></line><line transform="translate(256,0)" x2="0" y2="5" style="fill: none; stroke: #DEDDDD; stroke-width: 1; opacity: 1;"></line><line transform="translate(279,0)" x2="0" y2="5" style="fill: none; stroke: #DEDDDD; stroke-width: 1; opacity: 1;"></line><line transform="translate(303,0)" x2="0" y2="5" style="fill: none; stroke: #DEDDDD; stroke-width: 1; opacity: 1;"></line><line transform="translate(326,0)" x2="0" y2="5" style="fill: none; stroke: #DEDDDD; stroke-width: 1; opacity: 1;"></line><line transform="translate(349,0)" x2="0" y2="5" style="fill: none; stroke: #DEDDDD; stroke-width: 1; opacity: 1;"></line><line transform="translate(372,0)" x2="0" y2="5" style="fill: none; stroke: #DEDDDD; stroke-width: 1; opacity: 1;"></line><line transform="translate(396,0)" x2="0" y2="5" style="fill: none; stroke: #DEDDDD; stroke-width: 1; opacity: 1;"></line><line transform="translate(419,0)" x2="0" y2="5" style="fill: none; stroke: #DEDDDD; stroke-width: 1; opacity: 1;"></line><line transform="translate(442,0)" x2="0" y2="5" style="fill: none; stroke: #DEDDDD; stroke-width: 1; opacity: 1;"></line><line transform="translate(465,0)" x2="0" y2="5" style="fill: none; stroke: #DEDDDD; stroke-width: 1; opacity: 1;"></line><line transform="translate(477,0)" x2="0" y2="5" style="fill: none; stroke: #DEDDDD; stroke-width: 1; opacity: 1;"></line><line transform="translate(500,0)" x2="0" y2="5" style="fill: none; stroke: #DEDDDD; stroke-width: 1; opacity: 1;"></line></g><g class="mark-text role-axis-label" style="pointer-events: none;"><text text-anchor="middle" transform="translate(11.639185257032008,15)" style="font-family: Avenir; font-size: 10px; fill: #000; opacity: 1;">Fri 21</text><text text-anchor="middle" transform="translate(34.917555771096026,15)" style="font-family: Avenir; font-size: 10px; fill: #000; opacity: 0;">Feb 23</text><text text-anchor="middle" transform="translate(58.195926285160034,15)" style="font-family: Avenir; font-size: 10px; fill: #000; opacity: 1;">Tue 25</text><text text-anchor="middle" transform="translate(81.47429679922405,15)" style="font-family: Avenir; font-size: 10px; fill: #000; opacity: 0;">Thu 27</text><text text-anchor="middle" transform="translate(104.75266731328807,15)" style="font-family: Avenir; font-size: 10px; fill: #000; opacity: 1;">Sat 29</text><text text-anchor="middle" transform="translate(116.39185257032007,15)" style="font-family: Avenir; font-size: 10px; fill: #000; opacity: 0;">March</text><text text-anchor="middle" transform="translate(139.6702230843841,15)" style="font-family: Avenir; font-size: 10px; fill: #000; opacity: 1;">Tue 03</text><text text-anchor="middle" transform="translate(162.9485935984481,15)" style="font-family: Avenir; font-size: 10px; fill: #000; opacity: 0;">Thu 05</text><text text-anchor="middle" transform="translate(186.22696411251212,15)" style="font-family: Avenir; font-size: 10px; fill: #000; opacity: 1;">Sat 07</text><text text-anchor="middle" transform="translate(209.50533462657614,15)" style="font-family: Avenir; font-size: 10px; fill: #000; opacity: 0;">Mon 09</text><text text-anchor="middle" transform="translate(232.78370514064014,15)" style="font-family: Avenir; font-size: 10px; fill: #000; opacity: 1;">Wed 11</text><text text-anchor="middle" transform="translate(256.0620756547042,15)" style="font-family: Avenir; font-size: 10px; fill: #000; opacity: 0;">Fri 13</text><text text-anchor="middle" transform="translate(279.3404461687682,15)" style="font-family: Avenir; font-size: 10px; fill: #000; opacity: 1;">Mar 15</text><text text-anchor="middle" transform="translate(302.6188166828322,15)" style="font-family: Avenir; font-size: 10px; fill: #000; opacity: 0;">Tue 17</text><text text-anchor="middle" transform="translate(325.8971871968962,15)" style="font-family: Avenir; font-size: 10px; fill: #000; opacity: 1;">Thu 19</text><text text-anchor="middle" transform="translate(349.1755577109603,15)" style="font-family: Avenir; font-size: 10px; fill: #000; opacity: 0;">Sat 21</text><text text-anchor="middle" transform="translate(372.45392822502424,15)" style="font-family: Avenir; font-size: 10px; fill: #000; opacity: 1;">Mon 23</text><text text-anchor="middle" transform="translate(395.73229873908826,15)" style="font-family: Avenir; font-size: 10px; fill: #000; opacity: 0;">Wed 25</text><text text-anchor="middle" transform="translate(419.0106692531523,15)" style="font-family: Avenir; font-size: 10px; fill: #000; opacity: 1;">Fri 27</text><text text-anchor="middle" transform="translate(442.2890397672163,15)" style="font-family: Avenir; font-size: 10px; fill: #000; opacity: 0;">Mar 29</text><text text-anchor="middle" transform="translate(465.08244422890397,15)" style="font-family: Avenir; font-size: 10px; fill: #000; opacity: 1;">Tue 31</text><text text-anchor="middle" transform="translate(476.721629485936,15)" style="font-family: Avenir; font-size: 10px; fill: #000; opacity: 0;">April</text><text text-anchor="middle" transform="translate(500,15)" style="font-family: Avenir; font-size: 10px; fill: #000; opacity: 1;">Fri 03</text></g><g class="mark-rule role-axis-domain" style="pointer-events: none;"><line transform="translate(0,0)" x2="500" y2="0" style="fill: none; stroke: #DEDDDD; stroke-width: 1; stroke-dashoffset: 10; opacity: 1;"></line></g><g class="mark-text role-axis-title" style="pointer-events: none;"><text text-anchor="middle" transform="translate(250,36)" style="font-family: Avenir; font-size: 12px; font-weight: 400; fill: #000; opacity: 1;">Days since 100th case</text></g></g><path class="foreground" d="" style="pointer-events: none; display: none; fill: none;"></path></g></g><g class="mark-group role-axis"><g transform="translate(0.5,0.5)"><path class="background" d="M0,0h0v0h0Z" style="pointer-events: none; fill: none;"></path><g><g class="mark-rule role-axis-tick" style="pointer-events: none;"><line transform="translate(0,300)" x2="-5" y2="0" style="fill: none; stroke: #888; stroke-width: 1; opacity: 1;"></line><line transform="translate(0,275)" x2="-5" y2="0" style="fill: none; stroke: #888; stroke-width: 1; opacity: 1;"></line><line transform="translate(0,250)" x2="-5" y2="0" style="fill: none; stroke: #888; stroke-width: 1; opacity: 1;"></line><line transform="translate(0,225)" x2="-5" y2="0" style="fill: none; stroke: #888; stroke-width: 1; opacity: 1;"></line><line transform="translate(0,200)" x2="-5" y2="0" style="fill: none; stroke: #888; stroke-width: 1; opacity: 1;"></line><line transform="translate(0,175)" x2="-5" y2="0" style="fill: none; stroke: #888; stroke-width: 1; opacity: 1;"></line><line transform="translate(0,150)" x2="-5" y2="0" style="fill: none; stroke: #888; stroke-width: 1; opacity: 1;"></line><line transform="translate(0,125)" x2="-5" y2="0" style="fill: none; stroke: #888; stroke-width: 1; opacity: 1;"></line><line transform="translate(0,100)" x2="-5" y2="0" style="fill: none; stroke: #888; stroke-width: 1; opacity: 1;"></line><line transform="translate(0,75)" x2="-5" y2="0" style="fill: none; stroke: #888; stroke-width: 1; opacity: 1;"></line><line transform="translate(0,50)" x2="-5" y2="0" style="fill: none; stroke: #888; stroke-width: 1; opacity: 1;"></line><line transform="translate(0,25)" x2="-5" y2="0" style="fill: none; stroke: #888; stroke-width: 1; opacity: 1;"></line><line transform="translate(0,0)" x2="-5" y2="0" style="fill: none; stroke: #888; stroke-width: 1; opacity: 1;"></line></g><g class="mark-text role-axis-label" style="pointer-events: none;"><text text-anchor="end" transform="translate(-7,303)" style="font-family: Avenir; font-size: 10px; fill: #000; opacity: 1;">0.0</text><text text-anchor="end" transform="translate(-7,278)" style="font-family: Avenir; font-size: 10px; fill: #000; opacity: 1;">0.2</text><text text-anchor="end" transform="translate(-7,252.99999999999997)" style="font-family: Avenir; font-size: 10px; fill: #000; opacity: 1;">0.4</text><text text-anchor="end" transform="translate(-7,228)" style="font-family: Avenir; font-size: 10px; fill: #000; opacity: 1;">0.6</text><text text-anchor="end" transform="translate(-7,203)" style="font-family: Avenir; font-size: 10px; fill: #000; opacity: 1;">0.8</text><text text-anchor="end" transform="translate(-7,177.99999999999997)" style="font-family: Avenir; font-size: 10px; fill: #000; opacity: 1;">1.0</text><text text-anchor="end" transform="translate(-7,153)" style="font-family: Avenir; font-size: 10px; fill: #000; opacity: 1;">1.2</text><text text-anchor="end" transform="translate(-7,127.99999999999999)" style="font-family: Avenir; font-size: 10px; fill: #000; opacity: 1;">1.4</text><text text-anchor="end" transform="translate(-7,102.99999999999997)" style="font-family: Avenir; font-size: 10px; fill: #000; opacity: 1;">1.6</text><text text-anchor="end" transform="translate(-7,78)" style="font-family: Avenir; font-size: 10px; fill: #000; opacity: 1;">1.8</text><text text-anchor="end" transform="translate(-7,52.999999999999986)" style="font-family: Avenir; font-size: 10px; fill: #000; opacity: 1;">2.0</text><text text-anchor="end" transform="translate(-7,27.99999999999998)" style="font-family: Avenir; font-size: 10px; fill: #000; opacity: 1;">2.2</text><text text-anchor="end" transform="translate(-7,3)" style="font-family: Avenir; font-size: 10px; fill: #000; opacity: 1;">2.4</text></g><g class="mark-text role-axis-title" style="pointer-events: none;"><text text-anchor="middle" transform="translate(-30.899993896484375,150) rotate(-90) translate(0,-3)" style="font-family: Avenir; font-size: 12px; font-weight: 400; fill: #000; opacity: 1;">Growth rate compared to previous day</text></g></g><path class="foreground" d="" style="pointer-events: none; display: none; fill: none;"></path></g></g></g><path class="foreground" d="" style="display: none; fill: none;"></path></g></g></g></svg>